<?xml version="1.0" encoding="UTF-8" standalone="no"?>
<!DOCTYPE svg PUBLIC "-//W3C//DTD SVG 1.0//EN" "http://www.w3.org/TR/2001/PR-SVG-20010719/DTD/svg10.dtd">
<svg width="12cm" height="12cm" viewBox="-21 -3 223 226" xmlns="http://www.w3.org/2000/svg" xmlns:xlink="http://www.w3.org/1999/xlink">
  <line style="fill: none; fill-opacity:0; stroke-width: 1.2; stroke: #800080" x1="2" y1="198" x2="200" y2="0"/>
  <g>
    <ellipse style="fill: #ffffff" cx="130" cy="70" rx="1" ry="1"/>
    <ellipse style="fill: none; fill-opacity:0; stroke-width: 4; stroke: #800080" cx="130" cy="70" rx="1" ry="1"/>
  </g>
  <line style="fill: none; fill-opacity:0; stroke-width: 1; stroke: #800080" x1="0" y1="70" x2="131" y2="70"/>
  <line style="fill: none; fill-opacity:0; stroke-width: 1; stroke: #800080" x1="130" y1="200" x2="130" y2="69"/>
  <g>
    <line style="fill: none; fill-opacity:0; stroke-width: 2; stroke: #800080" x1="0" y1="200" x2="122.929" y2="77.071"/>
    <polygon style="fill: #800080" points="124.697,78.8387 130,69.9999 121.161,75.3032 "/>
    <polygon style="fill: none; fill-opacity:0; stroke-width: 2; stroke: #800080" points="124.697,78.8387 130,69.9999 121.161,75.3032 "/>
  </g>
  <line style="fill: none; fill-opacity:0; stroke-width: 1; stroke: #00c000" x1="0" y1="200" x2="200" y2="60"/>
  <line style="fill: none; fill-opacity:0; stroke-width: 1.2; stroke: #000000" x1="130" y1="202" x2="130" y2="198"/>
  <g>
    <line style="fill: none; fill-opacity:0; stroke-width: 2; stroke: #00c000" x1="0" y1="200" x2="176.59" y2="76.3107"/>
    <polygon style="fill: #00c000" points="178.025,78.3584 184.781,70.5737 175.156,74.263 "/>
    <polygon style="fill: none; fill-opacity:0; stroke-width: 2; stroke: #00c000" points="178.025,78.3584 184.781,70.5737 175.156,74.263 "/>
  </g>
  <line style="fill: none; fill-opacity:0; stroke-width: 1; stroke-dasharray: 6; stroke: #00c000" x1="0" y1="70" x2="185.8" y2="70"/>
  <line style="fill: none; fill-opacity:0; stroke-width: 1; stroke-dasharray: 6; stroke: #00c000" x1="186" y1="200" x2="186" y2="68"/>
  <line style="fill: none; fill-opacity:0; stroke-width: 1.2; stroke: #000000" x1="186" y1="202" x2="186" y2="198"/>
  <line style="fill: none; fill-opacity:0; stroke-width: 1.2; stroke: #000000" x1="-2" y1="70" x2="2" y2="70"/>
  <g>
    <line style="fill: none; fill-opacity:0; stroke-width: 2; stroke: #008000" x1="142" y1="70" x2="175" y2="70"/>
    <polygon style="fill: #008000" points="142,67.5 132,70 142,72.5 "/>
    <polygon style="fill: none; fill-opacity:0; stroke-width: 2; stroke: #008000" points="142,67.5 132,70 142,72.5 "/>
    <polygon style="fill: #008000" points="175,72.5 185,70 175,67.5 "/>
    <polygon style="fill: none; fill-opacity:0; stroke-width: 2; stroke: #008000" points="175,72.5 185,70 175,67.5 "/>
  </g>
  <line style="fill: none; fill-opacity:0; stroke-width: 1; stroke: #c00000" x1="0" y1="200" x2="140" y2="0"/>
  <g>
    <line style="fill: none; fill-opacity:0; stroke-width: 2; stroke: #c00000" x1="0" y1="200" x2="123.698" y2="23.0161"/>
    <polygon style="fill: #c00000" points="125.748,24.4483 129.427,14.8196 121.649,21.5839 "/>
    <polygon style="fill: none; fill-opacity:0; stroke-width: 2; stroke: #c00000" points="125.748,24.4483 129.427,14.8196 121.649,21.5839 "/>
  </g>
  <line style="fill: none; fill-opacity:0; stroke-width: 1; stroke-dasharray: 6; stroke: #c00000" x1="0" y1="14" x2="130" y2="14"/>
  <line style="fill: none; fill-opacity:0; stroke-width: 1; stroke-dasharray: 6; stroke: #c00000" x1="130" y1="14" x2="130" y2="200"/>
  <line style="fill: none; fill-opacity:0; stroke-width: 1.2; stroke: #000000" x1="-2" y1="14" x2="2" y2="14"/>
  <g>
    <line style="fill: none; fill-opacity:0; stroke-width: 1.2; stroke: #000000" x1="0" y1="200" x2="189.4" y2="200"/>
    <polygon style="fill: #000000" points="189.4,202.5 199.4,200 189.4,197.5 "/>
    <polygon style="fill: none; fill-opacity:0; stroke-width: 1.2; stroke: #000000" points="189.4,202.5 199.4,200 189.4,197.5 "/>
  </g>
  <g>
    <line style="fill: none; fill-opacity:0; stroke-width: 1.2; stroke: #000000" x1="0" y1="200" x2="0" y2="10.6"/>
    <polygon style="fill: #000000" points="2.5,10.6 0,0.6 -2.5,10.6 "/>
    <polygon style="fill: none; fill-opacity:0; stroke-width: 1.2; stroke: #000000" points="2.5,10.6 0,0.6 -2.5,10.6 "/>
  </g>
  <g>
    <path style="fill: none; fill-opacity:0; stroke-width: 0.3; stroke-linecap: round; stroke: #000000" d="M 140 216.078 L 143.438,216.078 L 143.438,217.016 L 140.938,217.016 L 140.938,218.266 L 143.125,218.266 L 143.125,218.891 L 140.938,218.891 L 140.938,220.766 L 143.438,220.766 L 143.438,221.391 L 140,221.391 L 140,216.078"/>
    <path style="fill: none; fill-opacity:0; stroke-width: 0.3; stroke-linecap: round; stroke: #000000" d="M 147.578 219.203 L 147.578,221.391 L 146.953,221.391 L 146.953,219.203 C 146.953,218.812 146.797,218.5 146.641,218.266 C 146.641,218.109 146.484,217.953 146.328,217.953 C 145.859,217.953 145.547,218.109 145.391,218.266 C 145.156,218.5 145.078,218.812 145.078,219.203 L 145.078,221.391 L 144.453,221.391 L 144.453,217.641 L 145.078,217.641 L 145.078,217.953 C 145.234,217.797 145.469,217.641 145.703,217.641 C 145.859,217.484 146.094,217.328 146.328,217.328 C 146.719,217.328 147.031,217.562 147.266,217.953 C 147.422,218.188 147.578,218.578 147.578,219.203 L 147.578,219.203"/>
    <path style="fill: none; fill-opacity:0; stroke-width: 0.3; stroke-linecap: round; stroke: #000000" d="M 152.344 219.203 L 152.344,219.516 L 149.531,219.516 C 149.531,219.984 149.609,220.375 149.844,220.766 C 150,221 150.312,221.078 150.781,221.078 C 150.938,221.078 151.172,221.078 151.406,221.078 C 151.562,220.922 151.797,220.766 152.031,220.766 L 152.031,221.078 C 151.797,221.312 151.562,221.391 151.406,221.391 C 151.172,221.391 150.938,221.391 150.781,221.391 C 150.156,221.391 149.609,221.312 149.219,221.078 C 148.75,220.688 148.594,220.141 148.594,219.516 C 148.594,218.891 148.75,218.422 149.219,217.953 C 149.609,217.562 150,217.328 150.469,217.328 C 151.094,217.328 151.484,217.562 151.719,217.953 C 152.109,218.188 152.344,218.578 152.344,219.203 L 152.344,219.203"/>
    <path style="fill: none; fill-opacity:0; stroke-width: 0.3; stroke-linecap: round; stroke: #000000" d="M 151.719 219.203 C 151.719,218.812 151.562,218.5 151.406,218.266 C 151.172,218.109 150.859,217.953 150.469,217.953 C 150.234,217.953 150,218.109 149.844,218.266 C 149.609,218.5 149.531,218.812 149.531,219.203 L 151.719,219.203"/>
    <path style="fill: none; fill-opacity:0; stroke-width: 0.3; stroke-linecap: round; stroke: #000000" d="M 155.469 217.953 C 155.469,217.953 155.312,217.953 155.156,217.953 C 154.688,217.953 154.375,218.188 154.219,218.578 C 153.984,218.812 153.906,219.125 153.906,219.516 L 153.906,221.391 L 153.281,221.391 L 153.281,217.641 L 153.906,217.641 L 153.906,217.953 C 154.062,217.797 154.297,217.641 154.531,217.641 C 154.688,217.484 154.922,217.328 155.156,217.328 C 155.312,217.328 155.469,217.328 155.469,217.328 L 155.469,217.953"/>
    <path style="fill: none; fill-opacity:0; stroke-width: 0.3; stroke-linecap: round; stroke: #000000" d="M 158.672 219.516 C 158.672,219.125 158.516,218.812 158.359,218.578 C 158.125,218.188 157.891,217.953 157.734,217.953 C 157.266,217.953 156.953,218.188 156.797,218.578 C 156.562,218.812 156.484,219.125 156.484,219.516 C 156.484,219.984 156.562,220.297 156.797,220.453 C 156.953,220.688 157.266,220.766 157.734,220.766 C 157.891,220.766 158.125,220.688 158.359,220.453 C 158.516,220.297 158.672,219.984 158.672,219.516 L 158.672,219.516"/>
    <path style="fill: none; fill-opacity:0; stroke-width: 0.3; stroke-linecap: round; stroke: #000000" d="M 159.297 221.078 C 159.297,221.703 159.141,222.094 158.984,222.328 C 158.75,222.719 158.359,222.953 157.734,222.953 C 157.5,222.953 157.266,222.797 157.109,222.641 C 156.875,222.641 156.641,222.641 156.484,222.641 L 156.484,222.016 C 156.641,222.016 156.797,222.016 156.797,222.016 C 156.953,222.172 157.188,222.328 157.422,222.328 C 157.812,222.328 158.125,222.172 158.359,222.016 C 158.516,221.781 158.672,221.469 158.672,221.078 L 158.672,220.766 C 158.672,221 158.516,221.234 158.359,221.391 C 158.125,221.391 157.812,221.391 157.422,221.391 C 156.953,221.391 156.562,221.234 156.172,220.766 C 155.938,220.375 155.859,219.984 155.859,219.516 C 155.859,218.891 155.938,218.422 156.172,217.953 C 156.562,217.562 156.953,217.328 157.422,217.328 C 157.812,217.328 158.125,217.484 158.359,217.641 C 158.516,217.641 158.672,217.797 158.672,217.953 L 158.672,217.641 L 159.297,217.641 L 159.297,221.078"/>
    <path style="fill: none; fill-opacity:0; stroke-width: 0.3; stroke-linecap: round; stroke: #000000" d="M 162.188 221.703 C 161.953,222.328 161.719,222.641 161.562,222.641 C 161.562,222.797 161.406,222.953 161.25,222.953 L 160.625,222.953 L 160.625,222.328 L 160.938,222.328 C 161.094,222.328 161.25,222.172 161.25,222.016 C 161.406,222.016 161.562,221.859 161.562,221.703 L 161.875,221.391 L 160.312,217.641 L 160.938,217.641 L 162.188,220.453 L 163.438,217.641 L 164.062,217.641 L 162.188,221.703"/>
    <path style="fill: none; fill-opacity:0; stroke-width: 0.3; stroke-linecap: round; stroke: #000000" d="M 170.781 216.703 L 170.781,217.328 C 170.547,217.172 170.312,217.016 170.156,217.016 C 169.922,216.859 169.688,216.703 169.531,216.703 C 168.906,216.703 168.359,216.938 167.969,217.328 C 167.734,217.562 167.656,218.109 167.656,218.891 C 167.656,219.516 167.734,220.062 167.969,220.453 C 168.359,220.922 168.906,221.078 169.531,221.078 C 169.688,221.078 169.922,221.078 170.156,221.078 C 170.312,220.922 170.547,220.609 170.781,220.141 L 170.781,221.078 C 170.547,221.312 170.312,221.391 170.156,221.391 C 169.922,221.391 169.609,221.391 169.219,221.391 C 168.594,221.391 167.969,221.234 167.344,220.766 C 166.875,220.375 166.719,219.75 166.719,218.891 C 166.719,218.109 166.875,217.484 167.344,217.016 C 167.969,216.391 168.594,216.078 169.219,216.078 C 169.609,216.078 169.922,216.234 170.156,216.391 C 170.312,216.391 170.547,216.547 170.781,216.703 L 170.781,216.703"/>
    <path style="fill: none; fill-opacity:0; stroke-width: 0.3; stroke-linecap: round; stroke: #000000" d="M 173.906 219.516 C 173.281,219.516 172.812,219.672 172.656,219.828 C 172.656,219.828 172.656,219.984 172.656,220.141 C 172.656,220.375 172.656,220.609 172.656,220.766 C 172.812,221 173.047,221.078 173.281,221.078 C 173.672,221.078 173.984,221 174.219,220.766 C 174.375,220.375 174.531,219.984 174.531,219.516 L 173.906,219.516"/>
    <path style="fill: none; fill-opacity:0; stroke-width: 0.3; stroke-linecap: round; stroke: #000000" d="M 175.156 219.203 L 175.156,221.391 L 174.531,221.391 L 174.531,220.766 C 174.297,221 174.062,221.234 173.906,221.391 C 173.672,221.391 173.438,221.391 173.281,221.391 C 172.812,221.391 172.422,221.312 172.031,221.078 C 171.797,220.922 171.719,220.609 171.719,220.141 C 171.719,219.75 171.797,219.438 172.031,219.203 C 172.422,219.047 172.969,218.891 173.594,218.891 L 174.531,218.891 C 174.531,218.5 174.375,218.266 174.219,218.266 C 173.984,218.109 173.672,217.953 173.281,217.953 C 173.047,217.953 172.812,217.953 172.656,217.953 C 172.422,217.953 172.188,218.109 172.031,218.266 L 172.031,217.641 C 172.422,217.641 172.734,217.641 172.969,217.641 C 173.125,217.484 173.281,217.328 173.281,217.328 C 173.906,217.328 174.297,217.562 174.531,217.953 C 174.922,218.188 175.156,218.578 175.156,219.203 L 175.156,219.203"/>
    <path style="fill: none; fill-opacity:0; stroke-width: 0.3; stroke-linecap: round; stroke: #000000" d="M 176.953 220.766 L 176.953,222.953 L 176.328,222.953 L 176.328,217.641 L 176.953,217.641 L 176.953,217.953 C 177.109,217.797 177.344,217.641 177.578,217.641 C 177.734,217.484 177.969,217.328 178.203,217.328 C 178.594,217.328 178.906,217.562 179.141,217.953 C 179.531,218.422 179.766,218.891 179.766,219.516 C 179.766,220.141 179.531,220.688 179.141,221.078 C 178.906,221.312 178.594,221.391 178.203,221.391 C 177.969,221.391 177.734,221.391 177.578,221.391 C 177.344,221.234 177.109,221 176.953,220.766 L 176.953,220.766"/>
    <path style="fill: none; fill-opacity:0; stroke-width: 0.3; stroke-linecap: round; stroke: #000000" d="M 179.141 219.516 C 179.141,219.125 178.984,218.812 178.828,218.578 C 178.594,218.188 178.281,217.953 177.891,217.953 C 177.656,217.953 177.422,218.188 177.266,218.578 C 177.031,218.812 176.953,219.125 176.953,219.516 C 176.953,219.984 177.031,220.375 177.266,220.766 C 177.422,221 177.656,221.078 177.891,221.078 C 178.281,221.078 178.594,221 178.828,220.766 C 178.984,220.375 179.141,219.984 179.141,219.516 L 179.141,219.516"/>
    <path style="fill: none; fill-opacity:0; stroke-width: 0.3; stroke-linecap: round; stroke: #000000" d="M 182.656 219.516 C 182.031,219.516 181.562,219.672 181.406,219.828 C 181.406,219.828 181.406,219.984 181.406,220.141 C 181.406,220.375 181.406,220.609 181.406,220.766 C 181.562,221 181.797,221.078 182.031,221.078 C 182.422,221.078 182.734,221 182.969,220.766 C 183.125,220.375 183.281,219.984 183.281,219.516 L 182.656,219.516"/>
    <path style="fill: none; fill-opacity:0; stroke-width: 0.3; stroke-linecap: round; stroke: #000000" d="M 183.906 219.203 L 183.906,221.391 L 183.281,221.391 L 183.281,220.766 C 183.047,221 182.812,221.234 182.656,221.391 C 182.422,221.391 182.188,221.391 182.031,221.391 C 181.562,221.391 181.172,221.312 180.781,221.078 C 180.547,220.922 180.469,220.609 180.469,220.141 C 180.469,219.75 180.547,219.438 180.781,219.203 C 181.172,219.047 181.719,218.891 182.344,218.891 L 183.281,218.891 C 183.281,218.5 183.125,218.266 182.969,218.266 C 182.734,218.109 182.422,217.953 182.031,217.953 C 181.797,217.953 181.562,217.953 181.406,217.953 C 181.172,217.953 180.938,218.109 180.781,218.266 L 180.781,217.641 C 181.172,217.641 181.484,217.641 181.719,217.641 C 181.875,217.484 182.031,217.328 182.031,217.328 C 182.656,217.328 183.047,217.562 183.281,217.953 C 183.672,218.188 183.906,218.578 183.906,219.203 L 183.906,219.203"/>
    <path style="fill: none; fill-opacity:0; stroke-width: 0.3; stroke-linecap: round; stroke: #000000" d="M 187.969 217.641 L 187.969,218.266 C 187.734,218.109 187.5,217.953 187.344,217.953 C 187.109,217.953 186.875,217.953 186.719,217.953 C 186.484,217.953 186.25,218.188 186.094,218.578 C 185.859,218.812 185.781,219.125 185.781,219.516 C 185.781,219.984 185.859,220.375 186.094,220.766 C 186.25,221 186.484,221.078 186.719,221.078 C 186.875,221.078 187.109,221.078 187.344,221.078 C 187.5,220.922 187.734,220.766 187.969,220.766 L 187.969,221.391 C 187.734,221.391 187.5,221.391 187.344,221.391 C 187.109,221.391 186.875,221.391 186.719,221.391 C 186.25,221.391 185.859,221.312 185.469,221.078 C 185,220.688 184.844,220.141 184.844,219.516 C 184.844,218.891 185,218.422 185.469,217.953 C 185.859,217.562 186.25,217.328 186.719,217.328 C 186.875,217.328 187.109,217.484 187.344,217.641 C 187.5,217.641 187.734,217.641 187.969,217.641 L 187.969,217.641"/>
    <path style="fill: none; fill-opacity:0; stroke-width: 0.3; stroke-linecap: round; stroke: #000000" d="M 188.984 217.641 L 189.609,217.641 L 189.609,221.391 L 188.984,221.391 L 188.984,217.641"/>
    <path style="fill: none; fill-opacity:0; stroke-width: 0.3; stroke-linecap: round; stroke: #000000" d="M 188.984 216.078 L 189.609,216.078 L 189.609,217.016 L 188.984,217.016 L 188.984,216.078"/>
    <path style="fill: none; fill-opacity:0; stroke-width: 0.3; stroke-linecap: round; stroke: #000000" d="M 191.562 216.391 L 191.562,217.641 L 192.812,217.641 L 192.812,217.953 L 191.562,217.953 L 191.562,220.141 C 191.562,220.609 191.562,220.766 191.562,220.766 C 191.719,220.766 191.953,220.766 192.188,220.766 L 192.812,220.766 L 192.812,221.391 L 192.188,221.391 C 191.719,221.391 191.406,221.312 191.25,221.078 C 191.016,220.922 190.938,220.609 190.938,220.141 L 190.938,217.953 L 190.625,217.953 L 190.625,217.641 L 190.938,217.641 L 190.938,216.391 L 191.562,216.391"/>
    <path style="fill: none; fill-opacity:0; stroke-width: 0.3; stroke-linecap: round; stroke: #000000" d="M 195.312 221.703 C 195.078,222.328 194.844,222.641 194.688,222.641 C 194.688,222.797 194.531,222.953 194.375,222.953 L 193.75,222.953 L 193.75,222.328 L 194.062,222.328 C 194.219,222.328 194.375,222.172 194.375,222.016 C 194.531,222.016 194.688,221.859 194.688,221.703 L 195,221.391 L 193.438,217.641 L 194.062,217.641 L 195.312,220.453 L 196.562,217.641 L 197.188,217.641 L 195.312,221.703"/>
  </g>
  <g>
    <path style="fill: none; fill-opacity:0; stroke-width: 0.3; stroke-linecap: round; stroke: #000000" d="M -19.0849 54.9525 L -17.1844,54.9114 L -17.3005,54.2972 C -17.1427,53.8699 -17.1863,53.6396 -17.4166,53.6831 C -17.5991,53.5586 -17.8584,53.4486 -18.0887,53.4921 C -18.4725,53.5646 -18.7028,53.6082 -18.7028,53.6082 C -18.8564,53.6372 -19.0432,53.911 -19.2009,54.3383 L -19.0849,54.9525"/>
    <path style="fill: none; fill-opacity:0; stroke-width: 0.3; stroke-linecap: round; stroke: #000000" d="M -19.832 56.0478 L -19.815,54.4544 C -19.7008,53.7967 -19.543,53.3694 -19.433,53.1101 C -19.2317,52.913 -18.8479,52.8405 -18.2048,52.878 C -17.7442,52.7909 -17.3936,52.9632 -17.1675,53.318 C -16.8937,53.5048 -16.8212,53.8886 -16.9354,54.5463 L -16.8193,55.1604 L -14.6119,55.0613 L -14.7448,56.0405 L -19.832,56.0478"/>
    <path style="fill: none; fill-opacity:0; stroke-width: 0.3; stroke-linecap: round; stroke: #000000" d="M -18.2374 50.1809 C -18.1504,50.6415 -17.862,50.905 -17.4492,50.986 C -17.1754,51.1728 -16.8248,51.345 -16.412,51.426 C -15.9514,51.339 -15.5675,51.2665 -15.1837,51.1939 C -14.9824,50.9969 -14.9637,50.6753 -15.0507,50.2147 C -14.9262,50.0322 -14.9697,49.8019 -15.1668,49.6006 C -15.6231,49.2893 -16.0505,49.1315 -16.5111,49.2186 C -16.9239,49.1376 -17.231,49.1956 -17.4323,49.3926 C -17.7726,49.6955 -18.0361,49.9838 -18.2374,50.1809 L -18.2374,50.1809"/>
    <path style="fill: none; fill-opacity:0; stroke-width: 0.3; stroke-linecap: round; stroke: #000000" d="M -18.5445 50.2389 C -18.3867,49.8115 -18.1377,49.4464 -17.7974,49.1436 C -17.6396,48.7163 -17.2703,48.567 -16.6271,48.6044 C -16.013,48.4884 -15.5089,48.6316 -15.2828,48.9864 C -14.812,49.3745 -14.6627,49.7438 -14.7436,50.1567 C -14.6276,50.7708 -14.7708,51.2749 -15.1257,51.501 C -15.466,51.8038 -15.9888,51.9821 -16.603,52.0982 C -17.2461,52.0607 -17.6735,51.903 -17.9473,51.7162 C -18.1733,51.3614 -18.4284,50.853 -18.5445,50.2389 L -18.5445,50.2389"/>
    <path style="fill: none; fill-opacity:0; stroke-width: 0.3; stroke-linecap: round; stroke: #000000" d="M -18.5191 47.8489 L -18.3281,47.1767 L -15.6806,46.0403 L -18.3112,45.5834 L -18.4272,44.9692 L -15.7797,43.8328 L -18.4103,43.3759 L -18.5264,42.7617 L -14.5515,43.6007 L -14.7425,44.2729 L -17.7551,45.1602 L -14.7594,45.8662 L -14.5853,46.7874 L -18.5191,47.8489"/>
    <path style="fill: none; fill-opacity:0; stroke-width: 0.3; stroke-linecap: round; stroke: #000000" d="M -16.9197 38.6417 L -16.6127,38.5837 L -16.3975,41.4053 C -15.7834,41.2893 -15.3373,41.1255 -15.2273,40.8661 C -15.026,40.6691 -15.0072,40.3475 -15.0943,39.8869 C -14.9698,39.7044 -15.0133,39.4741 -15.2103,39.2728 C -15.2394,39.1193 -15.2829,38.889 -15.3264,38.6587 L -15.0193,38.6006 C -14.8223,38.8019 -14.6252,39.0032 -14.5962,39.1567 C -14.5527,39.387 -14.6627,39.6463 -14.7872,39.8289 C -14.6712,40.443 -14.7999,41.0239 -15.1112,41.4803 C -15.4515,41.7831 -15.9744,41.9614 -16.5885,42.0775 C -17.2316,42.04 -17.6735,41.8055 -17.9908,41.3884 C -18.2169,41.0336 -18.443,40.6788 -18.53,40.2182 C -18.4158,39.5605 -18.1813,39.1187 -17.8409,38.8158 C -17.6397,38.6188 -17.3326,38.5607 -16.9197,38.6417 L -16.9197,38.6417"/>
    <path style="fill: none; fill-opacity:0; stroke-width: 0.3; stroke-linecap: round; stroke: #000000" d="M -16.8037 39.2559 C -17.2165,39.1749 -17.5236,39.2329 -17.7249,39.43 C -17.8784,39.459 -18.0652,39.7328 -18.223,40.1601 C -18.1794,40.3904 -17.9679,40.6685 -17.7418,41.0233 C -17.468,41.2101 -17.1174,41.3824 -16.7046,41.4634 L -16.8037,39.2559"/>
    <path style="fill: none; fill-opacity:0; stroke-width: 0.3; stroke-linecap: round; stroke: #000000" d="M -17.7551 35.0627 C -17.7551,35.0627 -17.7261,35.2163 -17.6971,35.3698 C -17.8506,35.3988 -18.0809,35.4423 -18.3112,35.4859 C -18.2242,35.9465 -17.9359,36.21 -17.523,36.291 C -17.2492,36.4778 -16.8986,36.65 -16.4858,36.731 L -14.5853,36.6899 L -14.7763,37.3621 L -18.5772,37.4443 L -18.3862,36.7722 L -17.772,36.6561 C -17.9546,36.5316 -18.1516,36.3303 -18.1952,36.1 C -18.3777,35.9755 -18.4212,35.7452 -18.3112,35.4859 C -18.3402,35.3323 -18.3693,35.1788 -18.3693,35.1788 L -17.7551,35.0627"/>
    <path style="fill: none; fill-opacity:0; stroke-width: 0.3; stroke-linecap: round; stroke: #000000" d="M -19.2766 28.2741 L -18.2974,28.407 C -18.9115,28.5231 -19.1895,28.7347 -19.1605,28.8882 C -19.2705,29.1475 -19.366,29.4836 -19.2935,29.8674 C -19.36,30.357 -19.1962,30.8031 -18.6963,31.3447 C -18.1486,31.7183 -17.659,31.7848 -17.0449,31.6687 C -16.3872,31.7829 -15.8499,31.6814 -15.5096,31.3786 C -15.1215,30.9077 -14.9638,30.4803 -14.8205,29.9762 C -14.893,29.5924 -15.1046,29.3143 -15.3017,29.113 C -15.3307,28.9595 -15.3887,28.6524 -15.4757,28.1918 L -14.8036,28.3829 C -14.7601,28.6132 -14.7165,28.8435 -14.6875,28.997 C -14.644,29.2273 -14.586,29.5343 -14.5134,29.9182 C -14.6277,30.5758 -14.8332,31.1712 -15.1445,31.6276 C -15.6716,32.2042 -16.348,32.4116 -17.2359,32.3409 C -18.0036,32.4859 -18.6757,32.2949 -19.2524,31.7678 C -19.7523,31.2263 -19.9451,30.6266 -19.9076,29.9835 C -19.9802,29.5997 -19.8847,29.2636 -19.7746,29.0043 C -19.8037,28.8507 -19.6169,28.5769 -19.2766,28.2741 L -19.2766,28.2741"/>
    <path style="fill: none; fill-opacity:0; stroke-width: 0.3; stroke-linecap: round; stroke: #000000" d="M -16.7179 25.4053 C -16.6019,26.0194 -16.3613,26.451 -16.1787,26.5755 C -16.1352,26.8058 -15.9672,26.8536 -15.8136,26.8246 C -15.5833,26.781 -15.353,26.7375 -15.1995,26.7085 C -14.9982,26.5115 -14.965,26.2666 -15.0085,26.0363 C -15.081,25.6525 -15.2158,25.36 -15.4897,25.1732 C -15.7157,24.8184 -16.0663,24.6461 -16.5269,24.7331 L -16.7179,25.4053"/>
    <path style="fill: none; fill-opacity:0; stroke-width: 0.3; stroke-linecap: round; stroke: #000000" d="M -16.892 24.4841 L -14.6845,24.385 L -14.6265,24.692 L -15.2406,24.8081 C -15.0436,25.0094 -14.8465,25.2107 -14.8175,25.3642 C -14.774,25.5945 -14.7305,25.8248 -14.7014,25.9783 C -14.5854,26.5924 -14.6519,27.0821 -14.7764,27.2646 C -15.1167,27.5674 -15.4238,27.6255 -15.6976,27.4387 C -16.3117,27.5548 -16.6333,27.536 -16.6768,27.3057 C -16.9029,26.9509 -17.158,26.4426 -17.274,25.8284 L -17.141,24.8492 L -17.1991,24.5421 C -17.3526,24.5711 -17.5539,24.7682 -17.7552,24.9653 C -18.0955,25.2681 -18.2677,25.6187 -18.1952,26.0025 C -18.1517,26.2328 -17.9546,26.4341 -17.7721,26.5586 C -17.7286,26.7889 -17.7618,27.0337 -17.9631,27.2308 L -18.2702,27.2888 C -18.2992,27.1353 -18.3427,26.905 -18.3862,26.6747 C -18.4588,26.2908 -18.5023,26.0605 -18.5023,26.0605 C -18.388,25.4029 -18.2303,24.9755 -18.1203,24.7162 C -17.919,24.5192 -17.5351,24.4466 -16.892,24.4841 L -16.892,24.4841"/>
    <path style="fill: none; fill-opacity:0; stroke-width: 0.3; stroke-linecap: round; stroke: #000000" d="M -15.1385 22.4035 L -12.931,22.3044 L -13.122,22.9766 L -18.5162,23.0419 L -18.3252,22.3697 L -17.7111,22.2537 C -17.8936,22.1291 -18.0907,21.9279 -18.1342,21.6976 C -18.3167,21.573 -18.3602,21.3427 -18.2502,21.0834 C -18.3228,20.6996 -18.1505,20.349 -17.8102,20.0462 C -17.6524,19.6188 -17.2831,19.4695 -16.64,19.507 C -16.0258,19.3909 -15.5217,19.5342 -15.2956,19.889 C -14.8248,20.2771 -14.5219,20.6174 -14.4494,21.0012 C -14.6362,21.275 -14.823,21.5488 -14.9475,21.7314 C -14.9039,21.9617 -14.9372,22.2065 -15.1385,22.4035 L -15.1385,22.4035"/>
    <path style="fill: none; fill-opacity:0; stroke-width: 0.3; stroke-linecap: round; stroke: #000000" d="M -16.5239 20.1211 C -16.9368,20.0401 -17.2438,20.0982 -17.4451,20.2952 C -17.7854,20.598 -18.0344,20.9631 -18.1922,21.3905 C -18.1487,21.6208 -17.8749,21.8076 -17.462,21.8886 C -17.1882,22.0753 -16.8376,22.2476 -16.4248,22.3286 C -15.9642,22.2416 -15.5803,22.169 -15.1965,22.0965 C -14.9952,21.8994 -14.962,21.6546 -15.0055,21.4243 C -14.9245,21.0115 -14.9825,20.7044 -15.1796,20.5031 C -15.636,20.1918 -16.0633,20.0341 -16.5239,20.1211 L -16.5239,20.1211"/>
    <path style="fill: none; fill-opacity:0; stroke-width: 0.3; stroke-linecap: round; stroke: #000000" d="M -16.7016 16.6564 C -16.5856,17.2705 -16.345,17.7021 -16.1624,17.8266 C -16.1189,18.0569 -15.9509,18.1046 -15.7974,18.0756 C -15.5671,18.0321 -15.3368,17.9886 -15.1832,17.9596 C -14.9819,17.7625 -14.9487,17.5177 -14.9922,17.2874 C -15.0648,16.9036 -15.1996,16.611 -15.4734,16.4242 C -15.6994,16.0694 -16.05,15.8972 -16.5106,15.9842 L -16.7016,16.6564"/>
    <path style="fill: none; fill-opacity:0; stroke-width: 0.3; stroke-linecap: round; stroke: #000000" d="M -16.8757 15.7352 L -14.6682,15.636 L -14.6102,15.9431 L -15.2243,16.0591 C -15.0273,16.2604 -14.8302,16.4617 -14.8012,16.6152 C -14.7577,16.8455 -14.7142,17.0758 -14.6852,17.2294 C -14.5691,17.8435 -14.6356,18.3331 -14.7601,18.5157 C -15.1004,18.8185 -15.4075,18.8765 -15.6813,18.6898 C -16.2954,18.8058 -16.617,18.7871 -16.6605,18.5568 C -16.8866,18.202 -17.1417,17.6936 -17.2577,17.0795 L -17.1248,16.1003 L -17.1828,15.7932 C -17.3363,15.8222 -17.5376,16.0193 -17.7389,16.2163 C -18.0792,16.5192 -18.2515,16.8697 -18.1789,17.2536 C -18.1354,17.4839 -17.9383,17.6852 -17.7558,17.8097 C -17.7123,18.04 -17.7455,18.2848 -17.9468,18.4818 L -18.2539,18.5399 C -18.2829,18.3863 -18.3264,18.156 -18.3699,17.9257 C -18.4425,17.5419 -18.486,17.3116 -18.486,17.3116 C -18.3718,16.6539 -18.214,16.2266 -18.104,15.9673 C -17.9027,15.7702 -17.5189,15.6977 -16.8757,15.7352 L -16.8757,15.7352"/>
    <path style="fill: none; fill-opacity:0; stroke-width: 0.3; stroke-linecap: round; stroke: #000000" d="M -18.4225 11.3365 L -17.8084,11.2205 C -17.7649,11.4508 -17.7214,11.6811 -17.6924,11.8346 C -17.8024,12.0939 -17.9891,12.3677 -18.1904,12.5648 C -18.1469,12.7951 -17.8586,13.0586 -17.4022,13.3699 C -17.1284,13.5567 -16.7778,13.729 -16.365,13.81 C -15.9044,13.7229 -15.535,13.5736 -15.1947,13.2708 C -14.9934,13.0737 -14.9602,12.8289 -15.0037,12.5986 C -14.8792,12.4161 -14.9227,12.1858 -15.1198,11.9845 C -15.1488,11.831 -15.1923,11.6007 -15.2358,11.3704 L -14.6217,11.2543 C -14.5782,11.4846 -14.5347,11.7149 -14.5057,11.8684 C -14.4621,12.0987 -14.5721,12.358 -14.6967,12.5406 C -14.6096,13.0012 -14.7674,13.4285 -15.0787,13.8849 C -15.419,14.1877 -15.9418,14.3661 -16.556,14.4821 C -17.1991,14.4446 -17.641,14.2101 -17.9583,13.793 C -18.1844,13.4382 -18.4105,13.0834 -18.4975,12.6228 C -18.2962,12.4258 -18.263,12.181 -18.3065,11.9507 C -18.3355,11.7971 -18.379,11.5668 -18.4225,11.3365 L -18.4225,11.3365"/>
    <path style="fill: none; fill-opacity:0; stroke-width: 0.3; stroke-linecap: round; stroke: #000000" d="M -18.5344 10.3241 L -18.3434,9.6519 L -14.5425,9.56967 L -14.7335,10.2418 L -18.5344,10.3241"/>
    <path style="fill: none; fill-opacity:0; stroke-width: 0.3; stroke-linecap: round; stroke: #000000" d="M -20.1277 10.3071 L -19.9367,9.63498 L -19.0155,9.46089 L -19.2065,10.133 L -20.1277,10.3071"/>
    <path style="fill: none; fill-opacity:0; stroke-width: 0.3; stroke-linecap: round; stroke: #000000" d="M -19.6708 7.67653 L -18.3845,7.75148 L -18.3095,6.46519 L -18.0025,6.40716 L -18.0774,7.69345 L -15.8699,7.59431 C -15.3658,7.73756 -15.1978,7.78531 -15.1978,7.78531 C -15.2268,7.63178 -15.2703,7.40148 -15.3138,7.17118 L -15.1228,6.49903 L -14.5087,6.38297 L -14.6997,7.05513 C -14.6127,7.51572 -14.7082,7.8518 -14.8327,8.03435 C -15.173,8.33719 -15.5568,8.40972 -16.0609,8.26647 L -18.2684,8.36561 L -18.2104,8.67267 L -18.5175,8.7307 L -18.5755,8.42364 L -19.8618,8.34869 L -19.6708,7.67653"/>
    <path style="fill: none; fill-opacity:0; stroke-width: 0.3; stroke-linecap: round; stroke: #000000" d="M -14.4211 3.90166 C -13.9502,4.28972 -13.5851,4.53876 -13.3258,4.64877 C -13.1722,4.61975 -12.9752,4.82104 -12.9027,5.20487 L -13.1517,5.56996 L -13.7658,5.68602 L -13.5168,5.32093 C -13.5458,5.1674 -13.7429,4.96611 -13.9399,4.76483 C -13.9689,4.6113 -14.1515,4.48678 -14.305,4.51579 L -14.6701,4.26676 L -18.4879,5.94233 L -18.2968,5.27017 L -15.7073,3.82672 L -18.396,3.06269 L -18.512,2.44856 L -14.4211,3.90166"/>
  </g>
  <text font-size="6.20889" style="fill: #000000;text-anchor:start;font-family:sans-serif;font-style:normal;font-weight:normal" x="184" y="209.15">
    <tspan x="184" y="209.15">low</tspan>
  </text>
  <text font-size="9.03111" style="fill: #000000;text-anchor:start;font-family:sans-serif;font-style:normal;font-weight:normal" x="178" y="208.125">
    <tspan x="178" y="208.125">E</tspan>
  </text>
  <text font-size="6.20889" style="fill: #000000;text-anchor:start;font-family:sans-serif;font-style:normal;font-weight:normal" x="132" y="210.059">
    <tspan x="132" y="210.059">s</tspan>
  </text>
  <text font-size="9.03111" style="fill: #000000;text-anchor:start;font-family:sans-serif;font-style:normal;font-weight:normal" x="126" y="209.125">
    <tspan x="126" y="209.125">E</tspan>
  </text>
  <text font-size="6.20889" style="fill: #000000;text-anchor:start;font-family:sans-serif;font-style:normal;font-weight:normal" x="-6" y="74.15">
    <tspan x="-6" y="74.15">s</tspan>
  </text>
  <text font-size="9.03111" style="fill: #000000;text-anchor:start;font-family:sans-serif;font-style:normal;font-weight:normal" x="-10" y="73.125">
    <tspan x="-10" y="73.125">P</tspan>
  </text>
  <text font-size="6.20889" style="fill: #000000;text-anchor:start;font-family:sans-serif;font-style:normal;font-weight:normal" x="-12" y="78.15">
    <tspan x="-12" y="78.15">low</tspan>
  </text>
  <text font-size="9.03111" style="fill: #000000;text-anchor:start;font-family:sans-serif;font-style:normal;font-weight:normal" x="-17" y="77.125">
    <tspan x="-17" y="77.125">P</tspan>
  </text>
  <text font-size="6.20889" style="fill: #000000;text-anchor:start;font-family:sans-serif;font-style:normal;font-weight:normal" x="-9.2" y="19.75">
    <tspan x="-9.2" y="19.75">high</tspan>
  </text>
  <text font-size="9.03111" style="fill: #000000;text-anchor:start;font-family:sans-serif;font-style:normal;font-weight:normal" x="-14.2" y="18.725">
    <tspan x="-14.2" y="18.725">P</tspan>
  </text>
  <text font-size="6.20889" style="fill: #000000;text-anchor:start;font-family:sans-serif;font-style:normal;font-weight:normal" x="125" y="215.15">
    <tspan x="125" y="215.15">high</tspan>
  </text>
  <text font-size="9.03111" style="fill: #000000;text-anchor:start;font-family:sans-serif;font-style:normal;font-weight:normal" x="120" y="214.125">
    <tspan x="120" y="214.125">E</tspan>
  </text>
  <text font-size="9.03111" style="fill: #008000;text-anchor:start;font-family:sans-serif;font-style:normal;font-weight:normal" x="154" y="67.125">
    <tspan x="154" y="67.125">ΔE</tspan>
  </text>
</svg>
