<?xml version="1.0" encoding="UTF-8" standalone="no"?>
<!DOCTYPE svg PUBLIC "-//W3C//DTD SVG 1.0//EN" "http://www.w3.org/TR/2001/PR-SVG-20010719/DTD/svg10.dtd">
<svg width="12cm" height="12cm" viewBox="-19 -3 221 224" xmlns="http://www.w3.org/2000/svg" xmlns:xlink="http://www.w3.org/1999/xlink">
  <line style="fill: none; fill-opacity:0; stroke-width: 1; stroke: #800080" x1="0" y1="4" x2="197" y2="4"/>
  <g>
    <path style="fill: #efefef" d="M 0 200 C 0,200 36,188 68,176 C 100,164 120,153.333 136,142 C 152,130.667 168,110 180,88 C 192,66 196,12 196,8 C 196,4 196,4 196,4 C 196,4 184,16 168,32 C 152,48 0,200 0,200z"/>
    <path style="fill: none; fill-opacity:0; stroke-width: 1; stroke: #efefef" d="M 0 200 C 0,200 36,188 68,176 C 100,164 120,153.333 136,142 C 152,130.667 168,110 180,88 C 192,66 196,12 196,8 C 196,4 196,4 196,4 C 196,4 184,16 168,32 C 152,48 0,200 0,200"/>
  </g>
  <g>
    <path style="fill: #d7d7d7" d="M 0 200 C 0,200 40,180 64,168 C 88,156 118,140 134,128 C 150,116 168,96 176,82 C 184,68 196,12 196,8 C 196,4 196,4 196,4 C 196,4 184,16 168,32 C 152,48 0,200 0,200z"/>
    <path style="fill: none; fill-opacity:0; stroke-width: 1; stroke: #d7d7d7" d="M 0 200 C 0,200 40,180 64,168 C 88,156 118,140 134,128 C 150,116 168,96 176,82 C 184,68 196,12 196,8 C 196,4 196,4 196,4 C 196,4 184,16 168,32 C 152,48 0,200 0,200"/>
  </g>
  <line style="fill: none; fill-opacity:0; stroke-width: 1.2; stroke: #800080" x1="2" y1="198" x2="200" y2="0"/>
  <g>
    <ellipse style="fill: #ffffff" cx="196" cy="4" rx="1" ry="1"/>
    <ellipse style="fill: none; fill-opacity:0; stroke-width: 4; stroke: #800080" cx="196" cy="4" rx="1" ry="1"/>
  </g>
  <line style="fill: none; fill-opacity:0; stroke-width: 1; stroke: #c00000" x1="0" y1="200" x2="140" y2="0"/>
  <line style="fill: none; fill-opacity:0; stroke-width: 1; stroke: #800080" x1="196" y1="200" x2="196" y2="3"/>
  <g>
    <line style="fill: none; fill-opacity:0; stroke-width: 2; stroke: #800080" x1="0" y1="200" x2="188.929" y2="11.0711"/>
    <polygon style="fill: #800080" points="190.697,12.8388 196,4.00001 187.161,9.30331 "/>
    <polygon style="fill: none; fill-opacity:0; stroke-width: 2; stroke: #800080" points="190.697,12.8388 196,4.00001 187.161,9.30331 "/>
  </g>
  <line style="fill: none; fill-opacity:0; stroke-width: 1; stroke: #00c000" x1="0" y1="200" x2="200" y2="60"/>
  <line style="fill: none; fill-opacity:0; stroke-width: 1.2; stroke: #000000" x1="196" y1="202" x2="196" y2="198"/>
  <line style="fill: none; fill-opacity:0; stroke-width: 1.2; stroke: #000000" x1="-2" y1="4" x2="2" y2="4"/>
  <line style="fill: none; fill-opacity:0; stroke-width: 1; stroke-dasharray: 6 2.4 1.2 2.4; stroke: #c00000" x1="60" y1="200" x2="200" y2="0"/>
  <g>
    <line style="fill: none; fill-opacity:0; stroke-width: 2; stroke: #c00000" x1="118" y1="117.2" x2="190.034" y2="12.7197"/>
    <polygon style="fill: #c00000" points="192.093,14.1387 195.711,4.48679 187.976,11.3006 "/>
    <polygon style="fill: none; fill-opacity:0; stroke-width: 2; stroke: #c00000" points="192.093,14.1387 195.711,4.48679 187.976,11.3006 "/>
  </g>
  <path style="fill: none; fill-opacity:0; stroke-width: 2; stroke: #800080" d="M 195.836 6.95943 C 191.836,78.9594 180,96 152,128 C 124,160 56,180 0,200"/>
  <path style="fill: none; fill-opacity:0; stroke-width: 1.6; stroke-dasharray: 6; stroke: #800080" d="M 195.532 6.9666 C 183.532,82.9666 176,88 148,116 C 120,144 56,172 0,200"/>
  <g>
    <line style="fill: none; fill-opacity:0; stroke-width: 2; stroke: #00c000" x1="0" y1="200" x2="110.598" y2="122.322"/>
    <polygon style="fill: #00c000" points="112.035,124.368 118.782,116.575 109.161,120.276 "/>
    <polygon style="fill: none; fill-opacity:0; stroke-width: 2; stroke: #00c000" points="112.035,124.368 118.782,116.575 109.161,120.276 "/>
  </g>
  <g>
    <line style="fill: none; fill-opacity:0; stroke-width: 1.2; stroke: #000000" x1="0" y1="200" x2="189.4" y2="200"/>
    <polygon style="fill: #000000" points="189.4,202.5 199.4,200 189.4,197.5 "/>
    <polygon style="fill: none; fill-opacity:0; stroke-width: 1.2; stroke: #000000" points="189.4,202.5 199.4,200 189.4,197.5 "/>
  </g>
  <g>
    <line style="fill: none; fill-opacity:0; stroke-width: 1.2; stroke: #000000" x1="0" y1="200" x2="0" y2="10.6"/>
    <polygon style="fill: #000000" points="2.5,10.6 0,0.6 -2.5,10.6 "/>
    <polygon style="fill: none; fill-opacity:0; stroke-width: 1.2; stroke: #000000" points="2.5,10.6 0,0.6 -2.5,10.6 "/>
  </g>
  <g>
    <path style="fill: none; fill-opacity:0; stroke-width: 0.3; stroke-linecap: round; stroke: #000000" d="M 141.776 213.954 L 145.214,213.954 L 145.214,214.891 L 142.714,214.891 L 142.714,216.141 L 144.901,216.141 L 144.901,216.766 L 142.714,216.766 L 142.714,218.641 L 145.214,218.641 L 145.214,219.266 L 141.776,219.266 L 141.776,213.954"/>
    <path style="fill: none; fill-opacity:0; stroke-width: 0.3; stroke-linecap: round; stroke: #000000" d="M 149.354 217.079 L 149.354,219.266 L 148.729,219.266 L 148.729,217.079 C 148.729,216.688 148.573,216.376 148.417,216.141 C 148.417,215.985 148.261,215.829 148.104,215.829 C 147.636,215.829 147.323,215.985 147.167,216.141 C 146.932,216.376 146.854,216.688 146.854,217.079 L 146.854,219.266 L 146.229,219.266 L 146.229,215.516 L 146.854,215.516 L 146.854,215.829 C 147.011,215.673 147.245,215.516 147.479,215.516 C 147.636,215.36 147.87,215.204 148.104,215.204 C 148.495,215.204 148.807,215.438 149.042,215.829 C 149.198,216.063 149.354,216.454 149.354,217.079 L 149.354,217.079"/>
    <path style="fill: none; fill-opacity:0; stroke-width: 0.3; stroke-linecap: round; stroke: #000000" d="M 154.12 217.079 L 154.12,217.391 L 151.307,217.391 C 151.307,217.86 151.386,218.251 151.62,218.641 C 151.776,218.876 152.089,218.954 152.557,218.954 C 152.714,218.954 152.948,218.954 153.182,218.954 C 153.339,218.798 153.573,218.641 153.807,218.641 L 153.807,218.954 C 153.573,219.188 153.339,219.266 153.182,219.266 C 152.948,219.266 152.714,219.266 152.557,219.266 C 151.932,219.266 151.386,219.188 150.995,218.954 C 150.526,218.563 150.37,218.016 150.37,217.391 C 150.37,216.766 150.526,216.298 150.995,215.829 C 151.386,215.438 151.776,215.204 152.245,215.204 C 152.87,215.204 153.261,215.438 153.495,215.829 C 153.886,216.063 154.12,216.454 154.12,217.079 L 154.12,217.079"/>
    <path style="fill: none; fill-opacity:0; stroke-width: 0.3; stroke-linecap: round; stroke: #000000" d="M 153.495 217.079 C 153.495,216.688 153.339,216.376 153.182,216.141 C 152.948,215.985 152.636,215.829 152.245,215.829 C 152.011,215.829 151.776,215.985 151.62,216.141 C 151.386,216.376 151.307,216.688 151.307,217.079 L 153.495,217.079"/>
    <path style="fill: none; fill-opacity:0; stroke-width: 0.3; stroke-linecap: round; stroke: #000000" d="M 157.245 215.829 C 157.245,215.829 157.089,215.829 156.932,215.829 C 156.464,215.829 156.151,216.063 155.995,216.454 C 155.761,216.688 155.682,217.001 155.682,217.391 L 155.682,219.266 L 155.057,219.266 L 155.057,215.516 L 155.682,215.516 L 155.682,215.829 C 155.839,215.673 156.073,215.516 156.307,215.516 C 156.464,215.36 156.698,215.204 156.932,215.204 C 157.089,215.204 157.245,215.204 157.245,215.204 L 157.245,215.829"/>
    <path style="fill: none; fill-opacity:0; stroke-width: 0.3; stroke-linecap: round; stroke: #000000" d="M 160.448 217.391 C 160.448,217.001 160.292,216.688 160.136,216.454 C 159.901,216.063 159.667,215.829 159.511,215.829 C 159.042,215.829 158.729,216.063 158.573,216.454 C 158.339,216.688 158.261,217.001 158.261,217.391 C 158.261,217.86 158.339,218.173 158.573,218.329 C 158.729,218.563 159.042,218.641 159.511,218.641 C 159.667,218.641 159.901,218.563 160.136,218.329 C 160.292,218.173 160.448,217.86 160.448,217.391 L 160.448,217.391"/>
    <path style="fill: none; fill-opacity:0; stroke-width: 0.3; stroke-linecap: round; stroke: #000000" d="M 161.073 218.954 C 161.073,219.579 160.917,219.97 160.761,220.204 C 160.526,220.595 160.136,220.829 159.511,220.829 C 159.276,220.829 159.042,220.673 158.886,220.516 C 158.651,220.516 158.417,220.516 158.261,220.516 L 158.261,219.891 C 158.417,219.891 158.573,219.891 158.573,219.891 C 158.729,220.048 158.964,220.204 159.198,220.204 C 159.589,220.204 159.901,220.048 160.136,219.891 C 160.292,219.657 160.448,219.345 160.448,218.954 L 160.448,218.641 C 160.448,218.876 160.292,219.11 160.136,219.266 C 159.901,219.266 159.589,219.266 159.198,219.266 C 158.729,219.266 158.339,219.11 157.948,218.641 C 157.714,218.251 157.636,217.86 157.636,217.391 C 157.636,216.766 157.714,216.298 157.948,215.829 C 158.339,215.438 158.729,215.204 159.198,215.204 C 159.589,215.204 159.901,215.36 160.136,215.516 C 160.292,215.516 160.448,215.673 160.448,215.829 L 160.448,215.516 L 161.073,215.516 L 161.073,218.954"/>
    <path style="fill: none; fill-opacity:0; stroke-width: 0.3; stroke-linecap: round; stroke: #000000" d="M 163.964 219.579 C 163.729,220.204 163.495,220.516 163.339,220.516 C 163.339,220.673 163.182,220.829 163.026,220.829 L 162.401,220.829 L 162.401,220.204 L 162.714,220.204 C 162.87,220.204 163.026,220.048 163.026,219.891 C 163.182,219.891 163.339,219.735 163.339,219.579 L 163.651,219.266 L 162.089,215.516 L 162.714,215.516 L 163.964,218.329 L 165.214,215.516 L 165.839,215.516 L 163.964,219.579"/>
    <path style="fill: none; fill-opacity:0; stroke-width: 0.3; stroke-linecap: round; stroke: #000000" d="M 172.557 214.579 L 172.557,215.204 C 172.323,215.048 172.089,214.891 171.932,214.891 C 171.698,214.735 171.464,214.579 171.307,214.579 C 170.682,214.579 170.136,214.813 169.745,215.204 C 169.511,215.438 169.432,215.985 169.432,216.766 C 169.432,217.391 169.511,217.938 169.745,218.329 C 170.136,218.798 170.682,218.954 171.307,218.954 C 171.464,218.954 171.698,218.954 171.932,218.954 C 172.089,218.798 172.323,218.485 172.557,218.016 L 172.557,218.954 C 172.323,219.188 172.089,219.266 171.932,219.266 C 171.698,219.266 171.386,219.266 170.995,219.266 C 170.37,219.266 169.745,219.11 169.12,218.641 C 168.651,218.251 168.495,217.626 168.495,216.766 C 168.495,215.985 168.651,215.36 169.12,214.891 C 169.745,214.266 170.37,213.954 170.995,213.954 C 171.386,213.954 171.698,214.11 171.932,214.266 C 172.089,214.266 172.323,214.423 172.557,214.579 L 172.557,214.579"/>
    <path style="fill: none; fill-opacity:0; stroke-width: 0.3; stroke-linecap: round; stroke: #000000" d="M 175.682 217.391 C 175.057,217.391 174.589,217.548 174.432,217.704 C 174.432,217.704 174.432,217.86 174.432,218.016 C 174.432,218.251 174.432,218.485 174.432,218.641 C 174.589,218.876 174.823,218.954 175.057,218.954 C 175.448,218.954 175.761,218.876 175.995,218.641 C 176.151,218.251 176.307,217.86 176.307,217.391 L 175.682,217.391"/>
    <path style="fill: none; fill-opacity:0; stroke-width: 0.3; stroke-linecap: round; stroke: #000000" d="M 176.932 217.079 L 176.932,219.266 L 176.307,219.266 L 176.307,218.641 C 176.073,218.876 175.839,219.11 175.682,219.266 C 175.448,219.266 175.214,219.266 175.057,219.266 C 174.589,219.266 174.198,219.188 173.807,218.954 C 173.573,218.798 173.495,218.485 173.495,218.016 C 173.495,217.626 173.573,217.313 173.807,217.079 C 174.198,216.923 174.745,216.766 175.37,216.766 L 176.307,216.766 C 176.307,216.376 176.151,216.141 175.995,216.141 C 175.761,215.985 175.448,215.829 175.057,215.829 C 174.823,215.829 174.589,215.829 174.432,215.829 C 174.198,215.829 173.964,215.985 173.807,216.141 L 173.807,215.516 C 174.198,215.516 174.511,215.516 174.745,215.516 C 174.901,215.36 175.057,215.204 175.057,215.204 C 175.682,215.204 176.073,215.438 176.307,215.829 C 176.698,216.063 176.932,216.454 176.932,217.079 L 176.932,217.079"/>
    <path style="fill: none; fill-opacity:0; stroke-width: 0.3; stroke-linecap: round; stroke: #000000" d="M 178.729 218.641 L 178.729,220.829 L 178.104,220.829 L 178.104,215.516 L 178.729,215.516 L 178.729,215.829 C 178.886,215.673 179.12,215.516 179.354,215.516 C 179.511,215.36 179.745,215.204 179.979,215.204 C 180.37,215.204 180.682,215.438 180.917,215.829 C 181.307,216.298 181.542,216.766 181.542,217.391 C 181.542,218.016 181.307,218.563 180.917,218.954 C 180.682,219.188 180.37,219.266 179.979,219.266 C 179.745,219.266 179.511,219.266 179.354,219.266 C 179.12,219.11 178.886,218.876 178.729,218.641 L 178.729,218.641"/>
    <path style="fill: none; fill-opacity:0; stroke-width: 0.3; stroke-linecap: round; stroke: #000000" d="M 180.917 217.391 C 180.917,217.001 180.761,216.688 180.604,216.454 C 180.37,216.063 180.057,215.829 179.667,215.829 C 179.432,215.829 179.198,216.063 179.042,216.454 C 178.807,216.688 178.729,217.001 178.729,217.391 C 178.729,217.86 178.807,218.251 179.042,218.641 C 179.198,218.876 179.432,218.954 179.667,218.954 C 180.057,218.954 180.37,218.876 180.604,218.641 C 180.761,218.251 180.917,217.86 180.917,217.391 L 180.917,217.391"/>
    <path style="fill: none; fill-opacity:0; stroke-width: 0.3; stroke-linecap: round; stroke: #000000" d="M 184.432 217.391 C 183.807,217.391 183.339,217.548 183.182,217.704 C 183.182,217.704 183.182,217.86 183.182,218.016 C 183.182,218.251 183.182,218.485 183.182,218.641 C 183.339,218.876 183.573,218.954 183.807,218.954 C 184.198,218.954 184.511,218.876 184.745,218.641 C 184.901,218.251 185.057,217.86 185.057,217.391 L 184.432,217.391"/>
    <path style="fill: none; fill-opacity:0; stroke-width: 0.3; stroke-linecap: round; stroke: #000000" d="M 185.682 217.079 L 185.682,219.266 L 185.057,219.266 L 185.057,218.641 C 184.823,218.876 184.589,219.11 184.432,219.266 C 184.198,219.266 183.964,219.266 183.807,219.266 C 183.339,219.266 182.948,219.188 182.557,218.954 C 182.323,218.798 182.245,218.485 182.245,218.016 C 182.245,217.626 182.323,217.313 182.557,217.079 C 182.948,216.923 183.495,216.766 184.12,216.766 L 185.057,216.766 C 185.057,216.376 184.901,216.141 184.745,216.141 C 184.511,215.985 184.198,215.829 183.807,215.829 C 183.573,215.829 183.339,215.829 183.182,215.829 C 182.948,215.829 182.714,215.985 182.557,216.141 L 182.557,215.516 C 182.948,215.516 183.261,215.516 183.495,215.516 C 183.651,215.36 183.807,215.204 183.807,215.204 C 184.432,215.204 184.823,215.438 185.057,215.829 C 185.448,216.063 185.682,216.454 185.682,217.079 L 185.682,217.079"/>
    <path style="fill: none; fill-opacity:0; stroke-width: 0.3; stroke-linecap: round; stroke: #000000" d="M 189.745 215.516 L 189.745,216.141 C 189.511,215.985 189.276,215.829 189.12,215.829 C 188.886,215.829 188.651,215.829 188.495,215.829 C 188.261,215.829 188.026,216.063 187.87,216.454 C 187.636,216.688 187.557,217.001 187.557,217.391 C 187.557,217.86 187.636,218.251 187.87,218.641 C 188.026,218.876 188.261,218.954 188.495,218.954 C 188.651,218.954 188.886,218.954 189.12,218.954 C 189.276,218.798 189.511,218.641 189.745,218.641 L 189.745,219.266 C 189.511,219.266 189.276,219.266 189.12,219.266 C 188.886,219.266 188.651,219.266 188.495,219.266 C 188.026,219.266 187.636,219.188 187.245,218.954 C 186.776,218.563 186.62,218.016 186.62,217.391 C 186.62,216.766 186.776,216.298 187.245,215.829 C 187.636,215.438 188.026,215.204 188.495,215.204 C 188.651,215.204 188.886,215.36 189.12,215.516 C 189.276,215.516 189.511,215.516 189.745,215.516 L 189.745,215.516"/>
    <path style="fill: none; fill-opacity:0; stroke-width: 0.3; stroke-linecap: round; stroke: #000000" d="M 190.761 215.516 L 191.386,215.516 L 191.386,219.266 L 190.761,219.266 L 190.761,215.516"/>
    <path style="fill: none; fill-opacity:0; stroke-width: 0.3; stroke-linecap: round; stroke: #000000" d="M 190.761 213.954 L 191.386,213.954 L 191.386,214.891 L 190.761,214.891 L 190.761,213.954"/>
    <path style="fill: none; fill-opacity:0; stroke-width: 0.3; stroke-linecap: round; stroke: #000000" d="M 193.339 214.266 L 193.339,215.516 L 194.589,215.516 L 194.589,215.829 L 193.339,215.829 L 193.339,218.016 C 193.339,218.485 193.339,218.641 193.339,218.641 C 193.495,218.641 193.729,218.641 193.964,218.641 L 194.589,218.641 L 194.589,219.266 L 193.964,219.266 C 193.495,219.266 193.182,219.188 193.026,218.954 C 192.792,218.798 192.714,218.485 192.714,218.016 L 192.714,215.829 L 192.401,215.829 L 192.401,215.516 L 192.714,215.516 L 192.714,214.266 L 193.339,214.266"/>
    <path style="fill: none; fill-opacity:0; stroke-width: 0.3; stroke-linecap: round; stroke: #000000" d="M 197.089 219.579 C 196.854,220.204 196.62,220.516 196.464,220.516 C 196.464,220.673 196.307,220.829 196.151,220.829 L 195.526,220.829 L 195.526,220.204 L 195.839,220.204 C 195.995,220.204 196.151,220.048 196.151,219.891 C 196.307,219.891 196.464,219.735 196.464,219.579 L 196.776,219.266 L 195.214,215.516 L 195.839,215.516 L 197.089,218.329 L 198.339,215.516 L 198.964,215.516 L 197.089,219.579"/>
  </g>
  <g>
    <path style="fill: none; fill-opacity:0; stroke-width: 0.3; stroke-linecap: round; stroke: #000000" d="M -17.3086 52.8283 L -15.4082,52.7872 L -15.5243,52.1731 C -15.3665,51.7457 -15.41,51.5154 -15.6403,51.559 C -15.8229,51.4344 -16.0822,51.3244 -16.3125,51.368 C -16.6963,51.4405 -16.9266,51.484 -16.9266,51.484 C -17.0802,51.513 -17.2669,51.7869 -17.4247,52.2142 L -17.3086,52.8283"/>
    <path style="fill: none; fill-opacity:0; stroke-width: 0.3; stroke-linecap: round; stroke: #000000" d="M -18.0557 53.9236 L -18.0388,52.3303 C -17.9246,51.6726 -17.7668,51.2453 -17.6568,50.9859 C -17.4555,50.7889 -17.0717,50.7164 -16.4285,50.7538 C -15.968,50.6668 -15.6174,50.8391 -15.3913,51.1939 C -15.1175,51.3806 -15.0449,51.7645 -15.1592,52.4221 L -15.0431,53.0363 L -12.8356,52.9371 L -12.9686,53.9163 L -18.0557,53.9236"/>
    <path style="fill: none; fill-opacity:0; stroke-width: 0.3; stroke-linecap: round; stroke: #000000" d="M -16.4612 48.0567 C -16.3742,48.5173 -16.0858,48.7809 -15.673,48.8619 C -15.3992,49.0486 -15.0486,49.2209 -14.6357,49.3019 C -14.1751,49.2149 -13.7913,49.1423 -13.4075,49.0698 C -13.2062,48.8727 -13.1874,48.5512 -13.2745,48.0906 C -13.15,47.908 -13.1935,47.6777 -13.3906,47.4764 C -13.8469,47.1651 -14.2743,47.0074 -14.7349,47.0944 C -15.1477,47.0134 -15.4548,47.0715 -15.6561,47.2685 C -15.9964,47.5714 -16.2599,47.8597 -16.4612,48.0567 L -16.4612,48.0567"/>
    <path style="fill: none; fill-opacity:0; stroke-width: 0.3; stroke-linecap: round; stroke: #000000" d="M -16.7683 48.1148 C -16.6105,47.6874 -16.3615,47.3223 -16.0212,47.0195 C -15.8634,46.5921 -15.4941,46.4428 -14.8509,46.4803 C -14.2368,46.3642 -13.7327,46.5075 -13.5066,46.8623 C -13.0357,47.2504 -12.8864,47.6197 -12.9674,48.0325 C -12.8514,48.6467 -12.9946,49.1508 -13.3494,49.3769 C -13.6897,49.6797 -14.2126,49.858 -14.8267,49.9741 C -15.4699,49.9366 -15.8972,49.7788 -16.1711,49.5921 C -16.3971,49.2372 -16.6522,48.7289 -16.7683,48.1148 L -16.7683,48.1148"/>
    <path style="fill: none; fill-opacity:0; stroke-width: 0.3; stroke-linecap: round; stroke: #000000" d="M -16.7429 45.7247 L -16.5519,45.0526 L -13.9044,43.9162 L -16.535,43.4592 L -16.651,42.8451 L -14.0035,41.7087 L -16.6341,41.2517 L -16.7502,40.6376 L -12.7752,41.4766 L -12.9662,42.1487 L -15.9789,43.0361 L -12.9832,43.7421 L -12.8091,44.6633 L -16.7429,45.7247"/>
    <path style="fill: none; fill-opacity:0; stroke-width: 0.3; stroke-linecap: round; stroke: #000000" d="M -15.1435 36.5176 L -14.8365,36.4596 L -14.6213,39.2812 C -14.0071,39.1651 -13.561,39.0013 -13.451,38.742 C -13.2497,38.545 -13.231,38.2234 -13.3181,37.7628 C -13.1935,37.5802 -13.2371,37.3499 -13.4341,37.1487 C -13.4631,36.9951 -13.5067,36.7648 -13.5502,36.5345 L -13.2431,36.4765 C -13.0461,36.6778 -12.849,36.8791 -12.82,37.0326 C -12.7765,37.2629 -12.8865,37.5222 -13.011,37.7048 C -12.8949,38.3189 -13.0237,38.8998 -13.335,39.3561 C -13.6753,39.659 -14.1981,39.8373 -14.8123,39.9533 C -15.4554,39.9159 -15.8973,39.6813 -16.2146,39.2643 C -16.4407,38.9095 -16.6668,38.5546 -16.7538,38.094 C -16.6396,37.4364 -16.405,36.9945 -16.0647,36.6917 C -15.8634,36.4946 -15.5564,36.4366 -15.1435,36.5176 L -15.1435,36.5176"/>
    <path style="fill: none; fill-opacity:0; stroke-width: 0.3; stroke-linecap: round; stroke: #000000" d="M -15.0275 37.1317 C -15.4403,37.0507 -15.7474,37.1088 -15.9487,37.3058 C -16.1022,37.3348 -16.289,37.6087 -16.4467,38.036 C -16.4032,38.2663 -16.1917,38.5444 -15.9656,38.8992 C -15.6918,39.086 -15.3412,39.2582 -14.9283,39.3392 L -15.0275,37.1317"/>
    <path style="fill: none; fill-opacity:0; stroke-width: 0.3; stroke-linecap: round; stroke: #000000" d="M -15.9789 32.9386 C -15.9789,32.9386 -15.9499,33.0921 -15.9209,33.2457 C -16.0744,33.2747 -16.3047,33.3182 -16.535,33.3617 C -16.448,33.8223 -16.1596,34.0859 -15.7468,34.1669 C -15.473,34.3536 -15.1224,34.5259 -14.7095,34.6069 L -12.8091,34.5658 L -13.0001,35.238 L -16.801,35.3202 L -16.61,34.648 L -15.9958,34.532 C -16.1784,34.4074 -16.3754,34.2062 -16.4189,33.9759 C -16.6015,33.8513 -16.645,33.621 -16.535,33.3617 C -16.564,33.2082 -16.593,33.0547 -16.593,33.0547 L -15.9789,32.9386"/>
    <path style="fill: none; fill-opacity:0; stroke-width: 0.3; stroke-linecap: round; stroke: #000000" d="M -17.5004 26.1499 L -16.5211,26.2829 C -17.1353,26.399 -17.4133,26.6105 -17.3843,26.7641 C -17.4943,27.0234 -17.5898,27.3595 -17.5173,27.7433 C -17.5838,28.2329 -17.42,28.679 -16.9201,29.2206 C -16.3724,29.5941 -15.8828,29.6606 -15.2687,29.5446 C -14.611,29.6588 -14.0737,29.5573 -13.7334,29.2544 C -13.3453,28.7835 -13.1875,28.3562 -13.0443,27.8521 C -13.1168,27.4682 -13.3284,27.1902 -13.5254,26.9889 C -13.5544,26.8354 -13.6125,26.5283 -13.6995,26.0677 L -13.0274,26.2587 C -12.9838,26.489 -12.9403,26.7193 -12.9113,26.8729 C -12.8678,27.1031 -12.8097,27.4102 -12.7372,27.794 C -12.8515,28.4517 -13.057,29.0471 -13.3683,29.5035 C -13.8953,30.0801 -14.5717,30.2874 -15.4597,30.2167 C -16.2273,30.3618 -16.8995,30.1708 -17.4762,29.6437 C -17.9761,29.1021 -18.1689,28.5025 -18.1314,27.8593 C -18.2039,27.4755 -18.1084,27.1394 -17.9984,26.8801 C -18.0274,26.7266 -17.8407,26.4528 -17.5004,26.1499 L -17.5004,26.1499"/>
    <path style="fill: none; fill-opacity:0; stroke-width: 0.3; stroke-linecap: round; stroke: #000000" d="M -14.9417 23.2812 C -14.8256,23.8953 -14.5851,24.3269 -14.4025,24.4514 C -14.359,24.6817 -14.1909,24.7294 -14.0374,24.7004 C -13.8071,24.6569 -13.5768,24.6134 -13.4233,24.5844 C -13.222,24.3873 -13.1888,24.1425 -13.2323,23.9122 C -13.3048,23.5284 -13.4396,23.2358 -13.7134,23.049 C -13.9395,22.6942 -14.2901,22.522 -14.7507,22.609 L -14.9417,23.2812"/>
    <path style="fill: none; fill-opacity:0; stroke-width: 0.3; stroke-linecap: round; stroke: #000000" d="M -15.1158 22.36 L -12.9083,22.2608 L -12.8503,22.5679 L -13.4644,22.684 C -13.2673,22.8852 -13.0703,23.0865 -13.0413,23.2401 C -12.9978,23.4704 -12.9542,23.7007 -12.9252,23.8542 C -12.8092,24.4683 -12.8756,24.9579 -13.0002,25.1405 C -13.3405,25.4433 -13.6475,25.5013 -13.9214,25.3146 C -14.5355,25.4306 -14.8571,25.4119 -14.9006,25.1816 C -15.1267,24.8268 -15.3817,24.3184 -15.4978,23.7043 L -15.3648,22.7251 L -15.4228,22.418 C -15.5764,22.447 -15.7777,22.6441 -15.9789,22.8411 C -16.3193,23.144 -16.4915,23.4945 -16.419,23.8784 C -16.3755,24.1087 -16.1784,24.31 -15.9959,24.4345 C -15.9523,24.6648 -15.9856,24.9096 -16.1869,25.1066 L -16.4939,25.1647 C -16.5229,25.0111 -16.5665,24.7808 -16.61,24.5505 C -16.6825,24.1667 -16.7261,23.9364 -16.7261,23.9364 C -16.6118,23.2788 -16.4541,22.8514 -16.344,22.5921 C -16.1428,22.395 -15.7589,22.3225 -15.1158,22.36 L -15.1158,22.36"/>
    <path style="fill: none; fill-opacity:0; stroke-width: 0.3; stroke-linecap: round; stroke: #000000" d="M -13.3623 20.2794 L -11.1548,20.1803 L -11.3458,20.8524 L -16.74,20.9177 L -16.549,20.2456 L -15.9348,20.1295 C -16.1174,20.005 -16.3144,19.8037 -16.358,19.5734 C -16.5405,19.4489 -16.584,19.2186 -16.474,18.9593 C -16.5466,18.5755 -16.3743,18.2249 -16.034,17.922 C -15.8762,17.4947 -15.5069,17.3454 -14.8637,17.3829 C -14.2496,17.2668 -13.7455,17.41 -13.5194,17.7649 C -13.0485,18.1529 -12.7457,18.4932 -12.6732,18.8771 C -12.86,19.1509 -13.0467,19.4247 -13.1712,19.6073 C -13.1277,19.8376 -13.161,20.0824 -13.3623,20.2794 L -13.3623,20.2794"/>
    <path style="fill: none; fill-opacity:0; stroke-width: 0.3; stroke-linecap: round; stroke: #000000" d="M -14.7477 17.997 C -15.1605,17.916 -15.4676,17.974 -15.6689,18.1711 C -16.0092,18.4739 -16.2582,18.839 -16.416,19.2664 C -16.3725,19.4967 -16.0986,19.6834 -15.6858,19.7644 C -15.412,19.9512 -15.0614,20.1235 -14.6485,20.2045 C -14.1879,20.1174 -13.8041,20.0449 -13.4203,19.9723 C -13.219,19.7753 -13.1858,19.5305 -13.2293,19.3002 C -13.1483,18.8873 -13.2063,18.5803 -13.4034,18.379 C -13.8597,18.0677 -14.2871,17.9099 -14.7477,17.997 L -14.7477,17.997"/>
    <path style="fill: none; fill-opacity:0; stroke-width: 0.3; stroke-linecap: round; stroke: #000000" d="M -14.9254 14.5322 C -14.8093,15.1464 -14.5688,15.5779 -14.3862,15.7025 C -14.3427,15.9328 -14.1747,15.9805 -14.0211,15.9515 C -13.7908,15.908 -13.5605,15.8644 -13.407,15.8354 C -13.2057,15.6384 -13.1725,15.3936 -13.216,15.1633 C -13.2885,14.7794 -13.4233,14.4869 -13.6971,14.3001 C -13.9232,13.9453 -14.2738,13.773 -14.7344,13.8601 L -14.9254,14.5322"/>
    <path style="fill: none; fill-opacity:0; stroke-width: 0.3; stroke-linecap: round; stroke: #000000" d="M -15.0995 13.611 L -12.892,13.5119 L -12.834,13.819 L -13.4481,13.935 C -13.2511,14.1363 -13.054,14.3376 -13.025,14.4911 C -12.9815,14.7214 -12.9379,14.9517 -12.9089,15.1052 C -12.7929,15.7194 -12.8594,16.209 -12.9839,16.3915 C -13.3242,16.6944 -13.6313,16.7524 -13.9051,16.5656 C -14.5192,16.6817 -14.8408,16.6629 -14.8843,16.4326 C -15.1104,16.0778 -15.3655,15.5695 -15.4815,14.9553 L -15.3485,13.9761 L -15.4066,13.6691 C -15.5601,13.6981 -15.7614,13.8951 -15.9627,14.0922 C -16.303,14.395 -16.4752,14.7456 -16.4027,15.1294 C -16.3592,15.3597 -16.1621,15.561 -15.9796,15.6855 C -15.9361,15.9158 -15.9693,16.1606 -16.1706,16.3577 L -16.4777,16.4157 C -16.5067,16.2622 -16.5502,16.0319 -16.5937,15.8016 C -16.6662,15.4178 -16.7098,15.1875 -16.7098,15.1875 C -16.5955,14.5298 -16.4378,14.1025 -16.3278,13.8431 C -16.1265,13.6461 -15.7426,13.5736 -15.0995,13.611 L -15.0995,13.611"/>
    <path style="fill: none; fill-opacity:0; stroke-width: 0.3; stroke-linecap: round; stroke: #000000" d="M -16.6463 9.21239 L -16.0322,9.09633 C -15.9887,9.32663 -15.9452,9.55693 -15.9161,9.71046 C -16.0261,9.96977 -16.2129,10.2436 -16.4142,10.4406 C -16.3707,10.6709 -16.0824,10.9345 -15.626,11.2458 C -15.3522,11.4326 -15.0016,11.6048 -14.5887,11.6858 C -14.1281,11.5988 -13.7588,11.4495 -13.4185,11.1466 C -13.2172,10.9496 -13.184,10.7048 -13.2275,10.4745 C -13.103,10.2919 -13.1465,10.0616 -13.3436,9.86036 C -13.3726,9.70682 -13.4161,9.47652 -13.4596,9.24623 L -12.8455,9.13017 C -12.802,9.36047 -12.7584,9.59077 -12.7294,9.7443 C -12.6859,9.9746 -12.7959,10.2339 -12.9204,10.4165 C -12.8334,10.8771 -12.9912,11.3044 -13.3024,11.7608 C -13.6428,12.0636 -14.1656,12.2419 -14.7797,12.358 C -15.4229,12.3205 -15.8647,12.086 -16.1821,11.6689 C -16.4082,11.3141 -16.6342,10.9593 -16.7213,10.4987 C -16.52,10.3016 -16.4867,10.0568 -16.5303,9.82652 C -16.5593,9.67299 -16.6028,9.44269 -16.6463,9.21239 L -16.6463,9.21239"/>
    <path style="fill: none; fill-opacity:0; stroke-width: 0.3; stroke-linecap: round; stroke: #000000" d="M -16.7582 8.19992 L -16.5671,7.52776 L -12.7663,7.44554 L -12.9573,8.1177 L -16.7582,8.19992"/>
    <path style="fill: none; fill-opacity:0; stroke-width: 0.3; stroke-linecap: round; stroke: #000000" d="M -18.3515 8.183 L -18.1605,7.51084 L -17.2393,7.33676 L -17.4303,8.00892 L -18.3515,8.183"/>
    <path style="fill: none; fill-opacity:0; stroke-width: 0.3; stroke-linecap: round; stroke: #000000" d="M -17.8945 5.5524 L -16.6083,5.62734 L -16.5333,4.34105 L -16.2262,4.28303 L -16.3012,5.56931 L -14.0937,5.47017 C -13.5896,5.61343 -13.4216,5.66118 -13.4216,5.66118 C -13.4506,5.50765 -13.4941,5.27735 -13.5376,5.04705 L -13.3466,4.37489 L -12.7325,4.25883 L -12.9235,4.93099 C -12.8364,5.39159 -12.9319,5.72767 -13.0565,5.91022 C -13.3968,6.21305 -13.7806,6.28559 -14.2847,6.14233 L -16.4922,6.24147 L -16.4342,6.54854 L -16.7412,6.60657 L -16.7993,6.2995 L -18.0856,6.22456 L -17.8945,5.5524"/>
    <path style="fill: none; fill-opacity:0; stroke-width: 0.3; stroke-linecap: round; stroke: #000000" d="M -12.6448 1.77753 C -12.174,2.16559 -11.8089,2.41462 -11.5496,2.52464 C -11.396,2.49562 -11.199,2.6969 -11.1264,3.08074 L -11.3755,3.44583 L -11.9896,3.56189 L -11.7406,3.19679 C -11.7696,3.04326 -11.9666,2.84198 -12.1637,2.64069 C -12.1927,2.48716 -12.3752,2.36264 -12.5288,2.39166 L -12.8939,2.14262 L -16.7116,3.8182 L -16.5206,3.14604 L -13.9311,1.70258 L -16.6198,0.938556 L -16.7358,0.324426 L -12.6448,1.77753"/>
  </g>
  <text font-size="6.20889" style="fill: #000000;text-anchor:start;font-family:sans-serif;font-style:normal;font-weight:normal" x="197.752" y="211.388">
    <tspan x="197.752" y="211.388">s</tspan>
  </text>
  <text font-size="9.03111" style="fill: #000000;text-anchor:start;font-family:sans-serif;font-style:normal;font-weight:normal" x="191.752" y="210.363">
    <tspan x="191.752" y="210.363">E</tspan>
  </text>
  <text font-size="6.20889" style="fill: #000000;text-anchor:start;font-family:sans-serif;font-style:normal;font-weight:normal" x="-6.73569" y="7.90286">
    <tspan x="-6.73569" y="7.90286">s</tspan>
  </text>
  <text font-size="9.03111" style="fill: #000000;text-anchor:start;font-family:sans-serif;font-style:normal;font-weight:normal" x="-10.7357" y="6.96911">
    <tspan x="-10.7357" y="6.96911">P</tspan>
  </text>
</svg>
