<?xml version="1.0" encoding="UTF-8" standalone="no"?>
<!DOCTYPE svg PUBLIC "-//W3C//DTD SVG 1.0//EN" "http://www.w3.org/TR/2001/PR-SVG-20010719/DTD/svg10.dtd">
<svg width="12cm" height="12cm" viewBox="-21 -13 236 234" xmlns="http://www.w3.org/2000/svg" xmlns:xlink="http://www.w3.org/1999/xlink">
  <g>
    <line style="fill: none; fill-opacity:0; stroke-width: 1.2; stroke: #c00000" x1="10.6" y1="4" x2="197" y2="4"/>
    <polygon style="fill: #c00000" points="10.6,1.5 0.6,4 10.6,6.5 "/>
    <polygon style="fill: none; fill-opacity:0; stroke-width: 1.2; stroke: #c00000" points="10.6,1.5 0.6,4 10.6,6.5 "/>
  </g>
  <g>
    <path style="fill: #efefef" d="M 0 200 C 0,200 36,188 68,176 C 100,164 120,153.333 136,142 C 152,130.667 168,110 180,88 C 192,66 196,12 196,8 C 196,4 196,4 196,4 C 196,4 184,16 168,32 C 152,48 0,200 0,200z"/>
    <path style="fill: none; fill-opacity:0; stroke-width: 1; stroke: #efefef" d="M 0 200 C 0,200 36,188 68,176 C 100,164 120,153.333 136,142 C 152,130.667 168,110 180,88 C 192,66 196,12 196,8 C 196,4 196,4 196,4 C 196,4 184,16 168,32 C 152,48 0,200 0,200"/>
  </g>
  <g>
    <path style="fill: #d7d7d7" d="M 0 200 C 0,200 40,180 64,168 C 88,156 118,140 134,128 C 150,116 168,96 176,82 C 184,68 196,12 196,8 C 196,4 196,4 196,4 C 196,4 184,16 168,32 C 152,48 0,200 0,200z"/>
    <path style="fill: none; fill-opacity:0; stroke-width: 1; stroke: #d7d7d7" d="M 0 200 C 0,200 40,180 64,168 C 88,156 118,140 134,128 C 150,116 168,96 176,82 C 184,68 196,12 196,8 C 196,4 196,4 196,4 C 196,4 184,16 168,32 C 152,48 0,200 0,200"/>
  </g>
  <line style="fill: none; fill-opacity:0; stroke-width: 1.2; stroke: #800080" x1="2" y1="198" x2="200" y2="0"/>
  <g>
    <ellipse style="fill: #ffffff" cx="196" cy="4" rx="1" ry="1"/>
    <ellipse style="fill: none; fill-opacity:0; stroke-width: 4; stroke: #800080" cx="196" cy="4" rx="1" ry="1"/>
  </g>
  <g>
    <line style="fill: none; fill-opacity:0; stroke-width: 1.2; stroke: #c00000" x1="196" y1="189.4" x2="196" y2="3"/>
    <polygon style="fill: #c00000" points="193.5,189.4 196,199.4 198.5,189.4 "/>
    <polygon style="fill: none; fill-opacity:0; stroke-width: 1.2; stroke: #c00000" points="193.5,189.4 196,199.4 198.5,189.4 "/>
  </g>
  <line style="fill: none; fill-opacity:0; stroke-width: 2; stroke: #800080" x1="0" y1="200" x2="196.707" y2="3.2929"/>
  <line style="fill: none; fill-opacity:0; stroke-width: 1; stroke: #00c000" x1="0" y1="200" x2="200" y2="60"/>
  <line style="fill: none; fill-opacity:0; stroke-width: 1.2; stroke: #000000" x1="196" y1="202" x2="196" y2="198"/>
  <line style="fill: none; fill-opacity:0; stroke-width: 1.2; stroke: #000000" x1="-2" y1="4" x2="2" y2="4"/>
  <line style="fill: none; fill-opacity:0; stroke-width: 1; stroke: #c00000" x1="60" y1="200" x2="200" y2="0"/>
  <g>
    <line style="fill: none; fill-opacity:0; stroke-width: 2; stroke: #c00000" x1="124.244" y1="108.144" x2="196.278" y2="3.6635"/>
    <polygon style="fill: #c00000" points="122.186,106.725 118.568,116.377 126.302,109.563 "/>
    <polygon style="fill: none; fill-opacity:0; stroke-width: 2; stroke: #c00000" points="122.186,106.725 118.568,116.377 126.302,109.563 "/>
  </g>
  <path style="fill: none; fill-opacity:0; stroke-width: 2; stroke: #800080" d="M 195.836 6.95943 C 191.836,78.9594 180,96 152,128 C 124,160 56,180 0,200"/>
  <path style="fill: none; fill-opacity:0; stroke-width: 1.6; stroke-dasharray: 6; stroke: #800080" d="M 195.532 6.9666 C 183.532,82.9666 176,88 148,116 C 120,144 56,172 0,200"/>
  <g>
    <line style="fill: none; fill-opacity:0; stroke-width: 2; stroke: #00c000" x1="0" y1="200" x2="110.598" y2="122.322"/>
    <polygon style="fill: #00c000" points="112.035,124.368 118.782,116.575 109.161,120.276 "/>
    <polygon style="fill: none; fill-opacity:0; stroke-width: 2; stroke: #00c000" points="112.035,124.368 118.782,116.575 109.161,120.276 "/>
  </g>
  <g>
    <line style="fill: none; fill-opacity:0; stroke-width: 1.2; stroke: #00c000" x1="0" y1="200" x2="189.4" y2="200"/>
    <polygon style="fill: #00c000" points="189.4,202.5 199.4,200 189.4,197.5 "/>
    <polygon style="fill: none; fill-opacity:0; stroke-width: 1.2; stroke: #00c000" points="189.4,202.5 199.4,200 189.4,197.5 "/>
  </g>
  <g>
    <line style="fill: none; fill-opacity:0; stroke-width: 1.2; stroke: #00c000" x1="0" y1="200" x2="0" y2="10.6"/>
    <polygon style="fill: #00c000" points="2.5,10.6 0,0.6 -2.5,10.6 "/>
    <polygon style="fill: none; fill-opacity:0; stroke-width: 1.2; stroke: #00c000" points="2.5,10.6 0,0.6 -2.5,10.6 "/>
  </g>
  <g>
    <path style="fill: none; fill-opacity:0; stroke-width: 0.3; stroke-linecap: round; stroke: #00c000" d="M 122.938 216.891 L 122.938,218.766 L 123.875,218.766 C 124.266,218.766 124.578,218.766 124.812,218.766 C 124.969,218.609 125.125,218.297 125.125,217.828 C 125.125,217.672 124.969,217.438 124.812,217.203 C 124.578,217.047 124.266,216.891 123.875,216.891 L 122.938,216.891"/>
    <path style="fill: none; fill-opacity:0; stroke-width: 0.3; stroke-linecap: round; stroke: #00c000" d="M 122.938 215.016 L 122.938,216.266 L 123.875,216.266 C 124.266,216.266 124.5,216.266 124.5,216.266 C 124.656,216.109 124.812,215.875 124.812,215.641 C 124.812,215.484 124.656,215.328 124.5,215.328 C 124.5,215.172 124.266,215.016 123.875,215.016 L 122.938,215.016"/>
    <path style="fill: none; fill-opacity:0; stroke-width: 0.3; stroke-linecap: round; stroke: #00c000" d="M 122 214.078 L 123.875,214.078 C 124.5,214.078 124.891,214.312 125.125,214.703 C 125.281,214.938 125.438,215.25 125.438,215.641 C 125.438,215.875 125.281,216.109 125.125,216.266 C 125.125,216.5 124.969,216.578 124.812,216.578 C 124.969,216.812 125.203,217.047 125.438,217.203 C 125.594,217.438 125.75,217.672 125.75,217.828 C 125.75,218.453 125.516,218.922 125.125,219.078 C 124.891,219.312 124.5,219.391 123.875,219.391 L 122,219.391 L 122,214.078"/>
    <path style="fill: none; fill-opacity:0; stroke-width: 0.3; stroke-linecap: round; stroke: #00c000" d="M 128.719 217.516 C 128.094,217.516 127.625,217.672 127.469,217.828 C 127.469,217.828 127.469,217.984 127.469,218.141 C 127.469,218.375 127.469,218.609 127.469,218.766 C 127.625,219 127.859,219.078 128.094,219.078 C 128.484,219.078 128.797,219 129.031,218.766 C 129.188,218.375 129.344,217.984 129.344,217.516 L 128.719,217.516"/>
    <path style="fill: none; fill-opacity:0; stroke-width: 0.3; stroke-linecap: round; stroke: #00c000" d="M 129.969 217.203 L 129.969,219.391 L 129.344,219.391 L 129.344,218.766 C 129.109,219 128.875,219.234 128.719,219.391 C 128.484,219.391 128.25,219.391 128.094,219.391 C 127.625,219.391 127.234,219.312 126.844,219.078 C 126.609,218.922 126.531,218.609 126.531,218.141 C 126.531,217.75 126.609,217.438 126.844,217.203 C 127.234,217.047 127.781,216.891 128.406,216.891 L 129.344,216.891 C 129.344,216.5 129.188,216.266 129.031,216.266 C 128.797,216.109 128.484,215.953 128.094,215.953 C 127.859,215.953 127.625,215.953 127.469,215.953 C 127.234,215.953 127,216.109 126.844,216.266 L 126.844,215.641 C 127.234,215.641 127.547,215.641 127.781,215.641 C 127.938,215.484 128.094,215.328 128.094,215.328 C 128.719,215.328 129.109,215.562 129.344,215.953 C 129.734,216.188 129.969,216.578 129.969,217.203 L 129.969,217.203"/>
    <path style="fill: none; fill-opacity:0; stroke-width: 0.3; stroke-linecap: round; stroke: #00c000" d="M 133.641 215.641 L 133.641,216.266 C 133.406,216.109 133.172,215.953 133.016,215.953 C 132.781,215.953 132.547,215.953 132.391,215.953 C 132.156,215.953 131.922,216.109 131.766,216.266 C 131.531,216.266 131.453,216.422 131.453,216.578 C 131.453,216.812 131.453,216.891 131.453,216.891 C 131.609,216.891 131.922,217.047 132.391,217.203 L 132.703,217.203 C 133.094,217.203 133.406,217.359 133.641,217.516 C 133.797,217.75 133.953,217.984 133.953,218.141 C 133.953,218.609 133.719,218.922 133.328,219.078 C 133.094,219.312 132.781,219.391 132.391,219.391 C 132.156,219.391 131.844,219.391 131.453,219.391 C 131.219,219.391 130.984,219.391 130.828,219.391 L 130.828,218.766 C 130.984,218.766 131.219,218.922 131.453,219.078 C 131.844,219.078 132.156,219.078 132.391,219.078 C 132.547,219.078 132.703,219.078 132.703,219.078 C 132.859,218.922 133.016,218.688 133.016,218.453 C 133.016,218.297 132.859,218.141 132.703,218.141 C 132.703,217.984 132.547,217.828 132.391,217.828 L 132.078,217.516 C 131.609,217.516 131.297,217.516 131.141,217.516 C 130.906,217.359 130.828,217.047 130.828,216.578 C 130.828,216.188 130.906,215.875 131.141,215.641 C 131.531,215.484 131.922,215.328 132.391,215.328 C 132.547,215.328 132.781,215.484 133.016,215.641 C 133.172,215.641 133.406,215.641 133.641,215.641 L 133.641,215.641"/>
    <path style="fill: none; fill-opacity:0; stroke-width: 0.3; stroke-linecap: round; stroke: #00c000" d="M 138.25 217.203 L 138.25,217.516 L 135.438,217.516 C 135.438,217.984 135.516,218.375 135.75,218.766 C 135.906,219 136.219,219.078 136.688,219.078 C 136.844,219.078 137.078,219.078 137.312,219.078 C 137.469,218.922 137.703,218.766 137.938,218.766 L 137.938,219.078 C 137.703,219.312 137.469,219.391 137.312,219.391 C 137.078,219.391 136.844,219.391 136.688,219.391 C 136.062,219.391 135.516,219.312 135.125,219.078 C 134.656,218.688 134.5,218.141 134.5,217.516 C 134.5,216.891 134.656,216.422 135.125,215.953 C 135.516,215.562 135.906,215.328 136.375,215.328 C 137,215.328 137.391,215.562 137.625,215.953 C 138.016,216.188 138.25,216.578 138.25,217.203 L 138.25,217.203"/>
    <path style="fill: none; fill-opacity:0; stroke-width: 0.3; stroke-linecap: round; stroke: #00c000" d="M 137.625 217.203 C 137.625,216.812 137.469,216.5 137.312,216.266 C 137.078,216.109 136.766,215.953 136.375,215.953 C 136.141,215.953 135.906,216.109 135.75,216.266 C 135.516,216.5 135.438,216.812 135.438,217.203 L 137.625,217.203"/>
    <path style="fill: none; fill-opacity:0; stroke-width: 0.3; stroke-linecap: round; stroke: #00c000" d="M 141.453 214.078 L 144.891,214.078 L 144.891,215.016 L 142.391,215.016 L 142.391,216.266 L 144.578,216.266 L 144.578,216.891 L 142.391,216.891 L 142.391,218.766 L 144.891,218.766 L 144.891,219.391 L 141.453,219.391 L 141.453,214.078"/>
    <path style="fill: none; fill-opacity:0; stroke-width: 0.3; stroke-linecap: round; stroke: #00c000" d="M 149.031 217.203 L 149.031,219.391 L 148.406,219.391 L 148.406,217.203 C 148.406,216.812 148.25,216.5 148.094,216.266 C 148.094,216.109 147.938,215.953 147.781,215.953 C 147.312,215.953 147,216.109 146.844,216.266 C 146.609,216.5 146.531,216.812 146.531,217.203 L 146.531,219.391 L 145.906,219.391 L 145.906,215.641 L 146.531,215.641 L 146.531,215.953 C 146.688,215.797 146.922,215.641 147.156,215.641 C 147.312,215.484 147.547,215.328 147.781,215.328 C 148.172,215.328 148.484,215.562 148.719,215.953 C 148.875,216.188 149.031,216.578 149.031,217.203 L 149.031,217.203"/>
    <path style="fill: none; fill-opacity:0; stroke-width: 0.3; stroke-linecap: round; stroke: #00c000" d="M 153.797 217.203 L 153.797,217.516 L 150.984,217.516 C 150.984,217.984 151.062,218.375 151.297,218.766 C 151.453,219 151.766,219.078 152.234,219.078 C 152.391,219.078 152.625,219.078 152.859,219.078 C 153.016,218.922 153.25,218.766 153.484,218.766 L 153.484,219.078 C 153.25,219.312 153.016,219.391 152.859,219.391 C 152.625,219.391 152.391,219.391 152.234,219.391 C 151.609,219.391 151.062,219.312 150.672,219.078 C 150.203,218.688 150.047,218.141 150.047,217.516 C 150.047,216.891 150.203,216.422 150.672,215.953 C 151.062,215.562 151.453,215.328 151.922,215.328 C 152.547,215.328 152.938,215.562 153.172,215.953 C 153.562,216.188 153.797,216.578 153.797,217.203 L 153.797,217.203"/>
    <path style="fill: none; fill-opacity:0; stroke-width: 0.3; stroke-linecap: round; stroke: #00c000" d="M 153.172 217.203 C 153.172,216.812 153.016,216.5 152.859,216.266 C 152.625,216.109 152.312,215.953 151.922,215.953 C 151.688,215.953 151.453,216.109 151.297,216.266 C 151.062,216.5 150.984,216.812 150.984,217.203 L 153.172,217.203"/>
    <path style="fill: none; fill-opacity:0; stroke-width: 0.3; stroke-linecap: round; stroke: #00c000" d="M 156.844 215.953 C 156.844,215.953 156.688,215.953 156.531,215.953 C 156.062,215.953 155.75,216.188 155.594,216.578 C 155.359,216.812 155.281,217.125 155.281,217.516 L 155.281,219.391 L 154.656,219.391 L 154.656,215.641 L 155.281,215.641 L 155.281,215.953 C 155.438,215.797 155.672,215.641 155.906,215.641 C 156.062,215.484 156.297,215.328 156.531,215.328 C 156.688,215.328 156.844,215.328 156.844,215.328 L 156.844,215.953"/>
    <path style="fill: none; fill-opacity:0; stroke-width: 0.3; stroke-linecap: round; stroke: #00c000" d="M 160.125 217.516 C 160.125,217.125 159.969,216.812 159.812,216.578 C 159.578,216.188 159.344,215.953 159.188,215.953 C 158.719,215.953 158.406,216.188 158.25,216.578 C 158.016,216.812 157.938,217.125 157.938,217.516 C 157.938,217.984 158.016,218.297 158.25,218.453 C 158.406,218.688 158.719,218.766 159.188,218.766 C 159.344,218.766 159.578,218.688 159.812,218.453 C 159.969,218.297 160.125,217.984 160.125,217.516 L 160.125,217.516"/>
    <path style="fill: none; fill-opacity:0; stroke-width: 0.3; stroke-linecap: round; stroke: #00c000" d="M 160.75 219.078 C 160.75,219.703 160.594,220.094 160.438,220.328 C 160.203,220.719 159.812,220.953 159.188,220.953 C 158.953,220.953 158.719,220.797 158.562,220.641 C 158.328,220.641 158.094,220.641 157.938,220.641 L 157.938,220.016 C 158.094,220.016 158.25,220.016 158.25,220.016 C 158.406,220.172 158.641,220.328 158.875,220.328 C 159.266,220.328 159.578,220.172 159.812,220.016 C 159.969,219.781 160.125,219.469 160.125,219.078 L 160.125,218.766 C 160.125,219 159.969,219.234 159.812,219.391 C 159.578,219.391 159.266,219.391 158.875,219.391 C 158.406,219.391 158.016,219.234 157.625,218.766 C 157.391,218.375 157.312,217.984 157.312,217.516 C 157.312,216.891 157.391,216.422 157.625,215.953 C 158.016,215.562 158.406,215.328 158.875,215.328 C 159.266,215.328 159.578,215.484 159.812,215.641 C 159.969,215.641 160.125,215.797 160.125,215.953 L 160.125,215.641 L 160.75,215.641 L 160.75,219.078"/>
    <path style="fill: none; fill-opacity:0; stroke-width: 0.3; stroke-linecap: round; stroke: #00c000" d="M 163.641 219.703 C 163.406,220.328 163.172,220.641 163.016,220.641 C 163.016,220.797 162.859,220.953 162.703,220.953 L 162.078,220.953 L 162.078,220.328 L 162.391,220.328 C 162.547,220.328 162.703,220.172 162.703,220.016 C 162.859,220.016 163.016,219.859 163.016,219.703 L 163.328,219.391 L 161.766,215.641 L 162.391,215.641 L 163.641,218.453 L 164.891,215.641 L 165.516,215.641 L 163.641,219.703"/>
    <path style="fill: none; fill-opacity:0; stroke-width: 0.3; stroke-linecap: round; stroke: #00c000" d="M 172.234 214.703 L 172.234,215.328 C 172,215.172 171.766,215.016 171.609,215.016 C 171.375,214.859 171.141,214.703 170.984,214.703 C 170.359,214.703 169.812,214.938 169.422,215.328 C 169.188,215.562 169.109,216.109 169.109,216.891 C 169.109,217.516 169.188,218.062 169.422,218.453 C 169.812,218.922 170.359,219.078 170.984,219.078 C 171.141,219.078 171.375,219.078 171.609,219.078 C 171.766,218.922 172,218.609 172.234,218.141 L 172.234,219.078 C 172,219.312 171.766,219.391 171.609,219.391 C 171.375,219.391 171.062,219.391 170.672,219.391 C 170.047,219.391 169.422,219.234 168.797,218.766 C 168.328,218.375 168.172,217.75 168.172,216.891 C 168.172,216.109 168.328,215.484 168.797,215.016 C 169.422,214.391 170.047,214.078 170.672,214.078 C 171.062,214.078 171.375,214.234 171.609,214.391 C 171.766,214.391 172,214.547 172.234,214.703 L 172.234,214.703"/>
    <path style="fill: none; fill-opacity:0; stroke-width: 0.3; stroke-linecap: round; stroke: #00c000" d="M 175.281 217.516 C 174.656,217.516 174.188,217.672 174.031,217.828 C 174.031,217.828 174.031,217.984 174.031,218.141 C 174.031,218.375 174.031,218.609 174.031,218.766 C 174.188,219 174.422,219.078 174.656,219.078 C 175.047,219.078 175.359,219 175.594,218.766 C 175.75,218.375 175.906,217.984 175.906,217.516 L 175.281,217.516"/>
    <path style="fill: none; fill-opacity:0; stroke-width: 0.3; stroke-linecap: round; stroke: #00c000" d="M 176.531 217.203 L 176.531,219.391 L 175.906,219.391 L 175.906,218.766 C 175.672,219 175.438,219.234 175.281,219.391 C 175.047,219.391 174.812,219.391 174.656,219.391 C 174.188,219.391 173.797,219.312 173.406,219.078 C 173.172,218.922 173.094,218.609 173.094,218.141 C 173.094,217.75 173.172,217.438 173.406,217.203 C 173.797,217.047 174.344,216.891 174.969,216.891 L 175.906,216.891 C 175.906,216.5 175.75,216.266 175.594,216.266 C 175.359,216.109 175.047,215.953 174.656,215.953 C 174.422,215.953 174.188,215.953 174.031,215.953 C 173.797,215.953 173.562,216.109 173.406,216.266 L 173.406,215.641 C 173.797,215.641 174.109,215.641 174.344,215.641 C 174.5,215.484 174.656,215.328 174.656,215.328 C 175.281,215.328 175.672,215.562 175.906,215.953 C 176.297,216.188 176.531,216.578 176.531,217.203 L 176.531,217.203"/>
    <path style="fill: none; fill-opacity:0; stroke-width: 0.3; stroke-linecap: round; stroke: #00c000" d="M 178.328 218.766 L 178.328,220.953 L 177.703,220.953 L 177.703,215.641 L 178.328,215.641 L 178.328,215.953 C 178.484,215.797 178.719,215.641 178.953,215.641 C 179.109,215.484 179.344,215.328 179.578,215.328 C 179.969,215.328 180.281,215.562 180.516,215.953 C 180.906,216.422 181.141,216.891 181.141,217.516 C 181.141,218.141 180.906,218.688 180.516,219.078 C 180.281,219.312 179.969,219.391 179.578,219.391 C 179.344,219.391 179.109,219.391 178.953,219.391 C 178.719,219.234 178.484,219 178.328,218.766 L 178.328,218.766"/>
    <path style="fill: none; fill-opacity:0; stroke-width: 0.3; stroke-linecap: round; stroke: #00c000" d="M 180.516 217.516 C 180.516,217.125 180.359,216.812 180.203,216.578 C 179.969,216.188 179.656,215.953 179.266,215.953 C 179.031,215.953 178.797,216.188 178.641,216.578 C 178.406,216.812 178.328,217.125 178.328,217.516 C 178.328,217.984 178.406,218.375 178.641,218.766 C 178.797,219 179.031,219.078 179.266,219.078 C 179.656,219.078 179.969,219 180.203,218.766 C 180.359,218.375 180.516,217.984 180.516,217.516 L 180.516,217.516"/>
    <path style="fill: none; fill-opacity:0; stroke-width: 0.3; stroke-linecap: round; stroke: #00c000" d="M 184.109 217.516 C 183.484,217.516 183.016,217.672 182.859,217.828 C 182.859,217.828 182.859,217.984 182.859,218.141 C 182.859,218.375 182.859,218.609 182.859,218.766 C 183.016,219 183.25,219.078 183.484,219.078 C 183.875,219.078 184.188,219 184.422,218.766 C 184.578,218.375 184.734,217.984 184.734,217.516 L 184.109,217.516"/>
    <path style="fill: none; fill-opacity:0; stroke-width: 0.3; stroke-linecap: round; stroke: #00c000" d="M 185.359 217.203 L 185.359,219.391 L 184.734,219.391 L 184.734,218.766 C 184.5,219 184.266,219.234 184.109,219.391 C 183.875,219.391 183.641,219.391 183.484,219.391 C 183.016,219.391 182.625,219.312 182.234,219.078 C 182,218.922 181.922,218.609 181.922,218.141 C 181.922,217.75 182,217.438 182.234,217.203 C 182.625,217.047 183.172,216.891 183.797,216.891 L 184.734,216.891 C 184.734,216.5 184.578,216.266 184.422,216.266 C 184.188,216.109 183.875,215.953 183.484,215.953 C 183.25,215.953 183.016,215.953 182.859,215.953 C 182.625,215.953 182.391,216.109 182.234,216.266 L 182.234,215.641 C 182.625,215.641 182.938,215.641 183.172,215.641 C 183.328,215.484 183.484,215.328 183.484,215.328 C 184.109,215.328 184.5,215.562 184.734,215.953 C 185.125,216.188 185.359,216.578 185.359,217.203 L 185.359,217.203"/>
    <path style="fill: none; fill-opacity:0; stroke-width: 0.3; stroke-linecap: round; stroke: #00c000" d="M 189.344 215.641 L 189.344,216.266 C 189.109,216.109 188.875,215.953 188.719,215.953 C 188.484,215.953 188.25,215.953 188.094,215.953 C 187.859,215.953 187.625,216.188 187.469,216.578 C 187.234,216.812 187.156,217.125 187.156,217.516 C 187.156,217.984 187.234,218.375 187.469,218.766 C 187.625,219 187.859,219.078 188.094,219.078 C 188.25,219.078 188.484,219.078 188.719,219.078 C 188.875,218.922 189.109,218.766 189.344,218.766 L 189.344,219.391 C 189.109,219.391 188.875,219.391 188.719,219.391 C 188.484,219.391 188.25,219.391 188.094,219.391 C 187.625,219.391 187.234,219.312 186.844,219.078 C 186.375,218.688 186.219,218.141 186.219,217.516 C 186.219,216.891 186.375,216.422 186.844,215.953 C 187.234,215.562 187.625,215.328 188.094,215.328 C 188.25,215.328 188.484,215.484 188.719,215.641 C 188.875,215.641 189.109,215.641 189.344,215.641 L 189.344,215.641"/>
    <path style="fill: none; fill-opacity:0; stroke-width: 0.3; stroke-linecap: round; stroke: #00c000" d="M 190.438 215.641 L 191.062,215.641 L 191.062,219.391 L 190.438,219.391 L 190.438,215.641"/>
    <path style="fill: none; fill-opacity:0; stroke-width: 0.3; stroke-linecap: round; stroke: #00c000" d="M 190.438 214.078 L 191.062,214.078 L 191.062,215.016 L 190.438,215.016 L 190.438,214.078"/>
    <path style="fill: none; fill-opacity:0; stroke-width: 0.3; stroke-linecap: round; stroke: #00c000" d="M 193.016 214.391 L 193.016,215.641 L 194.266,215.641 L 194.266,215.953 L 193.016,215.953 L 193.016,218.141 C 193.016,218.609 193.016,218.766 193.016,218.766 C 193.172,218.766 193.406,218.766 193.641,218.766 L 194.266,218.766 L 194.266,219.391 L 193.641,219.391 C 193.172,219.391 192.859,219.312 192.703,219.078 C 192.469,218.922 192.391,218.609 192.391,218.141 L 192.391,215.953 L 192.078,215.953 L 192.078,215.641 L 192.391,215.641 L 192.391,214.391 L 193.016,214.391"/>
    <path style="fill: none; fill-opacity:0; stroke-width: 0.3; stroke-linecap: round; stroke: #00c000" d="M 196.688 219.703 C 196.453,220.328 196.219,220.641 196.062,220.641 C 196.062,220.797 195.906,220.953 195.75,220.953 L 195.125,220.953 L 195.125,220.328 L 195.438,220.328 C 195.594,220.328 195.75,220.172 195.75,220.016 C 195.906,220.016 196.062,219.859 196.062,219.703 L 196.375,219.391 L 194.812,215.641 L 195.438,215.641 L 196.688,218.453 L 197.938,215.641 L 198.562,215.641 L 196.688,219.703"/>
  </g>
  <g>
    <path style="fill: none; fill-opacity:0; stroke-width: 0.3; stroke-linecap: round; stroke: #00c000" d="M -17.1264 75.2184 L -15.226,75.1773 L -15.093,74.1981 C -15.1655,73.8143 -15.2236,73.5072 -15.2671,73.2769 C -15.4496,73.1524 -15.7857,73.0569 -16.2463,73.1439 C -16.3999,73.1729 -16.6011,73.37 -16.8024,73.567 C -16.956,73.5961 -17.066,73.8554 -16.9934,74.2392 L -17.1264,75.2184"/>
    <path style="fill: none; fill-opacity:0; stroke-width: 0.3; stroke-linecap: round; stroke: #00c000" d="M -19.0849 74.9525 L -17.4915,74.9694 L -17.6656,74.0482 C -17.4643,73.8511 -17.5078,73.6208 -17.7816,73.4341 C -17.9642,73.3095 -18.2235,73.1995 -18.4538,73.2431 C -18.6073,73.2721 -18.7319,73.4546 -18.7028,73.6082 C -18.8564,73.6372 -19.0577,73.8342 -19.2589,74.0313 L -19.0849,74.9525"/>
    <path style="fill: none; fill-opacity:0; stroke-width: 0.3; stroke-linecap: round; stroke: #00c000" d="M -19.832 76.0478 L -19.8731,74.1473 C -19.7153,73.72 -19.543,73.3694 -19.433,73.1101 C -19.2753,72.6827 -18.9827,72.5479 -18.5699,72.6289 C -18.3396,72.5854 -18.0803,72.6954 -17.8977,72.8199 C -17.6239,73.0067 -17.5036,73.2225 -17.4746,73.376 C -17.3168,72.9487 -17.0533,72.6604 -16.6694,72.5878 C -16.4682,72.3908 -16.2669,72.1937 -16.1133,72.1647 C -15.4557,72.2789 -15.0906,72.528 -15.0181,72.9118 C -14.821,73.1131 -14.5949,73.4679 -14.4789,74.082 L -14.7448,76.0405 L -19.832,76.0478"/>
    <path style="fill: none; fill-opacity:0; stroke-width: 0.3; stroke-linecap: round; stroke: #00c000" d="M -16.6501 69.3243 C -16.5341,69.9385 -16.2935,70.3701 -16.1109,70.4946 C -16.0674,70.7249 -15.8994,70.7726 -15.7458,70.7436 C -15.5155,70.7001 -15.2852,70.6566 -15.1317,70.6275 C -14.9304,70.4305 -14.8972,70.1857 -14.9407,69.9554 C -15.0132,69.5716 -15.148,69.279 -15.4219,69.0922 C -15.6479,68.7374 -15.9985,68.5651 -16.4591,68.6522 L -16.6501,69.3243"/>
    <path style="fill: none; fill-opacity:0; stroke-width: 0.3; stroke-linecap: round; stroke: #00c000" d="M -16.8242 68.4031 L -14.6167,68.304 L -14.5587,68.6111 L -15.1728,68.7271 C -14.9758,68.9284 -14.7787,69.1297 -14.7497,69.2832 C -14.7062,69.5135 -14.6627,69.7438 -14.6336,69.8974 C -14.5176,70.5115 -14.5841,71.0011 -14.7086,71.1836 C -15.0489,71.4865 -15.356,71.5445 -15.6298,71.3577 C -16.2439,71.4738 -16.5655,71.4551 -16.609,71.2248 C -16.8351,70.8699 -17.0902,70.3616 -17.2062,69.7475 L -17.0732,68.7682 L -17.1313,68.4612 C -17.2848,68.4902 -17.4861,68.6872 -17.6874,68.8843 C -18.0277,69.1871 -18.1999,69.5377 -18.1274,69.9216 C -18.0839,70.1519 -17.8868,70.3531 -17.7043,70.4777 C -17.6608,70.708 -17.694,70.9528 -17.8953,71.1498 L -18.2024,71.2078 C -18.2314,71.0543 -18.2749,70.824 -18.3184,70.5937 C -18.391,70.2099 -18.4345,69.9796 -18.4345,69.9796 C -18.3202,69.3219 -18.1625,68.8946 -18.0525,68.6353 C -17.8512,68.4382 -17.4673,68.3657 -16.8242,68.4031 L -16.8242,68.4031"/>
    <path style="fill: none; fill-opacity:0; stroke-width: 0.3; stroke-linecap: round; stroke: #00c000" d="M -18.3753 64.4028 L -17.7611,64.2868 C -17.7176,64.5171 -17.7509,64.7619 -17.9521,64.9589 C -18.0621,65.2183 -18.1722,65.4776 -18.1431,65.6311 C -18.0996,65.8614 -17.9026,66.0627 -17.72,66.1872 C -17.6765,66.4175 -17.5085,66.4653 -17.3549,66.4362 C -17.1246,66.3927 -17.0479,66.3782 -17.0479,66.3782 C -17.0479,66.3782 -16.9233,66.1957 -16.8569,65.7061 L -16.9149,65.399 C -16.7571,64.9716 -16.5703,64.6978 -16.4168,64.6688 C -16.2155,64.4717 -15.9375,64.2602 -15.5536,64.1876 C -15.2798,64.3744 -15.0828,64.5757 -14.8235,64.6857 C -14.6264,64.887 -14.5684,65.1941 -14.6494,65.6069 C -14.6059,65.8372 -14.7014,66.1733 -14.7823,66.5861 C -14.7388,66.8164 -14.6953,67.0467 -14.6663,67.2003 L -15.2804,67.3163 C -15.3094,67.1628 -15.1994,66.9035 -15.0894,66.6442 C -14.9317,66.2168 -14.9129,65.8952 -14.9564,65.6649 C -14.9855,65.5114 -15.0145,65.3579 -15.0145,65.3579 C -15.0435,65.2043 -15.1638,64.9886 -15.4376,64.8018 C -15.5911,64.8308 -15.7924,65.0278 -15.9937,65.2249 C -16.1472,65.2539 -16.2717,65.4365 -16.2427,65.59 L -16.4918,65.9551 C -16.4047,66.4157 -16.4235,66.7373 -16.6247,66.9343 C -16.7347,67.1936 -17.0418,67.2517 -17.5459,67.1084 C -17.6995,67.1374 -17.8675,67.0897 -17.911,66.8594 C -18.1371,66.5045 -18.3632,66.1497 -18.4502,65.6891 C -18.4792,65.5356 -18.3692,65.2763 -18.2592,65.017 C -18.2882,64.8634 -18.3317,64.6331 -18.3753,64.4028 L -18.3753,64.4028"/>
    <path style="fill: none; fill-opacity:0; stroke-width: 0.3; stroke-linecap: round; stroke: #00c000" d="M -16.8744 60.1438 L -16.5673,60.0858 L -16.3521,62.9074 C -15.738,62.7913 -15.2919,62.6275 -15.1819,62.3682 C -14.9806,62.1712 -14.9619,61.8496 -15.0489,61.389 C -14.9244,61.2065 -14.9679,60.9762 -15.165,60.7749 C -15.194,60.6213 -15.2375,60.391 -15.2811,60.1607 L -14.974,60.1027 C -14.7769,60.304 -14.5799,60.5053 -14.5509,60.6588 C -14.5073,60.8891 -14.6174,61.1484 -14.7419,61.331 C -14.6258,61.9451 -14.7546,62.526 -15.0659,62.9824 C -15.4062,63.2852 -15.929,63.4635 -16.5432,63.5796 C -17.1863,63.5421 -17.6282,63.3076 -17.9455,62.8905 C -18.1716,62.5357 -18.3976,62.1809 -18.4847,61.7203 C -18.3704,61.0626 -18.1359,60.6207 -17.7956,60.3179 C -17.5943,60.1209 -17.2873,60.0628 -16.8744,60.1438 L -16.8744,60.1438"/>
    <path style="fill: none; fill-opacity:0; stroke-width: 0.3; stroke-linecap: round; stroke: #00c000" d="M -16.7583 60.758 C -17.1712,60.677 -17.4783,60.735 -17.6795,60.932 C -17.8331,60.9611 -18.0199,61.2349 -18.1776,61.6622 C -18.1341,61.8925 -17.9225,62.1706 -17.6965,62.5254 C -17.4226,62.7122 -17.0721,62.8844 -16.6592,62.9654 L -16.7583,60.758"/>
    <path style="fill: none; fill-opacity:0; stroke-width: 0.3; stroke-linecap: round; stroke: #00c000" d="M -19.0934 55.5542 L -17.193,55.5131 L -17.309,54.8989 C -17.1513,54.4716 -17.1948,54.2413 -17.4251,54.2848 C -17.6076,54.1603 -17.867,54.0503 -18.0973,54.0938 C -18.4811,54.1663 -18.7114,54.2099 -18.7114,54.2099 C -18.8649,54.2389 -19.0517,54.5127 -19.2095,54.94 L -19.0934,55.5542"/>
    <path style="fill: none; fill-opacity:0; stroke-width: 0.3; stroke-linecap: round; stroke: #00c000" d="M -19.8405 56.6495 L -19.8236,55.0561 C -19.7093,54.3985 -19.5516,53.9711 -19.4416,53.7118 C -19.2403,53.5147 -18.8565,53.4422 -18.2133,53.4797 C -17.7527,53.3926 -17.4021,53.5649 -17.1761,53.9197 C -16.9022,54.1065 -16.8297,54.4903 -16.9439,55.148 L -16.8279,55.7621 L -14.6204,55.663 L -14.7534,56.6422 L -19.8405,56.6495"/>
    <path style="fill: none; fill-opacity:0; stroke-width: 0.3; stroke-linecap: round; stroke: #00c000" d="M -18.246 50.7826 C -18.1589,51.2432 -17.8706,51.5067 -17.4577,51.5877 C -17.1839,51.7745 -16.8333,51.9468 -16.4205,52.0277 C -15.9599,51.9407 -15.5761,51.8682 -15.1922,51.7956 C -14.9909,51.5986 -14.9722,51.277 -15.0593,50.8164 C -14.9347,50.6339 -14.9783,50.4036 -15.1753,50.2023 C -15.6317,49.891 -16.059,49.7332 -16.5196,49.8203 C -16.9325,49.7393 -17.2395,49.7973 -17.4408,49.9944 C -17.7811,50.2972 -18.0447,50.5855 -18.246,50.7826 L -18.246,50.7826"/>
    <path style="fill: none; fill-opacity:0; stroke-width: 0.3; stroke-linecap: round; stroke: #00c000" d="M -18.553 50.8406 C -18.3953,50.4132 -18.1462,50.0482 -17.8059,49.7453 C -17.6482,49.318 -17.2788,49.1687 -16.6357,49.2061 C -16.0216,49.0901 -15.5174,49.2333 -15.2914,49.5881 C -14.8205,49.9762 -14.6712,50.3455 -14.7522,50.7584 C -14.6361,51.3725 -14.7794,51.8766 -15.1342,52.1027 C -15.4745,52.4055 -15.9974,52.5838 -16.6115,52.6999 C -17.2546,52.6624 -17.682,52.5047 -17.9558,52.3179 C -18.1819,51.9631 -18.437,51.4547 -18.553,50.8406 L -18.553,50.8406"/>
    <path style="fill: none; fill-opacity:0; stroke-width: 0.3; stroke-linecap: round; stroke: #00c000" d="M -18.4509 48.4361 L -18.2599,47.7639 L -15.6124,46.6275 L -18.243,46.1705 L -18.359,45.5564 L -15.7115,44.42 L -18.3421,43.9631 L -18.4582,43.3489 L -14.4832,44.1879 L -14.6742,44.8601 L -17.6869,45.7474 L -14.6912,46.4534 L -14.5171,47.3746 L -18.4509,48.4361"/>
    <path style="fill: none; fill-opacity:0; stroke-width: 0.3; stroke-linecap: round; stroke: #00c000" d="M -16.9428 39.1667 L -16.6357,39.1086 L -16.4205,41.9303 C -15.8064,41.8142 -15.3603,41.6504 -15.2503,41.3911 C -15.049,41.194 -15.0303,40.8725 -15.1173,40.4119 C -14.9928,40.2293 -15.0363,39.999 -15.2334,39.7977 C -15.2624,39.6442 -15.3059,39.4139 -15.3494,39.1836 L -15.0424,39.1256 C -14.8453,39.3269 -14.6483,39.5281 -14.6193,39.6817 C -14.5757,39.912 -14.6857,40.1713 -14.8103,40.3538 C -14.6942,40.968 -14.823,41.5488 -15.1342,42.0052 C -15.4746,42.308 -15.9974,42.4864 -16.6115,42.6024 C -17.2547,42.5649 -17.6965,42.3304 -18.0139,41.9133 C -18.24,41.5585 -18.466,41.2037 -18.5531,40.7431 C -18.4388,40.0855 -18.2043,39.6436 -17.864,39.3408 C -17.6627,39.1437 -17.3556,39.0857 -16.9428,39.1667 L -16.9428,39.1667"/>
    <path style="fill: none; fill-opacity:0; stroke-width: 0.3; stroke-linecap: round; stroke: #00c000" d="M -16.8267 39.7808 C -17.2396,39.6998 -17.5467,39.7578 -17.7479,39.9549 C -17.9015,39.9839 -18.0882,40.2577 -18.246,40.6851 C -18.2025,40.9154 -17.9909,41.1934 -17.7649,41.5483 C -17.491,41.735 -17.1404,41.9073 -16.7276,41.9883 L -16.8267,39.7808"/>
    <path style="fill: none; fill-opacity:0; stroke-width: 0.3; stroke-linecap: round; stroke: #00c000" d="M -17.6869 35.6499 C -17.6869,35.6499 -17.6579,35.8035 -17.6289,35.957 C -17.7824,35.986 -18.0127,36.0295 -18.243,36.0731 C -18.156,36.5337 -17.8676,36.7972 -17.4548,36.8782 C -17.181,37.065 -16.8304,37.2372 -16.4175,37.3182 L -14.5171,37.2771 L -14.7081,37.9493 L -18.509,38.0315 L -18.318,37.3594 L -17.7038,37.2433 C -17.8864,37.1188 -18.0834,36.9175 -18.1269,36.6872 C -18.3095,36.5627 -18.353,36.3324 -18.243,36.0731 C -18.272,35.9195 -18.301,35.766 -18.301,35.766 L -17.6869,35.6499"/>
    <path style="fill: none; fill-opacity:0; stroke-width: 0.3; stroke-linecap: round; stroke: #00c000" d="M -19.2851 28.8758 L -18.3059,29.0088 C -18.92,29.1248 -19.1981,29.3364 -19.1691,29.4899 C -19.2791,29.7492 -19.3746,30.0853 -19.302,30.4691 C -19.3685,30.9587 -19.2047,31.4048 -18.7048,31.9464 C -18.1572,32.32 -17.6676,32.3865 -17.0534,32.2704 C -16.3958,32.3846 -15.8584,32.2831 -15.5181,31.9803 C -15.1301,31.5094 -14.9723,31.082 -14.829,30.5779 C -14.9016,30.1941 -15.1131,29.916 -15.3102,29.7147 C -15.3392,29.5612 -15.3972,29.2542 -15.4843,28.7936 L -14.8121,28.9846 C -14.7686,29.2149 -14.7251,29.4452 -14.6961,29.5987 C -14.6525,29.829 -14.5945,30.1361 -14.522,30.5199 C -14.6362,31.1775 -14.8417,31.7729 -15.153,32.2293 C -15.6801,32.806 -16.3565,33.0133 -17.2444,32.9426 C -18.0121,33.0876 -18.6843,32.8966 -19.2609,32.3695 C -19.7608,31.828 -19.9536,31.2283 -19.9162,30.5852 C -19.9887,30.2014 -19.8932,29.8653 -19.7832,29.606 C -19.8122,29.4524 -19.6254,29.1786 -19.2851,28.8758 L -19.2851,28.8758"/>
    <path style="fill: none; fill-opacity:0; stroke-width: 0.3; stroke-linecap: round; stroke: #00c000" d="M -16.6497 25.9925 C -16.5336,26.6066 -16.2931,27.0382 -16.1105,27.1627 C -16.067,27.393 -15.8989,27.4408 -15.7454,27.4118 C -15.5151,27.3682 -15.2848,27.3247 -15.1313,27.2957 C -14.93,27.0986 -14.8968,26.8538 -14.9403,26.6235 C -15.0128,26.2397 -15.1476,25.9472 -15.4214,25.7604 C -15.6475,25.4056 -15.9981,25.2333 -16.4587,25.3203 L -16.6497,25.9925"/>
    <path style="fill: none; fill-opacity:0; stroke-width: 0.3; stroke-linecap: round; stroke: #00c000" d="M -16.8238 25.0713 L -14.6163,24.9722 L -14.5583,25.2792 L -15.1724,25.3953 C -14.9753,25.5966 -14.7783,25.7979 -14.7493,25.9514 C -14.7058,26.1817 -14.6622,26.412 -14.6332,26.5655 C -14.5172,27.1796 -14.5836,27.6693 -14.7082,27.8518 C -15.0485,28.1546 -15.3555,28.2127 -15.6294,28.0259 C -16.2435,28.1419 -16.5651,28.1232 -16.6086,27.8929 C -16.8346,27.5381 -17.0897,27.0297 -17.2058,26.4156 L -17.0728,25.4364 L -17.1308,25.1293 C -17.2844,25.1583 -17.4857,25.3554 -17.6869,25.5525 C -18.0273,25.8553 -18.1995,26.2059 -18.127,26.5897 C -18.0835,26.82 -17.8864,27.0213 -17.7039,27.1458 C -17.6603,27.3761 -17.6936,27.6209 -17.8949,27.818 L -18.2019,27.876 C -18.2309,27.7225 -18.2745,27.4922 -18.318,27.2619 C -18.3905,26.878 -18.4341,26.6477 -18.4341,26.6477 C -18.3198,25.9901 -18.162,25.5627 -18.052,25.3034 C -17.8508,25.1064 -17.4669,25.0338 -16.8238,25.0713 L -16.8238,25.0713"/>
    <path style="fill: none; fill-opacity:0; stroke-width: 0.3; stroke-linecap: round; stroke: #00c000" d="M -15.147 23.0053 L -12.9395,22.9061 L -13.1305,23.5783 L -18.5247,23.6436 L -18.3337,22.9714 L -17.7196,22.8554 C -17.9021,22.7308 -18.0992,22.5296 -18.1427,22.2993 C -18.3253,22.1747 -18.3688,21.9444 -18.2588,21.6851 C -18.3313,21.3013 -18.159,20.9507 -17.8187,20.6479 C -17.661,20.2205 -17.2917,20.0712 -16.6485,20.1087 C -16.0344,19.9926 -15.5303,20.1359 -15.3042,20.4907 C -14.8333,20.8788 -14.5305,21.2191 -14.4579,21.6029 C -14.6447,21.8767 -14.8315,22.1505 -14.956,22.3331 C -14.9125,22.5634 -14.9457,22.8082 -15.147,23.0053 L -15.147,23.0053"/>
    <path style="fill: none; fill-opacity:0; stroke-width: 0.3; stroke-linecap: round; stroke: #00c000" d="M -16.5324 20.7228 C -16.9453,20.6418 -17.2524,20.6999 -17.4536,20.8969 C -17.794,21.1997 -18.043,21.5648 -18.2007,21.9922 C -18.1572,22.2225 -17.8834,22.4093 -17.4706,22.4903 C -17.1967,22.677 -16.8462,22.8493 -16.4333,22.9303 C -15.9727,22.8433 -15.5889,22.7707 -15.205,22.6982 C -15.0038,22.5011 -14.9705,22.2563 -15.014,22.026 C -14.933,21.6132 -14.9911,21.3061 -15.1881,21.1048 C -15.6445,20.7935 -16.0719,20.6358 -16.5324,20.7228 L -16.5324,20.7228"/>
    <path style="fill: none; fill-opacity:0; stroke-width: 0.3; stroke-linecap: round; stroke: #00c000" d="M -16.7247 17.1813 C -16.6086,17.7954 -16.368,18.227 -16.1855,18.3515 C -16.142,18.5818 -15.9739,18.6296 -15.8204,18.6006 C -15.5901,18.557 -15.3598,18.5135 -15.2063,18.4845 C -15.005,18.2875 -14.9717,18.0426 -15.0153,17.8123 C -15.0878,17.4285 -15.2226,17.136 -15.4964,16.9492 C -15.7225,16.5944 -16.0731,16.4221 -16.5337,16.5091 L -16.7247,17.1813"/>
    <path style="fill: none; fill-opacity:0; stroke-width: 0.3; stroke-linecap: round; stroke: #00c000" d="M -16.8988 16.2601 L -14.6913,16.161 L -14.6333,16.468 L -15.2474,16.5841 C -15.0503,16.7854 -14.8533,16.9867 -14.8243,17.1402 C -14.7807,17.3705 -14.7372,17.6008 -14.7082,17.7543 C -14.5921,18.3684 -14.6586,18.8581 -14.7832,19.0406 C -15.1235,19.3434 -15.4305,19.4015 -15.7043,19.2147 C -16.3185,19.3308 -16.64,19.312 -16.6836,19.0817 C -16.9096,18.7269 -17.1647,18.2186 -17.2808,17.6044 L -17.1478,16.6252 L -17.2058,16.3181 C -17.3594,16.3471 -17.5606,16.5442 -17.7619,16.7413 C -18.1022,17.0441 -18.2745,17.3947 -18.202,17.7785 C -18.1585,18.0088 -17.9614,18.2101 -17.7789,18.3346 C -17.7353,18.5649 -17.7686,18.8097 -17.9699,19.0068 L -18.2769,19.0648 C -18.3059,18.9113 -18.3495,18.681 -18.393,18.4507 C -18.4655,18.0668 -18.509,17.8365 -18.509,17.8365 C -18.3948,17.1789 -18.237,16.7515 -18.127,16.4922 C -17.9257,16.2952 -17.5419,16.2226 -16.8988,16.2601 L -16.8988,16.2601"/>
    <path style="fill: none; fill-opacity:0; stroke-width: 0.3; stroke-linecap: round; stroke: #00c000" d="M -18.4311 11.9382 L -17.817,11.8222 C -17.7734,12.0525 -17.7299,12.2828 -17.7009,12.4363 C -17.8109,12.6956 -17.9977,12.9694 -18.199,13.1665 C -18.1555,13.3968 -17.8671,13.6603 -17.4108,13.9716 C -17.1369,14.1584 -16.7863,14.3307 -16.3735,14.4117 C -15.9129,14.3246 -15.5436,14.1753 -15.2033,13.8725 C -15.002,13.6754 -14.9687,13.4306 -15.0123,13.2003 C -14.8877,13.0178 -14.9313,12.7875 -15.1283,12.5862 C -15.1573,12.4327 -15.2009,12.2024 -15.2444,11.9721 L -14.6303,11.856 C -14.5867,12.0863 -14.5432,12.3166 -14.5142,12.4701 C -14.4707,12.7004 -14.5807,12.9597 -14.7052,13.1423 C -14.6182,13.6029 -14.7759,14.0302 -15.0872,14.4866 C -15.4275,14.7894 -15.9504,14.9678 -16.5645,15.0838 C -17.2077,15.0464 -17.6495,14.8118 -17.9669,14.3947 C -18.1929,14.0399 -18.419,13.6851 -18.506,13.2245 C -18.3048,13.0275 -18.2715,12.7827 -18.315,12.5524 C -18.344,12.3988 -18.3876,12.1685 -18.4311,11.9382 L -18.4311,11.9382"/>
    <path style="fill: none; fill-opacity:0; stroke-width: 0.3; stroke-linecap: round; stroke: #00c000" d="M -18.5429 10.9258 L -18.3519,10.2536 L -14.5511,10.1714 L -14.7421,10.8435 L -18.5429,10.9258"/>
    <path style="fill: none; fill-opacity:0; stroke-width: 0.3; stroke-linecap: round; stroke: #00c000" d="M -20.1363 10.9088 L -19.9453,10.2367 L -19.0241,10.0626 L -19.2151,10.7348 L -20.1363,10.9088"/>
    <path style="fill: none; fill-opacity:0; stroke-width: 0.3; stroke-linecap: round; stroke: #00c000" d="M -19.6025 8.26373 L -18.3163,8.33867 L -18.2413,7.05239 L -17.9342,6.99436 L -18.0092,8.28065 L -15.8017,8.18151 C -15.2976,8.32476 -15.1295,8.37251 -15.1295,8.37251 C -15.1586,8.21898 -15.2021,7.98868 -15.2456,7.75838 L -15.0546,7.08622 L -14.4405,6.97016 L -14.6315,7.64232 C -14.5444,8.10292 -14.6399,8.439 -14.7645,8.62155 C -15.1048,8.92438 -15.4886,8.99692 -15.9927,8.85366 L -18.2002,8.9528 L -18.1422,9.25987 L -18.4492,9.3179 L -18.5073,9.01083 L -19.7936,8.93589 L -19.6025,8.26373"/>
    <path style="fill: none; fill-opacity:0; stroke-width: 0.3; stroke-linecap: round; stroke: #00c000" d="M -14.4296 4.50337 C -13.9587,4.89143 -13.5936,5.14046 -13.3343,5.25047 C -13.1808,5.22146 -12.9837,5.42274 -12.9112,5.80657 L -13.1602,6.17167 L -13.7744,6.28773 L -13.5253,5.92263 C -13.5543,5.7691 -13.7514,5.56782 -13.9484,5.36653 C -13.9775,5.213 -14.16,5.08848 -14.3135,5.1175 L -14.6786,4.86846 L -18.4964,6.54404 L -18.3054,5.87188 L -15.7159,4.42842 L -18.4045,3.66439 L -18.5206,3.05026 L -14.4296,4.50337"/>
  </g>
  <line style="fill: none; fill-opacity:0; stroke-width: 1.2; stroke: #00c000" x1="118" y1="202" x2="118" y2="198"/>
  <text font-size="6.20889" style="fill: #00c000;text-anchor:start;font-family:sans-serif;font-style:normal;font-weight:normal" x="119.752" y="211.388">
    <tspan x="119.752" y="211.388">b</tspan>
  </text>
  <text font-size="9.03111" style="fill: #00c000;text-anchor:start;font-family:sans-serif;font-style:normal;font-weight:normal" x="113.752" y="210.363">
    <tspan x="113.752" y="210.363">E</tspan>
  </text>
  <line style="fill: none; fill-opacity:0; stroke-width: 1.2; stroke: #00c000" x1="-2" y1="117" x2="2" y2="117"/>
  <text font-size="6.20889" style="fill: #00c000;text-anchor:start;font-family:sans-serif;font-style:normal;font-weight:normal" x="-6.7357" y="120.994">
    <tspan x="-6.7357" y="120.994">b</tspan>
  </text>
  <text font-size="9.03111" style="fill: #00c000;text-anchor:start;font-family:sans-serif;font-style:normal;font-weight:normal" x="-10.7357" y="119.969">
    <tspan x="-10.7357" y="119.969">P</tspan>
  </text>
  <line style="fill: none; fill-opacity:0; stroke-width: 1; stroke-dasharray: 6; stroke: #00c000" x1="0" y1="117" x2="117.8" y2="117"/>
  <line style="fill: none; fill-opacity:0; stroke-width: 1; stroke-dasharray: 6; stroke: #00c000" x1="118" y1="200" x2="118" y2="117"/>
  <line style="fill: none; fill-opacity:0; stroke-width: 1; stroke-dasharray: 6; stroke: #c00000" x1="118" y1="117" x2="196" y2="117"/>
  <line style="fill: none; fill-opacity:0; stroke-width: 1; stroke-dasharray: 6; stroke: #c00000" x1="118" y1="4" x2="118" y2="117.2"/>
  <line style="fill: none; fill-opacity:0; stroke-width: 1.2; stroke: #c00000" x1="118" y1="6" x2="118" y2="2"/>
  <line style="fill: none; fill-opacity:0; stroke-width: 1.2; stroke: #c00000" x1="194" y1="117" x2="198" y2="117"/>
  <text font-size="6.20889" style="fill: #c00000;text-anchor:start;font-family:sans-serif;font-style:normal;font-weight:normal" x="204" y="121.15">
    <tspan x="204" y="121.15">p</tspan>
  </text>
  <text font-size="9.03111" style="fill: #c00000;text-anchor:start;font-family:sans-serif;font-style:normal;font-weight:normal" x="198" y="120.125">
    <tspan x="198" y="120.125">P</tspan>
  </text>
  <text font-size="6.20889" style="fill: #c00000;text-anchor:start;font-family:sans-serif;font-style:normal;font-weight:normal" x="120" y="2.15">
    <tspan x="120" y="2.15">p</tspan>
  </text>
  <text font-size="9.03111" style="fill: #c00000;text-anchor:start;font-family:sans-serif;font-style:normal;font-weight:normal" x="114" y="1.125">
    <tspan x="114" y="1.125">E</tspan>
  </text>
  <g>
    <path style="fill: none; fill-opacity:0; stroke-width: 0.3; stroke-linecap: round; stroke: #c00000" d="M 0.9375 -10.9844 L 0.9375,-9.10938 L 1.5625,-9.10938 C 1.95312,-9.10938 2.26562,-9.1875 2.5,-9.42188 C 2.65625,-9.57812 2.8125,-9.89062 2.8125,-10.3594 C 2.8125,-10.5156 2.65625,-10.6719 2.5,-10.6719 C 2.26562,-10.8281 1.95312,-10.9844 1.5625,-10.9844 L 0.9375,-10.9844"/>
    <path style="fill: none; fill-opacity:0; stroke-width: 0.3; stroke-linecap: round; stroke: #c00000" d="M 0 -11.9219 L 1.5625,-11.9219 C 2.1875,-11.9219 2.57812,-11.6875 2.8125,-11.2969 C 3.20312,-11.0625 3.4375,-10.75 3.4375,-10.3594 C 3.4375,-9.73438 3.20312,-9.26562 2.8125,-9.10938 C 2.57812,-8.875 2.1875,-8.79688 1.5625,-8.79688 L 0.9375,-8.79688 L 0.9375,-6.60938 L 0,-6.60938 L 0,-11.9219"/>
    <path style="fill: none; fill-opacity:0; stroke-width: 0.3; stroke-linecap: round; stroke: #c00000" d="M 7.65625 -8.79688 L 7.65625,-8.48438 L 4.84375,-8.48438 C 4.84375,-8.01562 4.92188,-7.625 5.15625,-7.23438 C 5.3125,-7 5.625,-6.92188 6.09375,-6.92188 C 6.25,-6.92188 6.48438,-6.92188 6.71875,-6.92188 C 6.875,-7.07812 7.10938,-7.23438 7.34375,-7.23438 L 7.34375,-6.92188 C 7.10938,-6.6875 6.875,-6.60938 6.71875,-6.60938 C 6.48438,-6.60938 6.25,-6.60938 6.09375,-6.60938 C 5.46875,-6.60938 4.92188,-6.6875 4.53125,-6.92188 C 4.0625,-7.3125 3.90625,-7.85938 3.90625,-8.48438 C 3.90625,-9.10938 4.0625,-9.57812 4.53125,-10.0469 C 4.92188,-10.4375 5.3125,-10.6719 5.78125,-10.6719 C 6.40625,-10.6719 6.79688,-10.4375 7.03125,-10.0469 C 7.42188,-9.8125 7.65625,-9.42188 7.65625,-8.79688 L 7.65625,-8.79688"/>
    <path style="fill: none; fill-opacity:0; stroke-width: 0.3; stroke-linecap: round; stroke: #c00000" d="M 7.03125 -8.79688 C 7.03125,-9.1875 6.875,-9.5 6.71875,-9.73438 C 6.48438,-9.89062 6.17188,-10.0469 5.78125,-10.0469 C 5.54688,-10.0469 5.3125,-9.89062 5.15625,-9.73438 C 4.92188,-9.5 4.84375,-9.1875 4.84375,-8.79688 L 7.03125,-8.79688"/>
    <path style="fill: none; fill-opacity:0; stroke-width: 0.3; stroke-linecap: round; stroke: #c00000" d="M 10.4688 -8.48438 C 9.84375,-8.48438 9.375,-8.32812 9.21875,-8.17188 C 9.21875,-8.17188 9.21875,-8.01562 9.21875,-7.85938 C 9.21875,-7.625 9.21875,-7.39062 9.21875,-7.23438 C 9.375,-7 9.60938,-6.92188 9.84375,-6.92188 C 10.2344,-6.92188 10.5469,-7 10.7812,-7.23438 C 10.9375,-7.625 11.0938,-8.01562 11.0938,-8.48438 L 10.4688,-8.48438"/>
    <path style="fill: none; fill-opacity:0; stroke-width: 0.3; stroke-linecap: round; stroke: #c00000" d="M 11.7188 -8.79688 L 11.7188,-6.60938 L 11.0938,-6.60938 L 11.0938,-7.23438 C 10.8594,-7 10.625,-6.76562 10.4688,-6.60938 C 10.2344,-6.60938 10,-6.60938 9.84375,-6.60938 C 9.375,-6.60938 8.98438,-6.6875 8.59375,-6.92188 C 8.35938,-7.07812 8.28125,-7.39062 8.28125,-7.85938 C 8.28125,-8.25 8.35938,-8.5625 8.59375,-8.79688 C 8.98438,-8.95312 9.53125,-9.10938 10.1562,-9.10938 L 11.0938,-9.10938 C 11.0938,-9.5 10.9375,-9.73438 10.7812,-9.73438 C 10.5469,-9.89062 10.2344,-10.0469 9.84375,-10.0469 C 9.60938,-10.0469 9.375,-10.0469 9.21875,-10.0469 C 8.98438,-10.0469 8.75,-9.89062 8.59375,-9.73438 L 8.59375,-10.3594 C 8.98438,-10.3594 9.29688,-10.3594 9.53125,-10.3594 C 9.6875,-10.5156 9.84375,-10.6719 9.84375,-10.6719 C 10.4688,-10.6719 10.8594,-10.4375 11.0938,-10.0469 C 11.4844,-9.8125 11.7188,-9.42188 11.7188,-8.79688 L 11.7188,-8.79688"/>
    <path style="fill: none; fill-opacity:0; stroke-width: 0.3; stroke-linecap: round; stroke: #c00000" d="M 12.8906 -11.9219 L 13.5156,-11.9219 L 13.5156,-8.79688 L 15.3906,-10.3594 L 16.3281,-10.3594 L 14.1406,-8.79688 L 16.3281,-6.60938 L 15.3906,-6.60938 L 13.5156,-8.48438 L 13.5156,-6.60938 L 12.8906,-6.60938 L 12.8906,-11.9219"/>
    <path style="fill: none; fill-opacity:0; stroke-width: 0.3; stroke-linecap: round; stroke: #c00000" d="M 19.2188 -11.9219 L 22.6562,-11.9219 L 22.6562,-10.9844 L 20.1562,-10.9844 L 20.1562,-9.73438 L 22.3438,-9.73438 L 22.3438,-9.10938 L 20.1562,-9.10938 L 20.1562,-7.23438 L 22.6562,-7.23438 L 22.6562,-6.60938 L 19.2188,-6.60938 L 19.2188,-11.9219"/>
    <path style="fill: none; fill-opacity:0; stroke-width: 0.3; stroke-linecap: round; stroke: #c00000" d="M 26.7969 -8.79688 L 26.7969,-6.60938 L 26.1719,-6.60938 L 26.1719,-8.79688 C 26.1719,-9.1875 26.0156,-9.5 25.8594,-9.73438 C 25.8594,-9.89062 25.7031,-10.0469 25.5469,-10.0469 C 25.0781,-10.0469 24.7656,-9.89062 24.6094,-9.73438 C 24.375,-9.5 24.2969,-9.1875 24.2969,-8.79688 L 24.2969,-6.60938 L 23.6719,-6.60938 L 23.6719,-10.3594 L 24.2969,-10.3594 L 24.2969,-10.0469 C 24.4531,-10.2031 24.6875,-10.3594 24.9219,-10.3594 C 25.0781,-10.5156 25.3125,-10.6719 25.5469,-10.6719 C 25.9375,-10.6719 26.25,-10.4375 26.4844,-10.0469 C 26.6406,-9.8125 26.7969,-9.42188 26.7969,-8.79688 L 26.7969,-8.79688"/>
    <path style="fill: none; fill-opacity:0; stroke-width: 0.3; stroke-linecap: round; stroke: #c00000" d="M 31.6406 -8.79688 L 31.6406,-8.48438 L 28.8281,-8.48438 C 28.8281,-8.01562 28.9062,-7.625 29.1406,-7.23438 C 29.2969,-7 29.6094,-6.92188 30.0781,-6.92188 C 30.2344,-6.92188 30.4688,-6.92188 30.7031,-6.92188 C 30.8594,-7.07812 31.0938,-7.23438 31.3281,-7.23438 L 31.3281,-6.92188 C 31.0938,-6.6875 30.8594,-6.60938 30.7031,-6.60938 C 30.4688,-6.60938 30.2344,-6.60938 30.0781,-6.60938 C 29.4531,-6.60938 28.9062,-6.6875 28.5156,-6.92188 C 28.0469,-7.3125 27.8906,-7.85938 27.8906,-8.48438 C 27.8906,-9.10938 28.0469,-9.57812 28.5156,-10.0469 C 28.9062,-10.4375 29.2969,-10.6719 29.7656,-10.6719 C 30.3906,-10.6719 30.7812,-10.4375 31.0156,-10.0469 C 31.4062,-9.8125 31.6406,-9.42188 31.6406,-8.79688 L 31.6406,-8.79688"/>
    <path style="fill: none; fill-opacity:0; stroke-width: 0.3; stroke-linecap: round; stroke: #c00000" d="M 31.0156 -8.79688 C 31.0156,-9.1875 30.8594,-9.5 30.7031,-9.73438 C 30.4688,-9.89062 30.1562,-10.0469 29.7656,-10.0469 C 29.5312,-10.0469 29.2969,-9.89062 29.1406,-9.73438 C 28.9062,-9.5 28.8281,-9.1875 28.8281,-8.79688 L 31.0156,-8.79688"/>
    <path style="fill: none; fill-opacity:0; stroke-width: 0.3; stroke-linecap: round; stroke: #c00000" d="M 34.6875 -10.0469 C 34.6875,-10.0469 34.5312,-10.0469 34.375,-10.0469 C 33.9062,-10.0469 33.5938,-9.8125 33.4375,-9.42188 C 33.2031,-9.1875 33.125,-8.875 33.125,-8.48438 L 33.125,-6.60938 L 32.5,-6.60938 L 32.5,-10.3594 L 33.125,-10.3594 L 33.125,-10.0469 C 33.2812,-10.2031 33.5156,-10.3594 33.75,-10.3594 C 33.9062,-10.5156 34.1406,-10.6719 34.375,-10.6719 C 34.5312,-10.6719 34.6875,-10.6719 34.6875,-10.6719 L 34.6875,-10.0469"/>
    <path style="fill: none; fill-opacity:0; stroke-width: 0.3; stroke-linecap: round; stroke: #c00000" d="M 37.8906 -8.48438 C 37.8906,-8.875 37.7344,-9.1875 37.5781,-9.42188 C 37.3438,-9.8125 37.1094,-10.0469 36.9531,-10.0469 C 36.4844,-10.0469 36.1719,-9.8125 36.0156,-9.42188 C 35.7812,-9.1875 35.7031,-8.875 35.7031,-8.48438 C 35.7031,-8.01562 35.7812,-7.70312 36.0156,-7.54688 C 36.1719,-7.3125 36.4844,-7.23438 36.9531,-7.23438 C 37.1094,-7.23438 37.3438,-7.3125 37.5781,-7.54688 C 37.7344,-7.70312 37.8906,-8.01562 37.8906,-8.48438 L 37.8906,-8.48438"/>
    <path style="fill: none; fill-opacity:0; stroke-width: 0.3; stroke-linecap: round; stroke: #c00000" d="M 38.5156 -6.92188 C 38.5156,-6.29688 38.3594,-5.90625 38.2031,-5.67188 C 37.9688,-5.28125 37.5781,-5.04688 36.9531,-5.04688 C 36.7188,-5.04688 36.4844,-5.20312 36.3281,-5.35938 C 36.0938,-5.35938 35.8594,-5.35938 35.7031,-5.35938 L 35.7031,-5.98438 C 35.8594,-5.98438 36.0156,-5.98438 36.0156,-5.98438 C 36.1719,-5.82812 36.4062,-5.67188 36.6406,-5.67188 C 37.0312,-5.67188 37.3438,-5.82812 37.5781,-5.98438 C 37.7344,-6.21875 37.8906,-6.53125 37.8906,-6.92188 L 37.8906,-7.23438 C 37.8906,-7 37.7344,-6.76562 37.5781,-6.60938 C 37.3438,-6.60938 37.0312,-6.60938 36.6406,-6.60938 C 36.1719,-6.60938 35.7812,-6.76562 35.3906,-7.23438 C 35.1562,-7.625 35.0781,-8.01562 35.0781,-8.48438 C 35.0781,-9.10938 35.1562,-9.57812 35.3906,-10.0469 C 35.7812,-10.4375 36.1719,-10.6719 36.6406,-10.6719 C 37.0312,-10.6719 37.3438,-10.5156 37.5781,-10.3594 C 37.7344,-10.3594 37.8906,-10.2031 37.8906,-10.0469 L 37.8906,-10.3594 L 38.5156,-10.3594 L 38.5156,-6.92188"/>
    <path style="fill: none; fill-opacity:0; stroke-width: 0.3; stroke-linecap: round; stroke: #c00000" d="M 41.4844 -6.29688 C 41.25,-5.67188 41.0156,-5.35938 40.8594,-5.35938 C 40.8594,-5.20312 40.7031,-5.04688 40.5469,-5.04688 L 39.9219,-5.04688 L 39.9219,-5.67188 L 40.2344,-5.67188 C 40.3906,-5.67188 40.5469,-5.82812 40.5469,-5.98438 C 40.7031,-5.98438 40.8594,-6.14062 40.8594,-6.29688 L 41.1719,-6.60938 L 39.6094,-10.3594 L 40.2344,-10.3594 L 41.4844,-7.54688 L 42.7344,-10.3594 L 43.3594,-10.3594 L 41.4844,-6.29688"/>
    <path style="fill: none; fill-opacity:0; stroke-width: 0.3; stroke-linecap: round; stroke: #c00000" d="M 50.0781 -11.2969 L 50.0781,-10.6719 C 49.8438,-10.8281 49.6094,-10.9844 49.4531,-10.9844 C 49.2188,-11.1406 48.9844,-11.2969 48.8281,-11.2969 C 48.2031,-11.2969 47.6562,-11.0625 47.2656,-10.6719 C 47.0312,-10.4375 46.9531,-9.89062 46.9531,-9.10938 C 46.9531,-8.48438 47.0312,-7.9375 47.2656,-7.54688 C 47.6562,-7.07812 48.2031,-6.92188 48.8281,-6.92188 C 48.9844,-6.92188 49.2188,-6.92188 49.4531,-6.92188 C 49.6094,-7.07812 49.8438,-7.39062 50.0781,-7.85938 L 50.0781,-6.92188 C 49.8438,-6.6875 49.6094,-6.60938 49.4531,-6.60938 C 49.2188,-6.60938 48.9062,-6.60938 48.5156,-6.60938 C 47.8906,-6.60938 47.2656,-6.76562 46.6406,-7.23438 C 46.1719,-7.625 46.0156,-8.25 46.0156,-9.10938 C 46.0156,-9.89062 46.1719,-10.5156 46.6406,-10.9844 C 47.2656,-11.6094 47.8906,-11.9219 48.5156,-11.9219 C 48.9062,-11.9219 49.2188,-11.7656 49.4531,-11.6094 C 49.6094,-11.6094 49.8438,-11.4531 50.0781,-11.2969 L 50.0781,-11.2969"/>
    <path style="fill: none; fill-opacity:0; stroke-width: 0.3; stroke-linecap: round; stroke: #c00000" d="M 53.125 -8.48438 C 52.5,-8.48438 52.0312,-8.32812 51.875,-8.17188 C 51.875,-8.17188 51.875,-8.01562 51.875,-7.85938 C 51.875,-7.625 51.875,-7.39062 51.875,-7.23438 C 52.0312,-7 52.2656,-6.92188 52.5,-6.92188 C 52.8906,-6.92188 53.2031,-7 53.4375,-7.23438 C 53.5938,-7.625 53.75,-8.01562 53.75,-8.48438 L 53.125,-8.48438"/>
    <path style="fill: none; fill-opacity:0; stroke-width: 0.3; stroke-linecap: round; stroke: #c00000" d="M 54.375 -8.79688 L 54.375,-6.60938 L 53.75,-6.60938 L 53.75,-7.23438 C 53.5156,-7 53.2812,-6.76562 53.125,-6.60938 C 52.8906,-6.60938 52.6562,-6.60938 52.5,-6.60938 C 52.0312,-6.60938 51.6406,-6.6875 51.25,-6.92188 C 51.0156,-7.07812 50.9375,-7.39062 50.9375,-7.85938 C 50.9375,-8.25 51.0156,-8.5625 51.25,-8.79688 C 51.6406,-8.95312 52.1875,-9.10938 52.8125,-9.10938 L 53.75,-9.10938 C 53.75,-9.5 53.5938,-9.73438 53.4375,-9.73438 C 53.2031,-9.89062 52.8906,-10.0469 52.5,-10.0469 C 52.2656,-10.0469 52.0312,-10.0469 51.875,-10.0469 C 51.6406,-10.0469 51.4062,-9.89062 51.25,-9.73438 L 51.25,-10.3594 C 51.6406,-10.3594 51.9531,-10.3594 52.1875,-10.3594 C 52.3438,-10.5156 52.5,-10.6719 52.5,-10.6719 C 53.125,-10.6719 53.5156,-10.4375 53.75,-10.0469 C 54.1406,-9.8125 54.375,-9.42188 54.375,-8.79688 L 54.375,-8.79688"/>
    <path style="fill: none; fill-opacity:0; stroke-width: 0.3; stroke-linecap: round; stroke: #c00000" d="M 56.1719 -7.23438 L 56.1719,-5.04688 L 55.5469,-5.04688 L 55.5469,-10.3594 L 56.1719,-10.3594 L 56.1719,-10.0469 C 56.3281,-10.2031 56.5625,-10.3594 56.7969,-10.3594 C 56.9531,-10.5156 57.1875,-10.6719 57.4219,-10.6719 C 57.8125,-10.6719 58.125,-10.4375 58.3594,-10.0469 C 58.75,-9.57812 58.9844,-9.10938 58.9844,-8.48438 C 58.9844,-7.85938 58.75,-7.3125 58.3594,-6.92188 C 58.125,-6.6875 57.8125,-6.60938 57.4219,-6.60938 C 57.1875,-6.60938 56.9531,-6.60938 56.7969,-6.60938 C 56.5625,-6.76562 56.3281,-7 56.1719,-7.23438 L 56.1719,-7.23438"/>
    <path style="fill: none; fill-opacity:0; stroke-width: 0.3; stroke-linecap: round; stroke: #c00000" d="M 58.3594 -8.48438 C 58.3594,-8.875 58.2031,-9.1875 58.0469,-9.42188 C 57.8125,-9.8125 57.5,-10.0469 57.1094,-10.0469 C 56.875,-10.0469 56.6406,-9.8125 56.4844,-9.42188 C 56.25,-9.1875 56.1719,-8.875 56.1719,-8.48438 C 56.1719,-8.01562 56.25,-7.625 56.4844,-7.23438 C 56.6406,-7 56.875,-6.92188 57.1094,-6.92188 C 57.5,-6.92188 57.8125,-7 58.0469,-7.23438 C 58.2031,-7.625 58.3594,-8.01562 58.3594,-8.48438 L 58.3594,-8.48438"/>
    <path style="fill: none; fill-opacity:0; stroke-width: 0.3; stroke-linecap: round; stroke: #c00000" d="M 61.9531 -8.48438 C 61.3281,-8.48438 60.8594,-8.32812 60.7031,-8.17188 C 60.7031,-8.17188 60.7031,-8.01562 60.7031,-7.85938 C 60.7031,-7.625 60.7031,-7.39062 60.7031,-7.23438 C 60.8594,-7 61.0938,-6.92188 61.3281,-6.92188 C 61.7188,-6.92188 62.0312,-7 62.2656,-7.23438 C 62.4219,-7.625 62.5781,-8.01562 62.5781,-8.48438 L 61.9531,-8.48438"/>
    <path style="fill: none; fill-opacity:0; stroke-width: 0.3; stroke-linecap: round; stroke: #c00000" d="M 63.2031 -8.79688 L 63.2031,-6.60938 L 62.5781,-6.60938 L 62.5781,-7.23438 C 62.3438,-7 62.1094,-6.76562 61.9531,-6.60938 C 61.7188,-6.60938 61.4844,-6.60938 61.3281,-6.60938 C 60.8594,-6.60938 60.4688,-6.6875 60.0781,-6.92188 C 59.8438,-7.07812 59.7656,-7.39062 59.7656,-7.85938 C 59.7656,-8.25 59.8438,-8.5625 60.0781,-8.79688 C 60.4688,-8.95312 61.0156,-9.10938 61.6406,-9.10938 L 62.5781,-9.10938 C 62.5781,-9.5 62.4219,-9.73438 62.2656,-9.73438 C 62.0312,-9.89062 61.7188,-10.0469 61.3281,-10.0469 C 61.0938,-10.0469 60.8594,-10.0469 60.7031,-10.0469 C 60.4688,-10.0469 60.2344,-9.89062 60.0781,-9.73438 L 60.0781,-10.3594 C 60.4688,-10.3594 60.7812,-10.3594 61.0156,-10.3594 C 61.1719,-10.5156 61.3281,-10.6719 61.3281,-10.6719 C 61.9531,-10.6719 62.3438,-10.4375 62.5781,-10.0469 C 62.9688,-9.8125 63.2031,-9.42188 63.2031,-8.79688 L 63.2031,-8.79688"/>
    <path style="fill: none; fill-opacity:0; stroke-width: 0.3; stroke-linecap: round; stroke: #c00000" d="M 67.1875 -10.3594 L 67.1875,-9.73438 C 66.9531,-9.89062 66.7188,-10.0469 66.5625,-10.0469 C 66.3281,-10.0469 66.0938,-10.0469 65.9375,-10.0469 C 65.7031,-10.0469 65.4688,-9.8125 65.3125,-9.42188 C 65.0781,-9.1875 65,-8.875 65,-8.48438 C 65,-8.01562 65.0781,-7.625 65.3125,-7.23438 C 65.4688,-7 65.7031,-6.92188 65.9375,-6.92188 C 66.0938,-6.92188 66.3281,-6.92188 66.5625,-6.92188 C 66.7188,-7.07812 66.9531,-7.23438 67.1875,-7.23438 L 67.1875,-6.60938 C 66.9531,-6.60938 66.7188,-6.60938 66.5625,-6.60938 C 66.3281,-6.60938 66.0938,-6.60938 65.9375,-6.60938 C 65.4688,-6.60938 65.0781,-6.6875 64.6875,-6.92188 C 64.2188,-7.3125 64.0625,-7.85938 64.0625,-8.48438 C 64.0625,-9.10938 64.2188,-9.57812 64.6875,-10.0469 C 65.0781,-10.4375 65.4688,-10.6719 65.9375,-10.6719 C 66.0938,-10.6719 66.3281,-10.5156 66.5625,-10.3594 C 66.7188,-10.3594 66.9531,-10.3594 67.1875,-10.3594 L 67.1875,-10.3594"/>
    <path style="fill: none; fill-opacity:0; stroke-width: 0.3; stroke-linecap: round; stroke: #c00000" d="M 68.2812 -10.3594 L 68.9062,-10.3594 L 68.9062,-6.60938 L 68.2812,-6.60938 L 68.2812,-10.3594"/>
    <path style="fill: none; fill-opacity:0; stroke-width: 0.3; stroke-linecap: round; stroke: #c00000" d="M 68.2812 -11.9219 L 68.9062,-11.9219 L 68.9062,-10.9844 L 68.2812,-10.9844 L 68.2812,-11.9219"/>
    <path style="fill: none; fill-opacity:0; stroke-width: 0.3; stroke-linecap: round; stroke: #c00000" d="M 70.8594 -11.6094 L 70.8594,-10.3594 L 72.1094,-10.3594 L 72.1094,-10.0469 L 70.8594,-10.0469 L 70.8594,-7.85938 C 70.8594,-7.39062 70.8594,-7.23438 70.8594,-7.23438 C 71.0156,-7.23438 71.25,-7.23438 71.4844,-7.23438 L 72.1094,-7.23438 L 72.1094,-6.60938 L 71.4844,-6.60938 C 71.0156,-6.60938 70.7031,-6.6875 70.5469,-6.92188 C 70.3125,-7.07812 70.2344,-7.39062 70.2344,-7.85938 L 70.2344,-10.0469 L 69.9219,-10.0469 L 69.9219,-10.3594 L 70.2344,-10.3594 L 70.2344,-11.6094 L 70.8594,-11.6094"/>
    <path style="fill: none; fill-opacity:0; stroke-width: 0.3; stroke-linecap: round; stroke: #c00000" d="M 74.5312 -6.29688 C 74.2969,-5.67188 74.0625,-5.35938 73.9062,-5.35938 C 73.9062,-5.20312 73.75,-5.04688 73.5938,-5.04688 L 72.9688,-5.04688 L 72.9688,-5.67188 L 73.2812,-5.67188 C 73.4375,-5.67188 73.5938,-5.82812 73.5938,-5.98438 C 73.75,-5.98438 73.9062,-6.14062 73.9062,-6.29688 L 74.2188,-6.60938 L 72.6562,-10.3594 L 73.2812,-10.3594 L 74.5312,-7.54688 L 75.7812,-10.3594 L 76.4062,-10.3594 L 74.5312,-6.29688"/>
  </g>
  <g>
    <path style="fill: none; fill-opacity:0; stroke-width: 0.3; stroke-linecap: round; stroke: #c00000" d="M 208.915 198.952 L 210.816,198.911 L 210.7,198.297 C 210.857,197.87 210.814,197.64 210.583,197.683 C 210.401,197.559 210.142,197.449 209.911,197.492 C 209.527,197.565 209.297,197.608 209.297,197.608 C 209.144,197.637 208.957,197.911 208.799,198.338 L 208.915,198.952"/>
    <path style="fill: none; fill-opacity:0; stroke-width: 0.3; stroke-linecap: round; stroke: #c00000" d="M 208.168 200.048 L 208.185,198.454 C 208.299,197.797 208.457,197.369 208.567,197.11 C 208.768,196.913 209.152,196.84 209.795,196.878 C 210.256,196.791 210.606,196.963 210.832,197.318 C 211.106,197.505 211.179,197.889 211.065,198.546 L 211.181,199.16 L 213.388,199.061 L 213.255,200.04 L 208.168,200.048"/>
    <path style="fill: none; fill-opacity:0; stroke-width: 0.3; stroke-linecap: round; stroke: #c00000" d="M 211.066 192.662 L 211.373,192.604 L 211.588,195.426 C 212.202,195.31 212.648,195.146 212.758,194.887 C 212.96,194.69 212.978,194.368 212.891,193.908 C 213.016,193.725 212.972,193.495 212.775,193.294 C 212.746,193.14 212.703,192.91 212.659,192.679 L 212.966,192.621 C 213.163,192.823 213.36,193.024 213.389,193.177 C 213.433,193.408 213.323,193.667 213.198,193.85 C 213.314,194.464 213.186,195.045 212.874,195.501 C 212.534,195.804 212.011,195.982 211.397,196.098 C 210.754,196.061 210.312,195.826 209.995,195.409 C 209.769,195.054 209.543,194.699 209.456,194.239 C 209.57,193.581 209.804,193.139 210.145,192.837 C 210.346,192.639 210.653,192.581 211.066,192.662 L 211.066,192.662"/>
    <path style="fill: none; fill-opacity:0; stroke-width: 0.3; stroke-linecap: round; stroke: #c00000" d="M 211.182 193.277 C 210.769,193.196 210.462,193.254 210.261,193.451 C 210.107,193.48 209.92,193.754 209.763,194.181 C 209.806,194.411 210.018,194.689 210.244,195.044 C 210.518,195.231 210.868,195.403 211.281,195.484 L 211.182,193.277"/>
    <path style="fill: none; fill-opacity:0; stroke-width: 0.3; stroke-linecap: round; stroke: #c00000" d="M 211.282 189.6 C 211.398,190.214 211.639,190.646 211.821,190.771 C 211.865,191.001 212.033,191.049 212.186,191.02 C 212.417,190.976 212.647,190.932 212.801,190.903 C 213.002,190.706 213.035,190.462 212.992,190.231 C 212.919,189.847 212.784,189.555 212.51,189.368 C 212.284,189.013 211.934,188.841 211.473,188.928 L 211.282,189.6"/>
    <path style="fill: none; fill-opacity:0; stroke-width: 0.3; stroke-linecap: round; stroke: #c00000" d="M 211.108 188.679 L 213.316,188.58 L 213.374,188.887 L 212.759,189.003 C 212.957,189.204 213.154,189.406 213.183,189.559 C 213.226,189.789 213.27,190.02 213.299,190.173 C 213.415,190.787 213.348,191.277 213.224,191.46 C 212.883,191.762 212.576,191.82 212.303,191.634 C 211.688,191.75 211.367,191.731 211.323,191.501 C 211.097,191.146 210.842,190.638 210.726,190.023 L 210.859,189.044 L 210.801,188.737 C 210.647,188.766 210.446,188.963 210.245,189.16 C 209.905,189.463 209.732,189.814 209.805,190.197 C 209.848,190.428 210.045,190.629 210.228,190.754 C 210.272,190.984 210.238,191.229 210.037,191.426 L 209.73,191.484 C 209.701,191.33 209.657,191.1 209.614,190.87 C 209.541,190.486 209.498,190.256 209.498,190.256 C 209.612,189.598 209.77,189.171 209.88,188.911 C 210.081,188.714 210.465,188.642 211.108,188.679 L 211.108,188.679"/>
    <path style="fill: none; fill-opacity:0; stroke-width: 0.3; stroke-linecap: round; stroke: #c00000" d="M 207.891 187.22 L 208.082,186.548 L 211.268,186.582 L 209.634,184.664 L 209.518,184.05 L 211.152,185.967 L 213.261,183.661 L 213.435,184.582 L 211.575,186.524 L 213.476,186.482 L 213.285,187.155 L 207.891,187.22"/>
    <path style="fill: none; fill-opacity:0; stroke-width: 0.3; stroke-linecap: round; stroke: #c00000" d="M 208.936 179.708 L 210.836,179.667 L 210.72,179.052 C 210.878,178.625 210.834,178.395 210.604,178.438 C 210.421,178.314 210.162,178.204 209.932,178.247 C 209.548,178.32 209.318,178.363 209.318,178.363 C 209.164,178.392 208.977,178.666 208.82,179.094 L 208.936,179.708"/>
    <path style="fill: none; fill-opacity:0; stroke-width: 0.3; stroke-linecap: round; stroke: #c00000" d="M 208.189 180.803 L 208.205,179.21 C 208.32,178.552 208.477,178.125 208.587,177.865 C 208.789,177.668 209.173,177.596 209.816,177.633 C 210.276,177.546 210.627,177.718 210.853,178.073 C 211.127,178.26 211.199,178.644 211.085,179.302 L 211.201,179.916 L 213.409,179.816 L 213.276,180.796 L 208.189,180.803"/>
    <path style="fill: none; fill-opacity:0; stroke-width: 0.3; stroke-linecap: round; stroke: #c00000" d="M 209.783 174.936 C 209.87,175.397 210.158,175.66 210.571,175.741 C 210.845,175.928 211.196,176.1 211.609,176.181 C 212.069,176.094 212.453,176.022 212.837,175.949 C 213.038,175.752 213.057,175.431 212.97,174.97 C 213.094,174.787 213.051,174.557 212.854,174.356 C 212.397,174.045 211.97,173.887 211.509,173.974 C 211.097,173.893 210.789,173.951 210.588,174.148 C 210.248,174.451 209.984,174.739 209.783,174.936 L 209.783,174.936"/>
    <path style="fill: none; fill-opacity:0; stroke-width: 0.3; stroke-linecap: round; stroke: #c00000" d="M 209.476 174.994 C 209.634,174.567 209.883,174.202 210.223,173.899 C 210.381,173.471 210.75,173.322 211.393,173.36 C 212.007,173.244 212.512,173.387 212.738,173.742 C 213.209,174.13 213.358,174.499 213.277,174.912 C 213.393,175.526 213.25,176.03 212.895,176.256 C 212.555,176.559 212.032,176.737 211.418,176.853 C 210.774,176.816 210.347,176.658 210.073,176.471 C 209.847,176.117 209.592,175.608 209.476,174.994 L 209.476,174.994"/>
    <path style="fill: none; fill-opacity:0; stroke-width: 0.3; stroke-linecap: round; stroke: #c00000" d="M 209.501 172.604 L 209.692,171.932 L 212.34,170.796 L 209.709,170.339 L 209.593,169.724 L 212.241,168.588 L 209.61,168.131 L 209.494,167.517 L 213.469,168.356 L 213.278,169.028 L 210.265,169.915 L 213.261,170.621 L 213.435,171.543 L 209.501,172.604"/>
    <path style="fill: none; fill-opacity:0; stroke-width: 0.3; stroke-linecap: round; stroke: #c00000" d="M 211.101 163.397 L 211.408,163.339 L 211.623,166.161 C 212.237,166.045 212.683,165.881 212.793,165.621 C 212.995,165.424 213.013,165.103 212.926,164.642 C 213.051,164.46 213.007,164.229 212.81,164.028 C 212.781,163.874 212.738,163.644 212.694,163.414 L 213.001,163.356 C 213.198,163.557 213.395,163.758 213.424,163.912 C 213.468,164.142 213.358,164.402 213.233,164.584 C 213.349,165.198 213.221,165.779 212.909,166.236 C 212.569,166.538 212.046,166.717 211.432,166.833 C 210.789,166.795 210.347,166.561 210.03,166.144 C 209.804,165.789 209.577,165.434 209.49,164.973 C 209.605,164.316 209.839,163.874 210.18,163.571 C 210.381,163.374 210.688,163.316 211.101,163.397 L 211.101,163.397"/>
    <path style="fill: none; fill-opacity:0; stroke-width: 0.3; stroke-linecap: round; stroke: #c00000" d="M 211.217 164.011 C 210.804,163.93 210.497,163.988 210.296,164.185 C 210.142,164.214 209.955,164.488 209.798,164.915 C 209.841,165.146 210.053,165.424 210.279,165.779 C 210.552,165.965 210.903,166.138 211.316,166.219 L 211.217,164.011"/>
    <path style="fill: none; fill-opacity:0; stroke-width: 0.3; stroke-linecap: round; stroke: #c00000" d="M 210.265 159.818 C 210.265,159.818 210.294,159.972 210.323,160.125 C 210.17,160.154 209.94,160.198 209.709,160.241 C 209.796,160.702 210.085,160.965 210.497,161.046 C 210.771,161.233 211.122,161.405 211.535,161.486 L 213.435,161.445 L 213.244,162.117 L 209.443,162.2 L 209.634,161.527 L 210.248,161.411 C 210.066,161.287 209.869,161.086 209.825,160.855 C 209.643,160.731 209.599,160.5 209.709,160.241 C 209.68,160.088 209.651,159.934 209.651,159.934 L 210.265,159.818"/>
    <path style="fill: none; fill-opacity:0; stroke-width: 0.3; stroke-linecap: round; stroke: #c00000" d="M 208.667 153.044 L 209.646,153.177 C 209.032,153.293 208.754,153.504 208.783,153.658 C 208.673,153.917 208.578,154.253 208.65,154.637 C 208.584,155.127 208.748,155.573 209.247,156.114 C 209.795,156.488 210.285,156.555 210.899,156.438 C 211.556,156.553 212.094,156.451 212.434,156.148 C 212.822,155.677 212.98,155.25 213.123,154.746 C 213.051,154.362 212.839,154.084 212.642,153.883 C 212.613,153.729 212.555,153.422 212.468,152.962 L 213.14,153.153 C 213.184,153.383 213.227,153.613 213.256,153.767 C 213.3,153.997 213.358,154.304 213.43,154.688 C 213.316,155.346 213.111,155.941 212.799,156.397 C 212.272,156.974 211.596,157.181 210.708,157.111 C 209.94,157.256 209.268,157.065 208.691,156.538 C 208.191,155.996 207.999,155.396 208.036,154.753 C 207.964,154.369 208.059,154.033 208.169,153.774 C 208.14,153.62 208.327,153.347 208.667,153.044 L 208.667,153.044"/>
    <path style="fill: none; fill-opacity:0; stroke-width: 0.3; stroke-linecap: round; stroke: #c00000" d="M 211.303 150.161 C 211.419,150.775 211.659,151.206 211.842,151.331 C 211.885,151.561 212.053,151.609 212.207,151.58 C 212.437,151.536 212.667,151.493 212.821,151.464 C 213.022,151.267 213.055,151.022 213.012,150.792 C 212.939,150.408 212.805,150.115 212.531,149.928 C 212.305,149.574 211.954,149.401 211.494,149.488 L 211.303,150.161"/>
    <path style="fill: none; fill-opacity:0; stroke-width: 0.3; stroke-linecap: round; stroke: #c00000" d="M 211.128 149.239 L 213.336,149.14 L 213.394,149.447 L 212.78,149.563 C 212.977,149.765 213.174,149.966 213.203,150.119 C 213.246,150.35 213.29,150.58 213.319,150.734 C 213.435,151.348 213.369,151.837 213.244,152.02 C 212.904,152.323 212.597,152.381 212.323,152.194 C 211.709,152.31 211.387,152.291 211.344,152.061 C 211.118,151.706 210.863,151.198 210.746,150.584 L 210.879,149.604 L 210.821,149.297 C 210.668,149.326 210.467,149.523 210.265,149.72 C 209.925,150.023 209.753,150.374 209.825,150.758 C 209.869,150.988 210.066,151.189 210.248,151.314 C 210.292,151.544 210.259,151.789 210.057,151.986 L 209.75,152.044 C 209.721,151.891 209.678,151.66 209.634,151.43 C 209.562,151.046 209.518,150.816 209.518,150.816 C 209.632,150.158 209.79,149.731 209.9,149.471 C 210.101,149.274 210.485,149.202 211.128,149.239 L 211.128,149.239"/>
    <path style="fill: none; fill-opacity:0; stroke-width: 0.3; stroke-linecap: round; stroke: #c00000" d="M 212.805 147.173 L 215.013,147.074 L 214.822,147.746 L 209.428,147.812 L 209.619,147.139 L 210.233,147.023 C 210.05,146.899 209.853,146.698 209.81,146.467 C 209.627,146.343 209.583,146.112 209.693,145.853 C 209.621,145.469 209.793,145.119 210.134,144.816 C 210.291,144.389 210.661,144.239 211.304,144.277 C 211.918,144.161 212.422,144.304 212.648,144.659 C 213.119,145.047 213.422,145.387 213.494,145.771 C 213.308,146.045 213.121,146.319 212.996,146.501 C 213.04,146.731 213.007,146.976 212.805,147.173 L 212.805,147.173"/>
    <path style="fill: none; fill-opacity:0; stroke-width: 0.3; stroke-linecap: round; stroke: #c00000" d="M 211.42 144.891 C 211.007,144.81 210.7,144.868 210.499,145.065 C 210.158,145.368 209.909,145.733 209.751,146.16 C 209.795,146.391 210.069,146.577 210.482,146.658 C 210.756,146.845 211.106,147.017 211.519,147.098 C 211.98,147.011 212.363,146.939 212.747,146.866 C 212.948,146.669 212.982,146.424 212.938,146.194 C 213.019,145.781 212.961,145.474 212.764,145.273 C 212.308,144.962 211.88,144.804 211.42,144.891 L 211.42,144.891"/>
    <path style="fill: none; fill-opacity:0; stroke-width: 0.3; stroke-linecap: round; stroke: #c00000" d="M 211.319 141.412 C 211.435,142.026 211.675,142.457 211.858,142.582 C 211.902,142.812 212.07,142.86 212.223,142.831 C 212.453,142.787 212.684,142.744 212.837,142.715 C 213.039,142.518 213.072,142.273 213.028,142.043 C 212.956,141.659 212.821,141.366 212.547,141.179 C 212.321,140.825 211.97,140.652 211.51,140.739 L 211.319,141.412"/>
    <path style="fill: none; fill-opacity:0; stroke-width: 0.3; stroke-linecap: round; stroke: #c00000" d="M 211.145 140.49 L 213.352,140.391 L 213.41,140.698 L 212.796,140.814 C 212.993,141.016 213.19,141.217 213.219,141.37 C 213.263,141.601 213.306,141.831 213.335,141.985 C 213.451,142.599 213.385,143.088 213.26,143.271 C 212.92,143.574 212.613,143.632 212.339,143.445 C 211.725,143.561 211.403,143.542 211.36,143.312 C 211.134,142.957 210.879,142.449 210.763,141.835 L 210.896,140.855 L 210.838,140.548 C 210.684,140.577 210.483,140.775 210.282,140.972 C 209.941,141.274 209.769,141.625 209.842,142.009 C 209.885,142.239 210.082,142.44 210.265,142.565 C 210.308,142.795 210.275,143.04 210.074,143.237 L 209.767,143.295 C 209.738,143.142 209.694,142.911 209.651,142.681 C 209.578,142.297 209.534,142.067 209.534,142.067 C 209.649,141.409 209.806,140.982 209.916,140.723 C 210.118,140.525 210.502,140.453 211.145,140.49 L 211.145,140.49"/>
    <path style="fill: none; fill-opacity:0; stroke-width: 0.3; stroke-linecap: round; stroke: #c00000" d="M 209.521 136.106 L 210.135,135.99 C 210.179,136.221 210.222,136.451 210.251,136.604 C 210.141,136.864 209.955,137.137 209.753,137.335 C 209.797,137.565 210.085,137.828 210.541,138.14 C 210.815,138.326 211.166,138.499 211.579,138.58 C 212.039,138.493 212.409,138.343 212.749,138.041 C 212.95,137.843 212.984,137.599 212.94,137.368 C 213.065,137.186 213.021,136.956 212.824,136.754 C 212.795,136.601 212.751,136.37 212.708,136.14 L 213.322,136.024 C 213.366,136.254 213.409,136.485 213.438,136.638 C 213.482,136.868 213.372,137.128 213.247,137.31 C 213.334,137.771 213.176,138.198 212.865,138.655 C 212.525,138.957 212.002,139.136 211.388,139.252 C 210.745,139.214 210.303,138.98 209.985,138.563 C 209.759,138.208 209.533,137.853 209.446,137.393 C 209.647,137.196 209.681,136.951 209.637,136.72 C 209.608,136.567 209.565,136.337 209.521,136.106 L 209.521,136.106"/>
    <path style="fill: none; fill-opacity:0; stroke-width: 0.3; stroke-linecap: round; stroke: #c00000" d="M 209.486 135.079 L 209.677,134.407 L 213.478,134.325 L 213.287,134.997 L 209.486,135.079"/>
    <path style="fill: none; fill-opacity:0; stroke-width: 0.3; stroke-linecap: round; stroke: #c00000" d="M 207.893 135.062 L 208.084,134.39 L 209.005,134.216 L 208.814,134.888 L 207.893,135.062"/>
    <path style="fill: none; fill-opacity:0; stroke-width: 0.3; stroke-linecap: round; stroke: #c00000" d="M 208.35 132.432 L 209.636,132.507 L 209.711,131.22 L 210.018,131.162 L 209.943,132.449 L 212.151,132.35 C 212.655,132.493 212.823,132.541 212.823,132.541 C 212.794,132.387 212.75,132.157 212.707,131.926 L 212.898,131.254 L 213.512,131.138 L 213.321,131.81 C 213.408,132.271 213.312,132.607 213.188,132.79 C 212.847,133.092 212.464,133.165 211.96,133.022 L 209.752,133.121 L 209.81,133.428 L 209.503,133.486 L 209.445,133.179 L 208.159,133.104 L 208.35,132.432"/>
    <path style="fill: none; fill-opacity:0; stroke-width: 0.3; stroke-linecap: round; stroke: #c00000" d="M 213.599 128.657 C 214.07,129.045 214.435,129.294 214.695,129.404 C 214.848,129.375 215.045,129.576 215.118,129.96 L 214.869,130.325 L 214.255,130.441 L 214.504,130.076 C 214.475,129.923 214.278,129.721 214.081,129.52 C 214.052,129.367 213.869,129.242 213.715,129.271 L 213.35,129.022 L 209.533,130.698 L 209.724,130.025 L 212.313,128.582 L 209.624,127.818 L 209.508,127.204 L 213.599,128.657"/>
  </g>
  <text font-size="6.20889" style="fill: #800080;text-anchor:start;font-family:sans-serif;font-style:normal;font-weight:normal" x="204.529" y="-2.65518">
    <tspan x="204.529" y="-2.65518">s</tspan>
  </text>
  <text font-size="9.03111" style="fill: #800080;text-anchor:start;font-family:sans-serif;font-style:normal;font-weight:normal" x="200.529" y="-3.68018">
    <tspan x="200.529" y="-3.68018">P</tspan>
  </text>
  <text font-size="6.20889" style="fill: #800080;text-anchor:start;font-family:sans-serif;font-style:normal;font-weight:normal" x="195.83" y="-2.33097">
    <tspan x="195.83" y="-2.33097">s</tspan>
  </text>
  <text font-size="9.03111" style="fill: #800080;text-anchor:start;font-family:sans-serif;font-style:normal;font-weight:normal" x="189.83" y="-3.35597">
    <tspan x="189.83" y="-3.35597">E</tspan>
  </text>
  <text font-size="9.03111" style="fill: #800080;text-anchor:start;font-family:sans-serif;font-style:normal;font-weight:normal" x="198.681" y="-2.92489">
    <tspan x="198.681" y="-2.92489">,</tspan>
  </text>
  <path style="fill: none; fill-opacity:0; stroke-width: 1; stroke: #800080" d="M 198.85 3.06418 C 205.622,0.84075 204.186,1.95335 206.661,-1.40539"/>
</svg>
