<?xml version="1.0" encoding="UTF-8" standalone="no"?>
<!DOCTYPE svg PUBLIC "-//W3C//DTD SVG 1.0//EN" "http://www.w3.org/TR/2001/PR-SVG-20010719/DTD/svg10.dtd">
<svg width="12cm" height="12cm" viewBox="7 4 223 226" xmlns="http://www.w3.org/2000/svg" xmlns:xlink="http://www.w3.org/1999/xlink">
  <g>
    <line style="fill: none; fill-opacity:0; stroke-width: 1.2; stroke: #c00000" x1="30.9578" y1="20.9617" x2="217.358" y2="20.9617"/>
    <polygon style="fill: #c00000" points="30.9578,18.4617 20.9578,20.9617 30.9578,23.4617 "/>
    <polygon style="fill: none; fill-opacity:0; stroke-width: 1.2; stroke: #c00000" points="30.9578,18.4617 20.9578,20.9617 30.9578,23.4617 "/>
  </g>
  <g>
    <path style="fill: #efefef" d="M 20.3578 216.962 C 20.3578,216.962 56.3578,204.962 88.3578,192.962 C 120.358,180.962 140.358,170.295 156.358,158.962 C 172.358,147.628 188.358,126.962 200.358,104.962 C 212.358,82.9617 216.358,28.9617 216.358,24.9617 C 216.358,20.9617 216.358,20.9617 216.358,20.9617 C 216.358,20.9617 204.358,32.9617 188.358,48.9617 C 172.358,64.9617 20.3578,216.962 20.3578,216.962z"/>
    <path style="fill: none; fill-opacity:0; stroke-width: 1; stroke: #efefef" d="M 20.3578 216.962 C 20.3578,216.962 56.3578,204.962 88.3578,192.962 C 120.358,180.962 140.358,170.295 156.358,158.962 C 172.358,147.628 188.358,126.962 200.358,104.962 C 212.358,82.9617 216.358,28.9617 216.358,24.9617 C 216.358,20.9617 216.358,20.9617 216.358,20.9617 C 216.358,20.9617 204.358,32.9617 188.358,48.9617 C 172.358,64.9617 20.3578,216.962 20.3578,216.962"/>
  </g>
  <g>
    <path style="fill: #d7d7d7" d="M 20.3578 216.962 C 20.3578,216.962 60.3578,196.962 84.3578,184.962 C 108.358,172.962 138.358,156.962 154.358,144.962 C 170.358,132.962 188.358,112.962 196.358,98.9617 C 204.358,84.9617 216.358,28.9617 216.358,24.9617 C 216.358,20.9617 216.358,20.9617 216.358,20.9617 C 216.358,20.9617 204.358,32.9617 188.358,48.9617 C 172.358,64.9617 20.3578,216.962 20.3578,216.962z"/>
    <path style="fill: none; fill-opacity:0; stroke-width: 1; stroke: #d7d7d7" d="M 20.3578 216.962 C 20.3578,216.962 60.3578,196.962 84.3578,184.962 C 108.358,172.962 138.358,156.962 154.358,144.962 C 170.358,132.962 188.358,112.962 196.358,98.9617 C 204.358,84.9617 216.358,28.9617 216.358,24.9617 C 216.358,20.9617 216.358,20.9617 216.358,20.9617 C 216.358,20.9617 204.358,32.9617 188.358,48.9617 C 172.358,64.9617 20.3578,216.962 20.3578,216.962"/>
  </g>
  <line style="fill: none; fill-opacity:0; stroke-width: 1.2; stroke: #800080" x1="22.3578" y1="214.962" x2="220.358" y2="16.9617"/>
  <g>
    <ellipse style="fill: #ffffff" cx="216.358" cy="20.9617" rx="1" ry="1"/>
    <ellipse style="fill: none; fill-opacity:0; stroke-width: 4; stroke: #800080" cx="216.358" cy="20.9617" rx="1" ry="1"/>
  </g>
  <g>
    <line style="fill: none; fill-opacity:0; stroke-width: 1.2; stroke: #c00000" x1="216.358" y1="206.362" x2="216.358" y2="19.9617"/>
    <polygon style="fill: #c00000" points="213.858,206.362 216.358,216.362 218.858,206.362 "/>
    <polygon style="fill: none; fill-opacity:0; stroke-width: 1.2; stroke: #c00000" points="213.858,206.362 216.358,216.362 218.858,206.362 "/>
  </g>
  <line style="fill: none; fill-opacity:0; stroke-width: 2; stroke: #800080" x1="20.3578" y1="216.962" x2="217.065" y2="20.2546"/>
  <line style="fill: none; fill-opacity:0; stroke-width: 1.2; stroke: #000000" x1="216.358" y1="218.962" x2="216.358" y2="214.962"/>
  <line style="fill: none; fill-opacity:0; stroke-width: 1.2; stroke: #000000" x1="18.3578" y1="20.9617" x2="22.3578" y2="20.9617"/>
  <g>
    <line style="fill: none; fill-opacity:0; stroke-width: 1.2; stroke: #00c000" x1="20.3578" y1="216.962" x2="209.758" y2="216.962"/>
    <polygon style="fill: #00c000" points="209.758,219.462 219.758,216.962 209.758,214.462 "/>
    <polygon style="fill: none; fill-opacity:0; stroke-width: 1.2; stroke: #00c000" points="209.758,219.462 219.758,216.962 209.758,214.462 "/>
  </g>
  <g>
    <line style="fill: none; fill-opacity:0; stroke-width: 1.2; stroke: #00c000" x1="20.3578" y1="216.962" x2="20.3578" y2="27.5617"/>
    <polygon style="fill: #00c000" points="22.8578,27.5617 20.3578,17.5617 17.8578,27.5617 "/>
    <polygon style="fill: none; fill-opacity:0; stroke-width: 1.2; stroke: #00c000" points="22.8578,27.5617 20.3578,17.5617 17.8578,27.5617 "/>
  </g>
  <g>
    <path style="fill: none; fill-opacity:0; stroke-width: 0.3; stroke-linecap: round; stroke: #00c000" d="M 143.295 225.852 L 143.295,227.727 L 144.233,227.727 C 144.623,227.727 144.936,227.727 145.17,227.727 C 145.327,227.571 145.483,227.259 145.483,226.79 C 145.483,226.634 145.327,226.399 145.17,226.165 C 144.936,226.009 144.623,225.852 144.233,225.852 L 143.295,225.852"/>
    <path style="fill: none; fill-opacity:0; stroke-width: 0.3; stroke-linecap: round; stroke: #00c000" d="M 143.295 223.977 L 143.295,225.227 L 144.233,225.227 C 144.623,225.227 144.858,225.227 144.858,225.227 C 145.014,225.071 145.17,224.837 145.17,224.602 C 145.17,224.446 145.014,224.29 144.858,224.29 C 144.858,224.134 144.623,223.977 144.233,223.977 L 143.295,223.977"/>
    <path style="fill: none; fill-opacity:0; stroke-width: 0.3; stroke-linecap: round; stroke: #00c000" d="M 142.358 223.04 L 144.233,223.04 C 144.858,223.04 145.248,223.274 145.483,223.665 C 145.639,223.899 145.795,224.212 145.795,224.602 C 145.795,224.837 145.639,225.071 145.483,225.227 C 145.483,225.462 145.327,225.54 145.17,225.54 C 145.327,225.774 145.561,226.009 145.795,226.165 C 145.952,226.399 146.108,226.634 146.108,226.79 C 146.108,227.415 145.873,227.884 145.483,228.04 C 145.248,228.274 144.858,228.352 144.233,228.352 L 142.358,228.352 L 142.358,223.04"/>
    <path style="fill: none; fill-opacity:0; stroke-width: 0.3; stroke-linecap: round; stroke: #00c000" d="M 149.077 226.477 C 148.452,226.477 147.983,226.634 147.827,226.79 C 147.827,226.79 147.827,226.946 147.827,227.102 C 147.827,227.337 147.827,227.571 147.827,227.727 C 147.983,227.962 148.217,228.04 148.452,228.04 C 148.842,228.04 149.155,227.962 149.389,227.727 C 149.545,227.337 149.702,226.946 149.702,226.477 L 149.077,226.477"/>
    <path style="fill: none; fill-opacity:0; stroke-width: 0.3; stroke-linecap: round; stroke: #00c000" d="M 150.327 226.165 L 150.327,228.352 L 149.702,228.352 L 149.702,227.727 C 149.467,227.962 149.233,228.196 149.077,228.352 C 148.842,228.352 148.608,228.352 148.452,228.352 C 147.983,228.352 147.592,228.274 147.202,228.04 C 146.967,227.884 146.889,227.571 146.889,227.102 C 146.889,226.712 146.967,226.399 147.202,226.165 C 147.592,226.009 148.139,225.852 148.764,225.852 L 149.702,225.852 C 149.702,225.462 149.545,225.227 149.389,225.227 C 149.155,225.071 148.842,224.915 148.452,224.915 C 148.217,224.915 147.983,224.915 147.827,224.915 C 147.592,224.915 147.358,225.071 147.202,225.227 L 147.202,224.602 C 147.592,224.602 147.905,224.602 148.139,224.602 C 148.295,224.446 148.452,224.29 148.452,224.29 C 149.077,224.29 149.467,224.524 149.702,224.915 C 150.092,225.149 150.327,225.54 150.327,226.165 L 150.327,226.165"/>
    <path style="fill: none; fill-opacity:0; stroke-width: 0.3; stroke-linecap: round; stroke: #00c000" d="M 153.998 224.602 L 153.998,225.227 C 153.764,225.071 153.53,224.915 153.373,224.915 C 153.139,224.915 152.905,224.915 152.748,224.915 C 152.514,224.915 152.28,225.071 152.123,225.227 C 151.889,225.227 151.811,225.384 151.811,225.54 C 151.811,225.774 151.811,225.852 151.811,225.852 C 151.967,225.852 152.28,226.009 152.748,226.165 L 153.061,226.165 C 153.452,226.165 153.764,226.321 153.998,226.477 C 154.155,226.712 154.311,226.946 154.311,227.102 C 154.311,227.571 154.077,227.884 153.686,228.04 C 153.452,228.274 153.139,228.352 152.748,228.352 C 152.514,228.352 152.202,228.352 151.811,228.352 C 151.577,228.352 151.342,228.352 151.186,228.352 L 151.186,227.727 C 151.342,227.727 151.577,227.884 151.811,228.04 C 152.202,228.04 152.514,228.04 152.748,228.04 C 152.905,228.04 153.061,228.04 153.061,228.04 C 153.217,227.884 153.373,227.649 153.373,227.415 C 153.373,227.259 153.217,227.102 153.061,227.102 C 153.061,226.946 152.905,226.79 152.748,226.79 L 152.436,226.477 C 151.967,226.477 151.655,226.477 151.498,226.477 C 151.264,226.321 151.186,226.009 151.186,225.54 C 151.186,225.149 151.264,224.837 151.498,224.602 C 151.889,224.446 152.28,224.29 152.748,224.29 C 152.905,224.29 153.139,224.446 153.373,224.602 C 153.53,224.602 153.764,224.602 153.998,224.602 L 153.998,224.602"/>
    <path style="fill: none; fill-opacity:0; stroke-width: 0.3; stroke-linecap: round; stroke: #00c000" d="M 158.608 226.165 L 158.608,226.477 L 155.795,226.477 C 155.795,226.946 155.873,227.337 156.108,227.727 C 156.264,227.962 156.577,228.04 157.045,228.04 C 157.202,228.04 157.436,228.04 157.67,228.04 C 157.827,227.884 158.061,227.727 158.295,227.727 L 158.295,228.04 C 158.061,228.274 157.827,228.352 157.67,228.352 C 157.436,228.352 157.202,228.352 157.045,228.352 C 156.42,228.352 155.873,228.274 155.483,228.04 C 155.014,227.649 154.858,227.102 154.858,226.477 C 154.858,225.852 155.014,225.384 155.483,224.915 C 155.873,224.524 156.264,224.29 156.733,224.29 C 157.358,224.29 157.748,224.524 157.983,224.915 C 158.373,225.149 158.608,225.54 158.608,226.165 L 158.608,226.165"/>
    <path style="fill: none; fill-opacity:0; stroke-width: 0.3; stroke-linecap: round; stroke: #00c000" d="M 157.983 226.165 C 157.983,225.774 157.827,225.462 157.67,225.227 C 157.436,225.071 157.123,224.915 156.733,224.915 C 156.498,224.915 156.264,225.071 156.108,225.227 C 155.873,225.462 155.795,225.774 155.795,226.165 L 157.983,226.165"/>
    <path style="fill: none; fill-opacity:0; stroke-width: 0.3; stroke-linecap: round; stroke: #00c000" d="M 161.811 223.04 L 165.248,223.04 L 165.248,223.977 L 162.748,223.977 L 162.748,225.227 L 164.936,225.227 L 164.936,225.852 L 162.748,225.852 L 162.748,227.727 L 165.248,227.727 L 165.248,228.352 L 161.811,228.352 L 161.811,223.04"/>
    <path style="fill: none; fill-opacity:0; stroke-width: 0.3; stroke-linecap: round; stroke: #00c000" d="M 169.389 226.165 L 169.389,228.352 L 168.764,228.352 L 168.764,226.165 C 168.764,225.774 168.608,225.462 168.452,225.227 C 168.452,225.071 168.295,224.915 168.139,224.915 C 167.67,224.915 167.358,225.071 167.202,225.227 C 166.967,225.462 166.889,225.774 166.889,226.165 L 166.889,228.352 L 166.264,228.352 L 166.264,224.602 L 166.889,224.602 L 166.889,224.915 C 167.045,224.759 167.28,224.602 167.514,224.602 C 167.67,224.446 167.905,224.29 168.139,224.29 C 168.53,224.29 168.842,224.524 169.077,224.915 C 169.233,225.149 169.389,225.54 169.389,226.165 L 169.389,226.165"/>
    <path style="fill: none; fill-opacity:0; stroke-width: 0.3; stroke-linecap: round; stroke: #00c000" d="M 174.155 226.165 L 174.155,226.477 L 171.342,226.477 C 171.342,226.946 171.42,227.337 171.655,227.727 C 171.811,227.962 172.123,228.04 172.592,228.04 C 172.748,228.04 172.983,228.04 173.217,228.04 C 173.373,227.884 173.608,227.727 173.842,227.727 L 173.842,228.04 C 173.608,228.274 173.373,228.352 173.217,228.352 C 172.983,228.352 172.748,228.352 172.592,228.352 C 171.967,228.352 171.42,228.274 171.03,228.04 C 170.561,227.649 170.405,227.102 170.405,226.477 C 170.405,225.852 170.561,225.384 171.03,224.915 C 171.42,224.524 171.811,224.29 172.28,224.29 C 172.905,224.29 173.295,224.524 173.53,224.915 C 173.92,225.149 174.155,225.54 174.155,226.165 L 174.155,226.165"/>
    <path style="fill: none; fill-opacity:0; stroke-width: 0.3; stroke-linecap: round; stroke: #00c000" d="M 173.53 226.165 C 173.53,225.774 173.373,225.462 173.217,225.227 C 172.983,225.071 172.67,224.915 172.28,224.915 C 172.045,224.915 171.811,225.071 171.655,225.227 C 171.42,225.462 171.342,225.774 171.342,226.165 L 173.53,226.165"/>
    <path style="fill: none; fill-opacity:0; stroke-width: 0.3; stroke-linecap: round; stroke: #00c000" d="M 177.202 224.915 C 177.202,224.915 177.045,224.915 176.889,224.915 C 176.42,224.915 176.108,225.149 175.952,225.54 C 175.717,225.774 175.639,226.087 175.639,226.477 L 175.639,228.352 L 175.014,228.352 L 175.014,224.602 L 175.639,224.602 L 175.639,224.915 C 175.795,224.759 176.03,224.602 176.264,224.602 C 176.42,224.446 176.655,224.29 176.889,224.29 C 177.045,224.29 177.202,224.29 177.202,224.29 L 177.202,224.915"/>
    <path style="fill: none; fill-opacity:0; stroke-width: 0.3; stroke-linecap: round; stroke: #00c000" d="M 180.483 226.477 C 180.483,226.087 180.327,225.774 180.17,225.54 C 179.936,225.149 179.702,224.915 179.545,224.915 C 179.077,224.915 178.764,225.149 178.608,225.54 C 178.373,225.774 178.295,226.087 178.295,226.477 C 178.295,226.946 178.373,227.259 178.608,227.415 C 178.764,227.649 179.077,227.727 179.545,227.727 C 179.702,227.727 179.936,227.649 180.17,227.415 C 180.327,227.259 180.483,226.946 180.483,226.477 L 180.483,226.477"/>
    <path style="fill: none; fill-opacity:0; stroke-width: 0.3; stroke-linecap: round; stroke: #00c000" d="M 181.108 228.04 C 181.108,228.665 180.952,229.055 180.795,229.29 C 180.561,229.68 180.17,229.915 179.545,229.915 C 179.311,229.915 179.077,229.759 178.92,229.602 C 178.686,229.602 178.452,229.602 178.295,229.602 L 178.295,228.977 C 178.452,228.977 178.608,228.977 178.608,228.977 C 178.764,229.134 178.998,229.29 179.233,229.29 C 179.623,229.29 179.936,229.134 180.17,228.977 C 180.327,228.743 180.483,228.43 180.483,228.04 L 180.483,227.727 C 180.483,227.962 180.327,228.196 180.17,228.352 C 179.936,228.352 179.623,228.352 179.233,228.352 C 178.764,228.352 178.373,228.196 177.983,227.727 C 177.748,227.337 177.67,226.946 177.67,226.477 C 177.67,225.852 177.748,225.384 177.983,224.915 C 178.373,224.524 178.764,224.29 179.233,224.29 C 179.623,224.29 179.936,224.446 180.17,224.602 C 180.327,224.602 180.483,224.759 180.483,224.915 L 180.483,224.602 L 181.108,224.602 L 181.108,228.04"/>
    <path style="fill: none; fill-opacity:0; stroke-width: 0.3; stroke-linecap: round; stroke: #00c000" d="M 183.998 228.665 C 183.764,229.29 183.53,229.602 183.373,229.602 C 183.373,229.759 183.217,229.915 183.061,229.915 L 182.436,229.915 L 182.436,229.29 L 182.748,229.29 C 182.905,229.29 183.061,229.134 183.061,228.977 C 183.217,228.977 183.373,228.821 183.373,228.665 L 183.686,228.352 L 182.123,224.602 L 182.748,224.602 L 183.998,227.415 L 185.248,224.602 L 185.873,224.602 L 183.998,228.665"/>
    <path style="fill: none; fill-opacity:0; stroke-width: 0.3; stroke-linecap: round; stroke: #00c000" d="M 192.592 223.665 L 192.592,224.29 C 192.358,224.134 192.123,223.977 191.967,223.977 C 191.733,223.821 191.498,223.665 191.342,223.665 C 190.717,223.665 190.17,223.899 189.78,224.29 C 189.545,224.524 189.467,225.071 189.467,225.852 C 189.467,226.477 189.545,227.024 189.78,227.415 C 190.17,227.884 190.717,228.04 191.342,228.04 C 191.498,228.04 191.733,228.04 191.967,228.04 C 192.123,227.884 192.358,227.571 192.592,227.102 L 192.592,228.04 C 192.358,228.274 192.123,228.352 191.967,228.352 C 191.733,228.352 191.42,228.352 191.03,228.352 C 190.405,228.352 189.78,228.196 189.155,227.727 C 188.686,227.337 188.53,226.712 188.53,225.852 C 188.53,225.071 188.686,224.446 189.155,223.977 C 189.78,223.352 190.405,223.04 191.03,223.04 C 191.42,223.04 191.733,223.196 191.967,223.352 C 192.123,223.352 192.358,223.509 192.592,223.665 L 192.592,223.665"/>
    <path style="fill: none; fill-opacity:0; stroke-width: 0.3; stroke-linecap: round; stroke: #00c000" d="M 195.639 226.477 C 195.014,226.477 194.545,226.634 194.389,226.79 C 194.389,226.79 194.389,226.946 194.389,227.102 C 194.389,227.337 194.389,227.571 194.389,227.727 C 194.545,227.962 194.78,228.04 195.014,228.04 C 195.405,228.04 195.717,227.962 195.952,227.727 C 196.108,227.337 196.264,226.946 196.264,226.477 L 195.639,226.477"/>
    <path style="fill: none; fill-opacity:0; stroke-width: 0.3; stroke-linecap: round; stroke: #00c000" d="M 196.889 226.165 L 196.889,228.352 L 196.264,228.352 L 196.264,227.727 C 196.03,227.962 195.795,228.196 195.639,228.352 C 195.405,228.352 195.17,228.352 195.014,228.352 C 194.545,228.352 194.155,228.274 193.764,228.04 C 193.53,227.884 193.452,227.571 193.452,227.102 C 193.452,226.712 193.53,226.399 193.764,226.165 C 194.155,226.009 194.702,225.852 195.327,225.852 L 196.264,225.852 C 196.264,225.462 196.108,225.227 195.952,225.227 C 195.717,225.071 195.405,224.915 195.014,224.915 C 194.78,224.915 194.545,224.915 194.389,224.915 C 194.155,224.915 193.92,225.071 193.764,225.227 L 193.764,224.602 C 194.155,224.602 194.467,224.602 194.702,224.602 C 194.858,224.446 195.014,224.29 195.014,224.29 C 195.639,224.29 196.03,224.524 196.264,224.915 C 196.655,225.149 196.889,225.54 196.889,226.165 L 196.889,226.165"/>
    <path style="fill: none; fill-opacity:0; stroke-width: 0.3; stroke-linecap: round; stroke: #00c000" d="M 198.686 227.727 L 198.686,229.915 L 198.061,229.915 L 198.061,224.602 L 198.686,224.602 L 198.686,224.915 C 198.842,224.759 199.077,224.602 199.311,224.602 C 199.467,224.446 199.702,224.29 199.936,224.29 C 200.327,224.29 200.639,224.524 200.873,224.915 C 201.264,225.384 201.498,225.852 201.498,226.477 C 201.498,227.102 201.264,227.649 200.873,228.04 C 200.639,228.274 200.327,228.352 199.936,228.352 C 199.702,228.352 199.467,228.352 199.311,228.352 C 199.077,228.196 198.842,227.962 198.686,227.727 L 198.686,227.727"/>
    <path style="fill: none; fill-opacity:0; stroke-width: 0.3; stroke-linecap: round; stroke: #00c000" d="M 200.873 226.477 C 200.873,226.087 200.717,225.774 200.561,225.54 C 200.327,225.149 200.014,224.915 199.623,224.915 C 199.389,224.915 199.155,225.149 198.998,225.54 C 198.764,225.774 198.686,226.087 198.686,226.477 C 198.686,226.946 198.764,227.337 198.998,227.727 C 199.155,227.962 199.389,228.04 199.623,228.04 C 200.014,228.04 200.327,227.962 200.561,227.727 C 200.717,227.337 200.873,226.946 200.873,226.477 L 200.873,226.477"/>
    <path style="fill: none; fill-opacity:0; stroke-width: 0.3; stroke-linecap: round; stroke: #00c000" d="M 204.467 226.477 C 203.842,226.477 203.373,226.634 203.217,226.79 C 203.217,226.79 203.217,226.946 203.217,227.102 C 203.217,227.337 203.217,227.571 203.217,227.727 C 203.373,227.962 203.608,228.04 203.842,228.04 C 204.233,228.04 204.545,227.962 204.78,227.727 C 204.936,227.337 205.092,226.946 205.092,226.477 L 204.467,226.477"/>
    <path style="fill: none; fill-opacity:0; stroke-width: 0.3; stroke-linecap: round; stroke: #00c000" d="M 205.717 226.165 L 205.717,228.352 L 205.092,228.352 L 205.092,227.727 C 204.858,227.962 204.623,228.196 204.467,228.352 C 204.233,228.352 203.998,228.352 203.842,228.352 C 203.373,228.352 202.983,228.274 202.592,228.04 C 202.358,227.884 202.28,227.571 202.28,227.102 C 202.28,226.712 202.358,226.399 202.592,226.165 C 202.983,226.009 203.53,225.852 204.155,225.852 L 205.092,225.852 C 205.092,225.462 204.936,225.227 204.78,225.227 C 204.545,225.071 204.233,224.915 203.842,224.915 C 203.608,224.915 203.373,224.915 203.217,224.915 C 202.983,224.915 202.748,225.071 202.592,225.227 L 202.592,224.602 C 202.983,224.602 203.295,224.602 203.53,224.602 C 203.686,224.446 203.842,224.29 203.842,224.29 C 204.467,224.29 204.858,224.524 205.092,224.915 C 205.483,225.149 205.717,225.54 205.717,226.165 L 205.717,226.165"/>
    <path style="fill: none; fill-opacity:0; stroke-width: 0.3; stroke-linecap: round; stroke: #00c000" d="M 209.702 224.602 L 209.702,225.227 C 209.467,225.071 209.233,224.915 209.077,224.915 C 208.842,224.915 208.608,224.915 208.452,224.915 C 208.217,224.915 207.983,225.149 207.827,225.54 C 207.592,225.774 207.514,226.087 207.514,226.477 C 207.514,226.946 207.592,227.337 207.827,227.727 C 207.983,227.962 208.217,228.04 208.452,228.04 C 208.608,228.04 208.842,228.04 209.077,228.04 C 209.233,227.884 209.467,227.727 209.702,227.727 L 209.702,228.352 C 209.467,228.352 209.233,228.352 209.077,228.352 C 208.842,228.352 208.608,228.352 208.452,228.352 C 207.983,228.352 207.592,228.274 207.202,228.04 C 206.733,227.649 206.577,227.102 206.577,226.477 C 206.577,225.852 206.733,225.384 207.202,224.915 C 207.592,224.524 207.983,224.29 208.452,224.29 C 208.608,224.29 208.842,224.446 209.077,224.602 C 209.233,224.602 209.467,224.602 209.702,224.602 L 209.702,224.602"/>
    <path style="fill: none; fill-opacity:0; stroke-width: 0.3; stroke-linecap: round; stroke: #00c000" d="M 210.795 224.602 L 211.42,224.602 L 211.42,228.352 L 210.795,228.352 L 210.795,224.602"/>
    <path style="fill: none; fill-opacity:0; stroke-width: 0.3; stroke-linecap: round; stroke: #00c000" d="M 210.795 223.04 L 211.42,223.04 L 211.42,223.977 L 210.795,223.977 L 210.795,223.04"/>
    <path style="fill: none; fill-opacity:0; stroke-width: 0.3; stroke-linecap: round; stroke: #00c000" d="M 213.373 223.352 L 213.373,224.602 L 214.623,224.602 L 214.623,224.915 L 213.373,224.915 L 213.373,227.102 C 213.373,227.571 213.373,227.727 213.373,227.727 C 213.53,227.727 213.764,227.727 213.998,227.727 L 214.623,227.727 L 214.623,228.352 L 213.998,228.352 C 213.53,228.352 213.217,228.274 213.061,228.04 C 212.827,227.884 212.748,227.571 212.748,227.102 L 212.748,224.915 L 212.436,224.915 L 212.436,224.602 L 212.748,224.602 L 212.748,223.352 L 213.373,223.352"/>
    <path style="fill: none; fill-opacity:0; stroke-width: 0.3; stroke-linecap: round; stroke: #00c000" d="M 217.045 228.665 C 216.811,229.29 216.577,229.602 216.42,229.602 C 216.42,229.759 216.264,229.915 216.108,229.915 L 215.483,229.915 L 215.483,229.29 L 215.795,229.29 C 215.952,229.29 216.108,229.134 216.108,228.977 C 216.264,228.977 216.42,228.821 216.42,228.665 L 216.733,228.352 L 215.17,224.602 L 215.795,224.602 L 217.045,227.415 L 218.295,224.602 L 218.92,224.602 L 217.045,228.665"/>
  </g>
  <g>
    <path style="fill: none; fill-opacity:0; stroke-width: 0.3; stroke-linecap: round; stroke: #00c000" d="M 10.4813 92.1801 L 12.3817,92.139 L 12.5147,91.1598 C 12.4422,90.776 12.3842,90.4689 12.3406,90.2386 C 12.1581,90.1141 11.822,90.0186 11.3614,90.1056 C 11.2079,90.1346 11.0066,90.3317 10.8053,90.5288 C 10.6518,90.5578 10.5418,90.8171 10.6143,91.2009 L 10.4813,92.1801"/>
    <path style="fill: none; fill-opacity:0; stroke-width: 0.3; stroke-linecap: round; stroke: #00c000" d="M 8.52288 91.9142 L 10.1162,91.9311 L 9.94214,91.0099 C 10.1434,90.8128 10.0999,90.5826 9.82608,90.3958 C 9.64354,90.2713 9.38422,90.1612 9.15392,90.2048 C 9.00039,90.2338 8.87587,90.4163 8.90489,90.5699 C 8.75136,90.5989 8.55007,90.7959 8.34879,90.993 L 8.52288,91.9142"/>
    <path style="fill: none; fill-opacity:0; stroke-width: 0.3; stroke-linecap: round; stroke: #00c000" d="M 7.77577 93.0095 L 7.73466,91.109 C 7.89242,90.6817 8.06469,90.3311 8.1747,90.0718 C 8.33246,89.6444 8.62502,89.5096 9.03787,89.5906 C 9.26816,89.5471 9.52748,89.6571 9.71002,89.7816 C 9.98385,89.9684 10.1041,90.1842 10.1331,90.3377 C 10.2909,89.9104 10.5545,89.6221 10.9383,89.5495 C 11.1396,89.3525 11.3409,89.1554 11.4944,89.1264 C 12.152,89.2406 12.5171,89.4897 12.5897,89.8735 C 12.7867,90.0748 13.0128,90.4296 13.1288,91.0437 L 12.8629,93.0022 L 7.77577,93.0095"/>
    <path style="fill: none; fill-opacity:0; stroke-width: 0.3; stroke-linecap: round; stroke: #00c000" d="M 10.9576 86.2861 C 11.0737,86.9002 11.3142,87.3318 11.4968,87.4563 C 11.5403,87.6866 11.7084,87.7343 11.8619,87.7053 C 12.0922,87.6618 12.3225,87.6183 12.476,87.5893 C 12.6773,87.3922 12.7105,87.1474 12.667,86.9171 C 12.5945,86.5333 12.4597,86.2407 12.1859,86.0539 C 11.9598,85.6991 11.6092,85.5269 11.1486,85.6139 L 10.9576,86.2861"/>
    <path style="fill: none; fill-opacity:0; stroke-width: 0.3; stroke-linecap: round; stroke: #00c000" d="M 10.7835 85.3649 L 12.991,85.2657 L 13.049,85.5728 L 12.4349,85.6888 C 12.632,85.8901 12.829,86.0914 12.858,86.2449 C 12.9016,86.4752 12.9451,86.7055 12.9741,86.8591 C 13.0901,87.4732 13.0237,87.9628 12.8991,88.1454 C 12.5588,88.4482 12.2518,88.5062 11.9779,88.3194 C 11.3638,88.4355 11.0422,88.4168 10.9987,88.1865 C 10.7727,87.8317 10.5176,87.3233 10.4015,86.7092 L 10.5345,85.73 L 10.4765,85.4229 C 10.3229,85.4519 10.1216,85.649 9.92036,85.846 C 9.58005,86.1488 9.40778,86.4994 9.48032,86.8833 C 9.52384,87.1136 9.7209,87.3148 9.90344,87.4394 C 9.94696,87.6697 9.91372,87.9145 9.71244,88.1115 L 9.40537,88.1696 C 9.37636,88.016 9.33283,87.7857 9.28931,87.5554 C 9.21678,87.1716 9.17325,86.9413 9.17325,86.9413 C 9.28749,86.2836 9.44526,85.8563 9.55527,85.597 C 9.75655,85.3999 10.1404,85.3274 10.7835,85.3649 L 10.7835,85.3649"/>
    <path style="fill: none; fill-opacity:0; stroke-width: 0.3; stroke-linecap: round; stroke: #00c000" d="M 9.23247 81.3646 L 9.8466,81.2485 C 9.89012,81.4788 9.85688,81.7236 9.65559,81.9207 C 9.54558,82.18 9.43557,82.4393 9.46458,82.5928 C 9.50811,82.8231 9.70516,83.0244 9.88771,83.1489 C 9.93123,83.3792 10.0993,83.427 10.2528,83.398 C 10.4831,83.3544 10.5599,83.3399 10.5599,83.3399 C 10.5599,83.3399 10.6844,83.1574 10.7509,82.6678 L 10.6928,82.3607 C 10.8506,81.9333 11.0374,81.6595 11.1909,81.6305 C 11.3922,81.4335 11.6702,81.2219 12.0541,81.1494 C 12.3279,81.3361 12.525,81.5374 12.7843,81.6474 C 12.9813,81.8487 13.0394,82.1558 12.9584,82.5686 C 13.0019,82.7989 12.9064,83.135 12.8254,83.5478 C 12.8689,83.7781 12.9124,84.0084 12.9414,84.162 L 12.3273,84.278 C 12.2983,84.1245 12.4083,83.8652 12.5183,83.6059 C 12.6761,83.1785 12.6948,82.857 12.6513,82.6267 C 12.6223,82.4731 12.5933,82.3196 12.5933,82.3196 C 12.5642,82.1661 12.444,81.9503 12.1701,81.7635 C 12.0166,81.7925 11.8153,81.9896 11.614,82.1866 C 11.4605,82.2156 11.336,82.3982 11.365,82.5517 L 11.116,82.9168 C 11.203,83.3774 11.1843,83.699 10.983,83.896 C 10.873,84.1553 10.5659,84.2134 10.0618,84.0701 C 9.90826,84.0991 9.74022,84.0514 9.6967,83.8211 C 9.47063,83.4663 9.24456,83.1114 9.15752,82.6508 C 9.12851,82.4973 9.23852,82.238 9.34853,81.9787 C 9.31951,81.8252 9.27599,81.5949 9.23247,81.3646 L 9.23247,81.3646"/>
    <path style="fill: none; fill-opacity:0; stroke-width: 0.3; stroke-linecap: round; stroke: #00c000" d="M 10.7333 77.1055 L 11.0404,77.0475 L 11.2556,79.8691 C 11.8697,79.7531 12.3158,79.5892 12.4258,79.3299 C 12.6271,79.1329 12.6458,78.8113 12.5588,78.3507 C 12.6833,78.1682 12.6398,77.9379 12.4427,77.7366 C 12.4137,77.583 12.3702,77.3527 12.3267,77.1225 L 12.6337,77.0644 C 12.8308,77.2657 13.0278,77.467 13.0569,77.6205 C 13.1004,77.8508 12.9904,78.1101 12.8659,78.2927 C 12.9819,78.9068 12.8532,79.4877 12.5419,79.9441 C 12.2016,80.2469 11.6787,80.4252 11.0646,80.5413 C 10.4214,80.5038 9.97957,80.2693 9.66223,79.8522 C 9.43616,79.4974 9.21009,79.1426 9.12305,78.682 C 9.23729,78.0243 9.47182,77.5825 9.81213,77.2796 C 10.0134,77.0826 10.3205,77.0245 10.7333,77.1055 L 10.7333,77.1055"/>
    <path style="fill: none; fill-opacity:0; stroke-width: 0.3; stroke-linecap: round; stroke: #00c000" d="M 10.8494 77.7197 C 10.4365,77.6387 10.1295,77.6967 9.92819,77.8938 C 9.77465,77.9228 9.58788,78.1966 9.43011,78.6239 C 9.47364,78.8542 9.6852,79.1323 9.91127,79.4871 C 10.1851,79.6739 10.5357,79.8461 10.9485,79.9271 L 10.8494,77.7197"/>
    <path style="fill: none; fill-opacity:0; stroke-width: 0.3; stroke-linecap: round; stroke: #00c000" d="M 8.51433 72.5159 L 10.4148,72.4748 L 10.2987,71.8606 C 10.4565,71.4333 10.4129,71.203 10.1826,71.2465 C 10.0001,71.122 9.74077,71.012 9.51048,71.0555 C 9.12664,71.128 8.89635,71.1716 8.89635,71.1716 C 8.74281,71.2006 8.55604,71.4744 8.39828,71.9018 L 8.51433,72.5159"/>
    <path style="fill: none; fill-opacity:0; stroke-width: 0.3; stroke-linecap: round; stroke: #00c000" d="M 7.76723 73.6112 L 7.78415,72.0178 C 7.89839,71.3602 8.05615,70.9328 8.16616,70.6735 C 8.36744,70.4764 8.75127,70.4039 9.39442,70.4414 C 9.85501,70.3543 10.2056,70.5266 10.4317,70.8814 C 10.7055,71.0682 10.778,71.452 10.6638,72.1097 L 10.7798,72.7238 L 12.9873,72.6247 L 12.8544,73.6039 L 7.76723,73.6112"/>
    <path style="fill: none; fill-opacity:0; stroke-width: 0.3; stroke-linecap: round; stroke: #00c000" d="M 9.36177 67.7443 C 9.44881,68.2049 9.73714,68.4684 10.15,68.5494 C 10.4238,68.7362 10.7744,68.9085 11.1872,68.9895 C 11.6478,68.9024 12.0317,68.8299 12.4155,68.7573 C 12.6168,68.5603 12.6355,68.2387 12.5485,67.7781 C 12.673,67.5956 12.6295,67.3653 12.4324,67.164 C 11.976,66.8527 11.5487,66.6949 11.0881,66.782 C 10.6753,66.701 10.3682,66.759 10.1669,66.9561 C 9.82659,67.2589 9.56305,67.5472 9.36177,67.7443 L 9.36177,67.7443"/>
    <path style="fill: none; fill-opacity:0; stroke-width: 0.3; stroke-linecap: round; stroke: #00c000" d="M 9.0547 67.8023 C 9.21246,67.375 9.4615,67.0099 9.80181,66.707 C 9.95957,66.2797 10.3289,66.1304 10.972,66.1678 C 11.5862,66.0518 12.0903,66.195 12.3164,66.5499 C 12.7872,66.9379 12.9365,67.3072 12.8555,67.7201 C 12.9716,68.3342 12.8283,68.8383 12.4735,69.0644 C 12.1332,69.3672 11.6104,69.5456 10.9962,69.6616 C 10.3531,69.6241 9.92573,69.4664 9.65191,69.2796 C 9.42584,68.9248 9.17076,68.4164 9.0547,67.8023 L 9.0547,67.8023"/>
    <path style="fill: none; fill-opacity:0; stroke-width: 0.3; stroke-linecap: round; stroke: #00c000" d="M 9.15684 65.3978 L 9.34785,64.7256 L 11.9954,63.5892 L 9.36477,63.1323 L 9.24871,62.5181 L 11.8962,61.3817 L 9.26563,60.9248 L 9.14957,60.3106 L 13.1245,61.1496 L 12.9335,61.8218 L 9.92087,62.7091 L 12.9166,63.4151 L 13.0907,64.3363 L 9.15684,65.3978"/>
    <path style="fill: none; fill-opacity:0; stroke-width: 0.3; stroke-linecap: round; stroke: #00c000" d="M 10.6649 56.1284 L 10.972,56.0704 L 11.1872,58.892 C 11.8013,58.7759 12.2474,58.6121 12.3574,58.3528 C 12.5587,58.1557 12.5774,57.8342 12.4904,57.3736 C 12.6149,57.191 12.5714,56.9607 12.3743,56.7594 C 12.3453,56.6059 12.3018,56.3756 12.2583,56.1453 L 12.5653,56.0873 C 12.7624,56.2886 12.9595,56.4898 12.9885,56.6434 C 13.032,56.8737 12.922,57.133 12.7975,57.3155 C 12.9135,57.9297 12.7848,58.5106 12.4735,58.9669 C 12.1332,59.2698 11.6103,59.4481 10.9962,59.5641 C 10.353,59.5267 9.91118,59.2921 9.59384,58.8751 C 9.36777,58.5202 9.1417,58.1654 9.05466,57.7048 C 9.1689,57.0472 9.40343,56.6053 9.74374,56.3025 C 9.94502,56.1054 10.2521,56.0474 10.6649,56.1284 L 10.6649,56.1284"/>
    <path style="fill: none; fill-opacity:0; stroke-width: 0.3; stroke-linecap: round; stroke: #00c000" d="M 10.781 56.7425 C 10.3681,56.6615 10.0611,56.7196 9.85979,56.9166 C 9.70626,56.9456 9.51949,57.2194 9.36172,57.6468 C 9.40525,57.8771 9.61681,58.1551 9.84288,58.51 C 10.1167,58.6967 10.4673,58.869 10.8801,58.95 L 10.781,56.7425"/>
    <path style="fill: none; fill-opacity:0; stroke-width: 0.3; stroke-linecap: round; stroke: #00c000" d="M 9.92083 52.6117 C 9.92083,52.6117 9.94984,52.7652 9.97886,52.9187 C 9.82532,52.9477 9.59503,52.9913 9.36473,53.0348 C 9.45177,53.4954 9.7401,53.7589 10.1529,53.8399 C 10.4268,54.0267 10.7774,54.199 11.1902,54.28 L 13.0906,54.2388 L 12.8996,54.911 L 9.09877,54.9932 L 9.28978,54.3211 L 9.90391,54.205 C 9.72136,54.0805 9.52431,53.8792 9.48079,53.6489 C 9.29824,53.5244 9.25472,53.2941 9.36473,53.0348 C 9.33571,52.8812 9.3067,52.7277 9.3067,52.7277 L 9.92083,52.6117"/>
    <path style="fill: none; fill-opacity:0; stroke-width: 0.3; stroke-linecap: round; stroke: #00c000" d="M 8.32261 45.8375 L 9.30183,45.9705 C 8.6877,46.0865 8.40965,46.2981 8.43867,46.4516 C 8.32866,46.7109 8.23316,47.047 8.30569,47.4308 C 8.2392,47.9205 8.40301,48.3665 8.9029,48.9081 C 9.45054,49.2817 9.94016,49.3482 10.5543,49.2321 C 11.2119,49.3464 11.7493,49.2448 12.0896,48.942 C 12.4777,48.4711 12.6354,48.0437 12.7787,47.5396 C 12.7062,47.1558 12.4946,46.8777 12.2975,46.6765 C 12.2685,46.5229 12.2105,46.2159 12.1234,45.7553 L 12.7956,45.9463 C 12.8391,46.1766 12.8827,46.4069 12.9117,46.5604 C 12.9552,46.7907 13.0132,47.0978 13.0858,47.4816 C 12.9715,48.1392 12.766,48.7346 12.4547,49.191 C 11.9276,49.7677 11.2512,49.975 10.3633,49.9043 C 9.59562,50.0494 8.92346,49.8583 8.3468,49.3313 C 7.84691,48.7897 7.65409,48.19 7.69156,47.5469 C 7.61903,47.1631 7.71453,46.827 7.82454,46.5677 C 7.79552,46.4141 7.9823,46.1403 8.32261,45.8375 L 8.32261,45.8375"/>
    <path style="fill: none; fill-opacity:0; stroke-width: 0.3; stroke-linecap: round; stroke: #00c000" d="M 10.958 42.9542 C 11.0741,43.5683 11.3147,43.9999 11.4972,44.1244 C 11.5407,44.3547 11.7088,44.4025 11.8623,44.3735 C 12.0926,44.33 12.3229,44.2864 12.4764,44.2574 C 12.6777,44.0604 12.711,43.8156 12.6675,43.5853 C 12.5949,43.2014 12.4601,42.9089 12.1863,42.7221 C 11.9602,42.3673 11.6096,42.195 11.149,42.282 L 10.958,42.9542"/>
    <path style="fill: none; fill-opacity:0; stroke-width: 0.3; stroke-linecap: round; stroke: #00c000" d="M 10.784 42.033 L 12.9914,41.9339 L 13.0495,42.2409 L 12.4353,42.357 C 12.6324,42.5583 12.8294,42.7596 12.8585,42.9131 C 12.902,43.1434 12.9455,43.3737 12.9745,43.5272 C 13.0906,44.1414 13.0241,44.631 12.8996,44.8135 C 12.5593,45.1163 12.2522,45.1744 11.9784,44.9876 C 11.3642,45.1037 11.0427,45.0849 10.9992,44.8546 C 10.7731,44.4998 10.518,43.9915 10.4019,43.3773 L 10.5349,42.3981 L 10.4769,42.091 C 10.3234,42.1201 10.1221,42.3171 9.92079,42.5142 C 9.58048,42.817 9.40821,43.1676 9.48074,43.5514 C 9.52427,43.7817 9.72132,43.983 9.90387,44.1075 C 9.94739,44.3378 9.91415,44.5826 9.71286,44.7797 L 9.4058,44.8377 C 9.37678,44.6842 9.33326,44.4539 9.28974,44.2236 C 9.2172,43.8397 9.17368,43.6094 9.17368,43.6094 C 9.28792,42.9518 9.44568,42.5244 9.55569,42.2651 C 9.75698,42.0681 10.1408,41.9955 10.784,42.033 L 10.784,42.033"/>
    <path style="fill: none; fill-opacity:0; stroke-width: 0.3; stroke-linecap: round; stroke: #00c000" d="M 12.4607 39.967 L 14.6682,39.8678 L 14.4772,40.54 L 9.083,40.6053 L 9.274,39.9331 L 9.88813,39.8171 C 9.70559,39.6926 9.50853,39.4913 9.46501,39.261 C 9.28246,39.1365 9.23894,38.9062 9.34895,38.6468 C 9.27641,38.263 9.44868,37.9124 9.78899,37.6096 C 9.94676,37.1822 10.3161,37.0329 10.9592,37.0704 C 11.5734,36.9543 12.0775,37.0976 12.3035,37.4524 C 12.7744,37.8405 13.0773,38.1808 13.1498,38.5646 C 12.963,38.8384 12.7762,39.1123 12.6517,39.2948 C 12.6952,39.5251 12.662,39.7699 12.4607,39.967 L 12.4607,39.967"/>
    <path style="fill: none; fill-opacity:0; stroke-width: 0.3; stroke-linecap: round; stroke: #00c000" d="M 11.0753 37.6845 C 10.6624,37.6035 10.3554,37.6616 10.1541,37.8586 C 9.81378,38.1615 9.56474,38.5266 9.40698,38.9539 C 9.4505,39.1842 9.72432,39.371 10.1372,39.452 C 10.411,39.6388 10.7616,39.811 11.1744,39.892 C 11.635,39.805 12.0189,39.7324 12.4027,39.6599 C 12.604,39.4628 12.6372,39.218 12.5937,38.9877 C 12.6747,38.5749 12.6167,38.2678 12.4196,38.0665 C 11.9632,37.7553 11.5359,37.5975 11.0753,37.6845 L 11.0753,37.6845"/>
    <path style="fill: none; fill-opacity:0; stroke-width: 0.3; stroke-linecap: round; stroke: #00c000" d="M 10.883 34.143 C 10.9991,34.7571 11.2397,35.1887 11.4222,35.3132 C 11.4658,35.5435 11.6338,35.5913 11.7873,35.5623 C 12.0176,35.5188 12.2479,35.4752 12.4015,35.4462 C 12.6027,35.2492 12.636,35.0044 12.5925,34.7741 C 12.5199,34.3902 12.3851,34.0977 12.1113,33.9109 C 11.8852,33.5561 11.5347,33.3838 11.0741,33.4709 L 10.883,34.143"/>
    <path style="fill: none; fill-opacity:0; stroke-width: 0.3; stroke-linecap: round; stroke: #00c000" d="M 10.709 33.2218 L 12.9164,33.1227 L 12.9745,33.4297 L 12.3603,33.5458 C 12.5574,33.7471 12.7545,33.9484 12.7835,34.1019 C 12.827,34.3322 12.8705,34.5625 12.8995,34.716 C 13.0156,35.3302 12.9491,35.8198 12.8246,36.0023 C 12.4843,36.3052 12.1772,36.3632 11.9034,36.1764 C 11.2893,36.2925 10.9677,36.2737 10.9242,36.0434 C 10.6981,35.6886 10.443,35.1803 10.3269,34.5661 L 10.4599,33.5869 L 10.4019,33.2798 C 10.2484,33.3089 10.0471,33.5059 9.8458,33.703 C 9.50549,34.0058 9.33322,34.3564 9.40575,34.7402 C 9.44928,34.9705 9.64633,35.1718 9.82888,35.2963 C 9.8724,35.5266 9.83916,35.7714 9.63787,35.9685 L 9.33081,36.0265 C 9.30179,35.873 9.25827,35.6427 9.21475,35.4124 C 9.14221,35.0285 9.09869,34.7983 9.09869,34.7983 C 9.21293,34.1406 9.37069,33.7132 9.4807,33.4539 C 9.68199,33.2569 10.0658,33.1843 10.709,33.2218 L 10.709,33.2218"/>
    <path style="fill: none; fill-opacity:0; stroke-width: 0.3; stroke-linecap: round; stroke: #00c000" d="M 9.17664 28.8999 L 9.79077,28.7839 C 9.83429,29.0142 9.87781,29.2445 9.90683,29.398 C 9.79682,29.6573 9.61004,29.9311 9.40876,30.1282 C 9.45228,30.3585 9.74061,30.622 10.197,30.9333 C 10.4708,31.1201 10.8214,31.2924 11.2342,31.3734 C 11.6948,31.2863 12.0642,31.137 12.4045,30.8342 C 12.6057,30.6371 12.639,30.3923 12.5955,30.162 C 12.72,29.9795 12.6765,29.7492 12.4794,29.5479 C 12.4504,29.3944 12.4069,29.1641 12.3633,28.9338 L 12.9775,28.8177 C 13.021,29.048 13.0645,29.2783 13.0935,29.4318 C 13.1371,29.6621 13.027,29.9215 12.9025,30.104 C 12.9896,30.5646 12.8318,30.992 12.5205,31.4483 C 12.1802,31.7512 11.6574,31.9295 11.0432,32.0455 C 10.4001,32.0081 9.95822,31.7735 9.64088,31.3565 C 9.41481,31.0016 9.18874,30.6468 9.10169,30.1862 C 9.30298,29.9892 9.33622,29.7444 9.2927,29.5141 C 9.26368,29.3605 9.22016,29.1302 9.17664,28.8999 L 9.17664,28.8999"/>
    <path style="fill: none; fill-opacity:0; stroke-width: 0.3; stroke-linecap: round; stroke: #00c000" d="M 9.06481 27.8875 L 9.25582,27.2153 L 13.0567,27.1331 L 12.8656,27.8052 L 9.06481,27.8875"/>
    <path style="fill: none; fill-opacity:0; stroke-width: 0.3; stroke-linecap: round; stroke: #00c000" d="M 7.47146 27.8706 L 7.66246,27.1984 L 8.58366,27.0243 L 8.39265,27.6965 L 7.47146,27.8706"/>
    <path style="fill: none; fill-opacity:0; stroke-width: 0.3; stroke-linecap: round; stroke: #00c000" d="M 8.00518 25.2254 L 9.29147,25.3004 L 9.36642,24.0141 L 9.67349,23.9561 L 9.59854,25.2424 L 11.806,25.1432 C 12.3101,25.2865 12.4782,25.3342 12.4782,25.3342 C 12.4492,25.1807 12.4056,24.9504 12.3621,24.7201 L 12.5531,24.0479 L 13.1673,23.9319 L 12.9763,24.604 C 13.0633,25.0646 12.9678,25.4007 12.8433,25.5833 C 12.503,25.8861 12.1191,25.9586 11.615,25.8154 L 9.40753,25.9145 L 9.46556,26.2216 L 9.1585,26.2796 L 9.10047,25.9725 L 7.81418,25.8976 L 8.00518,25.2254"/>
    <path style="fill: none; fill-opacity:0; stroke-width: 0.3; stroke-linecap: round; stroke: #00c000" d="M 13.1781 21.4651 C 13.649,21.8531 14.0141,22.1022 14.2734,22.2122 C 14.4269,22.1832 14.624,22.3845 14.6965,22.7683 L 14.4475,23.1334 L 13.8334,23.2494 L 14.0824,22.8843 C 14.0534,22.7308 13.8563,22.5295 13.6593,22.3282 C 13.6303,22.1747 13.4477,22.0502 13.2942,22.0792 L 12.9291,21.8302 L 9.11134,23.5057 L 9.30234,22.8336 L 11.8918,21.3901 L 9.2032,20.6261 L 9.08714,20.012 L 13.1781,21.4651"/>
  </g>
  <g>
    <path style="fill: none; fill-opacity:0; stroke-width: 0.3; stroke-linecap: round; stroke: #c00000" d="M 21.2953 9.97732 L 21.2953,11.8523 L 21.9203,11.8523 C 22.3109,11.8523 22.6234,11.7742 22.8578,11.5398 C 23.014,11.3836 23.1703,11.0711 23.1703,10.6023 C 23.1703,10.4461 23.014,10.2898 22.8578,10.2898 C 22.6234,10.1336 22.3109,9.97732 21.9203,9.97732 L 21.2953,9.97732"/>
    <path style="fill: none; fill-opacity:0; stroke-width: 0.3; stroke-linecap: round; stroke: #c00000" d="M 20.3578 9.03982 L 21.9203,9.03982 C 22.5453,9.03982 22.9359,9.27419 23.1703,9.66482 C 23.5609,9.89919 23.7953,10.2117 23.7953,10.6023 C 23.7953,11.2273 23.5609,11.6961 23.1703,11.8523 C 22.9359,12.0867 22.5453,12.1648 21.9203,12.1648 L 21.2953,12.1648 L 21.2953,14.3523 L 20.3578,14.3523 L 20.3578,9.03982"/>
    <path style="fill: none; fill-opacity:0; stroke-width: 0.3; stroke-linecap: round; stroke: #c00000" d="M 28.014 12.1648 L 28.014,12.4773 L 25.2015,12.4773 C 25.2015,12.9461 25.2796,13.3367 25.514,13.7273 C 25.6703,13.9617 25.9828,14.0398 26.4515,14.0398 C 26.6078,14.0398 26.8421,14.0398 27.0765,14.0398 C 27.2328,13.8836 27.4671,13.7273 27.7015,13.7273 L 27.7015,14.0398 C 27.4671,14.2742 27.2328,14.3523 27.0765,14.3523 C 26.8421,14.3523 26.6078,14.3523 26.4515,14.3523 C 25.8265,14.3523 25.2796,14.2742 24.889,14.0398 C 24.4203,13.6492 24.264,13.1023 24.264,12.4773 C 24.264,11.8523 24.4203,11.3836 24.889,10.9148 C 25.2796,10.5242 25.6703,10.2898 26.139,10.2898 C 26.764,10.2898 27.1546,10.5242 27.389,10.9148 C 27.7796,11.1492 28.014,11.5398 28.014,12.1648 L 28.014,12.1648"/>
    <path style="fill: none; fill-opacity:0; stroke-width: 0.3; stroke-linecap: round; stroke: #c00000" d="M 27.389 12.1648 C 27.389,11.7742 27.2328,11.4617 27.0765,11.2273 C 26.8421,11.0711 26.5296,10.9148 26.139,10.9148 C 25.9046,10.9148 25.6703,11.0711 25.514,11.2273 C 25.2796,11.4617 25.2015,11.7742 25.2015,12.1648 L 27.389,12.1648"/>
    <path style="fill: none; fill-opacity:0; stroke-width: 0.3; stroke-linecap: round; stroke: #c00000" d="M 30.8265 12.4773 C 30.2015,12.4773 29.7328,12.6336 29.5765,12.7898 C 29.5765,12.7898 29.5765,12.9461 29.5765,13.1023 C 29.5765,13.3367 29.5765,13.5711 29.5765,13.7273 C 29.7328,13.9617 29.9671,14.0398 30.2015,14.0398 C 30.5921,14.0398 30.9046,13.9617 31.139,13.7273 C 31.2953,13.3367 31.4515,12.9461 31.4515,12.4773 L 30.8265,12.4773"/>
    <path style="fill: none; fill-opacity:0; stroke-width: 0.3; stroke-linecap: round; stroke: #c00000" d="M 32.0765 12.1648 L 32.0765,14.3523 L 31.4515,14.3523 L 31.4515,13.7273 C 31.2171,13.9617 30.9828,14.1961 30.8265,14.3523 C 30.5921,14.3523 30.3578,14.3523 30.2015,14.3523 C 29.7328,14.3523 29.3421,14.2742 28.9515,14.0398 C 28.7171,13.8836 28.639,13.5711 28.639,13.1023 C 28.639,12.7117 28.7171,12.3992 28.9515,12.1648 C 29.3421,12.0086 29.889,11.8523 30.514,11.8523 L 31.4515,11.8523 C 31.4515,11.4617 31.2953,11.2273 31.139,11.2273 C 30.9046,11.0711 30.5921,10.9148 30.2015,10.9148 C 29.9671,10.9148 29.7328,10.9148 29.5765,10.9148 C 29.3421,10.9148 29.1078,11.0711 28.9515,11.2273 L 28.9515,10.6023 C 29.3421,10.6023 29.6546,10.6023 29.889,10.6023 C 30.0453,10.4461 30.2015,10.2898 30.2015,10.2898 C 30.8265,10.2898 31.2171,10.5242 31.4515,10.9148 C 31.8421,11.1492 32.0765,11.5398 32.0765,12.1648 L 32.0765,12.1648"/>
    <path style="fill: none; fill-opacity:0; stroke-width: 0.3; stroke-linecap: round; stroke: #c00000" d="M 33.2484 9.03982 L 33.8734,9.03982 L 33.8734,12.1648 L 35.7484,10.6023 L 36.6859,10.6023 L 34.4984,12.1648 L 36.6859,14.3523 L 35.7484,14.3523 L 33.8734,12.4773 L 33.8734,14.3523 L 33.2484,14.3523 L 33.2484,9.03982"/>
    <path style="fill: none; fill-opacity:0; stroke-width: 0.3; stroke-linecap: round; stroke: #c00000" d="M 39.5765 9.03982 L 43.014,9.03982 L 43.014,9.97732 L 40.514,9.97732 L 40.514,11.2273 L 42.7015,11.2273 L 42.7015,11.8523 L 40.514,11.8523 L 40.514,13.7273 L 43.014,13.7273 L 43.014,14.3523 L 39.5765,14.3523 L 39.5765,9.03982"/>
    <path style="fill: none; fill-opacity:0; stroke-width: 0.3; stroke-linecap: round; stroke: #c00000" d="M 47.1546 12.1648 L 47.1546,14.3523 L 46.5296,14.3523 L 46.5296,12.1648 C 46.5296,11.7742 46.3734,11.4617 46.2171,11.2273 C 46.2171,11.0711 46.0609,10.9148 45.9046,10.9148 C 45.4359,10.9148 45.1234,11.0711 44.9671,11.2273 C 44.7328,11.4617 44.6546,11.7742 44.6546,12.1648 L 44.6546,14.3523 L 44.0296,14.3523 L 44.0296,10.6023 L 44.6546,10.6023 L 44.6546,10.9148 C 44.8109,10.7586 45.0453,10.6023 45.2796,10.6023 C 45.4359,10.4461 45.6703,10.2898 45.9046,10.2898 C 46.2953,10.2898 46.6078,10.5242 46.8421,10.9148 C 46.9984,11.1492 47.1546,11.5398 47.1546,12.1648 L 47.1546,12.1648"/>
    <path style="fill: none; fill-opacity:0; stroke-width: 0.3; stroke-linecap: round; stroke: #c00000" d="M 51.9984 12.1648 L 51.9984,12.4773 L 49.1859,12.4773 C 49.1859,12.9461 49.264,13.3367 49.4984,13.7273 C 49.6546,13.9617 49.9671,14.0398 50.4359,14.0398 C 50.5921,14.0398 50.8265,14.0398 51.0609,14.0398 C 51.2171,13.8836 51.4515,13.7273 51.6859,13.7273 L 51.6859,14.0398 C 51.4515,14.2742 51.2171,14.3523 51.0609,14.3523 C 50.8265,14.3523 50.5921,14.3523 50.4359,14.3523 C 49.8109,14.3523 49.264,14.2742 48.8734,14.0398 C 48.4046,13.6492 48.2484,13.1023 48.2484,12.4773 C 48.2484,11.8523 48.4046,11.3836 48.8734,10.9148 C 49.264,10.5242 49.6546,10.2898 50.1234,10.2898 C 50.7484,10.2898 51.139,10.5242 51.3734,10.9148 C 51.764,11.1492 51.9984,11.5398 51.9984,12.1648 L 51.9984,12.1648"/>
    <path style="fill: none; fill-opacity:0; stroke-width: 0.3; stroke-linecap: round; stroke: #c00000" d="M 51.3734 12.1648 C 51.3734,11.7742 51.2171,11.4617 51.0609,11.2273 C 50.8265,11.0711 50.514,10.9148 50.1234,10.9148 C 49.889,10.9148 49.6546,11.0711 49.4984,11.2273 C 49.264,11.4617 49.1859,11.7742 49.1859,12.1648 L 51.3734,12.1648"/>
    <path style="fill: none; fill-opacity:0; stroke-width: 0.3; stroke-linecap: round; stroke: #c00000" d="M 55.0453 10.9148 C 55.0453,10.9148 54.889,10.9148 54.7328,10.9148 C 54.264,10.9148 53.9515,11.1492 53.7953,11.5398 C 53.5609,11.7742 53.4828,12.0867 53.4828,12.4773 L 53.4828,14.3523 L 52.8578,14.3523 L 52.8578,10.6023 L 53.4828,10.6023 L 53.4828,10.9148 C 53.639,10.7586 53.8734,10.6023 54.1078,10.6023 C 54.264,10.4461 54.4984,10.2898 54.7328,10.2898 C 54.889,10.2898 55.0453,10.2898 55.0453,10.2898 L 55.0453,10.9148"/>
    <path style="fill: none; fill-opacity:0; stroke-width: 0.3; stroke-linecap: round; stroke: #c00000" d="M 58.2484 12.4773 C 58.2484,12.0867 58.0921,11.7742 57.9359,11.5398 C 57.7015,11.1492 57.4671,10.9148 57.3109,10.9148 C 56.8421,10.9148 56.5296,11.1492 56.3734,11.5398 C 56.139,11.7742 56.0609,12.0867 56.0609,12.4773 C 56.0609,12.9461 56.139,13.2586 56.3734,13.4148 C 56.5296,13.6492 56.8421,13.7273 57.3109,13.7273 C 57.4671,13.7273 57.7015,13.6492 57.9359,13.4148 C 58.0921,13.2586 58.2484,12.9461 58.2484,12.4773 L 58.2484,12.4773"/>
    <path style="fill: none; fill-opacity:0; stroke-width: 0.3; stroke-linecap: round; stroke: #c00000" d="M 58.8734 14.0398 C 58.8734,14.6648 58.7171,15.0554 58.5609,15.2898 C 58.3265,15.6804 57.9359,15.9148 57.3109,15.9148 C 57.0765,15.9148 56.8421,15.7586 56.6859,15.6023 C 56.4515,15.6023 56.2171,15.6023 56.0609,15.6023 L 56.0609,14.9773 C 56.2171,14.9773 56.3734,14.9773 56.3734,14.9773 C 56.5296,15.1336 56.764,15.2898 56.9984,15.2898 C 57.389,15.2898 57.7015,15.1336 57.9359,14.9773 C 58.0921,14.7429 58.2484,14.4304 58.2484,14.0398 L 58.2484,13.7273 C 58.2484,13.9617 58.0921,14.1961 57.9359,14.3523 C 57.7015,14.3523 57.389,14.3523 56.9984,14.3523 C 56.5296,14.3523 56.139,14.1961 55.7484,13.7273 C 55.514,13.3367 55.4359,12.9461 55.4359,12.4773 C 55.4359,11.8523 55.514,11.3836 55.7484,10.9148 C 56.139,10.5242 56.5296,10.2898 56.9984,10.2898 C 57.389,10.2898 57.7015,10.4461 57.9359,10.6023 C 58.0921,10.6023 58.2484,10.7586 58.2484,10.9148 L 58.2484,10.6023 L 58.8734,10.6023 L 58.8734,14.0398"/>
    <path style="fill: none; fill-opacity:0; stroke-width: 0.3; stroke-linecap: round; stroke: #c00000" d="M 61.8421 14.6648 C 61.6078,15.2898 61.3734,15.6023 61.2171,15.6023 C 61.2171,15.7586 61.0609,15.9148 60.9046,15.9148 L 60.2796,15.9148 L 60.2796,15.2898 L 60.5921,15.2898 C 60.7484,15.2898 60.9046,15.1336 60.9046,14.9773 C 61.0609,14.9773 61.2171,14.8211 61.2171,14.6648 L 61.5296,14.3523 L 59.9671,10.6023 L 60.5921,10.6023 L 61.8421,13.4148 L 63.0921,10.6023 L 63.7171,10.6023 L 61.8421,14.6648"/>
    <path style="fill: none; fill-opacity:0; stroke-width: 0.3; stroke-linecap: round; stroke: #c00000" d="M 70.4359 9.66482 L 70.4359,10.2898 C 70.2015,10.1336 69.9671,9.97732 69.8109,9.97732 C 69.5765,9.82107 69.3421,9.66482 69.1859,9.66482 C 68.5609,9.66482 68.014,9.89919 67.6234,10.2898 C 67.389,10.5242 67.3109,11.0711 67.3109,11.8523 C 67.3109,12.4773 67.389,13.0242 67.6234,13.4148 C 68.014,13.8836 68.5609,14.0398 69.1859,14.0398 C 69.3421,14.0398 69.5765,14.0398 69.8109,14.0398 C 69.9671,13.8836 70.2015,13.5711 70.4359,13.1023 L 70.4359,14.0398 C 70.2015,14.2742 69.9671,14.3523 69.8109,14.3523 C 69.5765,14.3523 69.264,14.3523 68.8734,14.3523 C 68.2484,14.3523 67.6234,14.1961 66.9984,13.7273 C 66.5296,13.3367 66.3734,12.7117 66.3734,11.8523 C 66.3734,11.0711 66.5296,10.4461 66.9984,9.97732 C 67.6234,9.35232 68.2484,9.03982 68.8734,9.03982 C 69.264,9.03982 69.5765,9.19607 69.8109,9.35232 C 69.9671,9.35232 70.2015,9.50857 70.4359,9.66482 L 70.4359,9.66482"/>
    <path style="fill: none; fill-opacity:0; stroke-width: 0.3; stroke-linecap: round; stroke: #c00000" d="M 73.4828 12.4773 C 72.8578,12.4773 72.389,12.6336 72.2328,12.7898 C 72.2328,12.7898 72.2328,12.9461 72.2328,13.1023 C 72.2328,13.3367 72.2328,13.5711 72.2328,13.7273 C 72.389,13.9617 72.6234,14.0398 72.8578,14.0398 C 73.2484,14.0398 73.5609,13.9617 73.7953,13.7273 C 73.9515,13.3367 74.1078,12.9461 74.1078,12.4773 L 73.4828,12.4773"/>
    <path style="fill: none; fill-opacity:0; stroke-width: 0.3; stroke-linecap: round; stroke: #c00000" d="M 74.7328 12.1648 L 74.7328,14.3523 L 74.1078,14.3523 L 74.1078,13.7273 C 73.8734,13.9617 73.639,14.1961 73.4828,14.3523 C 73.2484,14.3523 73.014,14.3523 72.8578,14.3523 C 72.389,14.3523 71.9984,14.2742 71.6078,14.0398 C 71.3734,13.8836 71.2953,13.5711 71.2953,13.1023 C 71.2953,12.7117 71.3734,12.3992 71.6078,12.1648 C 71.9984,12.0086 72.5453,11.8523 73.1703,11.8523 L 74.1078,11.8523 C 74.1078,11.4617 73.9515,11.2273 73.7953,11.2273 C 73.5609,11.0711 73.2484,10.9148 72.8578,10.9148 C 72.6234,10.9148 72.389,10.9148 72.2328,10.9148 C 71.9984,10.9148 71.764,11.0711 71.6078,11.2273 L 71.6078,10.6023 C 71.9984,10.6023 72.3109,10.6023 72.5453,10.6023 C 72.7015,10.4461 72.8578,10.2898 72.8578,10.2898 C 73.4828,10.2898 73.8734,10.5242 74.1078,10.9148 C 74.4984,11.1492 74.7328,11.5398 74.7328,12.1648 L 74.7328,12.1648"/>
    <path style="fill: none; fill-opacity:0; stroke-width: 0.3; stroke-linecap: round; stroke: #c00000" d="M 76.5296 13.7273 L 76.5296,15.9148 L 75.9046,15.9148 L 75.9046,10.6023 L 76.5296,10.6023 L 76.5296,10.9148 C 76.6859,10.7586 76.9203,10.6023 77.1546,10.6023 C 77.3109,10.4461 77.5453,10.2898 77.7796,10.2898 C 78.1703,10.2898 78.4828,10.5242 78.7171,10.9148 C 79.1078,11.3836 79.3421,11.8523 79.3421,12.4773 C 79.3421,13.1023 79.1078,13.6492 78.7171,14.0398 C 78.4828,14.2742 78.1703,14.3523 77.7796,14.3523 C 77.5453,14.3523 77.3109,14.3523 77.1546,14.3523 C 76.9203,14.1961 76.6859,13.9617 76.5296,13.7273 L 76.5296,13.7273"/>
    <path style="fill: none; fill-opacity:0; stroke-width: 0.3; stroke-linecap: round; stroke: #c00000" d="M 78.7171 12.4773 C 78.7171,12.0867 78.5609,11.7742 78.4046,11.5398 C 78.1703,11.1492 77.8578,10.9148 77.4671,10.9148 C 77.2328,10.9148 76.9984,11.1492 76.8421,11.5398 C 76.6078,11.7742 76.5296,12.0867 76.5296,12.4773 C 76.5296,12.9461 76.6078,13.3367 76.8421,13.7273 C 76.9984,13.9617 77.2328,14.0398 77.4671,14.0398 C 77.8578,14.0398 78.1703,13.9617 78.4046,13.7273 C 78.5609,13.3367 78.7171,12.9461 78.7171,12.4773 L 78.7171,12.4773"/>
    <path style="fill: none; fill-opacity:0; stroke-width: 0.3; stroke-linecap: round; stroke: #c00000" d="M 82.3109 12.4773 C 81.6859,12.4773 81.2171,12.6336 81.0609,12.7898 C 81.0609,12.7898 81.0609,12.9461 81.0609,13.1023 C 81.0609,13.3367 81.0609,13.5711 81.0609,13.7273 C 81.2171,13.9617 81.4515,14.0398 81.6859,14.0398 C 82.0765,14.0398 82.389,13.9617 82.6234,13.7273 C 82.7796,13.3367 82.9359,12.9461 82.9359,12.4773 L 82.3109,12.4773"/>
    <path style="fill: none; fill-opacity:0; stroke-width: 0.3; stroke-linecap: round; stroke: #c00000" d="M 83.5609 12.1648 L 83.5609,14.3523 L 82.9359,14.3523 L 82.9359,13.7273 C 82.7015,13.9617 82.4671,14.1961 82.3109,14.3523 C 82.0765,14.3523 81.8421,14.3523 81.6859,14.3523 C 81.2171,14.3523 80.8265,14.2742 80.4359,14.0398 C 80.2015,13.8836 80.1234,13.5711 80.1234,13.1023 C 80.1234,12.7117 80.2015,12.3992 80.4359,12.1648 C 80.8265,12.0086 81.3734,11.8523 81.9984,11.8523 L 82.9359,11.8523 C 82.9359,11.4617 82.7796,11.2273 82.6234,11.2273 C 82.389,11.0711 82.0765,10.9148 81.6859,10.9148 C 81.4515,10.9148 81.2171,10.9148 81.0609,10.9148 C 80.8265,10.9148 80.5921,11.0711 80.4359,11.2273 L 80.4359,10.6023 C 80.8265,10.6023 81.139,10.6023 81.3734,10.6023 C 81.5296,10.4461 81.6859,10.2898 81.6859,10.2898 C 82.3109,10.2898 82.7015,10.5242 82.9359,10.9148 C 83.3265,11.1492 83.5609,11.5398 83.5609,12.1648 L 83.5609,12.1648"/>
    <path style="fill: none; fill-opacity:0; stroke-width: 0.3; stroke-linecap: round; stroke: #c00000" d="M 87.5453 10.6023 L 87.5453,11.2273 C 87.3109,11.0711 87.0765,10.9148 86.9203,10.9148 C 86.6859,10.9148 86.4515,10.9148 86.2953,10.9148 C 86.0609,10.9148 85.8265,11.1492 85.6703,11.5398 C 85.4359,11.7742 85.3578,12.0867 85.3578,12.4773 C 85.3578,12.9461 85.4359,13.3367 85.6703,13.7273 C 85.8265,13.9617 86.0609,14.0398 86.2953,14.0398 C 86.4515,14.0398 86.6859,14.0398 86.9203,14.0398 C 87.0765,13.8836 87.3109,13.7273 87.5453,13.7273 L 87.5453,14.3523 C 87.3109,14.3523 87.0765,14.3523 86.9203,14.3523 C 86.6859,14.3523 86.4515,14.3523 86.2953,14.3523 C 85.8265,14.3523 85.4359,14.2742 85.0453,14.0398 C 84.5765,13.6492 84.4203,13.1023 84.4203,12.4773 C 84.4203,11.8523 84.5765,11.3836 85.0453,10.9148 C 85.4359,10.5242 85.8265,10.2898 86.2953,10.2898 C 86.4515,10.2898 86.6859,10.4461 86.9203,10.6023 C 87.0765,10.6023 87.3109,10.6023 87.5453,10.6023 L 87.5453,10.6023"/>
    <path style="fill: none; fill-opacity:0; stroke-width: 0.3; stroke-linecap: round; stroke: #c00000" d="M 88.639 10.6023 L 89.264,10.6023 L 89.264,14.3523 L 88.639,14.3523 L 88.639,10.6023"/>
    <path style="fill: none; fill-opacity:0; stroke-width: 0.3; stroke-linecap: round; stroke: #c00000" d="M 88.639 9.03982 L 89.264,9.03982 L 89.264,9.97732 L 88.639,9.97732 L 88.639,9.03982"/>
    <path style="fill: none; fill-opacity:0; stroke-width: 0.3; stroke-linecap: round; stroke: #c00000" d="M 91.2171 9.35232 L 91.2171,10.6023 L 92.4671,10.6023 L 92.4671,10.9148 L 91.2171,10.9148 L 91.2171,13.1023 C 91.2171,13.5711 91.2171,13.7273 91.2171,13.7273 C 91.3734,13.7273 91.6078,13.7273 91.8421,13.7273 L 92.4671,13.7273 L 92.4671,14.3523 L 91.8421,14.3523 C 91.3734,14.3523 91.0609,14.2742 90.9046,14.0398 C 90.6703,13.8836 90.5921,13.5711 90.5921,13.1023 L 90.5921,10.9148 L 90.2796,10.9148 L 90.2796,10.6023 L 90.5921,10.6023 L 90.5921,9.35232 L 91.2171,9.35232"/>
    <path style="fill: none; fill-opacity:0; stroke-width: 0.3; stroke-linecap: round; stroke: #c00000" d="M 94.889 14.6648 C 94.6546,15.2898 94.4203,15.6023 94.264,15.6023 C 94.264,15.7586 94.1078,15.9148 93.9515,15.9148 L 93.3265,15.9148 L 93.3265,15.2898 L 93.639,15.2898 C 93.7953,15.2898 93.9515,15.1336 93.9515,14.9773 C 94.1078,14.9773 94.264,14.8211 94.264,14.6648 L 94.5765,14.3523 L 93.014,10.6023 L 93.639,10.6023 L 94.889,13.4148 L 96.139,10.6023 L 96.764,10.6023 L 94.889,14.6648"/>
  </g>
  <g>
    <path style="fill: none; fill-opacity:0; stroke-width: 0.3; stroke-linecap: round; stroke: #c00000" d="M 224.023 215.914 L 225.923,215.873 L 225.807,215.259 C 225.965,214.832 225.922,214.601 225.691,214.645 C 225.509,214.52 225.249,214.41 225.019,214.454 C 224.635,214.526 224.405,214.57 224.405,214.57 C 224.251,214.599 224.065,214.873 223.907,215.3 L 224.023,215.914"/>
    <path style="fill: none; fill-opacity:0; stroke-width: 0.3; stroke-linecap: round; stroke: #c00000" d="M 223.276 217.009 L 223.293,215.416 C 223.407,214.758 223.565,214.331 223.675,214.072 C 223.876,213.875 224.26,213.802 224.903,213.84 C 225.364,213.753 225.714,213.925 225.94,214.28 C 226.214,214.466 226.287,214.85 226.172,215.508 L 226.288,216.122 L 228.496,216.023 L 228.363,217.002 L 223.276,217.009"/>
    <path style="fill: none; fill-opacity:0; stroke-width: 0.3; stroke-linecap: round; stroke: #c00000" d="M 226.174 209.624 L 226.481,209.566 L 226.696,212.388 C 227.31,212.272 227.756,212.108 227.866,211.849 C 228.067,211.652 228.086,211.33 227.999,210.869 C 228.124,210.687 228.08,210.457 227.883,210.255 C 227.854,210.102 227.81,209.871 227.767,209.641 L 228.074,209.583 C 228.271,209.784 228.468,209.986 228.497,210.139 C 228.541,210.369 228.431,210.629 228.306,210.811 C 228.422,211.425 228.293,212.006 227.982,212.463 C 227.642,212.766 227.119,212.944 226.505,213.06 C 225.862,213.022 225.42,212.788 225.102,212.371 C 224.876,212.016 224.65,211.661 224.563,211.201 C 224.678,210.543 224.912,210.101 225.252,209.798 C 225.454,209.601 225.761,209.543 226.174,209.624 L 226.174,209.624"/>
    <path style="fill: none; fill-opacity:0; stroke-width: 0.3; stroke-linecap: round; stroke: #c00000" d="M 226.29 210.238 C 225.877,210.157 225.57,210.215 225.368,210.412 C 225.215,210.441 225.028,210.715 224.87,211.143 C 224.914,211.373 225.125,211.651 225.352,212.006 C 225.625,212.193 225.976,212.365 226.389,212.446 L 226.29,210.238"/>
    <path style="fill: none; fill-opacity:0; stroke-width: 0.3; stroke-linecap: round; stroke: #c00000" d="M 226.39 206.562 C 226.506,207.176 226.747,207.608 226.929,207.732 C 226.973,207.963 227.141,208.01 227.294,207.981 C 227.525,207.938 227.755,207.894 227.908,207.865 C 228.11,207.668 228.143,207.423 228.099,207.193 C 228.027,206.809 227.892,206.517 227.618,206.33 C 227.392,205.975 227.042,205.803 226.581,205.89 L 226.39,206.562"/>
    <path style="fill: none; fill-opacity:0; stroke-width: 0.3; stroke-linecap: round; stroke: #c00000" d="M 226.216 205.641 L 228.423,205.542 L 228.481,205.849 L 227.867,205.965 C 228.064,206.166 228.261,206.367 228.29,206.521 C 228.334,206.751 228.377,206.981 228.406,207.135 C 228.522,207.749 228.456,208.239 228.331,208.421 C 227.991,208.724 227.684,208.782 227.41,208.595 C 226.796,208.711 226.475,208.693 226.431,208.462 C 226.205,208.108 225.95,207.599 225.834,206.985 L 225.967,206.006 L 225.909,205.699 C 225.755,205.728 225.554,205.925 225.353,206.122 C 225.012,206.425 224.84,206.775 224.913,207.159 C 224.956,207.389 225.153,207.591 225.336,207.715 C 225.379,207.946 225.346,208.19 225.145,208.387 L 224.838,208.445 C 224.809,208.292 224.765,208.062 224.722,207.831 C 224.649,207.448 224.606,207.217 224.606,207.217 C 224.72,206.56 224.878,206.132 224.988,205.873 C 225.189,205.676 225.573,205.603 226.216,205.641 L 226.216,205.641"/>
    <path style="fill: none; fill-opacity:0; stroke-width: 0.3; stroke-linecap: round; stroke: #c00000" d="M 222.998 204.182 L 223.189,203.509 L 226.376,203.543 L 224.742,201.626 L 224.626,201.012 L 226.26,202.929 L 228.368,200.623 L 228.542,201.544 L 226.683,203.485 L 228.584,203.444 L 228.393,204.116 L 222.998,204.182"/>
    <path style="fill: none; fill-opacity:0; stroke-width: 0.3; stroke-linecap: round; stroke: #c00000" d="M 224.043 196.669 L 225.944,196.628 L 225.828,196.014 C 225.986,195.587 225.942,195.357 225.712,195.4 C 225.529,195.276 225.27,195.166 225.04,195.209 C 224.656,195.282 224.425,195.325 224.425,195.325 C 224.272,195.354 224.085,195.628 223.927,196.055 L 224.043,196.669"/>
    <path style="fill: none; fill-opacity:0; stroke-width: 0.3; stroke-linecap: round; stroke: #c00000" d="M 223.296 197.765 L 223.313,196.171 C 223.427,195.514 223.585,195.086 223.695,194.827 C 223.897,194.63 224.28,194.557 224.923,194.595 C 225.384,194.508 225.735,194.68 225.961,195.035 C 226.235,195.222 226.307,195.606 226.193,196.263 L 226.309,196.877 L 228.516,196.778 L 228.383,197.757 L 223.296,197.765"/>
    <path style="fill: none; fill-opacity:0; stroke-width: 0.3; stroke-linecap: round; stroke: #c00000" d="M 224.891 191.898 C 224.978,192.358 225.266,192.622 225.679,192.703 C 225.953,192.89 226.303,193.062 226.716,193.143 C 227.177,193.056 227.561,192.983 227.945,192.911 C 228.146,192.714 228.165,192.392 228.078,191.932 C 228.202,191.749 228.159,191.519 227.961,191.318 C 227.505,191.006 227.078,190.848 226.617,190.936 C 226.204,190.855 225.897,190.913 225.696,191.11 C 225.356,191.412 225.092,191.701 224.891,191.898 L 224.891,191.898"/>
    <path style="fill: none; fill-opacity:0; stroke-width: 0.3; stroke-linecap: round; stroke: #c00000" d="M 224.584 191.956 C 224.742,191.528 224.991,191.163 225.331,190.861 C 225.489,190.433 225.858,190.284 226.501,190.321 C 227.115,190.205 227.619,190.349 227.845,190.703 C 228.316,191.091 228.466,191.461 228.385,191.874 C 228.501,192.488 228.357,192.992 228.003,193.218 C 227.662,193.521 227.139,193.699 226.525,193.815 C 225.882,193.778 225.455,193.62 225.181,193.433 C 224.955,193.078 224.7,192.57 224.584,191.956 L 224.584,191.956"/>
    <path style="fill: none; fill-opacity:0; stroke-width: 0.3; stroke-linecap: round; stroke: #c00000" d="M 224.609 189.566 L 224.8,188.894 L 227.448,187.757 L 224.817,187.3 L 224.701,186.686 L 227.349,185.55 L 224.718,185.093 L 224.602,184.479 L 228.577,185.318 L 228.386,185.99 L 225.373,186.877 L 228.369,187.583 L 228.543,188.504 L 224.609,189.566"/>
    <path style="fill: none; fill-opacity:0; stroke-width: 0.3; stroke-linecap: round; stroke: #c00000" d="M 226.209 180.359 L 226.516,180.301 L 226.731,183.122 C 227.345,183.006 227.791,182.842 227.901,182.583 C 228.102,182.386 228.121,182.064 228.034,181.604 C 228.158,181.421 228.115,181.191 227.918,180.99 C 227.889,180.836 227.845,180.606 227.802,180.376 L 228.109,180.318 C 228.306,180.519 228.503,180.72 228.532,180.874 C 228.576,181.104 228.466,181.363 228.341,181.546 C 228.457,182.16 228.328,182.741 228.017,183.197 C 227.677,183.5 227.154,183.678 226.54,183.794 C 225.897,183.757 225.455,183.522 225.137,183.105 C 224.911,182.751 224.685,182.396 224.598,181.935 C 224.712,181.277 224.947,180.836 225.287,180.533 C 225.489,180.336 225.796,180.278 226.209,180.359 L 226.209,180.359"/>
    <path style="fill: none; fill-opacity:0; stroke-width: 0.3; stroke-linecap: round; stroke: #c00000" d="M 226.325 180.973 C 225.912,180.892 225.605,180.95 225.403,181.147 C 225.25,181.176 225.063,181.45 224.905,181.877 C 224.949,182.107 225.16,182.385 225.386,182.74 C 225.66,182.927 226.011,183.099 226.424,183.18 L 226.325,180.973"/>
    <path style="fill: none; fill-opacity:0; stroke-width: 0.3; stroke-linecap: round; stroke: #c00000" d="M 225.373 176.78 C 225.373,176.78 225.402,176.933 225.431,177.087 C 225.278,177.116 225.047,177.159 224.817,177.203 C 224.904,177.663 225.192,177.927 225.605,178.008 C 225.879,178.195 226.23,178.367 226.643,178.448 L 228.543,178.407 L 228.352,179.079 L 224.551,179.161 L 224.742,178.489 L 225.356,178.373 C 225.174,178.249 224.977,178.047 224.933,177.817 C 224.751,177.692 224.707,177.462 224.817,177.203 C 224.788,177.049 224.759,176.896 224.759,176.896 L 225.373,176.78"/>
    <path style="fill: none; fill-opacity:0; stroke-width: 0.3; stroke-linecap: round; stroke: #c00000" d="M 223.775 170.006 L 224.754,170.139 C 224.14,170.255 223.862,170.466 223.891,170.62 C 223.781,170.879 223.685,171.215 223.758,171.599 C 223.692,172.088 223.855,172.535 224.355,173.076 C 224.903,173.45 225.392,173.516 226.007,173.4 C 226.664,173.514 227.202,173.413 227.542,173.11 C 227.93,172.639 228.088,172.212 228.231,171.708 C 228.158,171.324 227.947,171.046 227.75,170.844 C 227.721,170.691 227.663,170.384 227.576,169.923 L 228.248,170.114 C 228.291,170.345 228.335,170.575 228.364,170.728 C 228.407,170.959 228.466,171.266 228.538,171.65 C 228.424,172.307 228.218,172.903 227.907,173.359 C 227.38,173.936 226.704,174.143 225.816,174.072 C 225.048,174.217 224.376,174.026 223.799,173.499 C 223.299,172.958 223.106,172.358 223.144,171.715 C 223.071,171.331 223.167,170.995 223.277,170.736 C 223.248,170.582 223.435,170.308 223.775,170.006 L 223.775,170.006"/>
    <path style="fill: none; fill-opacity:0; stroke-width: 0.3; stroke-linecap: round; stroke: #c00000" d="M 226.41 167.122 C 226.526,167.736 226.767,168.168 226.95,168.292 C 226.993,168.523 227.161,168.571 227.315,168.542 C 227.545,168.498 227.775,168.454 227.929,168.425 C 228.13,168.228 228.163,167.984 228.12,167.753 C 228.047,167.369 227.912,167.077 227.639,166.89 C 227.413,166.535 227.062,166.363 226.601,166.45 L 226.41,167.122"/>
    <path style="fill: none; fill-opacity:0; stroke-width: 0.3; stroke-linecap: round; stroke: #c00000" d="M 226.236 166.201 L 228.444,166.102 L 228.502,166.409 L 227.888,166.525 C 228.085,166.726 228.282,166.928 228.311,167.081 C 228.354,167.311 228.398,167.542 228.427,167.695 C 228.543,168.309 228.476,168.799 228.352,168.982 C 228.012,169.284 227.704,169.342 227.431,169.156 C 226.817,169.272 226.495,169.253 226.451,169.023 C 226.225,168.668 225.97,168.16 225.854,167.545 L 225.987,166.566 L 225.929,166.259 C 225.776,166.288 225.574,166.485 225.373,166.682 C 225.033,166.985 224.861,167.336 224.933,167.719 C 224.977,167.95 225.174,168.151 225.356,168.276 C 225.4,168.506 225.366,168.751 225.165,168.948 L 224.858,169.006 C 224.829,168.852 224.786,168.622 224.742,168.392 C 224.67,168.008 224.626,167.777 224.626,167.777 C 224.74,167.12 224.898,166.692 225.008,166.433 C 225.209,166.236 225.593,166.164 226.236,166.201 L 226.236,166.201"/>
    <path style="fill: none; fill-opacity:0; stroke-width: 0.3; stroke-linecap: round; stroke: #c00000" d="M 227.913 164.135 L 230.12,164.036 L 229.929,164.708 L 224.535,164.773 L 224.726,164.101 L 225.34,163.985 C 225.158,163.861 224.961,163.659 224.917,163.429 C 224.735,163.304 224.691,163.074 224.801,162.815 C 224.729,162.431 224.901,162.08 225.241,161.778 C 225.399,161.35 225.768,161.201 226.412,161.238 C 227.026,161.122 227.53,161.266 227.756,161.62 C 228.227,162.009 228.53,162.349 228.602,162.733 C 228.415,163.006 228.229,163.28 228.104,163.463 C 228.148,163.693 228.114,163.938 227.913,164.135 L 227.913,164.135"/>
    <path style="fill: none; fill-opacity:0; stroke-width: 0.3; stroke-linecap: round; stroke: #c00000" d="M 226.528 161.853 C 226.115,161.772 225.808,161.83 225.606,162.027 C 225.266,162.329 225.017,162.695 224.859,163.122 C 224.903,163.352 225.177,163.539 225.589,163.62 C 225.863,163.807 226.214,163.979 226.627,164.06 C 227.087,163.973 227.471,163.9 227.855,163.828 C 228.056,163.631 228.09,163.386 228.046,163.156 C 228.127,162.743 228.069,162.436 227.872,162.235 C 227.416,161.923 226.988,161.766 226.528,161.853 L 226.528,161.853"/>
    <path style="fill: none; fill-opacity:0; stroke-width: 0.3; stroke-linecap: round; stroke: #c00000" d="M 226.427 158.373 C 226.543,158.987 226.783,159.419 226.966,159.544 C 227.009,159.774 227.177,159.822 227.331,159.793 C 227.561,159.749 227.791,159.706 227.945,159.677 C 228.146,159.479 228.18,159.235 228.136,159.004 C 228.064,158.621 227.929,158.328 227.655,158.141 C 227.429,157.786 227.078,157.614 226.618,157.701 L 226.427,158.373"/>
    <path style="fill: none; fill-opacity:0; stroke-width: 0.3; stroke-linecap: round; stroke: #c00000" d="M 226.253 157.452 L 228.46,157.353 L 228.518,157.66 L 227.904,157.776 C 228.101,157.977 228.298,158.179 228.327,158.332 C 228.371,158.562 228.414,158.793 228.443,158.946 C 228.559,159.56 228.493,160.05 228.368,160.233 C 228.028,160.535 227.721,160.593 227.447,160.407 C 226.833,160.523 226.511,160.504 226.468,160.274 C 226.242,159.919 225.987,159.411 225.871,158.796 L 226.004,157.817 L 225.945,157.51 C 225.792,157.539 225.591,157.736 225.389,157.933 C 225.049,158.236 224.877,158.587 224.949,158.971 C 224.993,159.201 225.19,159.402 225.372,159.527 C 225.416,159.757 225.383,160.002 225.181,160.199 L 224.874,160.257 C 224.845,160.103 224.802,159.873 224.758,159.643 C 224.686,159.259 224.642,159.029 224.642,159.029 C 224.757,158.371 224.914,157.944 225.024,157.684 C 225.226,157.487 225.609,157.415 226.253,157.452 L 226.253,157.452"/>
    <path style="fill: none; fill-opacity:0; stroke-width: 0.3; stroke-linecap: round; stroke: #c00000" d="M 224.629 153.068 L 225.243,152.952 C 225.287,153.182 225.33,153.413 225.359,153.566 C 225.249,153.825 225.062,154.099 224.861,154.296 C 224.905,154.527 225.193,154.79 225.649,155.101 C 225.923,155.288 226.274,155.46 226.687,155.541 C 227.147,155.454 227.516,155.305 227.857,155.002 C 228.058,154.805 228.091,154.56 228.048,154.33 C 228.172,154.148 228.129,153.917 227.932,153.716 C 227.903,153.562 227.859,153.332 227.816,153.102 L 228.43,152.986 C 228.473,153.216 228.517,153.446 228.546,153.6 C 228.589,153.83 228.479,154.089 228.355,154.272 C 228.442,154.733 228.284,155.16 227.973,155.616 C 227.633,155.919 227.11,156.098 226.496,156.214 C 225.852,156.176 225.411,155.942 225.093,155.524 C 224.867,155.17 224.641,154.815 224.554,154.354 C 224.755,154.157 224.789,153.912 224.745,153.682 C 224.716,153.529 224.672,153.298 224.629,153.068 L 224.629,153.068"/>
    <path style="fill: none; fill-opacity:0; stroke-width: 0.3; stroke-linecap: round; stroke: #c00000" d="M 224.594 152.041 L 224.785,151.369 L 228.586,151.287 L 228.395,151.959 L 224.594,152.041"/>
    <path style="fill: none; fill-opacity:0; stroke-width: 0.3; stroke-linecap: round; stroke: #c00000" d="M 223.001 152.024 L 223.192,151.352 L 224.113,151.178 L 223.922,151.85 L 223.001,152.024"/>
    <path style="fill: none; fill-opacity:0; stroke-width: 0.3; stroke-linecap: round; stroke: #c00000" d="M 223.457 149.393 L 224.744,149.468 L 224.819,148.182 L 225.126,148.124 L 225.051,149.41 L 227.258,149.311 C 227.762,149.455 227.93,149.502 227.93,149.502 C 227.901,149.349 227.858,149.118 227.814,148.888 L 228.005,148.216 L 228.62,148.1 L 228.429,148.772 C 228.516,149.233 228.42,149.569 228.296,149.751 C 227.955,150.054 227.571,150.127 227.067,149.983 L 224.86,150.083 L 224.918,150.39 L 224.611,150.448 L 224.553,150.141 L 223.266,150.066 L 223.457,149.393"/>
    <path style="fill: none; fill-opacity:0; stroke-width: 0.3; stroke-linecap: round; stroke: #c00000" d="M 228.707 145.619 C 229.178,146.007 229.543,146.256 229.802,146.366 C 229.956,146.337 230.153,146.538 230.226,146.922 L 229.977,147.287 L 229.362,147.403 L 229.611,147.038 C 229.582,146.884 229.385,146.683 229.188,146.482 C 229.159,146.328 228.977,146.204 228.823,146.233 L 228.458,145.984 L 224.64,147.659 L 224.831,146.987 L 227.421,145.544 L 224.732,144.78 L 224.616,144.166 L 228.707,145.619"/>
  </g>
  <text font-size="6.20889" style="fill: #800080;text-anchor:start;font-family:sans-serif;font-style:normal;font-weight:normal" x="224.887" y="14.3065">
    <tspan x="224.887" y="14.3065">s</tspan>
  </text>
  <text font-size="9.03111" style="fill: #800080;text-anchor:start;font-family:sans-serif;font-style:normal;font-weight:normal" x="220.887" y="13.2815">
    <tspan x="220.887" y="13.2815">P</tspan>
  </text>
  <text font-size="6.20889" style="fill: #800080;text-anchor:start;font-family:sans-serif;font-style:normal;font-weight:normal" x="216.188" y="14.6307">
    <tspan x="216.188" y="14.6307">s</tspan>
  </text>
  <text font-size="9.03111" style="fill: #800080;text-anchor:start;font-family:sans-serif;font-style:normal;font-weight:normal" x="210.188" y="13.6057">
    <tspan x="210.188" y="13.6057">E</tspan>
  </text>
  <text font-size="9.03111" style="fill: #800080;text-anchor:start;font-family:sans-serif;font-style:normal;font-weight:normal" x="219.039" y="14.0368">
    <tspan x="219.039" y="14.0368">,</tspan>
  </text>
  <path style="fill: none; fill-opacity:0; stroke-width: 1; stroke: #800080" d="M 219.208 20.0259 C 225.98,17.8025 224.544,18.9151 227.019,15.5563"/>
  <text font-size="9.03111" style="fill: #000000;text-anchor:start;font-family:sans-serif;font-style:normal;font-weight:normal" x="28.3578" y="150.442">
    <tspan x="28.3578" y="150.442">H = 0,57</tspan>
    <tspan x="28.3578" y="161.731">R = 0,10</tspan>
  </text>
  <line style="fill: none; fill-opacity:0; stroke-width: 1; stroke: #00c000" x1="20.3578" y1="216.962" x2="216.379" y2="79.5133"/>
  <line style="fill: none; fill-opacity:0; stroke-width: 1; stroke: #c00000" x1="80.4866" y1="216.648" x2="214.772" y2="23.1187"/>
  <line style="fill: none; fill-opacity:0; stroke-width: 1; stroke: #00ff00" x1="16.6238" y1="218.304" x2="216.624" y2="134.304"/>
  <line style="fill: none; fill-opacity:0; stroke-width: 1; stroke: #ff0000" x1="160.487" y1="216.648" x2="215.651" y2="21.6688"/>
  <g>
    <rect style="fill: #d7d7d7" x="79.7418" y="166.497" width="11.5" height="10.55"/>
    <text font-size="9.03111" style="fill: #00c000;text-anchor:start;font-family:sans-serif;font-style:normal;font-weight:normal" x="79.7418" y="174.897">
      <tspan x="79.7418" y="174.897">b1</tspan>
    </text>
  </g>
  <g>
    <rect style="fill: #efefef" x="79.3203" y="183.648" width="11.5" height="10.55"/>
    <text font-size="9.03111" style="fill: #00ff00;text-anchor:start;font-family:sans-serif;font-style:normal;font-weight:normal" x="79.3203" y="192.048">
      <tspan x="79.3203" y="192.048">b2</tspan>
    </text>
  </g>
  <g>
    <rect style="fill: #d7d7d7" x="184.265" y="55.8789" width="11.5" height="10.55"/>
    <text font-size="9.03111" style="fill: #c00000;text-anchor:start;font-family:sans-serif;font-style:normal;font-weight:normal" x="184.265" y="64.2789">
      <tspan x="184.265" y="64.2789">p1</tspan>
    </text>
  </g>
  <g>
    <rect style="fill: #d7d7d7" x="192.922" y="70.4356" width="11.5" height="10.55"/>
    <text font-size="9.03111" style="fill: #ff0000;text-anchor:start;font-family:sans-serif;font-style:normal;font-weight:normal" x="192.922" y="78.8356">
      <tspan x="192.922" y="78.8356">p2</tspan>
    </text>
  </g>
  <path style="fill: none; fill-opacity:0; stroke-width: 2; stroke: #800080" d="M 216.193 23.9211 C 212.193,95.9211 200.358,112.962 172.358,144.962 C 144.358,176.962 76.3578,196.962 20.3578,216.962"/>
  <path style="fill: none; fill-opacity:0; stroke-width: 1.6; stroke-dasharray: 6; stroke: #800080" d="M 215.889 23.9283 C 203.889,99.9283 196.358,104.962 168.358,132.962 C 140.358,160.962 76.3578,188.962 20.3578,216.962"/>
</svg>
