<?xml version="1.0" encoding="UTF-8" standalone="no"?>
<!DOCTYPE svg PUBLIC "-//W3C//DTD SVG 1.0//EN" "http://www.w3.org/TR/2001/PR-SVG-20010719/DTD/svg10.dtd">
<svg width="12cm" height="12cm" viewBox="-13 -17 223 226" xmlns="http://www.w3.org/2000/svg" xmlns:xlink="http://www.w3.org/1999/xlink">
  <g>
    <line style="fill: none; fill-opacity:0; stroke-width: 1.2; stroke: #c00000" x1="10.5998" y1="-0.000204305" x2="197" y2="-0.00028"/>
    <polygon style="fill: #c00000" points="10.5998,-2.5002 0.59978,-0.000200244 10.5998,2.4998 "/>
    <polygon style="fill: none; fill-opacity:0; stroke-width: 1.2; stroke: #c00000" points="10.5998,-2.5002 0.59978,-0.000200244 10.5998,2.4998 "/>
  </g>
  <line style="fill: none; fill-opacity:0; stroke-width: 1.2; stroke: #800080" x1="-0.0002" y1="196" x2="200" y2="-4"/>
  <g>
    <ellipse style="fill: #ffffff" cx="196" cy="-0.00028" rx="1" ry="1"/>
    <ellipse style="fill: none; fill-opacity:0; stroke-width: 4; stroke: #800080" cx="196" cy="-0.00028" rx="1" ry="1"/>
  </g>
  <g>
    <line style="fill: none; fill-opacity:0; stroke-width: 1.2; stroke: #c00000" x1="196" y1="185.4" x2="196" y2="-1.00028"/>
    <polygon style="fill: #c00000" points="193.5,185.4 196,195.4 198.5,185.4 "/>
    <polygon style="fill: none; fill-opacity:0; stroke-width: 1.2; stroke: #c00000" points="193.5,185.4 196,195.4 198.5,185.4 "/>
  </g>
  <line style="fill: none; fill-opacity:0; stroke-width: 1.2; stroke: #000000" x1="196" y1="198" x2="196" y2="194"/>
  <line style="fill: none; fill-opacity:0; stroke-width: 1.2; stroke: #000000" x1="-2.00024" y1="-0.0002" x2="1.9998" y2="-0.0002"/>
  <g>
    <line style="fill: none; fill-opacity:0; stroke-width: 1.2; stroke: #00c000" x1="-0.0002" y1="196" x2="189.4" y2="196"/>
    <polygon style="fill: #00c000" points="189.4,198.5 199.4,196 189.4,193.5 "/>
    <polygon style="fill: none; fill-opacity:0; stroke-width: 1.2; stroke: #00c000" points="189.4,198.5 199.4,196 189.4,193.5 "/>
  </g>
  <g>
    <line style="fill: none; fill-opacity:0; stroke-width: 1.2; stroke: #00c000" x1="-0.0002" y1="196" x2="-0.0002" y2="6.59972"/>
    <polygon style="fill: #00c000" points="2.4998,6.59972 -0.0002,-3.40028 -2.5002,6.59972 "/>
    <polygon style="fill: none; fill-opacity:0; stroke-width: 1.2; stroke: #00c000" points="2.4998,6.59972 -0.0002,-3.40028 -2.5002,6.59972 "/>
  </g>
  <g>
    <path style="fill: none; fill-opacity:0; stroke-width: 0.3; stroke-linecap: round; stroke: #00c000" d="M 122.937 204.891 L 122.937,206.766 L 123.875,206.766 C 124.265,206.766 124.578,206.766 124.812,206.766 C 124.969,206.609 125.125,206.297 125.125,205.828 C 125.125,205.672 124.969,205.438 124.812,205.203 C 124.578,205.047 124.265,204.891 123.875,204.891 L 122.937,204.891"/>
    <path style="fill: none; fill-opacity:0; stroke-width: 0.3; stroke-linecap: round; stroke: #00c000" d="M 122.937 203.016 L 122.937,204.266 L 123.875,204.266 C 124.265,204.266 124.5,204.266 124.5,204.266 C 124.656,204.109 124.812,203.875 124.812,203.641 C 124.812,203.484 124.656,203.328 124.5,203.328 C 124.5,203.172 124.265,203.016 123.875,203.016 L 122.937,203.016"/>
    <path style="fill: none; fill-opacity:0; stroke-width: 0.3; stroke-linecap: round; stroke: #00c000" d="M 122 202.078 L 123.875,202.078 C 124.5,202.078 124.89,202.312 125.125,202.703 C 125.281,202.938 125.437,203.25 125.437,203.641 C 125.437,203.875 125.281,204.109 125.125,204.266 C 125.125,204.5 124.969,204.578 124.812,204.578 C 124.969,204.812 125.203,205.047 125.437,205.203 C 125.594,205.438 125.75,205.672 125.75,205.828 C 125.75,206.453 125.515,206.922 125.125,207.078 C 124.89,207.312 124.5,207.391 123.875,207.391 L 122,207.391 L 122,202.078"/>
    <path style="fill: none; fill-opacity:0; stroke-width: 0.3; stroke-linecap: round; stroke: #00c000" d="M 128.719 205.516 C 128.094,205.516 127.625,205.672 127.469,205.828 C 127.469,205.828 127.469,205.984 127.469,206.141 C 127.469,206.375 127.469,206.609 127.469,206.766 C 127.625,207 127.859,207.078 128.094,207.078 C 128.484,207.078 128.797,207 129.031,206.766 C 129.187,206.375 129.344,205.984 129.344,205.516 L 128.719,205.516"/>
    <path style="fill: none; fill-opacity:0; stroke-width: 0.3; stroke-linecap: round; stroke: #00c000" d="M 129.969 205.203 L 129.969,207.391 L 129.344,207.391 L 129.344,206.766 C 129.109,207 128.875,207.234 128.719,207.391 C 128.484,207.391 128.25,207.391 128.094,207.391 C 127.625,207.391 127.234,207.312 126.844,207.078 C 126.609,206.922 126.531,206.609 126.531,206.141 C 126.531,205.75 126.609,205.438 126.844,205.203 C 127.234,205.047 127.781,204.891 128.406,204.891 L 129.344,204.891 C 129.344,204.5 129.187,204.266 129.031,204.266 C 128.797,204.109 128.484,203.953 128.094,203.953 C 127.859,203.953 127.625,203.953 127.469,203.953 C 127.234,203.953 127,204.109 126.844,204.266 L 126.844,203.641 C 127.234,203.641 127.547,203.641 127.781,203.641 C 127.937,203.484 128.094,203.328 128.094,203.328 C 128.719,203.328 129.109,203.562 129.344,203.953 C 129.734,204.188 129.969,204.578 129.969,205.203 L 129.969,205.203"/>
    <path style="fill: none; fill-opacity:0; stroke-width: 0.3; stroke-linecap: round; stroke: #00c000" d="M 133.64 203.641 L 133.64,204.266 C 133.406,204.109 133.172,203.953 133.015,203.953 C 132.781,203.953 132.547,203.953 132.39,203.953 C 132.156,203.953 131.922,204.109 131.765,204.266 C 131.531,204.266 131.453,204.422 131.453,204.578 C 131.453,204.812 131.453,204.891 131.453,204.891 C 131.609,204.891 131.922,205.047 132.39,205.203 L 132.703,205.203 C 133.094,205.203 133.406,205.359 133.64,205.516 C 133.797,205.75 133.953,205.984 133.953,206.141 C 133.953,206.609 133.719,206.922 133.328,207.078 C 133.094,207.312 132.781,207.391 132.39,207.391 C 132.156,207.391 131.844,207.391 131.453,207.391 C 131.219,207.391 130.984,207.391 130.828,207.391 L 130.828,206.766 C 130.984,206.766 131.219,206.922 131.453,207.078 C 131.844,207.078 132.156,207.078 132.39,207.078 C 132.547,207.078 132.703,207.078 132.703,207.078 C 132.859,206.922 133.015,206.688 133.015,206.453 C 133.015,206.297 132.859,206.141 132.703,206.141 C 132.703,205.984 132.547,205.828 132.39,205.828 L 132.078,205.516 C 131.609,205.516 131.297,205.516 131.14,205.516 C 130.906,205.359 130.828,205.047 130.828,204.578 C 130.828,204.188 130.906,203.875 131.14,203.641 C 131.531,203.484 131.922,203.328 132.39,203.328 C 132.547,203.328 132.781,203.484 133.015,203.641 C 133.172,203.641 133.406,203.641 133.64,203.641 L 133.64,203.641"/>
    <path style="fill: none; fill-opacity:0; stroke-width: 0.3; stroke-linecap: round; stroke: #00c000" d="M 138.25 205.203 L 138.25,205.516 L 135.437,205.516 C 135.437,205.984 135.515,206.375 135.75,206.766 C 135.906,207 136.219,207.078 136.687,207.078 C 136.844,207.078 137.078,207.078 137.312,207.078 C 137.469,206.922 137.703,206.766 137.937,206.766 L 137.937,207.078 C 137.703,207.312 137.469,207.391 137.312,207.391 C 137.078,207.391 136.844,207.391 136.687,207.391 C 136.062,207.391 135.515,207.312 135.125,207.078 C 134.656,206.688 134.5,206.141 134.5,205.516 C 134.5,204.891 134.656,204.422 135.125,203.953 C 135.515,203.562 135.906,203.328 136.375,203.328 C 137,203.328 137.39,203.562 137.625,203.953 C 138.015,204.188 138.25,204.578 138.25,205.203 L 138.25,205.203"/>
    <path style="fill: none; fill-opacity:0; stroke-width: 0.3; stroke-linecap: round; stroke: #00c000" d="M 137.625 205.203 C 137.625,204.812 137.469,204.5 137.312,204.266 C 137.078,204.109 136.765,203.953 136.375,203.953 C 136.14,203.953 135.906,204.109 135.75,204.266 C 135.515,204.5 135.437,204.812 135.437,205.203 L 137.625,205.203"/>
    <path style="fill: none; fill-opacity:0; stroke-width: 0.3; stroke-linecap: round; stroke: #00c000" d="M 141.453 202.078 L 144.89,202.078 L 144.89,203.016 L 142.39,203.016 L 142.39,204.266 L 144.578,204.266 L 144.578,204.891 L 142.39,204.891 L 142.39,206.766 L 144.89,206.766 L 144.89,207.391 L 141.453,207.391 L 141.453,202.078"/>
    <path style="fill: none; fill-opacity:0; stroke-width: 0.3; stroke-linecap: round; stroke: #00c000" d="M 149.031 205.203 L 149.031,207.391 L 148.406,207.391 L 148.406,205.203 C 148.406,204.812 148.25,204.5 148.094,204.266 C 148.094,204.109 147.937,203.953 147.781,203.953 C 147.312,203.953 147,204.109 146.844,204.266 C 146.609,204.5 146.531,204.812 146.531,205.203 L 146.531,207.391 L 145.906,207.391 L 145.906,203.641 L 146.531,203.641 L 146.531,203.953 C 146.687,203.797 146.922,203.641 147.156,203.641 C 147.312,203.484 147.547,203.328 147.781,203.328 C 148.172,203.328 148.484,203.562 148.719,203.953 C 148.875,204.188 149.031,204.578 149.031,205.203 L 149.031,205.203"/>
    <path style="fill: none; fill-opacity:0; stroke-width: 0.3; stroke-linecap: round; stroke: #00c000" d="M 153.797 205.203 L 153.797,205.516 L 150.984,205.516 C 150.984,205.984 151.062,206.375 151.297,206.766 C 151.453,207 151.765,207.078 152.234,207.078 C 152.39,207.078 152.625,207.078 152.859,207.078 C 153.015,206.922 153.25,206.766 153.484,206.766 L 153.484,207.078 C 153.25,207.312 153.015,207.391 152.859,207.391 C 152.625,207.391 152.39,207.391 152.234,207.391 C 151.609,207.391 151.062,207.312 150.672,207.078 C 150.203,206.688 150.047,206.141 150.047,205.516 C 150.047,204.891 150.203,204.422 150.672,203.953 C 151.062,203.562 151.453,203.328 151.922,203.328 C 152.547,203.328 152.937,203.562 153.172,203.953 C 153.562,204.188 153.797,204.578 153.797,205.203 L 153.797,205.203"/>
    <path style="fill: none; fill-opacity:0; stroke-width: 0.3; stroke-linecap: round; stroke: #00c000" d="M 153.172 205.203 C 153.172,204.812 153.015,204.5 152.859,204.266 C 152.625,204.109 152.312,203.953 151.922,203.953 C 151.687,203.953 151.453,204.109 151.297,204.266 C 151.062,204.5 150.984,204.812 150.984,205.203 L 153.172,205.203"/>
    <path style="fill: none; fill-opacity:0; stroke-width: 0.3; stroke-linecap: round; stroke: #00c000" d="M 156.844 203.953 C 156.844,203.953 156.687,203.953 156.531,203.953 C 156.062,203.953 155.75,204.188 155.594,204.578 C 155.359,204.812 155.281,205.125 155.281,205.516 L 155.281,207.391 L 154.656,207.391 L 154.656,203.641 L 155.281,203.641 L 155.281,203.953 C 155.437,203.797 155.672,203.641 155.906,203.641 C 156.062,203.484 156.297,203.328 156.531,203.328 C 156.687,203.328 156.844,203.328 156.844,203.328 L 156.844,203.953"/>
    <path style="fill: none; fill-opacity:0; stroke-width: 0.3; stroke-linecap: round; stroke: #00c000" d="M 160.125 205.516 C 160.125,205.125 159.969,204.812 159.812,204.578 C 159.578,204.188 159.344,203.953 159.187,203.953 C 158.719,203.953 158.406,204.188 158.25,204.578 C 158.015,204.812 157.937,205.125 157.937,205.516 C 157.937,205.984 158.015,206.297 158.25,206.453 C 158.406,206.688 158.719,206.766 159.187,206.766 C 159.344,206.766 159.578,206.688 159.812,206.453 C 159.969,206.297 160.125,205.984 160.125,205.516 L 160.125,205.516"/>
    <path style="fill: none; fill-opacity:0; stroke-width: 0.3; stroke-linecap: round; stroke: #00c000" d="M 160.75 207.078 C 160.75,207.703 160.594,208.094 160.437,208.328 C 160.203,208.719 159.812,208.953 159.187,208.953 C 158.953,208.953 158.719,208.797 158.562,208.641 C 158.328,208.641 158.094,208.641 157.937,208.641 L 157.937,208.016 C 158.094,208.016 158.25,208.016 158.25,208.016 C 158.406,208.172 158.64,208.328 158.875,208.328 C 159.265,208.328 159.578,208.172 159.812,208.016 C 159.969,207.781 160.125,207.469 160.125,207.078 L 160.125,206.766 C 160.125,207 159.969,207.234 159.812,207.391 C 159.578,207.391 159.265,207.391 158.875,207.391 C 158.406,207.391 158.015,207.234 157.625,206.766 C 157.39,206.375 157.312,205.984 157.312,205.516 C 157.312,204.891 157.39,204.422 157.625,203.953 C 158.015,203.562 158.406,203.328 158.875,203.328 C 159.265,203.328 159.578,203.484 159.812,203.641 C 159.969,203.641 160.125,203.797 160.125,203.953 L 160.125,203.641 L 160.75,203.641 L 160.75,207.078"/>
    <path style="fill: none; fill-opacity:0; stroke-width: 0.3; stroke-linecap: round; stroke: #00c000" d="M 163.64 207.703 C 163.406,208.328 163.172,208.641 163.015,208.641 C 163.015,208.797 162.859,208.953 162.703,208.953 L 162.078,208.953 L 162.078,208.328 L 162.39,208.328 C 162.547,208.328 162.703,208.172 162.703,208.016 C 162.859,208.016 163.015,207.859 163.015,207.703 L 163.328,207.391 L 161.765,203.641 L 162.39,203.641 L 163.64,206.453 L 164.89,203.641 L 165.515,203.641 L 163.64,207.703"/>
    <path style="fill: none; fill-opacity:0; stroke-width: 0.3; stroke-linecap: round; stroke: #00c000" d="M 172.234 202.703 L 172.234,203.328 C 172,203.172 171.765,203.016 171.609,203.016 C 171.375,202.859 171.14,202.703 170.984,202.703 C 170.359,202.703 169.812,202.938 169.422,203.328 C 169.187,203.562 169.109,204.109 169.109,204.891 C 169.109,205.516 169.187,206.062 169.422,206.453 C 169.812,206.922 170.359,207.078 170.984,207.078 C 171.14,207.078 171.375,207.078 171.609,207.078 C 171.765,206.922 172,206.609 172.234,206.141 L 172.234,207.078 C 172,207.312 171.765,207.391 171.609,207.391 C 171.375,207.391 171.062,207.391 170.672,207.391 C 170.047,207.391 169.422,207.234 168.797,206.766 C 168.328,206.375 168.172,205.75 168.172,204.891 C 168.172,204.109 168.328,203.484 168.797,203.016 C 169.422,202.391 170.047,202.078 170.672,202.078 C 171.062,202.078 171.375,202.234 171.609,202.391 C 171.765,202.391 172,202.547 172.234,202.703 L 172.234,202.703"/>
    <path style="fill: none; fill-opacity:0; stroke-width: 0.3; stroke-linecap: round; stroke: #00c000" d="M 175.281 205.516 C 174.656,205.516 174.187,205.672 174.031,205.828 C 174.031,205.828 174.031,205.984 174.031,206.141 C 174.031,206.375 174.031,206.609 174.031,206.766 C 174.187,207 174.422,207.078 174.656,207.078 C 175.047,207.078 175.359,207 175.594,206.766 C 175.75,206.375 175.906,205.984 175.906,205.516 L 175.281,205.516"/>
    <path style="fill: none; fill-opacity:0; stroke-width: 0.3; stroke-linecap: round; stroke: #00c000" d="M 176.531 205.203 L 176.531,207.391 L 175.906,207.391 L 175.906,206.766 C 175.672,207 175.437,207.234 175.281,207.391 C 175.047,207.391 174.812,207.391 174.656,207.391 C 174.187,207.391 173.797,207.312 173.406,207.078 C 173.172,206.922 173.094,206.609 173.094,206.141 C 173.094,205.75 173.172,205.438 173.406,205.203 C 173.797,205.047 174.344,204.891 174.969,204.891 L 175.906,204.891 C 175.906,204.5 175.75,204.266 175.594,204.266 C 175.359,204.109 175.047,203.953 174.656,203.953 C 174.422,203.953 174.187,203.953 174.031,203.953 C 173.797,203.953 173.562,204.109 173.406,204.266 L 173.406,203.641 C 173.797,203.641 174.109,203.641 174.344,203.641 C 174.5,203.484 174.656,203.328 174.656,203.328 C 175.281,203.328 175.672,203.562 175.906,203.953 C 176.297,204.188 176.531,204.578 176.531,205.203 L 176.531,205.203"/>
    <path style="fill: none; fill-opacity:0; stroke-width: 0.3; stroke-linecap: round; stroke: #00c000" d="M 178.328 206.766 L 178.328,208.953 L 177.703,208.953 L 177.703,203.641 L 178.328,203.641 L 178.328,203.953 C 178.484,203.797 178.719,203.641 178.953,203.641 C 179.109,203.484 179.344,203.328 179.578,203.328 C 179.969,203.328 180.281,203.562 180.515,203.953 C 180.906,204.422 181.14,204.891 181.14,205.516 C 181.14,206.141 180.906,206.688 180.515,207.078 C 180.281,207.312 179.969,207.391 179.578,207.391 C 179.344,207.391 179.109,207.391 178.953,207.391 C 178.719,207.234 178.484,207 178.328,206.766 L 178.328,206.766"/>
    <path style="fill: none; fill-opacity:0; stroke-width: 0.3; stroke-linecap: round; stroke: #00c000" d="M 180.515 205.516 C 180.515,205.125 180.359,204.812 180.203,204.578 C 179.969,204.188 179.656,203.953 179.265,203.953 C 179.031,203.953 178.797,204.188 178.64,204.578 C 178.406,204.812 178.328,205.125 178.328,205.516 C 178.328,205.984 178.406,206.375 178.64,206.766 C 178.797,207 179.031,207.078 179.265,207.078 C 179.656,207.078 179.969,207 180.203,206.766 C 180.359,206.375 180.515,205.984 180.515,205.516 L 180.515,205.516"/>
    <path style="fill: none; fill-opacity:0; stroke-width: 0.3; stroke-linecap: round; stroke: #00c000" d="M 184.109 205.516 C 183.484,205.516 183.015,205.672 182.859,205.828 C 182.859,205.828 182.859,205.984 182.859,206.141 C 182.859,206.375 182.859,206.609 182.859,206.766 C 183.015,207 183.25,207.078 183.484,207.078 C 183.875,207.078 184.187,207 184.422,206.766 C 184.578,206.375 184.734,205.984 184.734,205.516 L 184.109,205.516"/>
    <path style="fill: none; fill-opacity:0; stroke-width: 0.3; stroke-linecap: round; stroke: #00c000" d="M 185.359 205.203 L 185.359,207.391 L 184.734,207.391 L 184.734,206.766 C 184.5,207 184.265,207.234 184.109,207.391 C 183.875,207.391 183.64,207.391 183.484,207.391 C 183.015,207.391 182.625,207.312 182.234,207.078 C 182,206.922 181.922,206.609 181.922,206.141 C 181.922,205.75 182,205.438 182.234,205.203 C 182.625,205.047 183.172,204.891 183.797,204.891 L 184.734,204.891 C 184.734,204.5 184.578,204.266 184.422,204.266 C 184.187,204.109 183.875,203.953 183.484,203.953 C 183.25,203.953 183.015,203.953 182.859,203.953 C 182.625,203.953 182.39,204.109 182.234,204.266 L 182.234,203.641 C 182.625,203.641 182.937,203.641 183.172,203.641 C 183.328,203.484 183.484,203.328 183.484,203.328 C 184.109,203.328 184.5,203.562 184.734,203.953 C 185.125,204.188 185.359,204.578 185.359,205.203 L 185.359,205.203"/>
    <path style="fill: none; fill-opacity:0; stroke-width: 0.3; stroke-linecap: round; stroke: #00c000" d="M 189.344 203.641 L 189.344,204.266 C 189.109,204.109 188.875,203.953 188.719,203.953 C 188.484,203.953 188.25,203.953 188.094,203.953 C 187.859,203.953 187.625,204.188 187.469,204.578 C 187.234,204.812 187.156,205.125 187.156,205.516 C 187.156,205.984 187.234,206.375 187.469,206.766 C 187.625,207 187.859,207.078 188.094,207.078 C 188.25,207.078 188.484,207.078 188.719,207.078 C 188.875,206.922 189.109,206.766 189.344,206.766 L 189.344,207.391 C 189.109,207.391 188.875,207.391 188.719,207.391 C 188.484,207.391 188.25,207.391 188.094,207.391 C 187.625,207.391 187.234,207.312 186.844,207.078 C 186.375,206.688 186.219,206.141 186.219,205.516 C 186.219,204.891 186.375,204.422 186.844,203.953 C 187.234,203.562 187.625,203.328 188.094,203.328 C 188.25,203.328 188.484,203.484 188.719,203.641 C 188.875,203.641 189.109,203.641 189.344,203.641 L 189.344,203.641"/>
    <path style="fill: none; fill-opacity:0; stroke-width: 0.3; stroke-linecap: round; stroke: #00c000" d="M 190.437 203.641 L 191.062,203.641 L 191.062,207.391 L 190.437,207.391 L 190.437,203.641"/>
    <path style="fill: none; fill-opacity:0; stroke-width: 0.3; stroke-linecap: round; stroke: #00c000" d="M 190.437 202.078 L 191.062,202.078 L 191.062,203.016 L 190.437,203.016 L 190.437,202.078"/>
    <path style="fill: none; fill-opacity:0; stroke-width: 0.3; stroke-linecap: round; stroke: #00c000" d="M 193.015 202.391 L 193.015,203.641 L 194.265,203.641 L 194.265,203.953 L 193.015,203.953 L 193.015,206.141 C 193.015,206.609 193.015,206.766 193.015,206.766 C 193.172,206.766 193.406,206.766 193.64,206.766 L 194.265,206.766 L 194.265,207.391 L 193.64,207.391 C 193.172,207.391 192.859,207.312 192.703,207.078 C 192.469,206.922 192.39,206.609 192.39,206.141 L 192.39,203.953 L 192.078,203.953 L 192.078,203.641 L 192.39,203.641 L 192.39,202.391 L 193.015,202.391"/>
    <path style="fill: none; fill-opacity:0; stroke-width: 0.3; stroke-linecap: round; stroke: #00c000" d="M 196.687 207.703 C 196.453,208.328 196.219,208.641 196.062,208.641 C 196.062,208.797 195.906,208.953 195.75,208.953 L 195.125,208.953 L 195.125,208.328 L 195.437,208.328 C 195.594,208.328 195.75,208.172 195.75,208.016 C 195.906,208.016 196.062,207.859 196.062,207.703 L 196.375,207.391 L 194.812,203.641 L 195.437,203.641 L 196.687,206.453 L 197.937,203.641 L 198.562,203.641 L 196.687,207.703"/>
  </g>
  <g>
    <path style="fill: none; fill-opacity:0; stroke-width: 0.3; stroke-linecap: round; stroke: #00c000" d="M -9.87669 71.2182 L -7.97627,71.1771 L -7.84329,70.1979 C -7.91583,69.8141 -7.97386,69.507 -8.01738,69.2767 C -8.19993,69.1522 -8.536,69.0567 -8.9966,69.1437 C -9.15013,69.1727 -9.35142,69.3698 -9.5527,69.5668 C -9.70623,69.5959 -9.81625,69.8552 -9.74371,70.239 L -9.87669,71.2182"/>
    <path style="fill: none; fill-opacity:0; stroke-width: 0.3; stroke-linecap: round; stroke: #00c000" d="M -11.8351 70.9523 L -10.2418,70.9692 L -10.4159,70.048 C -10.2146,69.8509 -10.2581,69.6206 -10.5319,69.4339 C -10.7145,69.3093 -10.9738,69.1993 -11.2041,69.2429 C -11.3576,69.2719 -11.4821,69.4544 -11.4531,69.608 C -11.6067,69.637 -11.8079,69.834 -12.0092,70.0311 L -11.8351,70.9523"/>
    <path style="fill: none; fill-opacity:0; stroke-width: 0.3; stroke-linecap: round; stroke: #00c000" d="M -12.5822 72.0476 L -12.6234,70.1471 C -12.4656,69.7198 -12.2933,69.3692 -12.1833,69.1099 C -12.0255,68.6825 -11.733,68.5477 -11.3201,68.6287 C -11.0898,68.5852 -10.8305,68.6952 -10.648,68.8197 C -10.3742,69.0065 -10.2539,69.2223 -10.2249,69.3758 C -10.0671,68.9485 -9.80356,68.6602 -9.41973,68.5876 C -9.21844,68.3906 -9.01716,68.1935 -8.86362,68.1645 C -8.20597,68.2787 -7.84088,68.5278 -7.76834,68.9116 C -7.57129,69.1129 -7.34522,69.4677 -7.22916,70.0818 L -7.49511,72.0403 L -12.5822,72.0476"/>
    <path style="fill: none; fill-opacity:0; stroke-width: 0.3; stroke-linecap: round; stroke: #00c000" d="M -9.4004 65.3241 C -9.28434,65.9383 -9.04376,66.3699 -8.86121,66.4944 C -8.81769,66.7247 -8.64965,66.7724 -8.49612,66.7434 C -8.26582,66.6999 -8.03552,66.6564 -7.88199,66.6273 C -7.68071,66.4303 -7.64746,66.1855 -7.69098,65.9552 C -7.76352,65.5714 -7.89832,65.2788 -8.17214,65.092 C -8.39821,64.7372 -8.74879,64.5649 -9.20939,64.652 L -9.4004,65.3241"/>
    <path style="fill: none; fill-opacity:0; stroke-width: 0.3; stroke-linecap: round; stroke: #00c000" d="M -9.57448 64.4029 L -7.367,64.3038 L -7.30897,64.6109 L -7.9231,64.7269 C -7.72605,64.9282 -7.52899,65.1295 -7.49998,65.283 C -7.45646,65.5133 -7.41293,65.7436 -7.38392,65.8972 C -7.26786,66.5113 -7.33435,67.0009 -7.45887,67.1834 C -7.79918,67.4863 -8.10624,67.5443 -8.38006,67.3575 C -8.99419,67.4736 -9.31576,67.4549 -9.35929,67.2246 C -9.58535,66.8697 -9.84044,66.3614 -9.9565,65.7473 L -9.82352,64.768 L -9.88155,64.461 C -10.0351,64.49 -10.2364,64.687 -10.4376,64.8841 C -10.778,65.1869 -10.9502,65.5375 -10.8777,65.9214 C -10.8342,66.1517 -10.6371,66.3529 -10.4546,66.4775 C -10.411,66.7078 -10.4443,66.9526 -10.6456,67.1496 L -10.9526,67.2076 C -10.9817,67.0541 -11.0252,66.8238 -11.0687,66.5935 C -11.1412,66.2097 -11.1848,65.9794 -11.1848,65.9794 C -11.0705,65.3217 -10.9128,64.8944 -10.8027,64.6351 C -10.6015,64.438 -10.2176,64.3655 -9.57448,64.4029 L -9.57448,64.4029"/>
    <path style="fill: none; fill-opacity:0; stroke-width: 0.3; stroke-linecap: round; stroke: #00c000" d="M -11.1255 60.4026 L -10.5114,60.2866 C -10.4679,60.5169 -10.5011,60.7617 -10.7024,60.9587 C -10.8124,61.2181 -10.9224,61.4774 -10.8934,61.6309 C -10.8499,61.8612 -10.6528,62.0625 -10.4703,62.187 C -10.4268,62.4173 -10.2587,62.4651 -10.1052,62.436 C -9.87491,62.3925 -9.79814,62.378 -9.79814,62.378 C -9.79814,62.378 -9.67362,62.1955 -9.60714,61.7059 L -9.66517,61.3988 C -9.5074,60.9714 -9.32063,60.6976 -9.16709,60.6686 C -8.96581,60.4715 -8.68776,60.26 -8.30393,60.1874 C -8.03011,60.3742 -7.83305,60.5755 -7.57374,60.6855 C -7.37669,60.8868 -7.31866,61.1939 -7.39965,61.6067 C -7.35613,61.837 -7.45163,62.1731 -7.53263,62.5859 C -7.48911,62.8162 -7.44559,63.0465 -7.41657,63.2001 L -8.0307,63.3161 C -8.05972,63.1626 -7.9497,62.9033 -7.83969,62.644 C -7.68193,62.2166 -7.6632,61.895 -7.70672,61.6647 C -7.73573,61.5112 -7.76475,61.3577 -7.76475,61.3577 C -7.79376,61.2041 -7.91405,60.9884 -8.18787,60.8016 C -8.3414,60.8306 -8.54269,61.0276 -8.74397,61.2247 C -8.8975,61.2537 -9.02202,61.4363 -8.99301,61.5898 L -9.24204,61.9549 C -9.155,62.4155 -9.17373,62.7371 -9.37502,62.9341 C -9.48503,63.1934 -9.79209,63.2515 -10.2962,63.1082 C -10.4497,63.1372 -10.6178,63.0895 -10.6613,62.8592 C -10.8874,62.5043 -11.1134,62.1495 -11.2005,61.6889 C -11.2295,61.5354 -11.1195,61.2761 -11.0095,61.0168 C -11.0385,60.8632 -11.082,60.6329 -11.1255,60.4026 L -11.1255,60.4026"/>
    <path style="fill: none; fill-opacity:0; stroke-width: 0.3; stroke-linecap: round; stroke: #00c000" d="M -9.62469 56.1436 L -9.31762,56.0856 L -9.10242,58.9072 C -8.48829,58.7911 -8.0422,58.6273 -7.93219,58.368 C -7.73091,58.171 -7.71217,57.8494 -7.79922,57.3888 C -7.6747,57.2063 -7.71822,56.976 -7.91528,56.7747 C -7.94429,56.6211 -7.98781,56.3908 -8.03133,56.1605 L -7.72427,56.1025 C -7.52722,56.3038 -7.33016,56.5051 -7.30115,56.6586 C -7.25762,56.8889 -7.36763,57.1482 -7.49215,57.3308 C -7.37609,57.9449 -7.50484,58.5258 -7.81614,58.9822 C -8.15644,59.285 -8.6793,59.4633 -9.29343,59.5794 C -9.93658,59.5419 -10.3784,59.3074 -10.6958,58.8903 C -10.9218,58.5355 -11.1479,58.1807 -11.235,57.7201 C -11.1207,57.0624 -10.8862,56.6205 -10.5459,56.3177 C -10.3446,56.1207 -10.0375,56.0626 -9.62469,56.1436 L -9.62469,56.1436"/>
    <path style="fill: none; fill-opacity:0; stroke-width: 0.3; stroke-linecap: round; stroke: #00c000" d="M -9.50863 56.7578 C -9.92148,56.6768 -10.2285,56.7348 -10.4298,56.9318 C -10.5834,56.9609 -10.7701,57.2347 -10.9279,57.662 C -10.8844,57.8923 -10.6728,58.1704 -10.4467,58.5252 C -10.1729,58.712 -9.82234,58.8842 -9.40949,58.9652 L -9.50863,56.7578"/>
    <path style="fill: none; fill-opacity:0; stroke-width: 0.3; stroke-linecap: round; stroke: #00c000" d="M -11.8437 51.554 L -9.94326,51.5129 L -10.0593,50.8987 C -9.90155,50.4714 -9.94508,50.2411 -10.1754,50.2846 C -10.3579,50.1601 -10.6172,50.0501 -10.8475,50.0936 C -11.2314,50.1661 -11.4617,50.2097 -11.4617,50.2097 C -11.6152,50.2387 -11.802,50.5125 -11.9597,50.9398 L -11.8437,51.554"/>
    <path style="fill: none; fill-opacity:0; stroke-width: 0.3; stroke-linecap: round; stroke: #00c000" d="M -12.5908 52.6493 L -12.5739,51.0559 C -12.4596,50.3983 -12.3019,49.9709 -12.1919,49.7116 C -11.9906,49.5145 -11.6067,49.442 -10.9636,49.4795 C -10.503,49.3924 -10.1524,49.5647 -9.92634,49.9195 C -9.65252,50.1063 -9.57998,50.4901 -9.69422,51.1478 L -9.57816,51.7619 L -7.37068,51.6628 L -7.50366,52.642 L -12.5908,52.6493"/>
    <path style="fill: none; fill-opacity:0; stroke-width: 0.3; stroke-linecap: round; stroke: #00c000" d="M -10.9962 46.7824 C -10.9092,47.243 -10.6209,47.5065 -10.208,47.5875 C -9.93421,47.7743 -9.58362,47.9466 -9.17077,48.0275 C -8.71018,47.9405 -8.32634,47.868 -7.94251,47.7954 C -7.74123,47.5984 -7.72249,47.2768 -7.80954,46.8162 C -7.68502,46.6337 -7.72854,46.4034 -7.9256,46.2021 C -8.38196,45.8908 -8.80932,45.733 -9.26991,45.8201 C -9.68276,45.7391 -9.98982,45.7971 -10.1911,45.9942 C -10.5314,46.297 -10.795,46.5853 -10.9962,46.7824 L -10.9962,46.7824"/>
    <path style="fill: none; fill-opacity:0; stroke-width: 0.3; stroke-linecap: round; stroke: #00c000" d="M -11.3033 46.8404 C -11.1455,46.413 -10.8965,46.048 -10.5562,45.7451 C -10.3984,45.3178 -10.0291,45.1685 -9.38597,45.2059 C -8.77184,45.0899 -8.26772,45.2331 -8.04165,45.5879 C -7.57078,45.976 -7.42148,46.3453 -7.50247,46.7582 C -7.38641,47.3723 -7.52967,47.8764 -7.88448,48.1025 C -8.22479,48.4053 -8.74765,48.5836 -9.36178,48.6997 C -10.0049,48.6622 -10.4323,48.5045 -10.7061,48.3177 C -10.9322,47.9629 -11.1873,47.4545 -11.3033,46.8404 L -11.3033,46.8404"/>
    <path style="fill: none; fill-opacity:0; stroke-width: 0.3; stroke-linecap: round; stroke: #00c000" d="M -11.2012 44.4359 L -11.0102,43.7637 L -8.36263,42.6273 L -10.9932,42.1703 L -11.1093,41.5562 L -8.46177,40.4198 L -11.0924,39.9629 L -11.2084,39.3487 L -7.23351,40.1877 L -7.42452,40.8599 L -10.4371,41.7472 L -7.44144,42.4532 L -7.26735,43.3744 L -11.2012,44.4359"/>
    <path style="fill: none; fill-opacity:0; stroke-width: 0.3; stroke-linecap: round; stroke: #00c000" d="M -9.69308 35.1665 L -9.38601,35.1084 L -9.17082,37.9301 C -8.55669,37.814 -8.1106,37.6502 -8.00058,37.3909 C -7.7993,37.1938 -7.78056,36.8723 -7.86761,36.4117 C -7.74309,36.2291 -7.78661,35.9988 -7.98367,35.7975 C -8.01268,35.644 -8.0562,35.4137 -8.09973,35.1834 L -7.79266,35.1254 C -7.59561,35.3267 -7.39855,35.5279 -7.36954,35.6815 C -7.32601,35.9118 -7.43603,36.1711 -7.56054,36.3536 C -7.44448,36.9678 -7.57323,37.5486 -7.88453,38.005 C -8.22484,38.3078 -8.74769,38.4862 -9.36182,38.6022 C -10.005,38.5647 -10.4468,38.3302 -10.7642,37.9131 C -10.9902,37.5583 -11.2163,37.2035 -11.3034,36.7429 C -11.1891,36.0853 -10.9546,35.6434 -10.6143,35.3406 C -10.413,35.1435 -10.1059,35.0855 -9.69308,35.1665 L -9.69308,35.1665"/>
    <path style="fill: none; fill-opacity:0; stroke-width: 0.3; stroke-linecap: round; stroke: #00c000" d="M -9.57702 35.7806 C -9.98987,35.6996 -10.2969,35.7576 -10.4982,35.9547 C -10.6517,35.9837 -10.8385,36.2575 -10.9963,36.6849 C -10.9528,36.9152 -10.7412,37.1932 -10.5151,37.5481 C -10.2413,37.7348 -9.89073,37.9071 -9.47788,37.9881 L -9.57702,35.7806"/>
    <path style="fill: none; fill-opacity:0; stroke-width: 0.3; stroke-linecap: round; stroke: #00c000" d="M -10.4372 31.6497 C -10.4372,31.6497 -10.4082,31.8033 -10.3792,31.9568 C -10.5327,31.9858 -10.763,32.0293 -10.9933,32.0729 C -10.9062,32.5335 -10.6179,32.797 -10.2051,32.878 C -9.93124,33.0648 -9.58066,33.237 -9.16781,33.318 L -7.26739,33.2769 L -7.4584,33.9491 L -11.2592,34.0313 L -11.0682,33.3592 L -10.4541,33.2431 C -10.6366,33.1186 -10.8337,32.9173 -10.8772,32.687 C -11.0598,32.5625 -11.1033,32.3322 -10.9933,32.0729 C -11.0223,31.9193 -11.0513,31.7658 -11.0513,31.7658 L -10.4372,31.6497"/>
    <path style="fill: none; fill-opacity:0; stroke-width: 0.3; stroke-linecap: round; stroke: #00c000" d="M -12.0354 24.8756 L -11.0562,25.0086 C -11.6703,25.1246 -11.9484,25.3362 -11.9193,25.4897 C -12.0294,25.749 -12.1249,26.0851 -12.0523,26.4689 C -12.1188,26.9585 -11.955,27.4046 -11.4551,27.9462 C -10.9075,28.3198 -10.4179,28.3863 -9.80372,28.2702 C -9.14607,28.3844 -8.60871,28.2829 -8.2684,27.9801 C -7.88034,27.5092 -7.72258,27.0818 -7.57932,26.5777 C -7.65186,26.1939 -7.86342,25.9158 -8.06047,25.7145 C -8.08949,25.561 -8.14752,25.254 -8.23456,24.7934 L -7.5624,24.9844 C -7.51888,25.2147 -7.47536,25.445 -7.44634,25.5985 C -7.40282,25.8288 -7.34479,26.1359 -7.27226,26.5197 C -7.3865,27.1773 -7.59201,27.7727 -7.9033,28.2291 C -8.43039,28.8058 -9.10678,29.0131 -9.99473,28.9424 C -10.7624,29.0874 -11.4346,28.8964 -12.0112,28.3693 C -12.5111,27.8278 -12.7039,27.2281 -12.6664,26.585 C -12.739,26.2012 -12.6435,25.8651 -12.5335,25.6058 C -12.5625,25.4522 -12.3757,25.1784 -12.0354,24.8756 L -12.0354,24.8756"/>
    <path style="fill: none; fill-opacity:0; stroke-width: 0.3; stroke-linecap: round; stroke: #00c000" d="M -9.39997 21.9923 C -9.28391,22.6064 -9.04334,23.038 -8.86079,23.1625 C -8.81727,23.3928 -8.64923,23.4406 -8.49569,23.4116 C -8.2654,23.368 -8.0351,23.3245 -7.88156,23.2955 C -7.68028,23.0984 -7.64704,22.8536 -7.69056,22.6233 C -7.7631,22.2395 -7.89789,21.947 -8.17171,21.7602 C -8.39778,21.4054 -8.74837,21.2331 -9.20896,21.3201 L -9.39997,21.9923"/>
    <path style="fill: none; fill-opacity:0; stroke-width: 0.3; stroke-linecap: round; stroke: #00c000" d="M -9.57406 21.0711 L -7.36658,20.972 L -7.30855,21.279 L -7.92268,21.3951 C -7.72562,21.5964 -7.52857,21.7977 -7.49955,21.9512 C -7.45603,22.1815 -7.41251,22.4118 -7.38349,22.5653 C -7.26743,23.1794 -7.33392,23.6691 -7.45844,23.8516 C -7.79875,24.1544 -8.10582,24.2125 -8.37964,24.0257 C -8.99377,24.1417 -9.31534,24.123 -9.35886,23.8927 C -9.58493,23.5379 -9.84001,23.0295 -9.95607,22.4154 L -9.82309,21.4362 L -9.88112,21.1291 C -10.0347,21.1581 -10.2359,21.3552 -10.4372,21.5523 C -10.7775,21.8551 -10.9498,22.2057 -10.8773,22.5895 C -10.8337,22.8198 -10.6367,23.0211 -10.4541,23.1456 C -10.4106,23.3759 -10.4439,23.6207 -10.6451,23.8178 L -10.9522,23.8758 C -10.9812,23.7223 -11.0248,23.492 -11.0683,23.2617 C -11.1408,22.8778 -11.1843,22.6475 -11.1843,22.6475 C -11.0701,21.9899 -10.9123,21.5625 -10.8023,21.3032 C -10.601,21.1062 -10.2172,21.0336 -9.57406,21.0711 L -9.57406,21.0711"/>
    <path style="fill: none; fill-opacity:0; stroke-width: 0.3; stroke-linecap: round; stroke: #00c000" d="M -7.8973 19.0051 L -5.68981,18.9059 L -5.88082,19.5781 L -11.275,19.6434 L -11.084,18.9712 L -10.4699,18.8552 C -10.6524,18.7306 -10.8495,18.5294 -10.893,18.2991 C -11.0755,18.1745 -11.1191,17.9442 -11.0091,17.6849 C -11.0816,17.3011 -10.9093,16.9505 -10.569,16.6477 C -10.4113,16.2203 -10.0419,16.071 -9.39879,16.1085 C -8.78466,15.9924 -8.28054,16.1357 -8.05447,16.4905 C -7.58359,16.8786 -7.28076,17.2189 -7.20822,17.6027 C -7.395,17.8765 -7.58177,18.1503 -7.70629,18.3329 C -7.66277,18.5632 -7.69601,18.808 -7.8973,19.0051 L -7.8973,19.0051"/>
    <path style="fill: none; fill-opacity:0; stroke-width: 0.3; stroke-linecap: round; stroke: #00c000" d="M -9.28273 16.7226 C -9.69557,16.6416 -10.0026,16.6997 -10.2039,16.8967 C -10.5442,17.1995 -10.7933,17.5646 -10.951,17.992 C -10.9075,18.2223 -10.6337,18.4091 -10.2208,18.4901 C -9.94702,18.6768 -9.59643,18.8491 -9.18359,18.9301 C -8.72299,18.8431 -8.33916,18.7705 -7.95533,18.698 C -7.75404,18.5009 -7.7208,18.2561 -7.76432,18.0258 C -7.68333,17.613 -7.74135,17.3059 -7.93841,17.1046 C -8.39478,16.7933 -8.82213,16.6356 -9.28273,16.7226 L -9.28273,16.7226"/>
    <path style="fill: none; fill-opacity:0; stroke-width: 0.3; stroke-linecap: round; stroke: #00c000" d="M -9.47496 13.1811 C -9.3589,13.7952 -9.11833,14.2268 -8.93578,14.3513 C -8.89226,14.5816 -8.72422,14.6294 -8.57068,14.6004 C -8.34039,14.5568 -8.11009,14.5133 -7.95655,14.4843 C -7.75527,14.2873 -7.72203,14.0424 -7.76555,13.8121 C -7.83808,13.4283 -7.97288,13.1358 -8.2467,12.949 C -8.47277,12.5942 -8.82336,12.4219 -9.28395,12.5089 L -9.47496,13.1811"/>
    <path style="fill: none; fill-opacity:0; stroke-width: 0.3; stroke-linecap: round; stroke: #00c000" d="M -9.64905 12.2599 L -7.44156,12.1608 L -7.38354,12.4678 L -7.99767,12.5839 C -7.80061,12.7852 -7.60356,12.9865 -7.57454,13.14 C -7.53102,13.3703 -7.4875,13.6006 -7.45848,13.7541 C -7.34242,14.3682 -7.40891,14.8579 -7.53343,15.0404 C -7.87374,15.3432 -8.1808,15.4013 -8.45463,15.2145 C -9.06875,15.3306 -9.39033,15.3118 -9.43385,15.0815 C -9.65992,14.7267 -9.915,14.2184 -10.0311,13.6042 L -9.89808,12.625 L -9.95611,12.3179 C -10.1096,12.3469 -10.3109,12.544 -10.5122,12.7411 C -10.8525,13.0439 -11.0248,13.3945 -10.9523,13.7783 C -10.9087,14.0086 -10.7117,14.2099 -10.5291,14.3344 C -10.4856,14.5647 -10.5189,14.8095 -10.7201,15.0066 L -11.0272,15.0646 C -11.0562,14.9111 -11.0997,14.6808 -11.1433,14.4505 C -11.2158,14.0666 -11.2593,13.8363 -11.2593,13.8363 C -11.1451,13.1787 -10.9873,12.7513 -10.8773,12.492 C -10.676,12.295 -10.2922,12.2224 -9.64905,12.2599 L -9.64905,12.2599"/>
    <path style="fill: none; fill-opacity:0; stroke-width: 0.3; stroke-linecap: round; stroke: #00c000" d="M -11.1814 7.93803 L -10.5672,7.82197 C -10.5237,8.05227 -10.4802,8.28257 -10.4512,8.4361 C -10.5612,8.69541 -10.748,8.96923 -10.9493,9.16629 C -10.9057,9.39659 -10.6174,9.66013 -10.161,9.97142 C -9.88721,10.1582 -9.53663,10.3305 -9.12378,10.4115 C -8.66318,10.3244 -8.29386,10.1751 -7.95355,9.87228 C -7.75227,9.67523 -7.71902,9.43042 -7.76254,9.20012 C -7.63803,9.01758 -7.68155,8.78728 -7.8786,8.58599 C -7.90762,8.43246 -7.95114,8.20216 -7.99466,7.97186 L -7.38053,7.85581 C -7.33701,8.0861 -7.29349,8.3164 -7.26447,8.46994 C -7.22095,8.70023 -7.33096,8.95955 -7.45548,9.1421 C -7.36844,9.60269 -7.5262,10.03 -7.83749,10.4864 C -8.1778,10.7892 -8.70066,10.9676 -9.31479,11.0836 C -9.95793,11.0462 -10.3998,10.8116 -10.7171,10.3945 C -10.9432,10.0397 -11.1693,9.68491 -11.2563,9.22432 C -11.055,9.02726 -11.0218,8.78246 -11.0653,8.55216 C -11.0943,8.39863 -11.1378,8.16833 -11.1814,7.93803 L -11.1814,7.93803"/>
    <path style="fill: none; fill-opacity:0; stroke-width: 0.3; stroke-linecap: round; stroke: #00c000" d="M -11.2932 6.92556 L -11.1022,6.2534 L -7.30135,6.17118 L -7.49236,6.84334 L -11.2932,6.92556"/>
    <path style="fill: none; fill-opacity:0; stroke-width: 0.3; stroke-linecap: round; stroke: #00c000" d="M -12.8866 6.90864 L -12.6955,6.23648 L -11.7744,6.06239 L -11.9654,6.73455 L -12.8866,6.90864"/>
    <path style="fill: none; fill-opacity:0; stroke-width: 0.3; stroke-linecap: round; stroke: #00c000" d="M -12.3528 4.26353 L -11.0665,4.33847 L -10.9916,3.05219 L -10.6845,2.99416 L -10.7595,4.28045 L -8.55199,4.18131 C -8.04787,4.32456 -7.87983,4.37231 -7.87983,4.37231 C -7.90884,4.21878 -7.95237,3.98848 -7.99589,3.75818 L -7.80488,3.08602 L -7.19075,2.96996 L -7.38176,3.64212 C -7.29471,4.10272 -7.39022,4.4388 -7.51474,4.62135 C -7.85504,4.92418 -8.23888,4.99672 -8.74299,4.85346 L -10.9505,4.9526 L -10.8924,5.25967 L -11.1995,5.3177 L -11.2575,5.01063 L -12.5438,4.93569 L -12.3528,4.26353"/>
    <path style="fill: none; fill-opacity:0; stroke-width: 0.3; stroke-linecap: round; stroke: #00c000" d="M -7.17988 0.503167 C -6.70901,0.891228 -6.34391,1.14026 -6.0846,1.25027 C -5.93107,1.22126 -5.73401,1.42254 -5.66148,1.80637 L -5.91051,2.17147 L -6.52464,2.28753 L -6.27561,1.92243 C -6.30462,1.7689 -6.50167,1.56762 -6.69873,1.36633 C -6.72774,1.2128 -6.91029,1.08828 -7.06382,1.1173 L -7.42892,0.868261 L -11.2467,2.54384 L -11.0557,1.87168 L -8.46617,0.428219 L -11.1548,-0.335805 L -11.2709,-0.949935 L -7.17988,0.503167"/>
  </g>
  <g>
    <path style="fill: none; fill-opacity:0; stroke-width: 0.3; stroke-linecap: round; stroke: #c00000" d="M 0.9373 -10.9847 L 0.9373,-9.10968 L 1.5623,-9.10968 C 1.95292,-9.10968 2.26542,-9.1878 2.4998,-9.42218 C 2.65605,-9.57843 2.8123,-9.89093 2.8123,-10.3597 C 2.8123,-10.5159 2.65605,-10.6722 2.4998,-10.6722 C 2.26542,-10.8284 1.95292,-10.9847 1.5623,-10.9847 L 0.9373,-10.9847"/>
    <path style="fill: none; fill-opacity:0; stroke-width: 0.3; stroke-linecap: round; stroke: #c00000" d="M -0.0002 -11.9222 L 1.5623,-11.9222 C 2.1873,-11.9222 2.57792,-11.6878 2.8123,-11.2972 C 3.20292,-11.0628 3.4373,-10.7503 3.4373,-10.3597 C 3.4373,-9.73468 3.20292,-9.26593 2.8123,-9.10968 C 2.57792,-8.8753 2.1873,-8.79718 1.5623,-8.79718 L 0.9373,-8.79718 L 0.9373,-6.60968 L -0.0002,-6.60968 L -0.0002,-11.9222"/>
    <path style="fill: none; fill-opacity:0; stroke-width: 0.3; stroke-linecap: round; stroke: #c00000" d="M 7.65605 -8.79718 L 7.65605,-8.48468 L 4.84355,-8.48468 C 4.84355,-8.01593 4.92167,-7.6253 5.15605,-7.23468 C 5.3123,-7.0003 5.6248,-6.92218 6.09355,-6.92218 C 6.2498,-6.92218 6.48417,-6.92218 6.71855,-6.92218 C 6.8748,-7.07843 7.10917,-7.23468 7.34355,-7.23468 L 7.34355,-6.92218 C 7.10917,-6.6878 6.8748,-6.60968 6.71855,-6.60968 C 6.48417,-6.60968 6.2498,-6.60968 6.09355,-6.60968 C 5.46855,-6.60968 4.92167,-6.6878 4.53105,-6.92218 C 4.0623,-7.3128 3.90605,-7.85968 3.90605,-8.48468 C 3.90605,-9.10968 4.0623,-9.57843 4.53105,-10.0472 C 4.92167,-10.4378 5.3123,-10.6722 5.78105,-10.6722 C 6.40605,-10.6722 6.79667,-10.4378 7.03105,-10.0472 C 7.42167,-9.8128 7.65605,-9.42218 7.65605,-8.79718 L 7.65605,-8.79718"/>
    <path style="fill: none; fill-opacity:0; stroke-width: 0.3; stroke-linecap: round; stroke: #c00000" d="M 7.03105 -8.79718 C 7.03105,-9.1878 6.8748,-9.5003 6.71855,-9.73468 C 6.48417,-9.89093 6.17167,-10.0472 5.78105,-10.0472 C 5.54667,-10.0472 5.3123,-9.89093 5.15605,-9.73468 C 4.92167,-9.5003 4.84355,-9.1878 4.84355,-8.79718 L 7.03105,-8.79718"/>
    <path style="fill: none; fill-opacity:0; stroke-width: 0.3; stroke-linecap: round; stroke: #c00000" d="M 10.4685 -8.48468 C 9.84355,-8.48468 9.3748,-8.32843 9.21855,-8.17218 C 9.21855,-8.17218 9.21855,-8.01593 9.21855,-7.85968 C 9.21855,-7.6253 9.21855,-7.39093 9.21855,-7.23468 C 9.3748,-7.0003 9.60917,-6.92218 9.84355,-6.92218 C 10.2342,-6.92218 10.5467,-7.0003 10.781,-7.23468 C 10.9373,-7.6253 11.0935,-8.01593 11.0935,-8.48468 L 10.4685,-8.48468"/>
    <path style="fill: none; fill-opacity:0; stroke-width: 0.3; stroke-linecap: round; stroke: #c00000" d="M 11.7185 -8.79718 L 11.7185,-6.60968 L 11.0935,-6.60968 L 11.0935,-7.23468 C 10.8592,-7.0003 10.6248,-6.76593 10.4685,-6.60968 C 10.2342,-6.60968 9.9998,-6.60968 9.84355,-6.60968 C 9.3748,-6.60968 8.98417,-6.6878 8.59355,-6.92218 C 8.35917,-7.07843 8.28105,-7.39093 8.28105,-7.85968 C 8.28105,-8.2503 8.35917,-8.5628 8.59355,-8.79718 C 8.98417,-8.95343 9.53105,-9.10968 10.156,-9.10968 L 11.0935,-9.10968 C 11.0935,-9.5003 10.9373,-9.73468 10.781,-9.73468 C 10.5467,-9.89093 10.2342,-10.0472 9.84355,-10.0472 C 9.60917,-10.0472 9.3748,-10.0472 9.21855,-10.0472 C 8.98417,-10.0472 8.7498,-9.89093 8.59355,-9.73468 L 8.59355,-10.3597 C 8.98417,-10.3597 9.29667,-10.3597 9.53105,-10.3597 C 9.6873,-10.5159 9.84355,-10.6722 9.84355,-10.6722 C 10.4685,-10.6722 10.8592,-10.4378 11.0935,-10.0472 C 11.4842,-9.8128 11.7185,-9.42218 11.7185,-8.79718 L 11.7185,-8.79718"/>
    <path style="fill: none; fill-opacity:0; stroke-width: 0.3; stroke-linecap: round; stroke: #c00000" d="M 12.8904 -11.9222 L 13.5154,-11.9222 L 13.5154,-8.79718 L 15.3904,-10.3597 L 16.3279,-10.3597 L 14.1404,-8.79718 L 16.3279,-6.60968 L 15.3904,-6.60968 L 13.5154,-8.48468 L 13.5154,-6.60968 L 12.8904,-6.60968 L 12.8904,-11.9222"/>
    <path style="fill: none; fill-opacity:0; stroke-width: 0.3; stroke-linecap: round; stroke: #c00000" d="M 19.2185 -11.9222 L 22.656,-11.9222 L 22.656,-10.9847 L 20.156,-10.9847 L 20.156,-9.73468 L 22.3435,-9.73468 L 22.3435,-9.10968 L 20.156,-9.10968 L 20.156,-7.23468 L 22.656,-7.23468 L 22.656,-6.60968 L 19.2185,-6.60968 L 19.2185,-11.9222"/>
    <path style="fill: none; fill-opacity:0; stroke-width: 0.3; stroke-linecap: round; stroke: #c00000" d="M 26.7967 -8.79718 L 26.7967,-6.60968 L 26.1717,-6.60968 L 26.1717,-8.79718 C 26.1717,-9.1878 26.0154,-9.5003 25.8592,-9.73468 C 25.8592,-9.89093 25.7029,-10.0472 25.5467,-10.0472 C 25.0779,-10.0472 24.7654,-9.89093 24.6092,-9.73468 C 24.3748,-9.5003 24.2967,-9.1878 24.2967,-8.79718 L 24.2967,-6.60968 L 23.6717,-6.60968 L 23.6717,-10.3597 L 24.2967,-10.3597 L 24.2967,-10.0472 C 24.4529,-10.2034 24.6873,-10.3597 24.9217,-10.3597 C 25.0779,-10.5159 25.3123,-10.6722 25.5467,-10.6722 C 25.9373,-10.6722 26.2498,-10.4378 26.4842,-10.0472 C 26.6404,-9.8128 26.7967,-9.42218 26.7967,-8.79718 L 26.7967,-8.79718"/>
    <path style="fill: none; fill-opacity:0; stroke-width: 0.3; stroke-linecap: round; stroke: #c00000" d="M 31.6404 -8.79718 L 31.6404,-8.48468 L 28.8279,-8.48468 C 28.8279,-8.01593 28.906,-7.6253 29.1404,-7.23468 C 29.2967,-7.0003 29.6092,-6.92218 30.0779,-6.92218 C 30.2342,-6.92218 30.4685,-6.92218 30.7029,-6.92218 C 30.8592,-7.07843 31.0935,-7.23468 31.3279,-7.23468 L 31.3279,-6.92218 C 31.0935,-6.6878 30.8592,-6.60968 30.7029,-6.60968 C 30.4685,-6.60968 30.2342,-6.60968 30.0779,-6.60968 C 29.4529,-6.60968 28.906,-6.6878 28.5154,-6.92218 C 28.0467,-7.3128 27.8904,-7.85968 27.8904,-8.48468 C 27.8904,-9.10968 28.0467,-9.57843 28.5154,-10.0472 C 28.906,-10.4378 29.2967,-10.6722 29.7654,-10.6722 C 30.3904,-10.6722 30.781,-10.4378 31.0154,-10.0472 C 31.406,-9.8128 31.6404,-9.42218 31.6404,-8.79718 L 31.6404,-8.79718"/>
    <path style="fill: none; fill-opacity:0; stroke-width: 0.3; stroke-linecap: round; stroke: #c00000" d="M 31.0154 -8.79718 C 31.0154,-9.1878 30.8592,-9.5003 30.7029,-9.73468 C 30.4685,-9.89093 30.156,-10.0472 29.7654,-10.0472 C 29.531,-10.0472 29.2967,-9.89093 29.1404,-9.73468 C 28.906,-9.5003 28.8279,-9.1878 28.8279,-8.79718 L 31.0154,-8.79718"/>
    <path style="fill: none; fill-opacity:0; stroke-width: 0.3; stroke-linecap: round; stroke: #c00000" d="M 34.6873 -10.0472 C 34.6873,-10.0472 34.531,-10.0472 34.3748,-10.0472 C 33.906,-10.0472 33.5935,-9.8128 33.4373,-9.42218 C 33.2029,-9.1878 33.1248,-8.8753 33.1248,-8.48468 L 33.1248,-6.60968 L 32.4998,-6.60968 L 32.4998,-10.3597 L 33.1248,-10.3597 L 33.1248,-10.0472 C 33.281,-10.2034 33.5154,-10.3597 33.7498,-10.3597 C 33.906,-10.5159 34.1404,-10.6722 34.3748,-10.6722 C 34.531,-10.6722 34.6873,-10.6722 34.6873,-10.6722 L 34.6873,-10.0472"/>
    <path style="fill: none; fill-opacity:0; stroke-width: 0.3; stroke-linecap: round; stroke: #c00000" d="M 37.8904 -8.48468 C 37.8904,-8.8753 37.7342,-9.1878 37.5779,-9.42218 C 37.3435,-9.8128 37.1092,-10.0472 36.9529,-10.0472 C 36.4842,-10.0472 36.1717,-9.8128 36.0154,-9.42218 C 35.781,-9.1878 35.7029,-8.8753 35.7029,-8.48468 C 35.7029,-8.01593 35.781,-7.70343 36.0154,-7.54718 C 36.1717,-7.3128 36.4842,-7.23468 36.9529,-7.23468 C 37.1092,-7.23468 37.3435,-7.3128 37.5779,-7.54718 C 37.7342,-7.70343 37.8904,-8.01593 37.8904,-8.48468 L 37.8904,-8.48468"/>
    <path style="fill: none; fill-opacity:0; stroke-width: 0.3; stroke-linecap: round; stroke: #c00000" d="M 38.5154 -6.92218 C 38.5154,-6.29718 38.3592,-5.90655 38.2029,-5.67218 C 37.9685,-5.28155 37.5779,-5.04718 36.9529,-5.04718 C 36.7185,-5.04718 36.4842,-5.20343 36.3279,-5.35968 C 36.0935,-5.35968 35.8592,-5.35968 35.7029,-5.35968 L 35.7029,-5.98468 C 35.8592,-5.98468 36.0154,-5.98468 36.0154,-5.98468 C 36.1717,-5.82843 36.406,-5.67218 36.6404,-5.67218 C 37.031,-5.67218 37.3435,-5.82843 37.5779,-5.98468 C 37.7342,-6.21905 37.8904,-6.53155 37.8904,-6.92218 L 37.8904,-7.23468 C 37.8904,-7.0003 37.7342,-6.76593 37.5779,-6.60968 C 37.3435,-6.60968 37.031,-6.60968 36.6404,-6.60968 C 36.1717,-6.60968 35.781,-6.76593 35.3904,-7.23468 C 35.156,-7.6253 35.0779,-8.01593 35.0779,-8.48468 C 35.0779,-9.10968 35.156,-9.57843 35.3904,-10.0472 C 35.781,-10.4378 36.1717,-10.6722 36.6404,-10.6722 C 37.031,-10.6722 37.3435,-10.5159 37.5779,-10.3597 C 37.7342,-10.3597 37.8904,-10.2034 37.8904,-10.0472 L 37.8904,-10.3597 L 38.5154,-10.3597 L 38.5154,-6.92218"/>
    <path style="fill: none; fill-opacity:0; stroke-width: 0.3; stroke-linecap: round; stroke: #c00000" d="M 41.4842 -6.29718 C 41.2498,-5.67218 41.0154,-5.35968 40.8592,-5.35968 C 40.8592,-5.20343 40.7029,-5.04718 40.5467,-5.04718 L 39.9217,-5.04718 L 39.9217,-5.67218 L 40.2342,-5.67218 C 40.3904,-5.67218 40.5467,-5.82843 40.5467,-5.98468 C 40.7029,-5.98468 40.8592,-6.14093 40.8592,-6.29718 L 41.1717,-6.60968 L 39.6092,-10.3597 L 40.2342,-10.3597 L 41.4842,-7.54718 L 42.7342,-10.3597 L 43.3592,-10.3597 L 41.4842,-6.29718"/>
    <path style="fill: none; fill-opacity:0; stroke-width: 0.3; stroke-linecap: round; stroke: #c00000" d="M 50.0779 -11.2972 L 50.0779,-10.6722 C 49.8435,-10.8284 49.6092,-10.9847 49.4529,-10.9847 C 49.2185,-11.1409 48.9842,-11.2972 48.8279,-11.2972 C 48.2029,-11.2972 47.656,-11.0628 47.2654,-10.6722 C 47.031,-10.4378 46.9529,-9.89093 46.9529,-9.10968 C 46.9529,-8.48468 47.031,-7.9378 47.2654,-7.54718 C 47.656,-7.07843 48.2029,-6.92218 48.8279,-6.92218 C 48.9842,-6.92218 49.2185,-6.92218 49.4529,-6.92218 C 49.6092,-7.07843 49.8435,-7.39093 50.0779,-7.85968 L 50.0779,-6.92218 C 49.8435,-6.6878 49.6092,-6.60968 49.4529,-6.60968 C 49.2185,-6.60968 48.906,-6.60968 48.5154,-6.60968 C 47.8904,-6.60968 47.2654,-6.76593 46.6404,-7.23468 C 46.1717,-7.6253 46.0154,-8.2503 46.0154,-9.10968 C 46.0154,-9.89093 46.1717,-10.5159 46.6404,-10.9847 C 47.2654,-11.6097 47.8904,-11.9222 48.5154,-11.9222 C 48.906,-11.9222 49.2185,-11.7659 49.4529,-11.6097 C 49.6092,-11.6097 49.8435,-11.4534 50.0779,-11.2972 L 50.0779,-11.2972"/>
    <path style="fill: none; fill-opacity:0; stroke-width: 0.3; stroke-linecap: round; stroke: #c00000" d="M 53.1248 -8.48468 C 52.4998,-8.48468 52.031,-8.32843 51.8748,-8.17218 C 51.8748,-8.17218 51.8748,-8.01593 51.8748,-7.85968 C 51.8748,-7.6253 51.8748,-7.39093 51.8748,-7.23468 C 52.031,-7.0003 52.2654,-6.92218 52.4998,-6.92218 C 52.8904,-6.92218 53.2029,-7.0003 53.4373,-7.23468 C 53.5935,-7.6253 53.7498,-8.01593 53.7498,-8.48468 L 53.1248,-8.48468"/>
    <path style="fill: none; fill-opacity:0; stroke-width: 0.3; stroke-linecap: round; stroke: #c00000" d="M 54.3748 -8.79718 L 54.3748,-6.60968 L 53.7498,-6.60968 L 53.7498,-7.23468 C 53.5154,-7.0003 53.281,-6.76593 53.1248,-6.60968 C 52.8904,-6.60968 52.656,-6.60968 52.4998,-6.60968 C 52.031,-6.60968 51.6404,-6.6878 51.2498,-6.92218 C 51.0154,-7.07843 50.9373,-7.39093 50.9373,-7.85968 C 50.9373,-8.2503 51.0154,-8.5628 51.2498,-8.79718 C 51.6404,-8.95343 52.1873,-9.10968 52.8123,-9.10968 L 53.7498,-9.10968 C 53.7498,-9.5003 53.5935,-9.73468 53.4373,-9.73468 C 53.2029,-9.89093 52.8904,-10.0472 52.4998,-10.0472 C 52.2654,-10.0472 52.031,-10.0472 51.8748,-10.0472 C 51.6404,-10.0472 51.406,-9.89093 51.2498,-9.73468 L 51.2498,-10.3597 C 51.6404,-10.3597 51.9529,-10.3597 52.1873,-10.3597 C 52.3435,-10.5159 52.4998,-10.6722 52.4998,-10.6722 C 53.1248,-10.6722 53.5154,-10.4378 53.7498,-10.0472 C 54.1404,-9.8128 54.3748,-9.42218 54.3748,-8.79718 L 54.3748,-8.79718"/>
    <path style="fill: none; fill-opacity:0; stroke-width: 0.3; stroke-linecap: round; stroke: #c00000" d="M 56.1717 -7.23468 L 56.1717,-5.04718 L 55.5467,-5.04718 L 55.5467,-10.3597 L 56.1717,-10.3597 L 56.1717,-10.0472 C 56.3279,-10.2034 56.5623,-10.3597 56.7967,-10.3597 C 56.9529,-10.5159 57.1873,-10.6722 57.4217,-10.6722 C 57.8123,-10.6722 58.1248,-10.4378 58.3592,-10.0472 C 58.7498,-9.57843 58.9842,-9.10968 58.9842,-8.48468 C 58.9842,-7.85968 58.7498,-7.3128 58.3592,-6.92218 C 58.1248,-6.6878 57.8123,-6.60968 57.4217,-6.60968 C 57.1873,-6.60968 56.9529,-6.60968 56.7967,-6.60968 C 56.5623,-6.76593 56.3279,-7.0003 56.1717,-7.23468 L 56.1717,-7.23468"/>
    <path style="fill: none; fill-opacity:0; stroke-width: 0.3; stroke-linecap: round; stroke: #c00000" d="M 58.3592 -8.48468 C 58.3592,-8.8753 58.2029,-9.1878 58.0467,-9.42218 C 57.8123,-9.8128 57.4998,-10.0472 57.1092,-10.0472 C 56.8748,-10.0472 56.6404,-9.8128 56.4842,-9.42218 C 56.2498,-9.1878 56.1717,-8.8753 56.1717,-8.48468 C 56.1717,-8.01593 56.2498,-7.6253 56.4842,-7.23468 C 56.6404,-7.0003 56.8748,-6.92218 57.1092,-6.92218 C 57.4998,-6.92218 57.8123,-7.0003 58.0467,-7.23468 C 58.2029,-7.6253 58.3592,-8.01593 58.3592,-8.48468 L 58.3592,-8.48468"/>
    <path style="fill: none; fill-opacity:0; stroke-width: 0.3; stroke-linecap: round; stroke: #c00000" d="M 61.9529 -8.48468 C 61.3279,-8.48468 60.8592,-8.32843 60.7029,-8.17218 C 60.7029,-8.17218 60.7029,-8.01593 60.7029,-7.85968 C 60.7029,-7.6253 60.7029,-7.39093 60.7029,-7.23468 C 60.8592,-7.0003 61.0935,-6.92218 61.3279,-6.92218 C 61.7185,-6.92218 62.031,-7.0003 62.2654,-7.23468 C 62.4217,-7.6253 62.5779,-8.01593 62.5779,-8.48468 L 61.9529,-8.48468"/>
    <path style="fill: none; fill-opacity:0; stroke-width: 0.3; stroke-linecap: round; stroke: #c00000" d="M 63.2029 -8.79718 L 63.2029,-6.60968 L 62.5779,-6.60968 L 62.5779,-7.23468 C 62.3435,-7.0003 62.1092,-6.76593 61.9529,-6.60968 C 61.7185,-6.60968 61.4842,-6.60968 61.3279,-6.60968 C 60.8592,-6.60968 60.4685,-6.6878 60.0779,-6.92218 C 59.8435,-7.07843 59.7654,-7.39093 59.7654,-7.85968 C 59.7654,-8.2503 59.8435,-8.5628 60.0779,-8.79718 C 60.4685,-8.95343 61.0154,-9.10968 61.6404,-9.10968 L 62.5779,-9.10968 C 62.5779,-9.5003 62.4217,-9.73468 62.2654,-9.73468 C 62.031,-9.89093 61.7185,-10.0472 61.3279,-10.0472 C 61.0935,-10.0472 60.8592,-10.0472 60.7029,-10.0472 C 60.4685,-10.0472 60.2342,-9.89093 60.0779,-9.73468 L 60.0779,-10.3597 C 60.4685,-10.3597 60.781,-10.3597 61.0154,-10.3597 C 61.1717,-10.5159 61.3279,-10.6722 61.3279,-10.6722 C 61.9529,-10.6722 62.3435,-10.4378 62.5779,-10.0472 C 62.9685,-9.8128 63.2029,-9.42218 63.2029,-8.79718 L 63.2029,-8.79718"/>
    <path style="fill: none; fill-opacity:0; stroke-width: 0.3; stroke-linecap: round; stroke: #c00000" d="M 67.1873 -10.3597 L 67.1873,-9.73468 C 66.9529,-9.89093 66.7185,-10.0472 66.5623,-10.0472 C 66.3279,-10.0472 66.0935,-10.0472 65.9373,-10.0472 C 65.7029,-10.0472 65.4685,-9.8128 65.3123,-9.42218 C 65.0779,-9.1878 64.9998,-8.8753 64.9998,-8.48468 C 64.9998,-8.01593 65.0779,-7.6253 65.3123,-7.23468 C 65.4685,-7.0003 65.7029,-6.92218 65.9373,-6.92218 C 66.0935,-6.92218 66.3279,-6.92218 66.5623,-6.92218 C 66.7185,-7.07843 66.9529,-7.23468 67.1873,-7.23468 L 67.1873,-6.60968 C 66.9529,-6.60968 66.7185,-6.60968 66.5623,-6.60968 C 66.3279,-6.60968 66.0935,-6.60968 65.9373,-6.60968 C 65.4685,-6.60968 65.0779,-6.6878 64.6873,-6.92218 C 64.2185,-7.3128 64.0623,-7.85968 64.0623,-8.48468 C 64.0623,-9.10968 64.2185,-9.57843 64.6873,-10.0472 C 65.0779,-10.4378 65.4685,-10.6722 65.9373,-10.6722 C 66.0935,-10.6722 66.3279,-10.5159 66.5623,-10.3597 C 66.7185,-10.3597 66.9529,-10.3597 67.1873,-10.3597 L 67.1873,-10.3597"/>
    <path style="fill: none; fill-opacity:0; stroke-width: 0.3; stroke-linecap: round; stroke: #c00000" d="M 68.281 -10.3597 L 68.906,-10.3597 L 68.906,-6.60968 L 68.281,-6.60968 L 68.281,-10.3597"/>
    <path style="fill: none; fill-opacity:0; stroke-width: 0.3; stroke-linecap: round; stroke: #c00000" d="M 68.281 -11.9222 L 68.906,-11.9222 L 68.906,-10.9847 L 68.281,-10.9847 L 68.281,-11.9222"/>
    <path style="fill: none; fill-opacity:0; stroke-width: 0.3; stroke-linecap: round; stroke: #c00000" d="M 70.8592 -11.6097 L 70.8592,-10.3597 L 72.1092,-10.3597 L 72.1092,-10.0472 L 70.8592,-10.0472 L 70.8592,-7.85968 C 70.8592,-7.39093 70.8592,-7.23468 70.8592,-7.23468 C 71.0154,-7.23468 71.2498,-7.23468 71.4842,-7.23468 L 72.1092,-7.23468 L 72.1092,-6.60968 L 71.4842,-6.60968 C 71.0154,-6.60968 70.7029,-6.6878 70.5467,-6.92218 C 70.3123,-7.07843 70.2342,-7.39093 70.2342,-7.85968 L 70.2342,-10.0472 L 69.9217,-10.0472 L 69.9217,-10.3597 L 70.2342,-10.3597 L 70.2342,-11.6097 L 70.8592,-11.6097"/>
    <path style="fill: none; fill-opacity:0; stroke-width: 0.3; stroke-linecap: round; stroke: #c00000" d="M 74.531 -6.29718 C 74.2967,-5.67218 74.0623,-5.35968 73.906,-5.35968 C 73.906,-5.20343 73.7498,-5.04718 73.5935,-5.04718 L 72.9685,-5.04718 L 72.9685,-5.67218 L 73.281,-5.67218 C 73.4373,-5.67218 73.5935,-5.82843 73.5935,-5.98468 C 73.7498,-5.98468 73.906,-6.14093 73.906,-6.29718 L 74.2185,-6.60968 L 72.656,-10.3597 L 73.281,-10.3597 L 74.531,-7.54718 L 75.781,-10.3597 L 76.406,-10.3597 L 74.531,-6.29718"/>
  </g>
  <g>
    <path style="fill: none; fill-opacity:0; stroke-width: 0.3; stroke-linecap: round; stroke: #c00000" d="M 203.665 194.952 L 205.566,194.911 L 205.45,194.297 C 205.607,193.87 205.564,193.64 205.333,193.683 C 205.151,193.559 204.892,193.449 204.661,193.492 C 204.277,193.565 204.047,193.608 204.047,193.608 C 203.894,193.637 203.707,193.911 203.549,194.338 L 203.665,194.952"/>
    <path style="fill: none; fill-opacity:0; stroke-width: 0.3; stroke-linecap: round; stroke: #c00000" d="M 202.918 196.048 L 202.935,194.454 C 203.049,193.797 203.207,193.369 203.317,193.11 C 203.518,192.913 203.902,192.84 204.545,192.878 C 205.006,192.791 205.356,192.963 205.582,193.318 C 205.856,193.505 205.929,193.889 205.815,194.546 L 205.931,195.16 L 208.138,195.061 L 208.005,196.04 L 202.918,196.048"/>
    <path style="fill: none; fill-opacity:0; stroke-width: 0.3; stroke-linecap: round; stroke: #c00000" d="M 205.816 188.662 L 206.123,188.604 L 206.338,191.426 C 206.952,191.31 207.398,191.146 207.508,190.887 C 207.71,190.69 207.728,190.368 207.641,189.908 C 207.766,189.725 207.722,189.495 207.525,189.294 C 207.496,189.14 207.453,188.91 207.409,188.679 L 207.716,188.621 C 207.913,188.823 208.11,189.024 208.139,189.177 C 208.183,189.408 208.073,189.667 207.948,189.85 C 208.064,190.464 207.936,191.045 207.624,191.501 C 207.284,191.804 206.761,191.982 206.147,192.098 C 205.504,192.061 205.062,191.826 204.745,191.409 C 204.519,191.054 204.293,190.699 204.206,190.239 C 204.32,189.581 204.554,189.139 204.895,188.837 C 205.096,188.639 205.403,188.581 205.816,188.662 L 205.816,188.662"/>
    <path style="fill: none; fill-opacity:0; stroke-width: 0.3; stroke-linecap: round; stroke: #c00000" d="M 205.932 189.277 C 205.519,189.196 205.212,189.254 205.011,189.451 C 204.857,189.48 204.67,189.754 204.513,190.181 C 204.556,190.411 204.768,190.689 204.994,191.044 C 205.268,191.231 205.618,191.403 206.031,191.484 L 205.932,189.277"/>
    <path style="fill: none; fill-opacity:0; stroke-width: 0.3; stroke-linecap: round; stroke: #c00000" d="M 206.032 185.6 C 206.148,186.214 206.389,186.646 206.571,186.771 C 206.615,187.001 206.783,187.049 206.936,187.02 C 207.167,186.976 207.397,186.932 207.551,186.903 C 207.752,186.706 207.785,186.462 207.742,186.231 C 207.669,185.847 207.534,185.555 207.26,185.368 C 207.034,185.013 206.684,184.841 206.223,184.928 L 206.032,185.6"/>
    <path style="fill: none; fill-opacity:0; stroke-width: 0.3; stroke-linecap: round; stroke: #c00000" d="M 205.858 184.679 L 208.066,184.58 L 208.124,184.887 L 207.509,185.003 C 207.707,185.204 207.904,185.406 207.933,185.559 C 207.976,185.789 208.02,186.02 208.049,186.173 C 208.165,186.787 208.098,187.277 207.974,187.46 C 207.633,187.762 207.326,187.82 207.053,187.634 C 206.438,187.75 206.117,187.731 206.073,187.501 C 205.847,187.146 205.592,186.638 205.476,186.023 L 205.609,185.044 L 205.551,184.737 C 205.397,184.766 205.196,184.963 204.995,185.16 C 204.655,185.463 204.482,185.814 204.555,186.197 C 204.598,186.428 204.795,186.629 204.978,186.754 C 205.022,186.984 204.988,187.229 204.787,187.426 L 204.48,187.484 C 204.451,187.33 204.407,187.1 204.364,186.87 C 204.291,186.486 204.248,186.256 204.248,186.256 C 204.362,185.598 204.52,185.171 204.63,184.911 C 204.831,184.714 205.215,184.642 205.858,184.679 L 205.858,184.679"/>
    <path style="fill: none; fill-opacity:0; stroke-width: 0.3; stroke-linecap: round; stroke: #c00000" d="M 202.641 183.22 L 202.832,182.548 L 206.018,182.582 L 204.384,180.664 L 204.268,180.05 L 205.902,181.967 L 208.011,179.661 L 208.185,180.582 L 206.325,182.524 L 208.226,182.482 L 208.035,183.155 L 202.641,183.22"/>
    <path style="fill: none; fill-opacity:0; stroke-width: 0.3; stroke-linecap: round; stroke: #c00000" d="M 203.686 175.708 L 205.586,175.667 L 205.47,175.052 C 205.628,174.625 205.584,174.395 205.354,174.438 C 205.171,174.314 204.912,174.204 204.682,174.247 C 204.298,174.32 204.068,174.363 204.068,174.363 C 203.914,174.392 203.727,174.666 203.57,175.094 L 203.686,175.708"/>
    <path style="fill: none; fill-opacity:0; stroke-width: 0.3; stroke-linecap: round; stroke: #c00000" d="M 202.939 176.803 L 202.955,175.21 C 203.07,174.552 203.227,174.125 203.337,173.865 C 203.539,173.668 203.923,173.596 204.566,173.633 C 205.026,173.546 205.377,173.718 205.603,174.073 C 205.877,174.26 205.949,174.644 205.835,175.302 L 205.951,175.916 L 208.159,175.816 L 208.026,176.796 L 202.939,176.803"/>
    <path style="fill: none; fill-opacity:0; stroke-width: 0.3; stroke-linecap: round; stroke: #c00000" d="M 204.533 170.936 C 204.62,171.397 204.908,171.66 205.321,171.741 C 205.595,171.928 205.946,172.1 206.359,172.181 C 206.819,172.094 207.203,172.022 207.587,171.949 C 207.788,171.752 207.807,171.431 207.72,170.97 C 207.844,170.787 207.801,170.557 207.604,170.356 C 207.147,170.045 206.72,169.887 206.259,169.974 C 205.847,169.893 205.539,169.951 205.338,170.148 C 204.998,170.451 204.734,170.739 204.533,170.936 L 204.533,170.936"/>
    <path style="fill: none; fill-opacity:0; stroke-width: 0.3; stroke-linecap: round; stroke: #c00000" d="M 204.226 170.994 C 204.384,170.567 204.633,170.202 204.973,169.899 C 205.131,169.471 205.5,169.322 206.143,169.36 C 206.757,169.244 207.262,169.387 207.488,169.742 C 207.959,170.13 208.108,170.499 208.027,170.912 C 208.143,171.526 208,172.03 207.645,172.256 C 207.305,172.559 206.782,172.737 206.168,172.853 C 205.524,172.816 205.097,172.658 204.823,172.471 C 204.597,172.117 204.342,171.608 204.226,170.994 L 204.226,170.994"/>
    <path style="fill: none; fill-opacity:0; stroke-width: 0.3; stroke-linecap: round; stroke: #c00000" d="M 204.251 168.604 L 204.442,167.932 L 207.09,166.796 L 204.459,166.339 L 204.343,165.724 L 206.991,164.588 L 204.36,164.131 L 204.244,163.517 L 208.219,164.356 L 208.028,165.028 L 205.015,165.915 L 208.011,166.621 L 208.185,167.543 L 204.251,168.604"/>
    <path style="fill: none; fill-opacity:0; stroke-width: 0.3; stroke-linecap: round; stroke: #c00000" d="M 205.851 159.397 L 206.158,159.339 L 206.373,162.161 C 206.987,162.045 207.433,161.881 207.543,161.621 C 207.745,161.424 207.763,161.103 207.676,160.642 C 207.801,160.46 207.757,160.229 207.56,160.028 C 207.531,159.874 207.488,159.644 207.444,159.414 L 207.751,159.356 C 207.948,159.557 208.145,159.758 208.174,159.912 C 208.218,160.142 208.108,160.402 207.983,160.584 C 208.099,161.198 207.971,161.779 207.659,162.236 C 207.319,162.538 206.796,162.717 206.182,162.833 C 205.539,162.795 205.097,162.561 204.78,162.144 C 204.554,161.789 204.327,161.434 204.24,160.973 C 204.355,160.316 204.589,159.874 204.93,159.571 C 205.131,159.374 205.438,159.316 205.851,159.397 L 205.851,159.397"/>
    <path style="fill: none; fill-opacity:0; stroke-width: 0.3; stroke-linecap: round; stroke: #c00000" d="M 205.967 160.011 C 205.554,159.93 205.247,159.988 205.046,160.185 C 204.892,160.214 204.705,160.488 204.548,160.915 C 204.591,161.146 204.803,161.424 205.029,161.779 C 205.302,161.965 205.653,162.138 206.066,162.219 L 205.967,160.011"/>
    <path style="fill: none; fill-opacity:0; stroke-width: 0.3; stroke-linecap: round; stroke: #c00000" d="M 205.015 155.818 C 205.015,155.818 205.044,155.972 205.073,156.125 C 204.92,156.154 204.69,156.198 204.459,156.241 C 204.546,156.702 204.835,156.965 205.247,157.046 C 205.521,157.233 205.872,157.405 206.285,157.486 L 208.185,157.445 L 207.994,158.117 L 204.193,158.2 L 204.384,157.527 L 204.998,157.411 C 204.816,157.287 204.619,157.086 204.575,156.855 C 204.393,156.731 204.349,156.5 204.459,156.241 C 204.43,156.088 204.401,155.934 204.401,155.934 L 205.015,155.818"/>
    <path style="fill: none; fill-opacity:0; stroke-width: 0.3; stroke-linecap: round; stroke: #c00000" d="M 203.417 149.044 L 204.396,149.177 C 203.782,149.293 203.504,149.504 203.533,149.658 C 203.423,149.917 203.328,150.253 203.4,150.637 C 203.334,151.127 203.498,151.573 203.997,152.114 C 204.545,152.488 205.035,152.555 205.649,152.438 C 206.306,152.553 206.844,152.451 207.184,152.148 C 207.572,151.677 207.73,151.25 207.873,150.746 C 207.801,150.362 207.589,150.084 207.392,149.883 C 207.363,149.729 207.305,149.422 207.218,148.962 L 207.89,149.153 C 207.934,149.383 207.977,149.613 208.006,149.767 C 208.05,149.997 208.108,150.304 208.18,150.688 C 208.066,151.346 207.861,151.941 207.549,152.397 C 207.022,152.974 206.346,153.181 205.458,153.111 C 204.69,153.256 204.018,153.065 203.441,152.538 C 202.941,151.996 202.749,151.396 202.786,150.753 C 202.714,150.369 202.809,150.033 202.919,149.774 C 202.89,149.62 203.077,149.347 203.417,149.044 L 203.417,149.044"/>
    <path style="fill: none; fill-opacity:0; stroke-width: 0.3; stroke-linecap: round; stroke: #c00000" d="M 206.053 146.161 C 206.169,146.775 206.409,147.206 206.592,147.331 C 206.635,147.561 206.803,147.609 206.957,147.58 C 207.187,147.536 207.417,147.493 207.571,147.464 C 207.772,147.267 207.805,147.022 207.762,146.792 C 207.689,146.408 207.555,146.115 207.281,145.928 C 207.055,145.574 206.704,145.401 206.244,145.488 L 206.053,146.161"/>
    <path style="fill: none; fill-opacity:0; stroke-width: 0.3; stroke-linecap: round; stroke: #c00000" d="M 205.878 145.239 L 208.086,145.14 L 208.144,145.447 L 207.53,145.563 C 207.727,145.765 207.924,145.966 207.953,146.119 C 207.996,146.35 208.04,146.58 208.069,146.734 C 208.185,147.348 208.119,147.837 207.994,148.02 C 207.654,148.323 207.347,148.381 207.073,148.194 C 206.459,148.31 206.137,148.291 206.094,148.061 C 205.868,147.706 205.613,147.198 205.496,146.584 L 205.629,145.604 L 205.571,145.297 C 205.418,145.326 205.217,145.523 205.015,145.72 C 204.675,146.023 204.503,146.374 204.575,146.758 C 204.619,146.988 204.816,147.189 204.998,147.314 C 205.042,147.544 205.009,147.789 204.807,147.986 L 204.5,148.044 C 204.471,147.891 204.428,147.66 204.384,147.43 C 204.312,147.046 204.268,146.816 204.268,146.816 C 204.382,146.158 204.54,145.731 204.65,145.471 C 204.851,145.274 205.235,145.202 205.878,145.239 L 205.878,145.239"/>
    <path style="fill: none; fill-opacity:0; stroke-width: 0.3; stroke-linecap: round; stroke: #c00000" d="M 207.555 143.173 L 209.763,143.074 L 209.572,143.746 L 204.178,143.812 L 204.369,143.139 L 204.983,143.023 C 204.8,142.899 204.603,142.698 204.56,142.467 C 204.377,142.343 204.333,142.112 204.443,141.853 C 204.371,141.469 204.543,141.119 204.884,140.816 C 205.041,140.389 205.411,140.239 206.054,140.277 C 206.668,140.161 207.172,140.304 207.398,140.659 C 207.869,141.047 208.172,141.387 208.244,141.771 C 208.058,142.045 207.871,142.319 207.746,142.501 C 207.79,142.731 207.757,142.976 207.555,143.173 L 207.555,143.173"/>
    <path style="fill: none; fill-opacity:0; stroke-width: 0.3; stroke-linecap: round; stroke: #c00000" d="M 206.17 140.891 C 205.757,140.81 205.45,140.868 205.249,141.065 C 204.908,141.368 204.659,141.733 204.501,142.16 C 204.545,142.391 204.819,142.577 205.232,142.658 C 205.506,142.845 205.856,143.017 206.269,143.098 C 206.73,143.011 207.113,142.939 207.497,142.866 C 207.698,142.669 207.732,142.424 207.688,142.194 C 207.769,141.781 207.711,141.474 207.514,141.273 C 207.058,140.962 206.63,140.804 206.17,140.891 L 206.17,140.891"/>
    <path style="fill: none; fill-opacity:0; stroke-width: 0.3; stroke-linecap: round; stroke: #c00000" d="M 206.069 137.412 C 206.185,138.026 206.425,138.457 206.608,138.582 C 206.652,138.812 206.82,138.86 206.973,138.831 C 207.203,138.787 207.434,138.744 207.587,138.715 C 207.789,138.518 207.822,138.273 207.778,138.043 C 207.706,137.659 207.571,137.366 207.297,137.179 C 207.071,136.825 206.72,136.652 206.26,136.739 L 206.069,137.412"/>
    <path style="fill: none; fill-opacity:0; stroke-width: 0.3; stroke-linecap: round; stroke: #c00000" d="M 205.895 136.49 L 208.102,136.391 L 208.16,136.698 L 207.546,136.814 C 207.743,137.016 207.94,137.217 207.969,137.37 C 208.013,137.601 208.056,137.831 208.085,137.985 C 208.201,138.599 208.135,139.088 208.01,139.271 C 207.67,139.574 207.363,139.632 207.089,139.445 C 206.475,139.561 206.153,139.542 206.11,139.312 C 205.884,138.957 205.629,138.449 205.513,137.835 L 205.646,136.855 L 205.588,136.548 C 205.434,136.577 205.233,136.775 205.032,136.972 C 204.691,137.274 204.519,137.625 204.592,138.009 C 204.635,138.239 204.832,138.44 205.015,138.565 C 205.058,138.795 205.025,139.04 204.824,139.237 L 204.517,139.295 C 204.488,139.142 204.444,138.911 204.401,138.681 C 204.328,138.297 204.284,138.067 204.284,138.067 C 204.399,137.409 204.556,136.982 204.666,136.723 C 204.868,136.525 205.252,136.453 205.895,136.49 L 205.895,136.49"/>
    <path style="fill: none; fill-opacity:0; stroke-width: 0.3; stroke-linecap: round; stroke: #c00000" d="M 204.271 132.106 L 204.885,131.99 C 204.929,132.221 204.972,132.451 205.001,132.604 C 204.891,132.864 204.705,133.137 204.503,133.335 C 204.547,133.565 204.835,133.828 205.291,134.14 C 205.565,134.326 205.916,134.499 206.329,134.58 C 206.789,134.493 207.159,134.343 207.499,134.041 C 207.7,133.843 207.734,133.599 207.69,133.368 C 207.815,133.186 207.771,132.956 207.574,132.754 C 207.545,132.601 207.501,132.37 207.458,132.14 L 208.072,132.024 C 208.116,132.254 208.159,132.485 208.188,132.638 C 208.232,132.868 208.122,133.128 207.997,133.31 C 208.084,133.771 207.926,134.198 207.615,134.655 C 207.275,134.957 206.752,135.136 206.138,135.252 C 205.495,135.214 205.053,134.98 204.735,134.563 C 204.509,134.208 204.283,133.853 204.196,133.393 C 204.397,133.196 204.431,132.951 204.387,132.72 C 204.358,132.567 204.315,132.337 204.271,132.106 L 204.271,132.106"/>
    <path style="fill: none; fill-opacity:0; stroke-width: 0.3; stroke-linecap: round; stroke: #c00000" d="M 204.236 131.079 L 204.427,130.407 L 208.228,130.325 L 208.037,130.997 L 204.236,131.079"/>
    <path style="fill: none; fill-opacity:0; stroke-width: 0.3; stroke-linecap: round; stroke: #c00000" d="M 202.643 131.062 L 202.834,130.39 L 203.755,130.216 L 203.564,130.888 L 202.643,131.062"/>
    <path style="fill: none; fill-opacity:0; stroke-width: 0.3; stroke-linecap: round; stroke: #c00000" d="M 203.1 128.432 L 204.386,128.507 L 204.461,127.22 L 204.768,127.162 L 204.693,128.449 L 206.901,128.35 C 207.405,128.493 207.573,128.541 207.573,128.541 C 207.544,128.387 207.5,128.157 207.457,127.926 L 207.648,127.254 L 208.262,127.138 L 208.071,127.81 C 208.158,128.271 208.062,128.607 207.938,128.79 C 207.597,129.092 207.214,129.165 206.71,129.022 L 204.502,129.121 L 204.56,129.428 L 204.253,129.486 L 204.195,129.179 L 202.909,129.104 L 203.1,128.432"/>
    <path style="fill: none; fill-opacity:0; stroke-width: 0.3; stroke-linecap: round; stroke: #c00000" d="M 208.349 124.657 C 208.82,125.045 209.185,125.294 209.445,125.404 C 209.598,125.375 209.795,125.576 209.868,125.96 L 209.619,126.325 L 209.005,126.441 L 209.254,126.076 C 209.225,125.923 209.028,125.721 208.831,125.52 C 208.802,125.367 208.619,125.242 208.465,125.271 L 208.1,125.022 L 204.283,126.698 L 204.474,126.025 L 207.063,124.582 L 204.374,123.818 L 204.258,123.204 L 208.349,124.657"/>
  </g>
  <text font-size="6.20889" style="fill: #800080;text-anchor:start;font-family:sans-serif;font-style:normal;font-weight:normal" x="204.528" y="-6.65546">
    <tspan x="204.528" y="-6.65546">s</tspan>
  </text>
  <text font-size="9.03111" style="fill: #800080;text-anchor:start;font-family:sans-serif;font-style:normal;font-weight:normal" x="200.528" y="-7.68046">
    <tspan x="200.528" y="-7.68046">P</tspan>
  </text>
  <text font-size="6.20889" style="fill: #800080;text-anchor:start;font-family:sans-serif;font-style:normal;font-weight:normal" x="195.83" y="-6.33126">
    <tspan x="195.83" y="-6.33126">s</tspan>
  </text>
  <text font-size="9.03111" style="fill: #800080;text-anchor:start;font-family:sans-serif;font-style:normal;font-weight:normal" x="189.83" y="-7.35626">
    <tspan x="189.83" y="-7.35626">E</tspan>
  </text>
  <text font-size="9.03111" style="fill: #800080;text-anchor:start;font-family:sans-serif;font-style:normal;font-weight:normal" x="198.68" y="-6.92518">
    <tspan x="198.68" y="-6.92518">,</tspan>
  </text>
  <path style="fill: none; fill-opacity:0; stroke-width: 1; stroke: #800080" d="M 198.85 -0.936055 C 205.622,-3.15957 204.186,-2.04694 206.66,-5.40568"/>
  <g>
    <line style="fill: none; fill-opacity:0; stroke-width: 1; stroke: #ff0000" x1="152.696" y1="86.6085" x2="194.658" y2="2.68332"/>
    <polygon style="fill: #ff0000" points="150.459,85.4905 148.223,95.5528 154.932,87.7266 "/>
    <polygon style="fill: none; fill-opacity:0; stroke-width: 1; stroke: #ff0000" points="150.459,85.4905 148.223,95.5528 154.932,87.7266 "/>
  </g>
  <g>
    <line style="fill: none; fill-opacity:0; stroke-width: 1; stroke: #00ff00" x1="-0.0002" y1="196" x2="139.3" y2="101.879"/>
    <polygon style="fill: #00ff00" points="140.699,103.95 147.586,96.2799 137.9,99.807 "/>
    <polygon style="fill: none; fill-opacity:0; stroke-width: 1; stroke: #00ff00" points="140.699,103.95 147.586,96.2799 137.9,99.807 "/>
  </g>
  <g>
    <ellipse style="fill: #000000" cx="148" cy="96" rx="1" ry="1"/>
    <ellipse style="fill: none; fill-opacity:0; stroke-width: 2; stroke: #000000" cx="148" cy="96" rx="1" ry="1"/>
  </g>
  <text font-size="9.03111" style="fill: #000000;text-anchor:start;font-family:sans-serif;font-style:normal;font-weight:normal" x="151.421" y="103.406">
    <tspan x="151.421" y="103.406">=0.5</tspan>
  </text>
</svg>
