<?xml version="1.0" encoding="UTF-8" standalone="no"?>
<!DOCTYPE svg PUBLIC "-//W3C//DTD SVG 1.0//EN" "http://www.w3.org/TR/2001/PR-SVG-20010719/DTD/svg10.dtd">
<svg width="12cm" height="12cm" viewBox="-13 -17 223 226" xmlns="http://www.w3.org/2000/svg" xmlns:xlink="http://www.w3.org/1999/xlink">
  <path style="fill: none; fill-opacity:0; stroke-width: 2; stroke-dasharray: 6; stroke: #800080" d="M 0 196 C 26,184 59.1565,166.379 86.0002,148 C 112.844,129.622 133.613,112.308 148,96.0002 C 162.387,79.6928 180.474,60.1525 184,50.0002 C 187.526,39.8479 192.253,27.7084 195.6,2.95651"/>
  <g>
    <line style="fill: none; fill-opacity:0; stroke-width: 1.2; stroke: #c00000" x1="10.6" y1="-4.30456e-06" x2="197" y2="-8e-05"/>
    <polygon style="fill: #c00000" points="10.6,-2.5 0.6,-2.43655e-07 10.6,2.5 "/>
    <polygon style="fill: none; fill-opacity:0; stroke-width: 1.2; stroke: #c00000" points="10.6,-2.5 0.6,-2.43655e-07 10.6,2.5 "/>
  </g>
  <line style="fill: none; fill-opacity:0; stroke-width: 1.2; stroke: #800080" x1="2e-05" y1="196" x2="200" y2="-3.9998"/>
  <g>
    <ellipse style="fill: #ffffff" cx="196" cy="-8e-05" rx="1" ry="1"/>
    <ellipse style="fill: none; fill-opacity:0; stroke-width: 4; stroke: #800080" cx="196" cy="-8e-05" rx="1" ry="1"/>
  </g>
  <g>
    <line style="fill: none; fill-opacity:0; stroke-width: 1.2; stroke: #c00000" x1="196" y1="185.4" x2="196" y2="-1.00008"/>
    <polygon style="fill: #c00000" points="193.5,185.4 196,195.4 198.5,185.4 "/>
    <polygon style="fill: none; fill-opacity:0; stroke-width: 1.2; stroke: #c00000" points="193.5,185.4 196,195.4 198.5,185.4 "/>
  </g>
  <line style="fill: none; fill-opacity:0; stroke-width: 1.2; stroke: #000000" x1="196" y1="198" x2="196" y2="194"/>
  <line style="fill: none; fill-opacity:0; stroke-width: 1.2; stroke: #000000" x1="-2.00002" y1="0" x2="2.00002" y2="0"/>
  <g>
    <line style="fill: none; fill-opacity:0; stroke-width: 1.2; stroke: #00c000" x1="2e-05" y1="196" x2="185.4" y2="196"/>
    <polygon style="fill: #00c000" points="185.4,198.5 195.4,196 185.4,193.5 "/>
    <polygon style="fill: none; fill-opacity:0; stroke-width: 1.2; stroke: #00c000" points="185.4,198.5 195.4,196 185.4,193.5 "/>
  </g>
  <g>
    <line style="fill: none; fill-opacity:0; stroke-width: 1.2; stroke: #00c000" x1="2e-05" y1="196" x2="1.08163e-06" y2="10.6"/>
    <polygon style="fill: #00c000" points="2.5,10.6 6.12244e-08,0.6 -2.5,10.6 "/>
    <polygon style="fill: none; fill-opacity:0; stroke-width: 1.2; stroke: #00c000" points="2.5,10.6 6.12244e-08,0.6 -2.5,10.6 "/>
  </g>
  <g>
    <path style="fill: none; fill-opacity:0; stroke-width: 0.3; stroke-linecap: round; stroke: #00c000" d="M 122.938 204.891 L 122.938,206.766 L 123.875,206.766 C 124.266,206.766 124.578,206.766 124.813,206.766 C 124.969,206.61 125.125,206.297 125.125,205.828 C 125.125,205.672 124.969,205.438 124.813,205.203 C 124.578,205.047 124.266,204.891 123.875,204.891 L 122.938,204.891"/>
    <path style="fill: none; fill-opacity:0; stroke-width: 0.3; stroke-linecap: round; stroke: #00c000" d="M 122.938 203.016 L 122.938,204.266 L 123.875,204.266 C 124.266,204.266 124.5,204.266 124.5,204.266 C 124.656,204.11 124.813,203.875 124.813,203.641 C 124.813,203.485 124.656,203.328 124.5,203.328 C 124.5,203.172 124.266,203.016 123.875,203.016 L 122.938,203.016"/>
    <path style="fill: none; fill-opacity:0; stroke-width: 0.3; stroke-linecap: round; stroke: #00c000" d="M 122 202.078 L 123.875,202.078 C 124.5,202.078 124.891,202.313 125.125,202.703 C 125.281,202.938 125.438,203.25 125.438,203.641 C 125.438,203.875 125.281,204.11 125.125,204.266 C 125.125,204.5 124.969,204.578 124.813,204.578 C 124.969,204.813 125.203,205.047 125.438,205.203 C 125.594,205.438 125.75,205.672 125.75,205.828 C 125.75,206.453 125.516,206.922 125.125,207.078 C 124.891,207.313 124.5,207.391 123.875,207.391 L 122,207.391 L 122,202.078"/>
    <path style="fill: none; fill-opacity:0; stroke-width: 0.3; stroke-linecap: round; stroke: #00c000" d="M 128.719 205.516 C 128.094,205.516 127.625,205.672 127.469,205.828 C 127.469,205.828 127.469,205.985 127.469,206.141 C 127.469,206.375 127.469,206.61 127.469,206.766 C 127.625,207 127.859,207.078 128.094,207.078 C 128.484,207.078 128.797,207 129.031,206.766 C 129.188,206.375 129.344,205.985 129.344,205.516 L 128.719,205.516"/>
    <path style="fill: none; fill-opacity:0; stroke-width: 0.3; stroke-linecap: round; stroke: #00c000" d="M 129.969 205.203 L 129.969,207.391 L 129.344,207.391 L 129.344,206.766 C 129.109,207 128.875,207.235 128.719,207.391 C 128.484,207.391 128.25,207.391 128.094,207.391 C 127.625,207.391 127.234,207.313 126.844,207.078 C 126.609,206.922 126.531,206.61 126.531,206.141 C 126.531,205.75 126.609,205.438 126.844,205.203 C 127.234,205.047 127.781,204.891 128.406,204.891 L 129.344,204.891 C 129.344,204.5 129.188,204.266 129.031,204.266 C 128.797,204.11 128.484,203.953 128.094,203.953 C 127.859,203.953 127.625,203.953 127.469,203.953 C 127.234,203.953 127,204.11 126.844,204.266 L 126.844,203.641 C 127.234,203.641 127.547,203.641 127.781,203.641 C 127.938,203.485 128.094,203.328 128.094,203.328 C 128.719,203.328 129.109,203.563 129.344,203.953 C 129.734,204.188 129.969,204.578 129.969,205.203 L 129.969,205.203"/>
    <path style="fill: none; fill-opacity:0; stroke-width: 0.3; stroke-linecap: round; stroke: #00c000" d="M 133.641 203.641 L 133.641,204.266 C 133.406,204.11 133.172,203.953 133.016,203.953 C 132.781,203.953 132.547,203.953 132.391,203.953 C 132.156,203.953 131.922,204.11 131.766,204.266 C 131.531,204.266 131.453,204.422 131.453,204.578 C 131.453,204.813 131.453,204.891 131.453,204.891 C 131.609,204.891 131.922,205.047 132.391,205.203 L 132.703,205.203 C 133.094,205.203 133.406,205.36 133.641,205.516 C 133.797,205.75 133.953,205.985 133.953,206.141 C 133.953,206.61 133.719,206.922 133.328,207.078 C 133.094,207.313 132.781,207.391 132.391,207.391 C 132.156,207.391 131.844,207.391 131.453,207.391 C 131.219,207.391 130.984,207.391 130.828,207.391 L 130.828,206.766 C 130.984,206.766 131.219,206.922 131.453,207.078 C 131.844,207.078 132.156,207.078 132.391,207.078 C 132.547,207.078 132.703,207.078 132.703,207.078 C 132.859,206.922 133.016,206.688 133.016,206.453 C 133.016,206.297 132.859,206.141 132.703,206.141 C 132.703,205.985 132.547,205.828 132.391,205.828 L 132.078,205.516 C 131.609,205.516 131.297,205.516 131.141,205.516 C 130.906,205.36 130.828,205.047 130.828,204.578 C 130.828,204.188 130.906,203.875 131.141,203.641 C 131.531,203.485 131.922,203.328 132.391,203.328 C 132.547,203.328 132.781,203.485 133.016,203.641 C 133.172,203.641 133.406,203.641 133.641,203.641 L 133.641,203.641"/>
    <path style="fill: none; fill-opacity:0; stroke-width: 0.3; stroke-linecap: round; stroke: #00c000" d="M 138.25 205.203 L 138.25,205.516 L 135.438,205.516 C 135.438,205.985 135.516,206.375 135.75,206.766 C 135.906,207 136.219,207.078 136.688,207.078 C 136.844,207.078 137.078,207.078 137.313,207.078 C 137.469,206.922 137.703,206.766 137.938,206.766 L 137.938,207.078 C 137.703,207.313 137.469,207.391 137.313,207.391 C 137.078,207.391 136.844,207.391 136.688,207.391 C 136.063,207.391 135.516,207.313 135.125,207.078 C 134.656,206.688 134.5,206.141 134.5,205.516 C 134.5,204.891 134.656,204.422 135.125,203.953 C 135.516,203.563 135.906,203.328 136.375,203.328 C 137,203.328 137.391,203.563 137.625,203.953 C 138.016,204.188 138.25,204.578 138.25,205.203 L 138.25,205.203"/>
    <path style="fill: none; fill-opacity:0; stroke-width: 0.3; stroke-linecap: round; stroke: #00c000" d="M 137.625 205.203 C 137.625,204.813 137.469,204.5 137.313,204.266 C 137.078,204.11 136.766,203.953 136.375,203.953 C 136.141,203.953 135.906,204.11 135.75,204.266 C 135.516,204.5 135.438,204.813 135.438,205.203 L 137.625,205.203"/>
    <path style="fill: none; fill-opacity:0; stroke-width: 0.3; stroke-linecap: round; stroke: #00c000" d="M 141.453 202.078 L 144.891,202.078 L 144.891,203.016 L 142.391,203.016 L 142.391,204.266 L 144.578,204.266 L 144.578,204.891 L 142.391,204.891 L 142.391,206.766 L 144.891,206.766 L 144.891,207.391 L 141.453,207.391 L 141.453,202.078"/>
    <path style="fill: none; fill-opacity:0; stroke-width: 0.3; stroke-linecap: round; stroke: #00c000" d="M 149.031 205.203 L 149.031,207.391 L 148.406,207.391 L 148.406,205.203 C 148.406,204.813 148.25,204.5 148.094,204.266 C 148.094,204.11 147.938,203.953 147.781,203.953 C 147.313,203.953 147,204.11 146.844,204.266 C 146.609,204.5 146.531,204.813 146.531,205.203 L 146.531,207.391 L 145.906,207.391 L 145.906,203.641 L 146.531,203.641 L 146.531,203.953 C 146.688,203.797 146.922,203.641 147.156,203.641 C 147.313,203.485 147.547,203.328 147.781,203.328 C 148.172,203.328 148.484,203.563 148.719,203.953 C 148.875,204.188 149.031,204.578 149.031,205.203 L 149.031,205.203"/>
    <path style="fill: none; fill-opacity:0; stroke-width: 0.3; stroke-linecap: round; stroke: #00c000" d="M 153.797 205.203 L 153.797,205.516 L 150.984,205.516 C 150.984,205.985 151.063,206.375 151.297,206.766 C 151.453,207 151.766,207.078 152.234,207.078 C 152.391,207.078 152.625,207.078 152.859,207.078 C 153.016,206.922 153.25,206.766 153.484,206.766 L 153.484,207.078 C 153.25,207.313 153.016,207.391 152.859,207.391 C 152.625,207.391 152.391,207.391 152.234,207.391 C 151.609,207.391 151.063,207.313 150.672,207.078 C 150.203,206.688 150.047,206.141 150.047,205.516 C 150.047,204.891 150.203,204.422 150.672,203.953 C 151.063,203.563 151.453,203.328 151.922,203.328 C 152.547,203.328 152.938,203.563 153.172,203.953 C 153.563,204.188 153.797,204.578 153.797,205.203 L 153.797,205.203"/>
    <path style="fill: none; fill-opacity:0; stroke-width: 0.3; stroke-linecap: round; stroke: #00c000" d="M 153.172 205.203 C 153.172,204.813 153.016,204.5 152.859,204.266 C 152.625,204.11 152.313,203.953 151.922,203.953 C 151.688,203.953 151.453,204.11 151.297,204.266 C 151.063,204.5 150.984,204.813 150.984,205.203 L 153.172,205.203"/>
    <path style="fill: none; fill-opacity:0; stroke-width: 0.3; stroke-linecap: round; stroke: #00c000" d="M 156.844 203.953 C 156.844,203.953 156.688,203.953 156.531,203.953 C 156.063,203.953 155.75,204.188 155.594,204.578 C 155.359,204.813 155.281,205.125 155.281,205.516 L 155.281,207.391 L 154.656,207.391 L 154.656,203.641 L 155.281,203.641 L 155.281,203.953 C 155.438,203.797 155.672,203.641 155.906,203.641 C 156.063,203.485 156.297,203.328 156.531,203.328 C 156.688,203.328 156.844,203.328 156.844,203.328 L 156.844,203.953"/>
    <path style="fill: none; fill-opacity:0; stroke-width: 0.3; stroke-linecap: round; stroke: #00c000" d="M 160.125 205.516 C 160.125,205.125 159.969,204.813 159.813,204.578 C 159.578,204.188 159.344,203.953 159.188,203.953 C 158.719,203.953 158.406,204.188 158.25,204.578 C 158.016,204.813 157.938,205.125 157.938,205.516 C 157.938,205.985 158.016,206.297 158.25,206.453 C 158.406,206.688 158.719,206.766 159.188,206.766 C 159.344,206.766 159.578,206.688 159.813,206.453 C 159.969,206.297 160.125,205.985 160.125,205.516 L 160.125,205.516"/>
    <path style="fill: none; fill-opacity:0; stroke-width: 0.3; stroke-linecap: round; stroke: #00c000" d="M 160.75 207.078 C 160.75,207.703 160.594,208.094 160.438,208.328 C 160.203,208.719 159.813,208.953 159.188,208.953 C 158.953,208.953 158.719,208.797 158.563,208.641 C 158.328,208.641 158.094,208.641 157.938,208.641 L 157.938,208.016 C 158.094,208.016 158.25,208.016 158.25,208.016 C 158.406,208.172 158.641,208.328 158.875,208.328 C 159.266,208.328 159.578,208.172 159.813,208.016 C 159.969,207.781 160.125,207.469 160.125,207.078 L 160.125,206.766 C 160.125,207 159.969,207.235 159.813,207.391 C 159.578,207.391 159.266,207.391 158.875,207.391 C 158.406,207.391 158.016,207.235 157.625,206.766 C 157.391,206.375 157.313,205.985 157.313,205.516 C 157.313,204.891 157.391,204.422 157.625,203.953 C 158.016,203.563 158.406,203.328 158.875,203.328 C 159.266,203.328 159.578,203.485 159.813,203.641 C 159.969,203.641 160.125,203.797 160.125,203.953 L 160.125,203.641 L 160.75,203.641 L 160.75,207.078"/>
    <path style="fill: none; fill-opacity:0; stroke-width: 0.3; stroke-linecap: round; stroke: #00c000" d="M 163.641 207.703 C 163.406,208.328 163.172,208.641 163.016,208.641 C 163.016,208.797 162.859,208.953 162.703,208.953 L 162.078,208.953 L 162.078,208.328 L 162.391,208.328 C 162.547,208.328 162.703,208.172 162.703,208.016 C 162.859,208.016 163.016,207.86 163.016,207.703 L 163.328,207.391 L 161.766,203.641 L 162.391,203.641 L 163.641,206.453 L 164.891,203.641 L 165.516,203.641 L 163.641,207.703"/>
    <path style="fill: none; fill-opacity:0; stroke-width: 0.3; stroke-linecap: round; stroke: #00c000" d="M 172.234 202.703 L 172.234,203.328 C 172,203.172 171.766,203.016 171.609,203.016 C 171.375,202.86 171.141,202.703 170.984,202.703 C 170.359,202.703 169.813,202.938 169.422,203.328 C 169.188,203.563 169.109,204.11 169.109,204.891 C 169.109,205.516 169.188,206.063 169.422,206.453 C 169.813,206.922 170.359,207.078 170.984,207.078 C 171.141,207.078 171.375,207.078 171.609,207.078 C 171.766,206.922 172,206.61 172.234,206.141 L 172.234,207.078 C 172,207.313 171.766,207.391 171.609,207.391 C 171.375,207.391 171.063,207.391 170.672,207.391 C 170.047,207.391 169.422,207.235 168.797,206.766 C 168.328,206.375 168.172,205.75 168.172,204.891 C 168.172,204.11 168.328,203.485 168.797,203.016 C 169.422,202.391 170.047,202.078 170.672,202.078 C 171.063,202.078 171.375,202.235 171.609,202.391 C 171.766,202.391 172,202.547 172.234,202.703 L 172.234,202.703"/>
    <path style="fill: none; fill-opacity:0; stroke-width: 0.3; stroke-linecap: round; stroke: #00c000" d="M 175.281 205.516 C 174.656,205.516 174.188,205.672 174.031,205.828 C 174.031,205.828 174.031,205.985 174.031,206.141 C 174.031,206.375 174.031,206.61 174.031,206.766 C 174.188,207 174.422,207.078 174.656,207.078 C 175.047,207.078 175.359,207 175.594,206.766 C 175.75,206.375 175.906,205.985 175.906,205.516 L 175.281,205.516"/>
    <path style="fill: none; fill-opacity:0; stroke-width: 0.3; stroke-linecap: round; stroke: #00c000" d="M 176.531 205.203 L 176.531,207.391 L 175.906,207.391 L 175.906,206.766 C 175.672,207 175.438,207.235 175.281,207.391 C 175.047,207.391 174.813,207.391 174.656,207.391 C 174.188,207.391 173.797,207.313 173.406,207.078 C 173.172,206.922 173.094,206.61 173.094,206.141 C 173.094,205.75 173.172,205.438 173.406,205.203 C 173.797,205.047 174.344,204.891 174.969,204.891 L 175.906,204.891 C 175.906,204.5 175.75,204.266 175.594,204.266 C 175.359,204.11 175.047,203.953 174.656,203.953 C 174.422,203.953 174.188,203.953 174.031,203.953 C 173.797,203.953 173.563,204.11 173.406,204.266 L 173.406,203.641 C 173.797,203.641 174.109,203.641 174.344,203.641 C 174.5,203.485 174.656,203.328 174.656,203.328 C 175.281,203.328 175.672,203.563 175.906,203.953 C 176.297,204.188 176.531,204.578 176.531,205.203 L 176.531,205.203"/>
    <path style="fill: none; fill-opacity:0; stroke-width: 0.3; stroke-linecap: round; stroke: #00c000" d="M 178.328 206.766 L 178.328,208.953 L 177.703,208.953 L 177.703,203.641 L 178.328,203.641 L 178.328,203.953 C 178.484,203.797 178.719,203.641 178.953,203.641 C 179.109,203.485 179.344,203.328 179.578,203.328 C 179.969,203.328 180.281,203.563 180.516,203.953 C 180.906,204.422 181.141,204.891 181.141,205.516 C 181.141,206.141 180.906,206.688 180.516,207.078 C 180.281,207.313 179.969,207.391 179.578,207.391 C 179.344,207.391 179.109,207.391 178.953,207.391 C 178.719,207.235 178.484,207 178.328,206.766 L 178.328,206.766"/>
    <path style="fill: none; fill-opacity:0; stroke-width: 0.3; stroke-linecap: round; stroke: #00c000" d="M 180.516 205.516 C 180.516,205.125 180.359,204.813 180.203,204.578 C 179.969,204.188 179.656,203.953 179.266,203.953 C 179.031,203.953 178.797,204.188 178.641,204.578 C 178.406,204.813 178.328,205.125 178.328,205.516 C 178.328,205.985 178.406,206.375 178.641,206.766 C 178.797,207 179.031,207.078 179.266,207.078 C 179.656,207.078 179.969,207 180.203,206.766 C 180.359,206.375 180.516,205.985 180.516,205.516 L 180.516,205.516"/>
    <path style="fill: none; fill-opacity:0; stroke-width: 0.3; stroke-linecap: round; stroke: #00c000" d="M 184.109 205.516 C 183.484,205.516 183.016,205.672 182.859,205.828 C 182.859,205.828 182.859,205.985 182.859,206.141 C 182.859,206.375 182.859,206.61 182.859,206.766 C 183.016,207 183.25,207.078 183.484,207.078 C 183.875,207.078 184.188,207 184.422,206.766 C 184.578,206.375 184.734,205.985 184.734,205.516 L 184.109,205.516"/>
    <path style="fill: none; fill-opacity:0; stroke-width: 0.3; stroke-linecap: round; stroke: #00c000" d="M 185.359 205.203 L 185.359,207.391 L 184.734,207.391 L 184.734,206.766 C 184.5,207 184.266,207.235 184.109,207.391 C 183.875,207.391 183.641,207.391 183.484,207.391 C 183.016,207.391 182.625,207.313 182.234,207.078 C 182,206.922 181.922,206.61 181.922,206.141 C 181.922,205.75 182,205.438 182.234,205.203 C 182.625,205.047 183.172,204.891 183.797,204.891 L 184.734,204.891 C 184.734,204.5 184.578,204.266 184.422,204.266 C 184.188,204.11 183.875,203.953 183.484,203.953 C 183.25,203.953 183.016,203.953 182.859,203.953 C 182.625,203.953 182.391,204.11 182.234,204.266 L 182.234,203.641 C 182.625,203.641 182.938,203.641 183.172,203.641 C 183.328,203.485 183.484,203.328 183.484,203.328 C 184.109,203.328 184.5,203.563 184.734,203.953 C 185.125,204.188 185.359,204.578 185.359,205.203 L 185.359,205.203"/>
    <path style="fill: none; fill-opacity:0; stroke-width: 0.3; stroke-linecap: round; stroke: #00c000" d="M 189.344 203.641 L 189.344,204.266 C 189.109,204.11 188.875,203.953 188.719,203.953 C 188.484,203.953 188.25,203.953 188.094,203.953 C 187.859,203.953 187.625,204.188 187.469,204.578 C 187.234,204.813 187.156,205.125 187.156,205.516 C 187.156,205.985 187.234,206.375 187.469,206.766 C 187.625,207 187.859,207.078 188.094,207.078 C 188.25,207.078 188.484,207.078 188.719,207.078 C 188.875,206.922 189.109,206.766 189.344,206.766 L 189.344,207.391 C 189.109,207.391 188.875,207.391 188.719,207.391 C 188.484,207.391 188.25,207.391 188.094,207.391 C 187.625,207.391 187.234,207.313 186.844,207.078 C 186.375,206.688 186.219,206.141 186.219,205.516 C 186.219,204.891 186.375,204.422 186.844,203.953 C 187.234,203.563 187.625,203.328 188.094,203.328 C 188.25,203.328 188.484,203.485 188.719,203.641 C 188.875,203.641 189.109,203.641 189.344,203.641 L 189.344,203.641"/>
    <path style="fill: none; fill-opacity:0; stroke-width: 0.3; stroke-linecap: round; stroke: #00c000" d="M 190.438 203.641 L 191.063,203.641 L 191.063,207.391 L 190.438,207.391 L 190.438,203.641"/>
    <path style="fill: none; fill-opacity:0; stroke-width: 0.3; stroke-linecap: round; stroke: #00c000" d="M 190.438 202.078 L 191.063,202.078 L 191.063,203.016 L 190.438,203.016 L 190.438,202.078"/>
    <path style="fill: none; fill-opacity:0; stroke-width: 0.3; stroke-linecap: round; stroke: #00c000" d="M 193.016 202.391 L 193.016,203.641 L 194.266,203.641 L 194.266,203.953 L 193.016,203.953 L 193.016,206.141 C 193.016,206.61 193.016,206.766 193.016,206.766 C 193.172,206.766 193.406,206.766 193.641,206.766 L 194.266,206.766 L 194.266,207.391 L 193.641,207.391 C 193.172,207.391 192.859,207.313 192.703,207.078 C 192.469,206.922 192.391,206.61 192.391,206.141 L 192.391,203.953 L 192.078,203.953 L 192.078,203.641 L 192.391,203.641 L 192.391,202.391 L 193.016,202.391"/>
    <path style="fill: none; fill-opacity:0; stroke-width: 0.3; stroke-linecap: round; stroke: #00c000" d="M 196.688 207.703 C 196.453,208.328 196.219,208.641 196.063,208.641 C 196.063,208.797 195.906,208.953 195.75,208.953 L 195.125,208.953 L 195.125,208.328 L 195.438,208.328 C 195.594,208.328 195.75,208.172 195.75,208.016 C 195.906,208.016 196.063,207.86 196.063,207.703 L 196.375,207.391 L 194.813,203.641 L 195.438,203.641 L 196.688,206.453 L 197.938,203.641 L 198.563,203.641 L 196.688,207.703"/>
  </g>
  <g>
    <path style="fill: none; fill-opacity:0; stroke-width: 0.3; stroke-linecap: round; stroke: #00c000" d="M -9.87647 71.2184 L -7.97605,71.1773 L -7.84307,70.1981 C -7.91561,69.8143 -7.97364,69.5072 -8.01716,69.2769 C -8.19971,69.1524 -8.53578,69.0569 -8.99638,69.1439 C -9.14991,69.1729 -9.3512,69.37 -9.55248,69.567 C -9.70601,69.5961 -9.81603,69.8554 -9.74349,70.2392 L -9.87647,71.2184"/>
    <path style="fill: none; fill-opacity:0; stroke-width: 0.3; stroke-linecap: round; stroke: #00c000" d="M -11.8349 70.9525 L -10.2416,70.9694 L -10.4156,70.0482 C -10.2144,69.8511 -10.2579,69.6208 -10.5317,69.4341 C -10.7143,69.3095 -10.9736,69.1995 -11.2039,69.2431 C -11.3574,69.2721 -11.4819,69.4546 -11.4529,69.6082 C -11.6064,69.6372 -11.8077,69.8342 -12.009,70.0313 L -11.8349,70.9525"/>
    <path style="fill: none; fill-opacity:0; stroke-width: 0.3; stroke-linecap: round; stroke: #00c000" d="M -12.582 72.0478 L -12.6231,70.1473 C -12.4654,69.72 -12.2931,69.3694 -12.1831,69.1101 C -12.0253,68.6827 -11.7328,68.5479 -11.3199,68.6289 C -11.0896,68.5854 -10.8303,68.6954 -10.6478,68.8199 C -10.3739,69.0067 -10.2537,69.2225 -10.2246,69.376 C -10.0669,68.9487 -9.80334,68.6604 -9.41951,68.5878 C -9.21822,68.3908 -9.01694,68.1937 -8.8634,68.1647 C -8.20575,68.2789 -7.84066,68.528 -7.76812,68.9118 C -7.57107,69.1131 -7.345,69.4679 -7.22894,70.082 L -7.49489,72.0405 L -12.582,72.0478"/>
    <path style="fill: none; fill-opacity:0; stroke-width: 0.3; stroke-linecap: round; stroke: #00c000" d="M -9.40018 65.3243 C -9.28412,65.9385 -9.04354,66.3701 -8.86099,66.4946 C -8.81747,66.7249 -8.64943,66.7726 -8.4959,66.7436 C -8.2656,66.7001 -8.0353,66.6566 -7.88177,66.6275 C -7.68049,66.4305 -7.64724,66.1857 -7.69076,65.9554 C -7.7633,65.5716 -7.8981,65.279 -8.17192,65.0922 C -8.39799,64.7374 -8.74857,64.5651 -9.20917,64.6522 L -9.40018,65.3243"/>
    <path style="fill: none; fill-opacity:0; stroke-width: 0.3; stroke-linecap: round; stroke: #00c000" d="M -9.57426 64.4031 L -7.36678,64.304 L -7.30875,64.6111 L -7.92288,64.7271 C -7.72583,64.9284 -7.52877,65.1297 -7.49976,65.2832 C -7.45624,65.5135 -7.41271,65.7438 -7.3837,65.8974 C -7.26764,66.5115 -7.33413,67.0011 -7.45865,67.1836 C -7.79896,67.4865 -8.10602,67.5445 -8.37984,67.3577 C -8.99397,67.4738 -9.31554,67.4551 -9.35907,67.2248 C -9.58513,66.8699 -9.84022,66.3616 -9.95628,65.7475 L -9.8233,64.7682 L -9.88133,64.4612 C -10.0349,64.4902 -10.2361,64.6872 -10.4374,64.8843 C -10.7777,65.1871 -10.95,65.5377 -10.8775,65.9216 C -10.8339,66.1519 -10.6369,66.3531 -10.4543,66.4777 C -10.4108,66.708 -10.4441,66.9528 -10.6454,67.1498 L -10.9524,67.2078 C -10.9814,67.0543 -11.025,66.824 -11.0685,66.5937 C -11.141,66.2099 -11.1845,65.9796 -11.1845,65.9796 C -11.0703,65.3219 -10.9125,64.8946 -10.8025,64.6353 C -10.6012,64.4382 -10.2174,64.3657 -9.57426,64.4031 L -9.57426,64.4031"/>
    <path style="fill: none; fill-opacity:0; stroke-width: 0.3; stroke-linecap: round; stroke: #00c000" d="M -11.1253 60.4028 L -10.5112,60.2868 C -10.4677,60.5171 -10.5009,60.7619 -10.7022,60.9589 C -10.8122,61.2183 -10.9222,61.4776 -10.8932,61.6311 C -10.8497,61.8614 -10.6526,62.0627 -10.4701,62.1872 C -10.4266,62.4175 -10.2585,62.4653 -10.105,62.4362 C -9.87469,62.3927 -9.79792,62.3782 -9.79792,62.3782 C -9.79792,62.3782 -9.6734,62.1957 -9.60692,61.7061 L -9.66495,61.399 C -9.50718,60.9716 -9.32041,60.6978 -9.16687,60.6688 C -8.96559,60.4717 -8.68754,60.2602 -8.30371,60.1876 C -8.02989,60.3744 -7.83283,60.5757 -7.57352,60.6857 C -7.37647,60.887 -7.31844,61.1941 -7.39943,61.6069 C -7.35591,61.8372 -7.45141,62.1733 -7.53241,62.5861 C -7.48889,62.8164 -7.44537,63.0467 -7.41635,63.2003 L -8.03048,63.3163 C -8.0595,63.1628 -7.94948,62.9035 -7.83947,62.6442 C -7.68171,62.2168 -7.66298,61.8952 -7.7065,61.6649 C -7.73551,61.5114 -7.76453,61.3579 -7.76453,61.3579 C -7.79354,61.2043 -7.91383,60.9886 -8.18765,60.8018 C -8.34118,60.8308 -8.54247,61.0278 -8.74375,61.2249 C -8.89728,61.2539 -9.0218,61.4365 -8.99279,61.59 L -9.24182,61.9551 C -9.15478,62.4157 -9.17351,62.7373 -9.3748,62.9343 C -9.48481,63.1936 -9.79187,63.2517 -10.296,63.1084 C -10.4495,63.1374 -10.6176,63.0897 -10.6611,62.8594 C -10.8872,62.5045 -11.1132,62.1497 -11.2003,61.6891 C -11.2293,61.5356 -11.1193,61.2763 -11.0093,61.017 C -11.0383,60.8634 -11.0818,60.6331 -11.1253,60.4028 L -11.1253,60.4028"/>
    <path style="fill: none; fill-opacity:0; stroke-width: 0.3; stroke-linecap: round; stroke: #00c000" d="M -9.62447 56.1438 L -9.3174,56.0858 L -9.1022,58.9074 C -8.48807,58.7913 -8.04198,58.6275 -7.93197,58.3682 C -7.73069,58.1712 -7.71195,57.8496 -7.799,57.389 C -7.67448,57.2065 -7.718,56.9762 -7.91506,56.7749 C -7.94407,56.6213 -7.98759,56.391 -8.03111,56.1607 L -7.72405,56.1027 C -7.527,56.304 -7.32994,56.5053 -7.30093,56.6588 C -7.2574,56.8891 -7.36741,57.1484 -7.49193,57.331 C -7.37587,57.9451 -7.50462,58.526 -7.81592,58.9824 C -8.15622,59.2852 -8.67908,59.4635 -9.29321,59.5796 C -9.93636,59.5421 -10.3782,59.3076 -10.6956,58.8905 C -10.9216,58.5357 -11.1477,58.1809 -11.2347,57.7203 C -11.1205,57.0626 -10.886,56.6207 -10.5457,56.3179 C -10.3444,56.1209 -10.0373,56.0628 -9.62447,56.1438 L -9.62447,56.1438"/>
    <path style="fill: none; fill-opacity:0; stroke-width: 0.3; stroke-linecap: round; stroke: #00c000" d="M -9.50841 56.758 C -9.92126,56.677 -10.2283,56.735 -10.4296,56.932 C -10.5831,56.9611 -10.7699,57.2349 -10.9277,57.6622 C -10.8842,57.8925 -10.6726,58.1706 -10.4465,58.5254 C -10.1727,58.7122 -9.82212,58.8844 -9.40927,58.9654 L -9.50841,56.758"/>
    <path style="fill: none; fill-opacity:0; stroke-width: 0.3; stroke-linecap: round; stroke: #00c000" d="M -11.8435 51.5542 L -9.94304,51.5131 L -10.0591,50.8989 C -9.90133,50.4716 -9.94486,50.2413 -10.1752,50.2848 C -10.3577,50.1603 -10.617,50.0503 -10.8473,50.0938 C -11.2311,50.1663 -11.4614,50.2099 -11.4614,50.2099 C -11.615,50.2389 -11.8018,50.5127 -11.9595,50.94 L -11.8435,51.5542"/>
    <path style="fill: none; fill-opacity:0; stroke-width: 0.3; stroke-linecap: round; stroke: #00c000" d="M -12.5906 52.6495 L -12.5736,51.0561 C -12.4594,50.3985 -12.3016,49.9711 -12.1916,49.7118 C -11.9903,49.5147 -11.6065,49.4422 -10.9634,49.4797 C -10.5028,49.3926 -10.1522,49.5649 -9.92612,49.9197 C -9.6523,50.1065 -9.57976,50.4903 -9.694,51.148 L -9.57794,51.7621 L -7.37046,51.663 L -7.50344,52.6422 L -12.5906,52.6495"/>
    <path style="fill: none; fill-opacity:0; stroke-width: 0.3; stroke-linecap: round; stroke: #00c000" d="M -10.996 46.7826 C -10.909,47.2432 -10.6207,47.5067 -10.2078,47.5877 C -9.93399,47.7745 -9.5834,47.9468 -9.17055,48.0277 C -8.70996,47.9407 -8.32612,47.8682 -7.94229,47.7956 C -7.74101,47.5986 -7.72227,47.277 -7.80932,46.8164 C -7.6848,46.6339 -7.72832,46.4036 -7.92538,46.2023 C -8.38174,45.891 -8.8091,45.7332 -9.26969,45.8203 C -9.68254,45.7393 -9.9896,45.7973 -10.1909,45.9944 C -10.5312,46.2972 -10.7947,46.5855 -10.996,46.7826 L -10.996,46.7826"/>
    <path style="fill: none; fill-opacity:0; stroke-width: 0.3; stroke-linecap: round; stroke: #00c000" d="M -11.3031 46.8406 C -11.1453,46.4132 -10.8963,46.0482 -10.556,45.7453 C -10.3982,45.318 -10.0289,45.1687 -9.38575,45.2061 C -8.77162,45.0901 -8.2675,45.2333 -8.04143,45.5881 C -7.57056,45.9762 -7.42126,46.3455 -7.50225,46.7584 C -7.38619,47.3725 -7.52945,47.8766 -7.88426,48.1027 C -8.22457,48.4055 -8.74743,48.5838 -9.36156,48.6999 C -10.0047,48.6624 -10.4321,48.5047 -10.7059,48.3179 C -10.9319,47.9631 -11.187,47.4547 -11.3031,46.8406 L -11.3031,46.8406"/>
    <path style="fill: none; fill-opacity:0; stroke-width: 0.3; stroke-linecap: round; stroke: #00c000" d="M -11.2009 44.4361 L -11.0099,43.7639 L -8.36241,42.6275 L -10.993,42.1705 L -11.1091,41.5564 L -8.46155,40.42 L -11.0922,39.9631 L -11.2082,39.3489 L -7.23329,40.1879 L -7.4243,40.8601 L -10.4369,41.7474 L -7.44122,42.4534 L -7.26713,43.3746 L -11.2009,44.4361"/>
    <path style="fill: none; fill-opacity:0; stroke-width: 0.3; stroke-linecap: round; stroke: #00c000" d="M -9.69286 35.1667 L -9.38579,35.1086 L -9.1706,37.9303 C -8.55647,37.8142 -8.11038,37.6504 -8.00036,37.3911 C -7.79908,37.194 -7.78034,36.8725 -7.86739,36.4119 C -7.74287,36.2293 -7.78639,35.999 -7.98345,35.7977 C -8.01246,35.6442 -8.05598,35.4139 -8.09951,35.1836 L -7.79244,35.1256 C -7.59539,35.3269 -7.39833,35.5281 -7.36932,35.6817 C -7.32579,35.912 -7.43581,36.1713 -7.56032,36.3538 C -7.44426,36.968 -7.57301,37.5488 -7.88431,38.0052 C -8.22462,38.308 -8.74747,38.4864 -9.3616,38.6024 C -10.0047,38.5649 -10.4466,38.3304 -10.7639,37.9133 C -10.99,37.5585 -11.2161,37.2037 -11.3031,36.7431 C -11.1889,36.0855 -10.9544,35.6436 -10.6141,35.3408 C -10.4128,35.1437 -10.1057,35.0857 -9.69286,35.1667 L -9.69286,35.1667"/>
    <path style="fill: none; fill-opacity:0; stroke-width: 0.3; stroke-linecap: round; stroke: #00c000" d="M -9.5768 35.7808 C -9.98965,35.6998 -10.2967,35.7578 -10.498,35.9549 C -10.6515,35.9839 -10.8383,36.2577 -10.9961,36.6851 C -10.9525,36.9154 -10.741,37.1934 -10.5149,37.5483 C -10.2411,37.735 -9.89051,37.9073 -9.47766,37.9883 L -9.5768,35.7808"/>
    <path style="fill: none; fill-opacity:0; stroke-width: 0.3; stroke-linecap: round; stroke: #00c000" d="M -10.437 31.6499 C -10.437,31.6499 -10.4079,31.8035 -10.3789,31.957 C -10.5325,31.986 -10.7628,32.0295 -10.9931,32.0731 C -10.906,32.5337 -10.6177,32.7972 -10.2048,32.8782 C -9.93102,33.065 -9.58044,33.2372 -9.16759,33.3182 L -7.26717,33.2771 L -7.45818,33.9493 L -11.259,34.0315 L -11.068,33.3594 L -10.4539,33.2433 C -10.6364,33.1188 -10.8335,32.9175 -10.877,32.6872 C -11.0596,32.5627 -11.1031,32.3324 -10.9931,32.0731 C -11.0221,31.9195 -11.0511,31.766 -11.0511,31.766 L -10.437,31.6499"/>
    <path style="fill: none; fill-opacity:0; stroke-width: 0.3; stroke-linecap: round; stroke: #00c000" d="M -12.0352 24.8758 L -11.056,25.0088 C -11.6701,25.1248 -11.9481,25.3364 -11.9191,25.4899 C -12.0291,25.7492 -12.1246,26.0853 -12.0521,26.4691 C -12.1186,26.9587 -11.9548,27.4048 -11.4549,27.9464 C -10.9072,28.32 -10.4176,28.3865 -9.8035,28.2704 C -9.14585,28.3846 -8.60849,28.2831 -8.26818,27.9803 C -7.88012,27.5094 -7.72236,27.082 -7.5791,26.5779 C -7.65164,26.1941 -7.8632,25.916 -8.06025,25.7147 C -8.08927,25.5612 -8.1473,25.2542 -8.23434,24.7936 L -7.56218,24.9846 C -7.51866,25.2149 -7.47514,25.4452 -7.44612,25.5987 C -7.4026,25.829 -7.34457,26.1361 -7.27204,26.5199 C -7.38628,27.1775 -7.59179,27.7729 -7.90308,28.2293 C -8.43017,28.806 -9.10656,29.0133 -9.99451,28.9426 C -10.7622,29.0876 -11.4343,28.8966 -12.011,28.3695 C -12.5109,27.828 -12.7037,27.2283 -12.6662,26.5852 C -12.7388,26.2014 -12.6433,25.8653 -12.5333,25.606 C -12.5623,25.4524 -12.3755,25.1786 -12.0352,24.8758 L -12.0352,24.8758"/>
    <path style="fill: none; fill-opacity:0; stroke-width: 0.3; stroke-linecap: round; stroke: #00c000" d="M -9.39975 21.9925 C -9.28369,22.6066 -9.04312,23.0382 -8.86057,23.1627 C -8.81705,23.393 -8.64901,23.4408 -8.49547,23.4118 C -8.26518,23.3682 -8.03488,23.3247 -7.88134,23.2957 C -7.68006,23.0986 -7.64682,22.8538 -7.69034,22.6235 C -7.76288,22.2397 -7.89767,21.9472 -8.17149,21.7604 C -8.39756,21.4056 -8.74815,21.2333 -9.20874,21.3203 L -9.39975,21.9925"/>
    <path style="fill: none; fill-opacity:0; stroke-width: 0.3; stroke-linecap: round; stroke: #00c000" d="M -9.57384 21.0713 L -7.36636,20.9722 L -7.30833,21.2792 L -7.92246,21.3953 C -7.7254,21.5966 -7.52835,21.7979 -7.49933,21.9514 C -7.45581,22.1817 -7.41229,22.412 -7.38327,22.5655 C -7.26721,23.1796 -7.3337,23.6693 -7.45822,23.8518 C -7.79853,24.1546 -8.1056,24.2127 -8.37942,24.0259 C -8.99355,24.1419 -9.31512,24.1232 -9.35864,23.8929 C -9.58471,23.5381 -9.83979,23.0297 -9.95585,22.4156 L -9.82287,21.4364 L -9.8809,21.1293 C -10.0344,21.1583 -10.2357,21.3554 -10.437,21.5525 C -10.7773,21.8553 -10.9496,22.2059 -10.877,22.5897 C -10.8335,22.82 -10.6365,23.0213 -10.4539,23.1458 C -10.4104,23.3761 -10.4436,23.6209 -10.6449,23.818 L -10.952,23.876 C -10.981,23.7225 -11.0245,23.4922 -11.0681,23.2619 C -11.1406,22.878 -11.1841,22.6477 -11.1841,22.6477 C -11.0699,21.9901 -10.9121,21.5627 -10.8021,21.3034 C -10.6008,21.1064 -10.217,21.0338 -9.57384,21.0713 L -9.57384,21.0713"/>
    <path style="fill: none; fill-opacity:0; stroke-width: 0.3; stroke-linecap: round; stroke: #00c000" d="M -7.89708 19.0053 L -5.68959,18.9061 L -5.8806,19.5783 L -11.2748,19.6436 L -11.0838,18.9714 L -10.4697,18.8554 C -10.6522,18.7308 -10.8493,18.5296 -10.8928,18.2993 C -11.0753,18.1747 -11.1188,17.9444 -11.0088,17.6851 C -11.0814,17.3013 -10.9091,16.9507 -10.5688,16.6479 C -10.411,16.2205 -10.0417,16.0712 -9.39857,16.1087 C -8.78444,15.9926 -8.28032,16.1359 -8.05425,16.4907 C -7.58337,16.8788 -7.28054,17.2191 -7.208,17.6029 C -7.39478,17.8767 -7.58155,18.1505 -7.70607,18.3331 C -7.66255,18.5634 -7.69579,18.8082 -7.89708,19.0053 L -7.89708,19.0053"/>
    <path style="fill: none; fill-opacity:0; stroke-width: 0.3; stroke-linecap: round; stroke: #00c000" d="M -9.28251 16.7228 C -9.69535,16.6418 -10.0024,16.6999 -10.2037,16.8969 C -10.544,17.1997 -10.793,17.5648 -10.9508,17.9922 C -10.9073,18.2225 -10.6335,18.4093 -10.2206,18.4903 C -9.9468,18.677 -9.59621,18.8493 -9.18337,18.9303 C -8.72277,18.8433 -8.33894,18.7707 -7.95511,18.6982 C -7.75382,18.5011 -7.72058,18.2563 -7.7641,18.026 C -7.68311,17.6132 -7.74113,17.3061 -7.93819,17.1048 C -8.39456,16.7935 -8.82191,16.6358 -9.28251,16.7228 L -9.28251,16.7228"/>
    <path style="fill: none; fill-opacity:0; stroke-width: 0.3; stroke-linecap: round; stroke: #00c000" d="M -9.47474 13.1813 C -9.35868,13.7954 -9.11811,14.227 -8.93556,14.3515 C -8.89204,14.5818 -8.724,14.6296 -8.57046,14.6006 C -8.34017,14.557 -8.10987,14.5135 -7.95633,14.4845 C -7.75505,14.2875 -7.72181,14.0426 -7.76533,13.8123 C -7.83786,13.4285 -7.97266,13.136 -8.24648,12.9492 C -8.47255,12.5944 -8.82314,12.4221 -9.28373,12.5091 L -9.47474,13.1813"/>
    <path style="fill: none; fill-opacity:0; stroke-width: 0.3; stroke-linecap: round; stroke: #00c000" d="M -9.64883 12.2601 L -7.44134,12.161 L -7.38332,12.468 L -7.99745,12.5841 C -7.80039,12.7854 -7.60334,12.9867 -7.57432,13.1402 C -7.5308,13.3705 -7.48728,13.6008 -7.45826,13.7543 C -7.3422,14.3684 -7.40869,14.8581 -7.53321,15.0406 C -7.87352,15.3434 -8.18058,15.4015 -8.45441,15.2147 C -9.06853,15.3308 -9.39011,15.312 -9.43363,15.0817 C -9.6597,14.7269 -9.91478,14.2186 -10.0308,13.6044 L -9.89786,12.6252 L -9.95589,12.3181 C -10.1094,12.3471 -10.3107,12.5442 -10.512,12.7413 C -10.8523,13.0441 -11.0246,13.3947 -10.952,13.7785 C -10.9085,14.0088 -10.7115,14.2101 -10.5289,14.3346 C -10.4854,14.5649 -10.5186,14.8097 -10.7199,15.0068 L -11.027,15.0648 C -11.056,14.9113 -11.0995,14.681 -11.143,14.4507 C -11.2156,14.0668 -11.2591,13.8365 -11.2591,13.8365 C -11.1449,13.1789 -10.9871,12.7515 -10.8771,12.4922 C -10.6758,12.2952 -10.292,12.2226 -9.64883,12.2601 L -9.64883,12.2601"/>
    <path style="fill: none; fill-opacity:0; stroke-width: 0.3; stroke-linecap: round; stroke: #00c000" d="M -11.1811 7.93823 L -10.567,7.82217 C -10.5235,8.05247 -10.48,8.28277 -10.451,8.4363 C -10.561,8.69561 -10.7477,8.96943 -10.949,9.16649 C -10.9055,9.39679 -10.6172,9.66033 -10.1608,9.97162 C -9.88699,10.1584 -9.53641,10.3307 -9.12356,10.4117 C -8.66296,10.3246 -8.29364,10.1753 -7.95333,9.87248 C -7.75205,9.67543 -7.7188,9.43062 -7.76232,9.20032 C -7.63781,9.01778 -7.68133,8.78748 -7.87838,8.58619 C -7.9074,8.43266 -7.95092,8.20236 -7.99444,7.97206 L -7.38031,7.85601 C -7.33679,8.0863 -7.29327,8.3166 -7.26425,8.47014 C -7.22073,8.70043 -7.33074,8.95975 -7.45526,9.1423 C -7.36822,9.60289 -7.52598,10.0302 -7.83727,10.4866 C -8.17758,10.7894 -8.70044,10.9678 -9.31457,11.0838 C -9.95771,11.0464 -10.3996,10.8118 -10.7169,10.3947 C -10.943,10.0399 -11.1691,9.68511 -11.2561,9.22452 C -11.0548,9.02746 -11.0216,8.78266 -11.0651,8.55236 C -11.0941,8.39883 -11.1376,8.16853 -11.1811,7.93823 L -11.1811,7.93823"/>
    <path style="fill: none; fill-opacity:0; stroke-width: 0.3; stroke-linecap: round; stroke: #00c000" d="M -11.293 6.92576 L -11.102,6.2536 L -7.30113,6.17138 L -7.49214,6.84354 L -11.293,6.92576"/>
    <path style="fill: none; fill-opacity:0; stroke-width: 0.3; stroke-linecap: round; stroke: #00c000" d="M -12.8863 6.90884 L -12.6953,6.23668 L -11.7741,6.06259 L -11.9651,6.73475 L -12.8863,6.90884"/>
    <path style="fill: none; fill-opacity:0; stroke-width: 0.3; stroke-linecap: round; stroke: #00c000" d="M -12.3526 4.26373 L -11.0663,4.33867 L -10.9914,3.05239 L -10.6843,2.99436 L -10.7593,4.28065 L -8.55177,4.18151 C -8.04765,4.32476 -7.87961,4.37251 -7.87961,4.37251 C -7.90862,4.21898 -7.95215,3.98868 -7.99567,3.75838 L -7.80466,3.08622 L -7.19053,2.97016 L -7.38154,3.64232 C -7.29449,4.10292 -7.39,4.439 -7.51452,4.62155 C -7.85482,4.92438 -8.23866,4.99692 -8.74277,4.85366 L -10.9503,4.9528 L -10.8922,5.25987 L -11.1993,5.3179 L -11.2573,5.01083 L -12.5436,4.93589 L -12.3526,4.26373"/>
    <path style="fill: none; fill-opacity:0; stroke-width: 0.3; stroke-linecap: round; stroke: #00c000" d="M -7.17966 0.503367 C -6.70879,0.891428 -6.34369,1.14046 -6.08438,1.25047 C -5.93085,1.22146 -5.73379,1.42274 -5.66126,1.80657 L -5.91029,2.17167 L -6.52442,2.28773 L -6.27539,1.92263 C -6.3044,1.7691 -6.50145,1.56782 -6.69851,1.36653 C -6.72752,1.213 -6.91007,1.08848 -7.0636,1.1175 L -7.4287,0.868461 L -11.2465,2.54404 L -11.0554,1.87188 L -8.46595,0.428419 L -11.1546,-0.335605 L -11.2706,-0.949735 L -7.17966,0.503367"/>
  </g>
  <g>
    <path style="fill: none; fill-opacity:0; stroke-width: 0.3; stroke-linecap: round; stroke: #c00000" d="M 0.93752 -10.9845 L 0.93752,-9.10947 L 1.56252,-9.10947 C 1.95315,-9.10947 2.26565,-9.1876 2.50002,-9.42197 C 2.65627,-9.57822 2.81252,-9.89072 2.81252,-10.3595 C 2.81252,-10.5157 2.65627,-10.672 2.50002,-10.672 C 2.26565,-10.8282 1.95315,-10.9845 1.56252,-10.9845 L 0.93752,-10.9845"/>
    <path style="fill: none; fill-opacity:0; stroke-width: 0.3; stroke-linecap: round; stroke: #c00000" d="M 2e-05 -11.922 L 1.56252,-11.922 C 2.18752,-11.922 2.57815,-11.6876 2.81252,-11.297 C 3.20315,-11.0626 3.43752,-10.7501 3.43752,-10.3595 C 3.43752,-9.73447 3.20315,-9.26572 2.81252,-9.10947 C 2.57815,-8.8751 2.18752,-8.79697 1.56252,-8.79697 L 0.93752,-8.79697 L 0.93752,-6.60947 L 2e-05,-6.60947 L 2e-05,-11.922"/>
    <path style="fill: none; fill-opacity:0; stroke-width: 0.3; stroke-linecap: round; stroke: #c00000" d="M 7.65627 -8.79697 L 7.65627,-8.48447 L 4.84377,-8.48447 C 4.84377,-8.01572 4.9219,-7.6251 5.15627,-7.23447 C 5.31252,-7.0001 5.62502,-6.92197 6.09377,-6.92197 C 6.25002,-6.92197 6.4844,-6.92197 6.71877,-6.92197 C 6.87502,-7.07822 7.1094,-7.23447 7.34377,-7.23447 L 7.34377,-6.92197 C 7.1094,-6.6876 6.87502,-6.60947 6.71877,-6.60947 C 6.4844,-6.60947 6.25002,-6.60947 6.09377,-6.60947 C 5.46877,-6.60947 4.9219,-6.6876 4.53127,-6.92197 C 4.06252,-7.3126 3.90627,-7.85947 3.90627,-8.48447 C 3.90627,-9.10947 4.06252,-9.57822 4.53127,-10.047 C 4.9219,-10.4376 5.31252,-10.672 5.78127,-10.672 C 6.40627,-10.672 6.7969,-10.4376 7.03127,-10.047 C 7.4219,-9.8126 7.65627,-9.42197 7.65627,-8.79697 L 7.65627,-8.79697"/>
    <path style="fill: none; fill-opacity:0; stroke-width: 0.3; stroke-linecap: round; stroke: #c00000" d="M 7.03127 -8.79697 C 7.03127,-9.1876 6.87502,-9.5001 6.71877,-9.73447 C 6.4844,-9.89072 6.1719,-10.047 5.78127,-10.047 C 5.5469,-10.047 5.31252,-9.89072 5.15627,-9.73447 C 4.9219,-9.5001 4.84377,-9.1876 4.84377,-8.79697 L 7.03127,-8.79697"/>
    <path style="fill: none; fill-opacity:0; stroke-width: 0.3; stroke-linecap: round; stroke: #c00000" d="M 10.4688 -8.48447 C 9.84377,-8.48447 9.37502,-8.32822 9.21877,-8.17197 C 9.21877,-8.17197 9.21877,-8.01572 9.21877,-7.85947 C 9.21877,-7.6251 9.21877,-7.39072 9.21877,-7.23447 C 9.37502,-7.0001 9.6094,-6.92197 9.84377,-6.92197 C 10.2344,-6.92197 10.5469,-7.0001 10.7813,-7.23447 C 10.9375,-7.6251 11.0938,-8.01572 11.0938,-8.48447 L 10.4688,-8.48447"/>
    <path style="fill: none; fill-opacity:0; stroke-width: 0.3; stroke-linecap: round; stroke: #c00000" d="M 11.7188 -8.79697 L 11.7188,-6.60947 L 11.0938,-6.60947 L 11.0938,-7.23447 C 10.8594,-7.0001 10.625,-6.76572 10.4688,-6.60947 C 10.2344,-6.60947 10,-6.60947 9.84377,-6.60947 C 9.37502,-6.60947 8.9844,-6.6876 8.59377,-6.92197 C 8.3594,-7.07822 8.28127,-7.39072 8.28127,-7.85947 C 8.28127,-8.2501 8.3594,-8.5626 8.59377,-8.79697 C 8.9844,-8.95322 9.53127,-9.10947 10.1563,-9.10947 L 11.0938,-9.10947 C 11.0938,-9.5001 10.9375,-9.73447 10.7813,-9.73447 C 10.5469,-9.89072 10.2344,-10.047 9.84377,-10.047 C 9.6094,-10.047 9.37502,-10.047 9.21877,-10.047 C 8.9844,-10.047 8.75002,-9.89072 8.59377,-9.73447 L 8.59377,-10.3595 C 8.9844,-10.3595 9.2969,-10.3595 9.53127,-10.3595 C 9.68752,-10.5157 9.84377,-10.672 9.84377,-10.672 C 10.4688,-10.672 10.8594,-10.4376 11.0938,-10.047 C 11.4844,-9.8126 11.7188,-9.42197 11.7188,-8.79697 L 11.7188,-8.79697"/>
    <path style="fill: none; fill-opacity:0; stroke-width: 0.3; stroke-linecap: round; stroke: #c00000" d="M 12.8906 -11.922 L 13.5156,-11.922 L 13.5156,-8.79697 L 15.3906,-10.3595 L 16.3281,-10.3595 L 14.1406,-8.79697 L 16.3281,-6.60947 L 15.3906,-6.60947 L 13.5156,-8.48447 L 13.5156,-6.60947 L 12.8906,-6.60947 L 12.8906,-11.922"/>
    <path style="fill: none; fill-opacity:0; stroke-width: 0.3; stroke-linecap: round; stroke: #c00000" d="M 19.2188 -11.922 L 22.6563,-11.922 L 22.6563,-10.9845 L 20.1563,-10.9845 L 20.1563,-9.73447 L 22.3438,-9.73447 L 22.3438,-9.10947 L 20.1563,-9.10947 L 20.1563,-7.23447 L 22.6563,-7.23447 L 22.6563,-6.60947 L 19.2188,-6.60947 L 19.2188,-11.922"/>
    <path style="fill: none; fill-opacity:0; stroke-width: 0.3; stroke-linecap: round; stroke: #c00000" d="M 26.7969 -8.79697 L 26.7969,-6.60947 L 26.1719,-6.60947 L 26.1719,-8.79697 C 26.1719,-9.1876 26.0156,-9.5001 25.8594,-9.73447 C 25.8594,-9.89072 25.7031,-10.047 25.5469,-10.047 C 25.0781,-10.047 24.7656,-9.89072 24.6094,-9.73447 C 24.375,-9.5001 24.2969,-9.1876 24.2969,-8.79697 L 24.2969,-6.60947 L 23.6719,-6.60947 L 23.6719,-10.3595 L 24.2969,-10.3595 L 24.2969,-10.047 C 24.4531,-10.2032 24.6875,-10.3595 24.9219,-10.3595 C 25.0781,-10.5157 25.3125,-10.672 25.5469,-10.672 C 25.9375,-10.672 26.25,-10.4376 26.4844,-10.047 C 26.6406,-9.8126 26.7969,-9.42197 26.7969,-8.79697 L 26.7969,-8.79697"/>
    <path style="fill: none; fill-opacity:0; stroke-width: 0.3; stroke-linecap: round; stroke: #c00000" d="M 31.6406 -8.79697 L 31.6406,-8.48447 L 28.8281,-8.48447 C 28.8281,-8.01572 28.9063,-7.6251 29.1406,-7.23447 C 29.2969,-7.0001 29.6094,-6.92197 30.0781,-6.92197 C 30.2344,-6.92197 30.4688,-6.92197 30.7031,-6.92197 C 30.8594,-7.07822 31.0938,-7.23447 31.3281,-7.23447 L 31.3281,-6.92197 C 31.0938,-6.6876 30.8594,-6.60947 30.7031,-6.60947 C 30.4688,-6.60947 30.2344,-6.60947 30.0781,-6.60947 C 29.4531,-6.60947 28.9063,-6.6876 28.5156,-6.92197 C 28.0469,-7.3126 27.8906,-7.85947 27.8906,-8.48447 C 27.8906,-9.10947 28.0469,-9.57822 28.5156,-10.047 C 28.9063,-10.4376 29.2969,-10.672 29.7656,-10.672 C 30.3906,-10.672 30.7813,-10.4376 31.0156,-10.047 C 31.4063,-9.8126 31.6406,-9.42197 31.6406,-8.79697 L 31.6406,-8.79697"/>
    <path style="fill: none; fill-opacity:0; stroke-width: 0.3; stroke-linecap: round; stroke: #c00000" d="M 31.0156 -8.79697 C 31.0156,-9.1876 30.8594,-9.5001 30.7031,-9.73447 C 30.4688,-9.89072 30.1563,-10.047 29.7656,-10.047 C 29.5313,-10.047 29.2969,-9.89072 29.1406,-9.73447 C 28.9063,-9.5001 28.8281,-9.1876 28.8281,-8.79697 L 31.0156,-8.79697"/>
    <path style="fill: none; fill-opacity:0; stroke-width: 0.3; stroke-linecap: round; stroke: #c00000" d="M 34.6875 -10.047 C 34.6875,-10.047 34.5313,-10.047 34.375,-10.047 C 33.9063,-10.047 33.5938,-9.8126 33.4375,-9.42197 C 33.2031,-9.1876 33.125,-8.8751 33.125,-8.48447 L 33.125,-6.60947 L 32.5,-6.60947 L 32.5,-10.3595 L 33.125,-10.3595 L 33.125,-10.047 C 33.2813,-10.2032 33.5156,-10.3595 33.75,-10.3595 C 33.9063,-10.5157 34.1406,-10.672 34.375,-10.672 C 34.5313,-10.672 34.6875,-10.672 34.6875,-10.672 L 34.6875,-10.047"/>
    <path style="fill: none; fill-opacity:0; stroke-width: 0.3; stroke-linecap: round; stroke: #c00000" d="M 37.8906 -8.48447 C 37.8906,-8.8751 37.7344,-9.1876 37.5781,-9.42197 C 37.3438,-9.8126 37.1094,-10.047 36.9531,-10.047 C 36.4844,-10.047 36.1719,-9.8126 36.0156,-9.42197 C 35.7813,-9.1876 35.7031,-8.8751 35.7031,-8.48447 C 35.7031,-8.01572 35.7813,-7.70322 36.0156,-7.54697 C 36.1719,-7.3126 36.4844,-7.23447 36.9531,-7.23447 C 37.1094,-7.23447 37.3438,-7.3126 37.5781,-7.54697 C 37.7344,-7.70322 37.8906,-8.01572 37.8906,-8.48447 L 37.8906,-8.48447"/>
    <path style="fill: none; fill-opacity:0; stroke-width: 0.3; stroke-linecap: round; stroke: #c00000" d="M 38.5156 -6.92197 C 38.5156,-6.29697 38.3594,-5.90635 38.2031,-5.67197 C 37.9688,-5.28135 37.5781,-5.04697 36.9531,-5.04697 C 36.7188,-5.04697 36.4844,-5.20322 36.3281,-5.35947 C 36.0938,-5.35947 35.8594,-5.35947 35.7031,-5.35947 L 35.7031,-5.98447 C 35.8594,-5.98447 36.0156,-5.98447 36.0156,-5.98447 C 36.1719,-5.82822 36.4063,-5.67197 36.6406,-5.67197 C 37.0313,-5.67197 37.3438,-5.82822 37.5781,-5.98447 C 37.7344,-6.21885 37.8906,-6.53135 37.8906,-6.92197 L 37.8906,-7.23447 C 37.8906,-7.0001 37.7344,-6.76572 37.5781,-6.60947 C 37.3438,-6.60947 37.0313,-6.60947 36.6406,-6.60947 C 36.1719,-6.60947 35.7813,-6.76572 35.3906,-7.23447 C 35.1563,-7.6251 35.0781,-8.01572 35.0781,-8.48447 C 35.0781,-9.10947 35.1563,-9.57822 35.3906,-10.047 C 35.7813,-10.4376 36.1719,-10.672 36.6406,-10.672 C 37.0313,-10.672 37.3438,-10.5157 37.5781,-10.3595 C 37.7344,-10.3595 37.8906,-10.2032 37.8906,-10.047 L 37.8906,-10.3595 L 38.5156,-10.3595 L 38.5156,-6.92197"/>
    <path style="fill: none; fill-opacity:0; stroke-width: 0.3; stroke-linecap: round; stroke: #c00000" d="M 41.4844 -6.29697 C 41.25,-5.67197 41.0156,-5.35947 40.8594,-5.35947 C 40.8594,-5.20322 40.7031,-5.04697 40.5469,-5.04697 L 39.9219,-5.04697 L 39.9219,-5.67197 L 40.2344,-5.67197 C 40.3906,-5.67197 40.5469,-5.82822 40.5469,-5.98447 C 40.7031,-5.98447 40.8594,-6.14072 40.8594,-6.29697 L 41.1719,-6.60947 L 39.6094,-10.3595 L 40.2344,-10.3595 L 41.4844,-7.54697 L 42.7344,-10.3595 L 43.3594,-10.3595 L 41.4844,-6.29697"/>
    <path style="fill: none; fill-opacity:0; stroke-width: 0.3; stroke-linecap: round; stroke: #c00000" d="M 50.0781 -11.297 L 50.0781,-10.672 C 49.8438,-10.8282 49.6094,-10.9845 49.4531,-10.9845 C 49.2188,-11.1407 48.9844,-11.297 48.8281,-11.297 C 48.2031,-11.297 47.6563,-11.0626 47.2656,-10.672 C 47.0313,-10.4376 46.9531,-9.89072 46.9531,-9.10947 C 46.9531,-8.48447 47.0313,-7.9376 47.2656,-7.54697 C 47.6563,-7.07822 48.2031,-6.92197 48.8281,-6.92197 C 48.9844,-6.92197 49.2188,-6.92197 49.4531,-6.92197 C 49.6094,-7.07822 49.8438,-7.39072 50.0781,-7.85947 L 50.0781,-6.92197 C 49.8438,-6.6876 49.6094,-6.60947 49.4531,-6.60947 C 49.2188,-6.60947 48.9063,-6.60947 48.5156,-6.60947 C 47.8906,-6.60947 47.2656,-6.76572 46.6406,-7.23447 C 46.1719,-7.6251 46.0156,-8.2501 46.0156,-9.10947 C 46.0156,-9.89072 46.1719,-10.5157 46.6406,-10.9845 C 47.2656,-11.6095 47.8906,-11.922 48.5156,-11.922 C 48.9063,-11.922 49.2188,-11.7657 49.4531,-11.6095 C 49.6094,-11.6095 49.8438,-11.4532 50.0781,-11.297 L 50.0781,-11.297"/>
    <path style="fill: none; fill-opacity:0; stroke-width: 0.3; stroke-linecap: round; stroke: #c00000" d="M 53.125 -8.48447 C 52.5,-8.48447 52.0313,-8.32822 51.875,-8.17197 C 51.875,-8.17197 51.875,-8.01572 51.875,-7.85947 C 51.875,-7.6251 51.875,-7.39072 51.875,-7.23447 C 52.0313,-7.0001 52.2656,-6.92197 52.5,-6.92197 C 52.8906,-6.92197 53.2031,-7.0001 53.4375,-7.23447 C 53.5938,-7.6251 53.75,-8.01572 53.75,-8.48447 L 53.125,-8.48447"/>
    <path style="fill: none; fill-opacity:0; stroke-width: 0.3; stroke-linecap: round; stroke: #c00000" d="M 54.375 -8.79697 L 54.375,-6.60947 L 53.75,-6.60947 L 53.75,-7.23447 C 53.5156,-7.0001 53.2813,-6.76572 53.125,-6.60947 C 52.8906,-6.60947 52.6563,-6.60947 52.5,-6.60947 C 52.0313,-6.60947 51.6406,-6.6876 51.25,-6.92197 C 51.0156,-7.07822 50.9375,-7.39072 50.9375,-7.85947 C 50.9375,-8.2501 51.0156,-8.5626 51.25,-8.79697 C 51.6406,-8.95322 52.1875,-9.10947 52.8125,-9.10947 L 53.75,-9.10947 C 53.75,-9.5001 53.5938,-9.73447 53.4375,-9.73447 C 53.2031,-9.89072 52.8906,-10.047 52.5,-10.047 C 52.2656,-10.047 52.0313,-10.047 51.875,-10.047 C 51.6406,-10.047 51.4063,-9.89072 51.25,-9.73447 L 51.25,-10.3595 C 51.6406,-10.3595 51.9531,-10.3595 52.1875,-10.3595 C 52.3438,-10.5157 52.5,-10.672 52.5,-10.672 C 53.125,-10.672 53.5156,-10.4376 53.75,-10.047 C 54.1406,-9.8126 54.375,-9.42197 54.375,-8.79697 L 54.375,-8.79697"/>
    <path style="fill: none; fill-opacity:0; stroke-width: 0.3; stroke-linecap: round; stroke: #c00000" d="M 56.1719 -7.23447 L 56.1719,-5.04697 L 55.5469,-5.04697 L 55.5469,-10.3595 L 56.1719,-10.3595 L 56.1719,-10.047 C 56.3281,-10.2032 56.5625,-10.3595 56.7969,-10.3595 C 56.9531,-10.5157 57.1875,-10.672 57.4219,-10.672 C 57.8125,-10.672 58.125,-10.4376 58.3594,-10.047 C 58.75,-9.57822 58.9844,-9.10947 58.9844,-8.48447 C 58.9844,-7.85947 58.75,-7.3126 58.3594,-6.92197 C 58.125,-6.6876 57.8125,-6.60947 57.4219,-6.60947 C 57.1875,-6.60947 56.9531,-6.60947 56.7969,-6.60947 C 56.5625,-6.76572 56.3281,-7.0001 56.1719,-7.23447 L 56.1719,-7.23447"/>
    <path style="fill: none; fill-opacity:0; stroke-width: 0.3; stroke-linecap: round; stroke: #c00000" d="M 58.3594 -8.48447 C 58.3594,-8.8751 58.2031,-9.1876 58.0469,-9.42197 C 57.8125,-9.8126 57.5,-10.047 57.1094,-10.047 C 56.875,-10.047 56.6406,-9.8126 56.4844,-9.42197 C 56.25,-9.1876 56.1719,-8.8751 56.1719,-8.48447 C 56.1719,-8.01572 56.25,-7.6251 56.4844,-7.23447 C 56.6406,-7.0001 56.875,-6.92197 57.1094,-6.92197 C 57.5,-6.92197 57.8125,-7.0001 58.0469,-7.23447 C 58.2031,-7.6251 58.3594,-8.01572 58.3594,-8.48447 L 58.3594,-8.48447"/>
    <path style="fill: none; fill-opacity:0; stroke-width: 0.3; stroke-linecap: round; stroke: #c00000" d="M 61.9531 -8.48447 C 61.3281,-8.48447 60.8594,-8.32822 60.7031,-8.17197 C 60.7031,-8.17197 60.7031,-8.01572 60.7031,-7.85947 C 60.7031,-7.6251 60.7031,-7.39072 60.7031,-7.23447 C 60.8594,-7.0001 61.0938,-6.92197 61.3281,-6.92197 C 61.7188,-6.92197 62.0313,-7.0001 62.2656,-7.23447 C 62.4219,-7.6251 62.5781,-8.01572 62.5781,-8.48447 L 61.9531,-8.48447"/>
    <path style="fill: none; fill-opacity:0; stroke-width: 0.3; stroke-linecap: round; stroke: #c00000" d="M 63.2031 -8.79697 L 63.2031,-6.60947 L 62.5781,-6.60947 L 62.5781,-7.23447 C 62.3438,-7.0001 62.1094,-6.76572 61.9531,-6.60947 C 61.7188,-6.60947 61.4844,-6.60947 61.3281,-6.60947 C 60.8594,-6.60947 60.4688,-6.6876 60.0781,-6.92197 C 59.8438,-7.07822 59.7656,-7.39072 59.7656,-7.85947 C 59.7656,-8.2501 59.8438,-8.5626 60.0781,-8.79697 C 60.4688,-8.95322 61.0156,-9.10947 61.6406,-9.10947 L 62.5781,-9.10947 C 62.5781,-9.5001 62.4219,-9.73447 62.2656,-9.73447 C 62.0313,-9.89072 61.7188,-10.047 61.3281,-10.047 C 61.0938,-10.047 60.8594,-10.047 60.7031,-10.047 C 60.4688,-10.047 60.2344,-9.89072 60.0781,-9.73447 L 60.0781,-10.3595 C 60.4688,-10.3595 60.7813,-10.3595 61.0156,-10.3595 C 61.1719,-10.5157 61.3281,-10.672 61.3281,-10.672 C 61.9531,-10.672 62.3438,-10.4376 62.5781,-10.047 C 62.9688,-9.8126 63.2031,-9.42197 63.2031,-8.79697 L 63.2031,-8.79697"/>
    <path style="fill: none; fill-opacity:0; stroke-width: 0.3; stroke-linecap: round; stroke: #c00000" d="M 67.1875 -10.3595 L 67.1875,-9.73447 C 66.9531,-9.89072 66.7188,-10.047 66.5625,-10.047 C 66.3281,-10.047 66.0938,-10.047 65.9375,-10.047 C 65.7031,-10.047 65.4688,-9.8126 65.3125,-9.42197 C 65.0781,-9.1876 65,-8.8751 65,-8.48447 C 65,-8.01572 65.0781,-7.6251 65.3125,-7.23447 C 65.4688,-7.0001 65.7031,-6.92197 65.9375,-6.92197 C 66.0938,-6.92197 66.3281,-6.92197 66.5625,-6.92197 C 66.7188,-7.07822 66.9531,-7.23447 67.1875,-7.23447 L 67.1875,-6.60947 C 66.9531,-6.60947 66.7188,-6.60947 66.5625,-6.60947 C 66.3281,-6.60947 66.0938,-6.60947 65.9375,-6.60947 C 65.4688,-6.60947 65.0781,-6.6876 64.6875,-6.92197 C 64.2188,-7.3126 64.0625,-7.85947 64.0625,-8.48447 C 64.0625,-9.10947 64.2188,-9.57822 64.6875,-10.047 C 65.0781,-10.4376 65.4688,-10.672 65.9375,-10.672 C 66.0938,-10.672 66.3281,-10.5157 66.5625,-10.3595 C 66.7188,-10.3595 66.9531,-10.3595 67.1875,-10.3595 L 67.1875,-10.3595"/>
    <path style="fill: none; fill-opacity:0; stroke-width: 0.3; stroke-linecap: round; stroke: #c00000" d="M 68.2813 -10.3595 L 68.9063,-10.3595 L 68.9063,-6.60947 L 68.2813,-6.60947 L 68.2813,-10.3595"/>
    <path style="fill: none; fill-opacity:0; stroke-width: 0.3; stroke-linecap: round; stroke: #c00000" d="M 68.2813 -11.922 L 68.9063,-11.922 L 68.9063,-10.9845 L 68.2813,-10.9845 L 68.2813,-11.922"/>
    <path style="fill: none; fill-opacity:0; stroke-width: 0.3; stroke-linecap: round; stroke: #c00000" d="M 70.8594 -11.6095 L 70.8594,-10.3595 L 72.1094,-10.3595 L 72.1094,-10.047 L 70.8594,-10.047 L 70.8594,-7.85947 C 70.8594,-7.39072 70.8594,-7.23447 70.8594,-7.23447 C 71.0156,-7.23447 71.25,-7.23447 71.4844,-7.23447 L 72.1094,-7.23447 L 72.1094,-6.60947 L 71.4844,-6.60947 C 71.0156,-6.60947 70.7031,-6.6876 70.5469,-6.92197 C 70.3125,-7.07822 70.2344,-7.39072 70.2344,-7.85947 L 70.2344,-10.047 L 69.9219,-10.047 L 69.9219,-10.3595 L 70.2344,-10.3595 L 70.2344,-11.6095 L 70.8594,-11.6095"/>
    <path style="fill: none; fill-opacity:0; stroke-width: 0.3; stroke-linecap: round; stroke: #c00000" d="M 74.5313 -6.29697 C 74.2969,-5.67197 74.0625,-5.35947 73.9063,-5.35947 C 73.9063,-5.20322 73.75,-5.04697 73.5938,-5.04697 L 72.9688,-5.04697 L 72.9688,-5.67197 L 73.2813,-5.67197 C 73.4375,-5.67197 73.5938,-5.82822 73.5938,-5.98447 C 73.75,-5.98447 73.9063,-6.14072 73.9063,-6.29697 L 74.2188,-6.60947 L 72.6563,-10.3595 L 73.2813,-10.3595 L 74.5313,-7.54697 L 75.7813,-10.3595 L 76.4063,-10.3595 L 74.5313,-6.29697"/>
  </g>
  <g>
    <path style="fill: none; fill-opacity:0; stroke-width: 0.3; stroke-linecap: round; stroke: #c00000" d="M 203.665 194.953 L 205.566,194.912 L 205.45,194.297 C 205.607,193.87 205.564,193.64 205.334,193.683 C 205.151,193.559 204.892,193.449 204.662,193.492 C 204.278,193.565 204.047,193.608 204.047,193.608 C 203.894,193.637 203.707,193.911 203.549,194.339 L 203.665,194.953"/>
    <path style="fill: none; fill-opacity:0; stroke-width: 0.3; stroke-linecap: round; stroke: #c00000" d="M 202.918 196.048 L 202.935,194.455 C 203.049,193.797 203.207,193.37 203.317,193.11 C 203.518,192.913 203.902,192.841 204.545,192.878 C 205.006,192.791 205.357,192.963 205.583,193.318 C 205.857,193.505 205.929,193.889 205.815,194.546 L 205.931,195.161 L 208.138,195.061 L 208.005,196.041 L 202.918,196.048"/>
    <path style="fill: none; fill-opacity:0; stroke-width: 0.3; stroke-linecap: round; stroke: #c00000" d="M 205.816 188.663 L 206.123,188.605 L 206.338,191.426 C 206.952,191.31 207.398,191.146 207.508,190.887 C 207.71,190.69 207.729,190.368 207.641,189.908 C 207.766,189.725 207.722,189.495 207.525,189.294 C 207.496,189.14 207.453,188.91 207.409,188.68 L 207.716,188.622 C 207.913,188.823 208.111,189.024 208.14,189.178 C 208.183,189.408 208.073,189.667 207.949,189.85 C 208.065,190.464 207.936,191.045 207.625,191.501 C 207.284,191.804 206.761,191.982 206.147,192.098 C 205.504,192.061 205.062,191.826 204.745,191.409 C 204.519,191.055 204.293,190.7 204.206,190.239 C 204.32,189.581 204.555,189.14 204.895,188.837 C 205.096,188.64 205.403,188.582 205.816,188.663 L 205.816,188.663"/>
    <path style="fill: none; fill-opacity:0; stroke-width: 0.3; stroke-linecap: round; stroke: #c00000" d="M 205.932 189.277 C 205.519,189.196 205.212,189.254 205.011,189.451 C 204.857,189.48 204.671,189.754 204.513,190.181 C 204.556,190.411 204.768,190.689 204.994,191.044 C 205.268,191.231 205.618,191.403 206.031,191.484 L 205.932,189.277"/>
    <path style="fill: none; fill-opacity:0; stroke-width: 0.3; stroke-linecap: round; stroke: #c00000" d="M 206.032 185.6 C 206.148,186.215 206.389,186.646 206.572,186.771 C 206.615,187.001 206.783,187.049 206.937,187.02 C 207.167,186.976 207.397,186.933 207.551,186.904 C 207.752,186.707 207.785,186.462 207.742,186.232 C 207.669,185.848 207.534,185.555 207.261,185.368 C 207.035,185.014 206.684,184.841 206.223,184.928 L 206.032,185.6"/>
    <path style="fill: none; fill-opacity:0; stroke-width: 0.3; stroke-linecap: round; stroke: #c00000" d="M 205.858 184.679 L 208.066,184.58 L 208.124,184.887 L 207.51,185.003 C 207.707,185.205 207.904,185.406 207.933,185.559 C 207.976,185.79 208.02,186.02 208.049,186.173 C 208.165,186.788 208.098,187.277 207.974,187.46 C 207.634,187.763 207.327,187.821 207.053,187.634 C 206.439,187.75 206.117,187.731 206.074,187.501 C 205.847,187.146 205.592,186.638 205.476,186.024 L 205.609,185.044 L 205.551,184.737 C 205.398,184.766 205.196,184.963 204.995,185.16 C 204.655,185.463 204.483,185.814 204.555,186.198 C 204.599,186.428 204.796,186.629 204.978,186.754 C 205.022,186.984 204.988,187.229 204.787,187.426 L 204.48,187.484 C 204.451,187.33 204.408,187.1 204.364,186.87 C 204.292,186.486 204.248,186.256 204.248,186.256 C 204.362,185.598 204.52,185.171 204.63,184.911 C 204.831,184.714 205.215,184.642 205.858,184.679 L 205.858,184.679"/>
    <path style="fill: none; fill-opacity:0; stroke-width: 0.3; stroke-linecap: round; stroke: #c00000" d="M 202.641 183.22 L 202.832,182.548 L 206.018,182.582 L 204.384,180.664 L 204.268,180.05 L 205.902,181.968 L 208.011,179.661 L 208.185,180.582 L 206.326,182.524 L 208.226,182.483 L 208.035,183.155 L 202.641,183.22"/>
    <path style="fill: none; fill-opacity:0; stroke-width: 0.3; stroke-linecap: round; stroke: #c00000" d="M 203.686 175.708 L 205.586,175.667 L 205.47,175.053 C 205.628,174.625 205.584,174.395 205.354,174.439 C 205.172,174.314 204.912,174.204 204.682,174.248 C 204.298,174.32 204.068,174.364 204.068,174.364 C 203.914,174.393 203.728,174.666 203.57,175.094 L 203.686,175.708"/>
    <path style="fill: none; fill-opacity:0; stroke-width: 0.3; stroke-linecap: round; stroke: #c00000" d="M 202.939 176.803 L 202.956,175.21 C 203.07,174.552 203.228,174.125 203.338,173.866 C 203.539,173.668 203.923,173.596 204.566,173.633 C 205.027,173.546 205.377,173.719 205.603,174.073 C 205.877,174.26 205.95,174.644 205.835,175.302 L 205.951,175.916 L 208.159,175.817 L 208.026,176.796 L 202.939,176.803"/>
    <path style="fill: none; fill-opacity:0; stroke-width: 0.3; stroke-linecap: round; stroke: #c00000" d="M 204.533 170.936 C 204.62,171.397 204.909,171.66 205.321,171.741 C 205.595,171.928 205.946,172.1 206.359,172.181 C 206.819,172.094 207.203,172.022 207.587,171.949 C 207.788,171.752 207.807,171.431 207.72,170.97 C 207.844,170.788 207.801,170.557 207.604,170.356 C 207.148,170.045 206.72,169.887 206.26,169.974 C 205.847,169.893 205.54,169.951 205.338,170.148 C 204.998,170.451 204.735,170.739 204.533,170.936 L 204.533,170.936"/>
    <path style="fill: none; fill-opacity:0; stroke-width: 0.3; stroke-linecap: round; stroke: #c00000" d="M 204.226 170.994 C 204.384,170.567 204.633,170.202 204.973,169.899 C 205.131,169.472 205.5,169.322 206.144,169.36 C 206.758,169.244 207.262,169.387 207.488,169.742 C 207.959,170.13 208.108,170.499 208.027,170.912 C 208.143,171.526 208,172.03 207.645,172.256 C 207.305,172.559 206.782,172.738 206.168,172.854 C 205.525,172.816 205.097,172.658 204.823,172.472 C 204.597,172.117 204.342,171.608 204.226,170.994 L 204.226,170.994"/>
    <path style="fill: none; fill-opacity:0; stroke-width: 0.3; stroke-linecap: round; stroke: #c00000" d="M 204.252 168.604 L 204.443,167.932 L 207.09,166.796 L 204.46,166.339 L 204.343,165.725 L 206.991,164.588 L 204.36,164.131 L 204.244,163.517 L 208.219,164.356 L 208.028,165.028 L 205.016,165.916 L 208.011,166.622 L 208.185,167.543 L 204.252,168.604"/>
    <path style="fill: none; fill-opacity:0; stroke-width: 0.3; stroke-linecap: round; stroke: #c00000" d="M 205.851 159.397 L 206.158,159.339 L 206.373,162.161 C 206.987,162.045 207.433,161.881 207.543,161.622 C 207.745,161.425 207.763,161.103 207.676,160.642 C 207.801,160.46 207.757,160.23 207.56,160.028 C 207.531,159.875 207.488,159.644 207.444,159.414 L 207.751,159.356 C 207.948,159.557 208.145,159.759 208.174,159.912 C 208.218,160.142 208.108,160.402 207.983,160.584 C 208.1,161.198 207.971,161.779 207.659,162.236 C 207.319,162.539 206.796,162.717 206.182,162.833 C 205.539,162.795 205.097,162.561 204.78,162.144 C 204.554,161.789 204.328,161.434 204.241,160.974 C 204.355,160.316 204.589,159.874 204.93,159.571 C 205.131,159.374 205.438,159.316 205.851,159.397 L 205.851,159.397"/>
    <path style="fill: none; fill-opacity:0; stroke-width: 0.3; stroke-linecap: round; stroke: #c00000" d="M 205.967 160.011 C 205.554,159.93 205.247,159.988 205.046,160.185 C 204.892,160.214 204.705,160.488 204.548,160.916 C 204.591,161.146 204.803,161.424 205.029,161.779 C 205.303,161.966 205.653,162.138 206.066,162.219 L 205.967,160.011"/>
    <path style="fill: none; fill-opacity:0; stroke-width: 0.3; stroke-linecap: round; stroke: #c00000" d="M 205.016 155.818 C 205.016,155.818 205.045,155.972 205.074,156.125 C 204.92,156.154 204.69,156.198 204.459,156.241 C 204.547,156.702 204.835,156.965 205.248,157.046 C 205.522,157.233 205.872,157.405 206.285,157.486 L 208.185,157.445 L 207.994,158.118 L 204.194,158.2 L 204.385,157.528 L 204.999,157.412 C 204.816,157.287 204.619,157.086 204.576,156.855 C 204.393,156.731 204.349,156.501 204.459,156.241 C 204.43,156.088 204.401,155.934 204.401,155.934 L 205.016,155.818"/>
    <path style="fill: none; fill-opacity:0; stroke-width: 0.3; stroke-linecap: round; stroke: #c00000" d="M 203.417 149.044 L 204.397,149.177 C 203.782,149.293 203.504,149.505 203.533,149.658 C 203.423,149.917 203.328,150.254 203.4,150.637 C 203.334,151.127 203.498,151.573 203.998,152.115 C 204.545,152.488 205.035,152.555 205.649,152.439 C 206.307,152.553 206.844,152.451 207.184,152.149 C 207.572,151.678 207.73,151.25 207.873,150.746 C 207.801,150.362 207.589,150.084 207.392,149.883 C 207.363,149.729 207.305,149.422 207.218,148.962 L 207.89,149.153 C 207.934,149.383 207.977,149.613 208.006,149.767 C 208.05,149.997 208.108,150.304 208.18,150.688 C 208.066,151.346 207.861,151.941 207.549,152.398 C 207.022,152.974 206.346,153.182 205.458,153.111 C 204.69,153.256 204.018,153.065 203.442,152.538 C 202.942,151.996 202.749,151.397 202.786,150.753 C 202.714,150.37 202.809,150.034 202.919,149.774 C 202.89,149.621 203.077,149.347 203.417,149.044 L 203.417,149.044"/>
    <path style="fill: none; fill-opacity:0; stroke-width: 0.3; stroke-linecap: round; stroke: #c00000" d="M 206.053 146.161 C 206.169,146.775 206.409,147.206 206.592,147.331 C 206.635,147.561 206.804,147.609 206.957,147.58 C 207.187,147.536 207.418,147.493 207.571,147.464 C 207.772,147.267 207.806,147.022 207.762,146.792 C 207.69,146.408 207.555,146.115 207.281,145.929 C 207.055,145.574 206.704,145.402 206.244,145.489 L 206.053,146.161"/>
    <path style="fill: none; fill-opacity:0; stroke-width: 0.3; stroke-linecap: round; stroke: #c00000" d="M 205.879 145.24 L 208.086,145.14 L 208.144,145.447 L 207.53,145.564 C 207.727,145.765 207.924,145.966 207.953,146.12 C 207.997,146.35 208.04,146.58 208.069,146.734 C 208.185,147.348 208.119,147.837 207.994,148.02 C 207.654,148.323 207.347,148.381 207.073,148.194 C 206.459,148.31 206.137,148.291 206.094,148.061 C 205.868,147.706 205.613,147.198 205.497,146.584 L 205.63,145.605 L 205.572,145.298 C 205.418,145.327 205.217,145.524 205.016,145.721 C 204.675,146.024 204.503,146.374 204.575,146.758 C 204.619,146.988 204.816,147.19 204.999,147.314 C 205.042,147.544 205.009,147.789 204.808,147.986 L 204.501,148.044 C 204.472,147.891 204.428,147.66 204.384,147.43 C 204.312,147.046 204.268,146.816 204.268,146.816 C 204.383,146.158 204.54,145.731 204.65,145.472 C 204.852,145.275 205.236,145.202 205.879,145.24 L 205.879,145.24"/>
    <path style="fill: none; fill-opacity:0; stroke-width: 0.3; stroke-linecap: round; stroke: #c00000" d="M 207.555 143.173 L 209.763,143.074 L 209.572,143.747 L 204.178,143.812 L 204.369,143.14 L 204.983,143.024 C 204.8,142.899 204.603,142.698 204.56,142.467 C 204.377,142.343 204.334,142.113 204.444,141.853 C 204.371,141.47 204.543,141.119 204.884,140.816 C 205.041,140.389 205.411,140.239 206.054,140.277 C 206.668,140.161 207.172,140.304 207.398,140.659 C 207.869,141.047 208.172,141.387 208.245,141.771 C 208.058,142.045 207.871,142.319 207.746,142.501 C 207.79,142.732 207.757,142.976 207.555,143.173 L 207.555,143.173"/>
    <path style="fill: none; fill-opacity:0; stroke-width: 0.3; stroke-linecap: round; stroke: #c00000" d="M 206.17 140.891 C 205.757,140.81 205.45,140.868 205.249,141.065 C 204.909,141.368 204.659,141.733 204.502,142.16 C 204.545,142.391 204.819,142.578 205.232,142.659 C 205.506,142.845 205.856,143.018 206.269,143.099 C 206.73,143.012 207.114,142.939 207.497,142.866 C 207.699,142.669 207.732,142.425 207.688,142.194 C 207.769,141.781 207.711,141.474 207.514,141.273 C 207.058,140.962 206.631,140.804 206.17,140.891 L 206.17,140.891"/>
    <path style="fill: none; fill-opacity:0; stroke-width: 0.3; stroke-linecap: round; stroke: #c00000" d="M 206.069 137.412 C 206.185,138.026 206.426,138.458 206.608,138.582 C 206.652,138.812 206.82,138.86 206.973,138.831 C 207.204,138.788 207.434,138.744 207.587,138.715 C 207.789,138.518 207.822,138.273 207.778,138.043 C 207.706,137.659 207.571,137.366 207.297,137.18 C 207.071,136.825 206.721,136.653 206.26,136.74 L 206.069,137.412"/>
    <path style="fill: none; fill-opacity:0; stroke-width: 0.3; stroke-linecap: round; stroke: #c00000" d="M 205.895 136.491 L 208.102,136.391 L 208.16,136.699 L 207.546,136.815 C 207.743,137.016 207.94,137.217 207.969,137.371 C 208.013,137.601 208.057,137.831 208.086,137.985 C 208.202,138.599 208.135,139.089 208.011,139.271 C 207.67,139.574 207.363,139.632 207.089,139.445 C 206.475,139.561 206.154,139.543 206.11,139.312 C 205.884,138.957 205.629,138.449 205.513,137.835 L 205.646,136.856 L 205.588,136.549 C 205.434,136.578 205.233,136.775 205.032,136.972 C 204.691,137.275 204.519,137.625 204.592,138.009 C 204.635,138.239 204.832,138.441 205.015,138.565 C 205.058,138.795 205.025,139.04 204.824,139.237 L 204.517,139.295 C 204.488,139.142 204.444,138.911 204.401,138.681 C 204.328,138.297 204.285,138.067 204.285,138.067 C 204.399,137.409 204.557,136.982 204.667,136.723 C 204.868,136.526 205.252,136.453 205.895,136.491 L 205.895,136.491"/>
    <path style="fill: none; fill-opacity:0; stroke-width: 0.3; stroke-linecap: round; stroke: #c00000" d="M 204.271 132.106 L 204.886,131.99 C 204.929,132.221 204.973,132.451 205.002,132.605 C 204.892,132.864 204.705,133.138 204.503,133.335 C 204.547,133.565 204.835,133.829 205.292,134.14 C 205.566,134.327 205.916,134.499 206.329,134.58 C 206.79,134.493 207.159,134.344 207.499,134.041 C 207.7,133.844 207.734,133.599 207.69,133.369 C 207.815,133.186 207.771,132.956 207.574,132.754 C 207.545,132.601 207.502,132.371 207.458,132.14 L 208.072,132.024 C 208.116,132.255 208.159,132.485 208.188,132.638 C 208.232,132.869 208.122,133.128 207.997,133.311 C 208.084,133.771 207.927,134.198 207.615,134.655 C 207.275,134.958 206.752,135.136 206.138,135.252 C 205.495,135.215 205.053,134.98 204.736,134.563 C 204.51,134.208 204.283,133.853 204.196,133.393 C 204.398,133.196 204.431,132.951 204.387,132.721 C 204.358,132.567 204.315,132.337 204.271,132.106 L 204.271,132.106"/>
    <path style="fill: none; fill-opacity:0; stroke-width: 0.3; stroke-linecap: round; stroke: #c00000" d="M 204.236 131.079 L 204.427,130.407 L 208.228,130.325 L 208.037,130.997 L 204.236,131.079"/>
    <path style="fill: none; fill-opacity:0; stroke-width: 0.3; stroke-linecap: round; stroke: #c00000" d="M 202.643 131.063 L 202.834,130.39 L 203.755,130.216 L 203.564,130.888 L 202.643,131.063"/>
    <path style="fill: none; fill-opacity:0; stroke-width: 0.3; stroke-linecap: round; stroke: #c00000" d="M 203.1 128.432 L 204.386,128.507 L 204.461,127.221 L 204.768,127.163 L 204.693,128.449 L 206.901,128.35 C 207.405,128.493 207.573,128.541 207.573,128.541 C 207.544,128.387 207.5,128.157 207.457,127.927 L 207.648,127.254 L 208.262,127.138 L 208.071,127.811 C 208.158,128.271 208.063,128.607 207.938,128.79 C 207.598,129.093 207.214,129.165 206.71,129.022 L 204.502,129.121 L 204.56,129.428 L 204.253,129.486 L 204.195,129.179 L 202.909,129.104 L 203.1,128.432"/>
    <path style="fill: none; fill-opacity:0; stroke-width: 0.3; stroke-linecap: round; stroke: #c00000" d="M 208.35 124.657 C 208.821,125.045 209.186,125.294 209.445,125.404 C 209.598,125.375 209.796,125.576 209.868,125.96 L 209.619,126.325 L 209.005,126.441 L 209.254,126.076 C 209.225,125.923 209.028,125.722 208.831,125.52 C 208.802,125.367 208.619,125.242 208.466,125.271 L 208.101,125.022 L 204.283,126.698 L 204.474,126.026 L 207.063,124.582 L 204.375,123.818 L 204.259,123.204 L 208.35,124.657"/>
  </g>
  <text font-size="6.20889" style="fill: #800080;text-anchor:start;font-family:sans-serif;font-style:normal;font-weight:normal" x="204.528" y="-6.65526">
    <tspan x="204.528" y="-6.65526">s</tspan>
  </text>
  <text font-size="9.03111" style="fill: #800080;text-anchor:start;font-family:sans-serif;font-style:normal;font-weight:normal" x="200.528" y="-7.68026">
    <tspan x="200.528" y="-7.68026">P</tspan>
  </text>
  <text font-size="6.20889" style="fill: #800080;text-anchor:start;font-family:sans-serif;font-style:normal;font-weight:normal" x="195.83" y="-6.33106">
    <tspan x="195.83" y="-6.33106">s</tspan>
  </text>
  <text font-size="9.03111" style="fill: #800080;text-anchor:start;font-family:sans-serif;font-style:normal;font-weight:normal" x="189.83" y="-7.35606">
    <tspan x="189.83" y="-7.35606">E</tspan>
  </text>
  <text font-size="9.03111" style="fill: #800080;text-anchor:start;font-family:sans-serif;font-style:normal;font-weight:normal" x="198.68" y="-6.92498">
    <tspan x="198.68" y="-6.92498">,</tspan>
  </text>
  <path style="fill: none; fill-opacity:0; stroke-width: 1; stroke: #800080" d="M 198.85 -0.935855 C 205.622,-3.15937 204.186,-2.04674 206.66,-5.40548"/>
  <g>
    <ellipse style="fill: #000000" cx="148" cy="96.0002" rx="1" ry="1"/>
    <ellipse style="fill: none; fill-opacity:0; stroke-width: 2; stroke: #000000" cx="148" cy="96.0002" rx="1" ry="1"/>
  </g>
  <g>
    <ellipse style="fill: #000000" cx="86.0002" cy="148" rx="1" ry="1"/>
    <ellipse style="fill: none; fill-opacity:0; stroke-width: 2; stroke: #000000" cx="86.0002" cy="148" rx="1" ry="1"/>
  </g>
  <text font-size="9.03111" style="fill: #000000;text-anchor:start;font-family:sans-serif;font-style:normal;font-weight:normal" x="150" y="103.125">
    <tspan x="150" y="103.125">=0.5</tspan>
  </text>
  <text font-size="9.03111" style="fill: #000000;text-anchor:start;font-family:sans-serif;font-style:normal;font-weight:normal" x="88.3856" y="154.739">
    <tspan x="88.3856" y="154.739">=0.25</tspan>
  </text>
  <text font-size="9.03111" style="fill: #000000;text-anchor:start;font-family:sans-serif;font-style:normal;font-weight:normal" x="150.193" y="49.0528">
    <tspan x="150.193" y="49.0528">=0.75</tspan>
  </text>
  <g>
    <ellipse style="fill: #000000" cx="184" cy="50.0002" rx="1" ry="1"/>
    <ellipse style="fill: none; fill-opacity:0; stroke-width: 2; stroke: #000000" cx="184" cy="50.0002" rx="1" ry="1"/>
  </g>
</svg>
