<?xml version="1.0" encoding="UTF-8" standalone="no"?>
<!DOCTYPE svg PUBLIC "-//W3C//DTD SVG 1.0//EN" "http://www.w3.org/TR/2001/PR-SVG-20010719/DTD/svg10.dtd">
<svg width="14cm" height="10cm" viewBox="3 8 274 193" xmlns="http://www.w3.org/2000/svg" xmlns:xlink="http://www.w3.org/1999/xlink">
  <line style="fill: none; fill-opacity:0; stroke-width: 2; stroke: #000000" x1="4" y1="100" x2="276" y2="100"/>
  <rect style="fill: none; fill-opacity:0; stroke-width: 2; stroke: #000000" x="32" y="16" width="40" height="40"/>
  <rect style="fill: none; fill-opacity:0; stroke-width: 2; stroke: #000000" x="184" y="16" width="40" height="40"/>
  <rect style="fill: none; fill-opacity:0; stroke-width: 2; stroke: #000000" x="32" y="144" width="40" height="40"/>
  <rect style="fill: none; fill-opacity:0; stroke-width: 2; stroke: #000000" x="184" y="144" width="40" height="40"/>
  <line style="fill: none; fill-opacity:0; stroke-width: 1; stroke: #000000" x1="192" y1="160" x2="216" y2="160"/>
  <line style="fill: none; fill-opacity:0; stroke-width: 1; stroke: #000000" x1="192" y1="168" x2="216" y2="168"/>
  <line style="fill: none; fill-opacity:0; stroke-width: 1; stroke: #000000" x1="204" y1="160" x2="204" y2="152"/>
  <line style="fill: none; fill-opacity:0; stroke-width: 1; stroke: #000000" x1="204" y1="168" x2="204" y2="176"/>
  <rect style="fill: none; fill-opacity:0; stroke-width: 1; stroke: #000000" x="42" y="160" width="20" height="8"/>
  <line style="fill: none; fill-opacity:0; stroke-width: 1; stroke: #000000" x1="62" y1="164" x2="66" y2="164"/>
  <line style="fill: none; fill-opacity:0; stroke-width: 1; stroke: #000000" x1="42" y1="164" x2="38" y2="164"/>
  <g>
    <polygon style="fill: #ffffff" points="36,40 52,40 60,28 44,28 "/>
    <polygon style="fill: none; fill-opacity:0; stroke-width: 1; stroke: #000000" points="36,40 52,40 60,28 44,28 "/>
  </g>
  <g>
    <polygon style="fill: #ffffff" points="42,44 58,44 66,32 50,32 "/>
    <polygon style="fill: none; fill-opacity:0; stroke-width: 1; stroke: #000000" points="42,44 58,44 66,32 50,32 "/>
  </g>
  <ellipse style="fill: none; fill-opacity:0; stroke-width: 1; stroke: #000000" cx="199" cy="37" rx="9" ry="9"/>
  <ellipse style="fill: none; fill-opacity:0; stroke-width: 1; stroke: #000000" cx="209" cy="37" rx="9" ry="9"/>
  <text font-size="6.20889" style="fill: #000000;text-anchor:start;font-family:sans-serif;font-style:normal;font-weight:normal" x="32" y="14.5">
    <tspan x="32" y="14.5">Photovoltaik</tspan>
  </text>
  <text font-size="6.20889" style="fill: #000000;text-anchor:start;font-family:sans-serif;font-style:normal;font-weight:normal" x="184" y="14.5">
    <tspan x="184" y="14.5">Grid</tspan>
  </text>
  <text font-size="6.20889" style="fill: #000000;text-anchor:start;font-family:sans-serif;font-style:normal;font-weight:normal" x="32" y="189.8">
    <tspan x="32" y="189.8">Load</tspan>
  </text>
  <text font-size="6.20889" style="fill: #000000;text-anchor:start;font-family:sans-serif;font-style:normal;font-weight:normal" x="184" y="189.8">
    <tspan x="184" y="189.8">Storage</tspan>
  </text>
  <line style="fill: none; fill-opacity:0; stroke-width: 2; stroke: #000000" x1="52" y1="56" x2="52" y2="100"/>
  <line style="fill: none; fill-opacity:0; stroke-width: 2; stroke: #000000" x1="52" y1="144" x2="52" y2="100"/>
  <line style="fill: none; fill-opacity:0; stroke-width: 2; stroke: #000000" x1="204" y1="144" x2="204" y2="100"/>
  <line style="fill: none; fill-opacity:0; stroke-width: 2; stroke: #000000" x1="204" y1="56" x2="204" y2="100"/>
  <g>
    <line style="fill: none; fill-opacity:0; stroke-width: 2; stroke: #c00000" x1="212" y1="108" x2="212" y2="133"/>
    <polygon style="fill: #c00000" points="210.5,133 212,139 213.5,133 "/>
    <polygon style="fill: none; fill-opacity:0; stroke-width: 2; stroke: #c00000" points="210.5,133 212,139 213.5,133 "/>
  </g>
  <ellipse style="fill: none; fill-opacity:0; stroke-width: 2; stroke: #c00000" cx="210" cy="166" rx="46" ry="34"/>
  <g>
    <line style="fill: none; fill-opacity:0; stroke-width: 2; stroke: #000000" x1="44" y1="60" x2="44" y2="85"/>
    <polygon style="fill: #000000" points="42.5,85 44,91 45.5,85 "/>
    <polygon style="fill: none; fill-opacity:0; stroke-width: 2; stroke: #000000" points="42.5,85 44,91 45.5,85 "/>
  </g>
  <g>
    <line style="fill: none; fill-opacity:0; stroke-width: 2; stroke: #000000" x1="60" y1="108" x2="60" y2="133"/>
    <polygon style="fill: #000000" points="58.5,133 60,139 61.5,133 "/>
    <polygon style="fill: none; fill-opacity:0; stroke-width: 2; stroke: #000000" points="58.5,133 60,139 61.5,133 "/>
  </g>
  <g>
    <line style="fill: none; fill-opacity:0; stroke-width: 2; stroke: #000000" x1="196" y1="60" x2="196" y2="85"/>
    <polygon style="fill: #000000" points="194.5,85 196,91 197.5,85 "/>
    <polygon style="fill: none; fill-opacity:0; stroke-width: 2; stroke: #000000" points="194.5,85 196,91 197.5,85 "/>
  </g>
  <g>
    <text font-size="6.20889" style="fill: #c00000;text-anchor:start;font-family:sans-serif;font-style:normal;font-weight:normal" x="216" y="122.15">
      <tspan x="216" y="122.15">P</tspan>
    </text>
    <text font-size="3.95111" style="fill: #c00000;text-anchor:start;font-family:sans-serif;font-style:normal;font-weight:normal" x="218.4" y="122.975">
      <tspan x="218.4" y="122.975">s</tspan>
    </text>
  </g>
</svg>
