<?xml version="1.0" encoding="UTF-8" standalone="no"?>
<!DOCTYPE svg PUBLIC "-//W3C//DTD SVG 1.0//EN" "http://www.w3.org/TR/2001/PR-SVG-20010719/DTD/svg10.dtd">
<svg width="20cm" height="25cm" viewBox="330 44 395 481" xmlns="http://www.w3.org/2000/svg" xmlns:xlink="http://www.w3.org/1999/xlink">
  <g>
    <rect style="fill: #ff0000" x="400" y="120" width="250" height="20"/>
    <rect style="fill: none; fill-opacity:0; stroke-width: 2.35099e-37; stroke: #ff0000" x="400" y="120" width="250" height="20"/>
  </g>
  <g>
    <rect style="fill: #ff0000" x="400" y="60" width="250" height="20"/>
    <rect style="fill: none; fill-opacity:0; stroke-width: 2.35099e-37; stroke: #ff0000" x="400" y="60" width="250" height="20"/>
  </g>
  <g>
    <rect style="fill: #00ff00" x="400" y="80" width="250" height="40"/>
    <rect style="fill: none; fill-opacity:0; stroke-width: 2.35099e-37; stroke: #00ff00" x="400" y="80" width="250" height="40"/>
  </g>
  <g>
    <line style="fill: none; fill-opacity:0; stroke-width: 2; stroke: #000000" x1="400" y1="100" x2="639" y2="100"/>
    <polygon style="fill: #000000" points="639,102.5 649,100 639,97.5 "/>
    <polygon style="fill: none; fill-opacity:0; stroke-width: 2; stroke: #000000" points="639,102.5 649,100 639,97.5 "/>
  </g>
  <polyline style="fill: none; fill-opacity:0; stroke-width: 2; stroke: #800080" points="400,100 430,60 460,100 490,60 550,140 580,100 610,140 640,100 "/>
  <g>
    <line style="fill: none; fill-opacity:0; stroke-width: 2; stroke: #000000" x1="400" y1="150" x2="400" y2="61"/>
    <polygon style="fill: #000000" points="402.5,61 400,51 397.5,61 "/>
    <polygon style="fill: none; fill-opacity:0; stroke-width: 2; stroke: #000000" points="402.5,61 400,51 397.5,61 "/>
  </g>
  <g>
    <line style="fill: none; fill-opacity:0; stroke-width: 2; stroke: #000000" x1="340" y1="220" x2="579" y2="220"/>
    <polygon style="fill: #000000" points="579,222.5 589,220 579,217.5 "/>
    <polygon style="fill: none; fill-opacity:0; stroke-width: 2; stroke: #000000" points="579,222.5 589,220 579,217.5 "/>
  </g>
  <polyline style="fill: none; fill-opacity:0; stroke-width: 2; stroke: #00ff00" points="340,220 355,200 384,200 400,200 416,200 445,200 475,240 504,240 519,240 536,240 565,240 580,220 "/>
  <g>
    <line style="fill: none; fill-opacity:0; stroke-width: 2; stroke: #000000" x1="340" y1="270" x2="340" y2="181"/>
    <polygon style="fill: #000000" points="342.5,181 340,171 337.5,181 "/>
    <polygon style="fill: none; fill-opacity:0; stroke-width: 2; stroke: #000000" points="342.5,181 340,171 337.5,181 "/>
  </g>
  <g>
    <line style="fill: none; fill-opacity:0; stroke-width: 2; stroke: #000000" x1="470" y1="310" x2="709" y2="310"/>
    <polygon style="fill: #000000" points="709,312.5 719,310 709,307.5 "/>
    <polygon style="fill: none; fill-opacity:0; stroke-width: 2; stroke: #000000" points="709,312.5 719,310 709,307.5 "/>
  </g>
  <polyline style="fill: none; fill-opacity:0; stroke-width: 2; stroke: #ff0000" points="470,310 485.2,310 500,290 515.2,310 530,330 545,310 560,290 575,310 590,310 605,310 620,330 635,310 650,290 665,310 680,330 695,310 710,310 "/>
  <g>
    <line style="fill: none; fill-opacity:0; stroke-width: 2; stroke: #000000" x1="470" y1="360" x2="470" y2="271"/>
    <polygon style="fill: #000000" points="472.5,271 470,261 467.5,271 "/>
    <polygon style="fill: none; fill-opacity:0; stroke-width: 2; stroke: #000000" points="472.5,271 470,261 467.5,271 "/>
  </g>
  <g>
    <line style="fill: none; fill-opacity:0; stroke-width: 2; stroke: #000000" x1="480" y1="110" x2="435.83" y2="180.672"/>
    <polygon style="fill: #000000" points="433.71,179.347 430.53,189.152 437.95,181.997 "/>
    <polygon style="fill: none; fill-opacity:0; stroke-width: 2; stroke: #000000" points="433.71,179.347 430.53,189.152 437.95,181.997 "/>
  </g>
  <g>
    <line style="fill: none; fill-opacity:0; stroke-width: 2; stroke: #000000" x1="570" y1="130" x2="635.591" y2="279.922"/>
    <polygon style="fill: #000000" points="633.301,280.924 639.599,289.084 637.881,278.92 "/>
    <polygon style="fill: none; fill-opacity:0; stroke-width: 2; stroke: #000000" points="633.301,280.924 639.599,289.084 637.881,278.92 "/>
  </g>
  <text font-size="9.03111" style="fill: #000000;text-anchor:start;font-family:sans-serif;font-style:normal;font-weight:normal" x="640" y="113.125">
    <tspan x="640" y="113.125">t</tspan>
  </text>
  <text font-size="9.03111" style="fill: #000000;text-anchor:start;font-family:sans-serif;font-style:normal;font-weight:normal" x="580" y="233.125">
    <tspan x="580" y="233.125">t</tspan>
  </text>
  <text font-size="9.03111" style="fill: #000000;text-anchor:start;font-family:sans-serif;font-style:normal;font-weight:normal" x="710" y="323.125">
    <tspan x="710" y="323.125">t</tspan>
  </text>
  <text font-size="9.03111" style="fill: #000000;text-anchor:start;font-family:sans-serif;font-style:normal;font-weight:normal" x="390" y="53.125">
    <tspan x="390" y="53.125">P</tspan>
  </text>
  <text font-size="9.03111" style="fill: #000000;text-anchor:start;font-family:sans-serif;font-style:normal;font-weight:normal" x="330" y="173.125">
    <tspan x="330" y="173.125">P</tspan>
  </text>
  <text font-size="9.03111" style="fill: #000000;text-anchor:start;font-family:sans-serif;font-style:normal;font-weight:normal" x="460" y="263.125">
    <tspan x="460" y="263.125">P</tspan>
  </text>
  <text font-size="9.03111" style="fill: #000000;text-anchor:start;font-family:sans-serif;font-style:normal;font-weight:normal" x="350" y="273.125">
    <tspan x="350" y="273.125">Base</tspan>
  </text>
  <text font-size="9.03111" style="fill: #000000;text-anchor:start;font-family:sans-serif;font-style:normal;font-weight:normal" x="480" y="363.125">
    <tspan x="480" y="363.125">Peak</tspan>
  </text>
  <text font-size="9.03111" style="fill: #000000;text-anchor:start;font-family:sans-serif;font-style:normal;font-weight:normal" x="410" y="153.125">
    <tspan x="410" y="153.125">Single</tspan>
  </text>
  <text font-size="9.03111" style="fill: #000000;text-anchor:start;font-family:sans-serif;font-style:normal;font-weight:normal" x="574" y="83.125">
    <tspan x="574" y="83.125">Power Cut χ=0.5</tspan>
  </text>
  <line style="fill: none; fill-opacity:0; stroke-width: 1; stroke: #ff0000" x1="571.6" y1="117.2" x2="573.6" y2="119.2"/>
  <line style="fill: none; fill-opacity:0; stroke-width: 1; stroke: #ff0000" x1="574" y1="113.6" x2="579.6" y2="119.2"/>
  <line style="fill: none; fill-opacity:0; stroke-width: 1; stroke: #ff0000" x1="576" y1="110" x2="585.6" y2="119.2"/>
  <line style="fill: none; fill-opacity:0; stroke-width: 1; stroke: #ff0000" x1="579.2" y1="106.4" x2="591.6" y2="118.8"/>
  <g>
    <line style="fill: none; fill-opacity:0; stroke-width: 1; stroke: #ff0000" x1="450" y1="84.4" x2="454" y2="80.4"/>
    <line style="fill: none; fill-opacity:0; stroke-width: 1; stroke: #ff0000" x1="452.4" y1="88" x2="460" y2="80.4"/>
    <line style="fill: none; fill-opacity:0; stroke-width: 1; stroke: #ff0000" x1="454.8" y1="91.6" x2="466" y2="80.4"/>
    <line style="fill: none; fill-opacity:0; stroke-width: 1; stroke: #ff0000" x1="458" y1="95" x2="472" y2="80.4"/>
  </g>
  <g>
    <line style="fill: none; fill-opacity:0; stroke-width: 1; stroke: #000000" x1="430" y1="70" x2="456.256" y2="87.5038"/>
    <polygon style="fill: #000000" points="455.701,88.3359 459.584,89.7226 456.81,86.6718 "/>
    <polygon style="fill: none; fill-opacity:0; stroke-width: 1; stroke: #000000" points="455.701,88.3359 459.584,89.7226 456.81,86.6718 "/>
  </g>
  <g>
    <line style="fill: none; fill-opacity:0; stroke-width: 1; stroke: #000000" x1="550" y1="130" x2="576.256" y2="112.496"/>
    <polygon style="fill: #000000" points="576.81,113.328 579.584,110.277 575.701,111.664 "/>
    <polygon style="fill: none; fill-opacity:0; stroke-width: 1; stroke: #000000" points="576.81,113.328 579.584,110.277 575.701,111.664 "/>
  </g>
  <g>
    <line style="fill: none; fill-opacity:0; stroke-width: 2; stroke: #000000" x1="390" y1="470" x2="629" y2="470"/>
    <polygon style="fill: #000000" points="629,472.5 639,470 629,467.5 "/>
    <polygon style="fill: none; fill-opacity:0; stroke-width: 2; stroke: #000000" points="629,472.5 639,470 629,467.5 "/>
  </g>
  <g>
    <line style="fill: none; fill-opacity:0; stroke-width: 2; stroke: #000000" x1="390" y1="520" x2="390" y2="431"/>
    <polygon style="fill: #000000" points="392.5,431 390,421 387.5,431 "/>
    <polygon style="fill: none; fill-opacity:0; stroke-width: 2; stroke: #000000" points="392.5,431 390,421 387.5,431 "/>
  </g>
  <text font-size="9.03111" style="fill: #000000;text-anchor:start;font-family:sans-serif;font-style:normal;font-weight:normal" x="630" y="483.125">
    <tspan x="630" y="483.125">t</tspan>
  </text>
  <text font-size="9.03111" style="fill: #000000;text-anchor:start;font-family:sans-serif;font-style:normal;font-weight:normal" x="380" y="423.125">
    <tspan x="380" y="423.125">P</tspan>
  </text>
  <text font-size="9.03111" style="fill: #000000;text-anchor:start;font-family:sans-serif;font-style:normal;font-weight:normal" x="400" y="523.125">
    <tspan x="400" y="523.125">Peak</tspan>
  </text>
  <polyline style="fill: none; fill-opacity:0; stroke-width: 2; stroke: #800080" points="390,470 420,430 450,470 480,430 540,510 570,470 600,510 630,470 "/>
  <polyline style="fill: none; fill-opacity:0; stroke-width: 2; stroke: #00ff00" points="390,470 405,450 434,450 450,450 466,450 495,450 525,490 554,490 569,490 586,490 615,490 630,470 "/>
  <polyline style="fill: none; fill-opacity:0; stroke-width: 2; stroke: #ff0000" points="390,470 405.2,470 420,450 435.2,470 450,490 465,470 480,450 495,470 510,470 525,470 540,490 555,470 570,450 585,470 600,490 615,470 630,470 "/>
  <g>
    <line style="fill: none; fill-opacity:0; stroke-width: 2; stroke: #000000" x1="640" y1="340" x2="595.83" y2="410.672"/>
    <polygon style="fill: #000000" points="593.71,409.347 590.53,419.152 597.95,411.997 "/>
    <polygon style="fill: none; fill-opacity:0; stroke-width: 2; stroke: #000000" points="593.71,409.347 590.53,419.152 597.95,411.997 "/>
  </g>
  <g>
    <line style="fill: none; fill-opacity:0; stroke-width: 2; stroke: #000000" x1="400" y1="260" x2="465.591" y2="409.922"/>
    <polygon style="fill: #000000" points="463.301,410.924 469.599,419.084 467.881,408.92 "/>
    <polygon style="fill: none; fill-opacity:0; stroke-width: 2; stroke: #000000" points="463.301,410.924 469.599,419.084 467.881,408.92 "/>
  </g>
</svg>
