<?xml version="1.0" encoding="UTF-8" standalone="no"?>
<!-- Created with Inkscape (http://www.inkscape.org/) -->

<svg
   xmlns:dc="http://purl.org/dc/elements/1.1/"
   xmlns:cc="http://creativecommons.org/ns#"
   xmlns:rdf="http://www.w3.org/1999/02/22-rdf-syntax-ns#"
   xmlns:svg="http://www.w3.org/2000/svg"
   xmlns="http://www.w3.org/2000/svg"
   version="1.1"
   width="365.96259"
   height="279.48981"
   viewBox="-0.525 -0.412 10.1685 7.7635752"
   id="svg2">
  <metadata
     id="metadata118">
    <rdf:RDF>
      <cc:Work
         rdf:about="">
        <dc:format>image/svg+xml</dc:format>
        <dc:type
           rdf:resource="http://purl.org/dc/dcmitype/StillImage" />
        <dc:title></dc:title>
      </cc:Work>
    </rdf:RDF>
  </metadata>
  <defs
     id="defs116" />
  <path
     d="m -0.0672,1.708303 c 0.0096,-0.0696 0,0 0.0096,-0.0696 0.0096,-0.0708 0,0 0.0096,-0.0708 0.0093,-0.0693 0,0 0.0093,-0.0693 0.0096,-0.066 0,0 0.0096,-0.066 0.0096,-0.06 0,0 0.0096,-0.06 0.0096,-0.0516 0,0 0.0096,-0.0516 0.0096,-0.0414 0,0 0.0096,-0.0414 0.0096,-0.0285 0,0 0.0096,-0.0285 0.0093,-0.0153 0,0 0.0093,-0.0153 0.0096,-0.0123 0,0 0.0096,-0.0123 0.0096,-0.0108 0,0 0.0096,-0.0108 0.0096,-0.0093 0,0 0.0096,-0.0093 0.0096,-0.0081 0,0 0.0096,-0.0081 0.0096,-0.0069 0,0 0.0096,-0.0069 0.0093,-0.0063 0,0 0.0093,-0.0063 0.0096,-0.0054 0,0 0.0096,-0.0054 0.0096,-0.0048 0,0 0.0096,-0.0048 0.0096,-0.0042 0,0 0.0096,-0.0042 0.0096,-0.0042 0,0 0.0096,-0.0042 0.0096,-0.0036 0,0 0.0096,-0.0036 0.0093,-0.0039 0,0 0.0093,-0.0039 0.0096,-0.0042 0,0 0.0096,-0.0042 0.0096,-0.0042 0,0 0.0096,-0.0042 0.0096,-0.0048 0,0 0.0096,-0.0048 0.0096,-0.0054 0,0 0.0096,-0.0054 0.0096,-0.006 0,0 0.0096,-0.006 0.0093,-0.0069 0,0 0.0093,-0.0069 0.0096,-0.0081 0,0 0.0096,-0.0081 0.0096,-0.0093 0,0 0.0096,-0.0093 0.0096,-0.0105 0,0 0.0096,-0.0105 0.0096,-0.0132 0,0 0.0096,-0.0132 0.0096,-0.0222 0,0 0.0096,-0.0222 0.0093,-0.0318 0,0 0.0093,-0.0318 0.0096,-0.0396 0,0 0.0096,-0.0396 0.0096,-0.0453 0,0 0.0096,-0.0453 0.0096,-0.0498 0,0 0.0096,-0.0498 0.0096,-0.0519 0,0 0.0096,-0.0519 0.0096,-0.0528 0,0 0.0096,-0.0528 0.0093,-0.0513 0,0 0.0093,-0.0513 0.0096,-0.0489 0,0 0.0096,-0.0489 0.0096,-0.0438 0,0 0.0096,-0.0438 0.0096,-0.0375 0,0 0.0096,-0.0375 0.0096,-0.0291 0,0 0.0096,-0.0291 0.0096,-0.0192 0,0 0.0096,-0.0192 0.0093,-0.0075 0,0 0.0093,-0.0075 0.0096,0.0048 0,0 0.0096,0.0048 0.0096,0.0147 0,0 0.0096,0.0147 0.0096,0.024 0,0 0.0096,0.024 0.0096,0.0324 0,0 0.0096,0.0324 0.0096,0.0396 0,0 0.0096,0.0396 0.0093,0.0456 0,0 0.0093,0.0456 0.0096,0.0513 0,0 0.0096,0.0513 0.0096,0.0552 0,0 0.0096,0.0552 0.0096,0.0585 0,0 0.0096,0.0585 0.0096,0.0612 0,0 0.0096,0.0612 0.0096,0.0621 0,0 0.0096,0.0621 0.0093,0.0627 0,0 0.0093,0.0627 0.0096,0.0618 0,0 0.0096,0.0618 0.0096,0.0603 0,0 0.0096,0.0603 0.0096,0.0579 0,0 0.0096,0.0579 0.0096,0.054 0,0 0.0096,0.054 0.0096,0.0495 0,0 0.0096,0.0495 0.0093,0.0438 0,0 0.0093,0.0438 0.0096,0.0375 0,0 0.0096,0.0375 0.0096,0.0297 0,0 0.0096,0.0297 0.0096,0.0213 0,0 0.0096,0.0213 0.0096,0.012 0,0 0.0096,0.012 0.0096,0.0018 0,0 0.0096,0.0018 0.0093,-3e-4 0,0 0.0093,-3e-4 0.0096,-6e-4 0,0 0.0096,-6e-4 0.0096,-0.0012 0,0 0.0096,-0.0012 0.0096,-0.0018 0,0 0.0096,-0.0018 0.0096,-0.0018 0,0 0.0096,-0.0018 0.0096,-0.0024 0,0 0.0096,-0.0024 0.0093,-0.0027 0,0 0.0093,-0.0027 0.0096,-0.0033 0,0 0.0096,-0.0033 0.0096,-0.0036 0,0 0.0096,-0.0036 0.0096,-0.0039 0,0 0.0096,-0.0039 0.0096,-0.0042 0,0 0.0096,-0.0042 0.0096,-0.0048 0,0 0.0096,-0.0048 0.0093,-0.0051 0,0 0.0093,-0.0051 0.0096,-0.0054 0,0 0.0096,-0.0054 0.0096,-0.006 0,0 0.0096,-0.006 0.0096,-0.0063 0,0 0.0096,-0.0063 0.0096,-0.0066 0,0 0.0096,-0.0066 0.0096,-0.0072 0,0 0.0096,-0.0072 0.0093,-0.0072 0,0 0.0093,-0.0072 0.0096,-0.0078 0,0 0.0096,-0.0078 0.0096,-0.0081 0,0 0.0096,-0.0081 0.0096,-0.0117 0,0 0.0096,-0.0117 0.0096,-0.0252 0,0 0.0096,-0.0252 0.0096,-0.0342 0,0 0.0096,-0.0342 0.0093,-0.0369 0,0 0.0093,-0.0369 0.0096,-0.0336 0,0 0.0096,-0.0336 0.0096,-0.0249 0,0 0.0096,-0.0249 0.0096,-0.0093 0,0 0.0096,-0.0093 0.0096,0.0153 0,0 0.0096,0.0153 0.0096,0.0435 0,0 0.0096,0.0435 0.0093,0.0669 0,0 0.0093,0.0669 0.0096,0.0861 0,0 0.0096,0.0861 0.0096,0.1008 0,0 0.0096,0.1008 0.0096,0.111 0,0 0.0096,0.111 0.0096,0.1167 0,0 0.0096,0.1167 0.0096,0.1179 0,0 0.0096,0.1179 0.0093,0.1146 0,0 0.0093,0.1146 0.0096,0.1068 0,0 0.0096,0.1068 0.0096,0.0948 0,0 0.0096,0.0948 0.0096,0.0783 0,0 0.0096,0.0783 0.0096,0.057 0,0 0.0096,0.057 0.0096,0.0315 0,0 0.0096,0.0315 0.0093,0.0045 0,0 0.0093,0.0045 0.0096,-0.0012 0,0 0.0096,-0.0012 0.0096,-0.0021 0,0 0.0096,-0.0021 0.0096,-0.003 0,0 0.0096,-0.003 0.0096,-0.0042 0,0 0.0096,-0.0042 0.0093,-0.0051 0,0 0.0093,-0.0051 0.0096,-0.006 0,0 0.0096,-0.006 0.0096,-0.0069 0,0 0.0096,-0.0069 0.0096,-0.0081 0,0 0.0096,-0.0081 0.0096,-0.0087 0,0 0.0096,-0.0087 0.0096,-0.0096 0,0 0.0096,-0.0096 0.0093,-0.0102 0,0 0.0093,-0.0102 0.0096,-0.0111 0,0 0.0096,-0.0111 0.0096,-0.012 0,0 0.0096,-0.012 0.0096,-0.0126 0,0 0.0096,-0.0126 0.0096,-0.0132 0,0 0.0096,-0.0132 0.0096,-0.0138 0,0 0.0096,-0.0138 0.0093,-0.0144 0,0 0.0093,-0.0144 0.0096,-0.0153 0,0 0.0096,-0.0153 0.0096,-0.0156 0,0 0.0096,-0.0156 0.0096,-0.0162 0,0 0.0096,-0.0162 0.0096,-0.0168 0,0 0.0096,-0.0168 0.0096,-0.0171 0,0 0.0096,-0.0171 0.0093,-0.0177 0,0 0.0093,-0.0177 0.0096,-0.018 0,0 0.0096,-0.018 0.0096,-0.0186 0,0 0.0096,-0.0186 0.0096,-0.0186 0,0 0.0096,-0.0186 0.0096,-0.0195 0,0 0.0096,-0.0195 0.0096,-0.0237 0,0 0.0096,-0.0237 0.0093,-0.0291 0,0 0.0093,-0.0291 0.0096,-0.0336 0,0 0.0096,-0.0336 0.0096,-0.0378 0,0 0.0096,-0.0378 0.0096,-0.0417 0,0 0.0096,-0.0417 0.0096,-0.0453 0,0 0.0096,-0.0453 0.0096,-0.0486 0,0 0.0096,-0.0486 0.0093,-0.051 0,0 0.0093,-0.051 0.0096,-0.0534 0,0 0.0096,-0.0534 0.0096,-0.0552 0,0 0.0096,-0.0552 0.0096,-0.057 0,0 0.0096,-0.057 0.0096,-0.0579 0,0 0.0096,-0.0579 0.0096,-0.0585 0,0 0.0096,-0.0585 0.0093,-0.0588 0,0 0.0093,-0.0588 0.0096,-0.0588 0,0 0.0096,-0.0588 0.0096,-0.0582 0,0 0.0096,-0.0582 0.0096,-0.0573 0,0 0.0096,-0.0573 0.0096,-0.0558 0,0 0.0096,-0.0558 0.0096,-0.0564 0,0 0.0096,-0.0564 0.0093,-0.0645 0,0 0.0093,-0.0645 0.0096,-0.0678 0,0 0.0096,-0.0678 0.0096,-0.0633 0,0 0.0096,-0.0633 0.0096,-0.0513 0,0 0.0096,-0.0513 0.0096,-0.0348 0,0 0.0096,-0.0348 0.0096,-0.0315 0,0 0.0096,-0.0315 0.0093,-0.0306 0,0 0.0093,-0.0306 0.0096,-0.0297 0,0 0.0096,-0.0297 0.0096,-0.0285 0,0 0.0096,-0.0285 0.0096,-0.0276 0,0 0.0096,-0.0276 0.0096,-0.0267 0,0 0.0096,-0.0267 0.0096,-0.0252 0,0 0.0096,-0.0252 0.0093,-0.024 0,0 0.0093,-0.024 0.0096,-0.0228 0,0 0.0096,-0.0228 0.0096,-0.021 0,0 0.0096,-0.021 0.0096,-0.0198 0,0 0.0096,-0.0198 0.0096,-0.018 0,0 0.0096,-0.018 0.0096,-0.0162 0,0 0.0096,-0.0162 0.0093,-0.0147 0,0 0.0093,-0.0147 0.0096,-0.0126 0,0 0.0096,-0.0126 0.0096,-0.0108 0,0 0.0096,-0.0108 0.0096,-0.0087 0,0 0.0096,-0.0087 0.0096,-0.0066 0,0 0.0096,-0.0066 0.0096,-0.0042 0,0 0.0096,-0.0042 0.0093,-0.0024 0,0 0.0093,-0.0024 0.0096,3e-4 0,0 0.0096,3e-4 0.0096,0.003 0,0 0.0096,0.003 0.0096,0.0057 0,0 0.0096,0.0057 0.0096,0.0081 0,0 0.0096,0.0081 0.0096,0.0105 0,0 0.0096,0.0105 0.0093,0.0126 0,0 0.0093,0.0126 0.0096,0.015 0,0 0.0096,0.015 0.0096,0.0168 0,0 0.0096,0.0168 0.0096,0.0186 0,0 0.0096,0.0186 0.0096,0.0207 0,0 0.0096,0.0207 0.0096,0.0219 0,0 0.0096,0.0219 0.0093,0.0237 0,0 0.0093,0.0237 0.0096,0.0249 0,0 0.0096,0.0249 0.0096,0.0264 0,0 0.0096,0.0264 0.0096,0.0273 0,0 0.0096,0.0273 0.0096,0.0285 0,0 0.0096,0.0285 0.0096,0.0291 0,0 0.0096,0.0291 0.0093,0.03 0,0 0.0093,0.03 0.0096,0.0315 0,0 0.0096,0.0315 0.0096,0.0459 0,0 0.0096,0.0459 0.0096,0.0636 0,0 0.0096,0.0636 0.0096,0.0783 0,0 0.0096,0.0783 0.0096,0.0906 0,0 0.0096,0.0906 0.0093,0.0996 0,0 0.0093,0.0996 0.0096,0.1062 0,0 0.0096,0.1062 0.0096,0.1098 0,0 0.0096,0.1098 0.0096,0.111 0,0 0.0096,0.111 0.0096,0.1086 0,0 0.0096,0.1086 0.0096,0.1041 0,0 0.0096,0.1041 0.0093,0.0966 0,0 0.0093,0.0966 0.0096,0.0861 0,0 0.0096,0.0861 0.0096,0.0732 0,0 0.0096,0.0732 0.0096,0.057 0,0 0.0096,0.057 0.0096,0.0384 0,0 0.0096,0.0384 0.0096,0.0171 0,0 0.0096,0.0171 0.0093,-0.0111 0,0 0.0093,-0.0111 0.0096,-0.0453 0,0 0.0096,-0.0453 0.0096,-0.0756 0,0 0.0096,-0.0756 0.0096,-0.1017 0,0 0.0096,-0.1017 0.0096,-0.123 0,0 0.0096,-0.123 0.0093,-0.1398 0,0 0.0093,-0.1398 0.0096,-0.1521 0,0 0.0096,-0.1521 0.0096,-0.1605 0,0 0.0096,-0.1605 0.0096,-0.1635 0,0 0.0096,-0.1635 0.0096,-0.16290002 0,0 0.0096,-0.16290002 0.0096,-0.1575 0,0 0.0096,-0.1575 0.0093,-0.1473 0,0 0.0093,-0.1473 0.0096,-0.1332 0,0 0.0096,-0.1332 0.0096,-0.114 0,0 0.0096,-0.114 0.0096,-0.0909 0,0 0.0096,-0.0909 0.0096,-0.0633 0,0 0.0096,-0.0633 0.0096,-0.0309 0,0 0.0096,-0.0309 0.0093,-3e-4 0,0 0.0093,-3e-4 0.0096,0.0108 0,0 0.0096,0.0108 0.0096,0.0195 0,0 0.0096,0.0195 0.0096,0.0279 0,0 0.0096,0.0279 0.0096,0.0354 0,0 0.0096,0.0354 0.0096,0.0429 0,0 0.0096,0.0429 0.0093,0.0492 0,0 0.0093,0.0492 0.0096,0.0552 0,0 0.0096,0.0552 0.0096,0.0609 0,0 0.0096,0.0609 0.0096,0.0657 0,0 0.0096,0.0657 0.0096,0.0702 0,0 0.0096,0.0702 0.0096,0.0741 0,0 0.0096,0.0741 0.0093,0.0771 0,0 0.0093,0.0771 0.0096,0.0801 0,0 0.0096,0.0801 0.0096,0.0822 0,0 0.0096,0.0822 0.0096,0.0837 0,0 0.0096,0.0837 0.0096,0.0849 0,0 0.0096,0.0849 0.0096,0.0915 0,0 0.0096,0.0915 0.0093,0.1386 0,0 0.0093,0.1386 0.0096,0.1755 0,0 0.0096,0.1755 0.0096,0.1929 0,0 0.0096,0.1929 0.0096,0.189 0,0 0.0096,0.189 0.0096,0.1647 0,0 0.0096,0.1647 0.0096,0.1197 0,0 0.0096,0.1197 0.0093,0.0549 0,0 0.0093,0.0549 0.0096,-0.0066 0,0 0.0096,-0.0066 0.0096,-0.0279 0,0 0.0096,-0.0279 0.0096,-0.0462 0,0 0.0096,-0.0462 0.0096,-0.0618 0,0 0.0096,-0.0618 0.0096,-0.075 0,0 0.0096,-0.075 0.0093,-0.0852 0,0 0.0093,-0.0852 0.0096,-0.0933 0,0 0.0096,-0.0933 0.0096,-0.0984 0,0 0.0096,-0.0984 0.0096,-0.0987 0,0 0.0096,-0.1014 0.0096,-0.1014 0,0 0.0096,-0.1014 0.0096,-0.099 0,0 0.0096,-0.099 0.0093,-0.0939 0,0 0.0093,-0.0939 0.0096,-0.0867 0,0 0.0096,-0.0867 0.0096,-0.0765 0,0 0.0096,-0.0765 0.0096,-0.0636 0,0 0.0096,-0.0636 0.0096,-0.0483 0,0 0.0096,-0.0483 0.0096,-0.0306 0,0 0.0096,-0.0306 0.0093,-0.0102 0,0 0.0093,-0.0102 0.0096,0.0069 0,0 0.0096,0.0069 0.0096,0.0189 0,0 0.0096,0.0189 0.0096,0.0297 0,0 0.0096,0.0297 0.0096,0.0396 0,0 0.0096,0.0396 0.0096,0.048 0,0 0.0096,0.048 0.0093,0.0552 0,0 0.0093,0.0552 0.0096,0.0615 0,0 0.0096,0.0615 0.0096,0.0663 0,0 0.0096,0.0663 0.0096,0.0702 0,0 0.0096,0.0702 0.0096,0.0726 0,0 0.0096,0.0726 0.0096,0.0741 0,0 0.0096,0.0741 0.0093,0.0741 0,0 0.0093,0.0741 0.0096,0.0732 0,0 0.0096,0.0732 0.0096,0.0708 0,0 0.0096,0.0708 0.0096,0.0675 0,0 0.0096,0.0675 0.0096,0.063 0,0 0.0096,0.063 0.0096,0.0573 0,0 0.0096,0.0573 0.0093,0.0504 0,0 0.0093,0.0504 0.0096,0.042 0,0 0.0096,0.042 0.0096,0.0327 0,0 0.0096,0.0327 0.0096,0.0225 0,0 0.0096,0.0225 0.0096,0.0192 0,0 0.0096,0.0192 0.0096,0.0189 0,0 0.0096,0.0189 0.0093,0.018 0,0 0.0093,0.018 0.0096,0.0174 0,0 0.0096,0.0174 0.0096,0.0159 0,0 0.0096,0.0159 0.0096,0.0147 0,0 0.0096,0.0147 0.0096,0.0132 0,0 0.0096,0.0132 0.0096,0.0114 0,0 0.0096,0.0114 0.0093,0.0093 0,0 0.0093,0.0093 0.0096,0.0072 0,0 0.0096,0.0072 0.0096,0.0045 0,0 0.0096,0.0045 0.0096,0.0018 0,0 0.0096,0.0018 0.0096,0 0,0 0.0096,0 0.0093,-3e-4 0,0 0.0093,-3e-4 0.0096,0 0,0 0.0096,0 0.0096,-3e-4 0,0 0.0096,-3e-4 0.0096,-3e-4 0,0 0.0096,-3e-4 0.0096,-3e-4 0,0 0.0096,-3e-4 0.0096,-6e-4 0,0 0.0096,-6e-4 0.0096,-6e-4 0,0 0.0096,-6e-4 0.0093,-6e-4 0,0 0.0093,-6e-4 0.0096,-9e-4 0,0 0.0096,-9e-4 0.0096,-6e-4 0,0 0.0096,-6e-4 0.0096,-9e-4 0,0 0.0096,-9e-4 0.0096,-9e-4 0,0 0.0096,-9e-4 0.0093,-0.0012 0,0 0.0093,-0.0012 0.0096,-0.0012 0,0 0.0096,-0.0012 0.0096,-0.0012 0,0 0.0096,-0.0012 0.0096,-0.0015 0,0 0.0096,-0.0015 0.0096,-0.0012 0,0 0.0096,-0.0012 0.0096,-0.0015 0,0 0.0096,-0.0015 0.0096,-0.0018 0,0 0.0096,-0.0018 0.0093,-0.0018 0,0 0.0093,-0.0018 0.0096,-0.0018 0,0 0.0096,-0.0018 0.0096,-0.0018 0,0 0.0096,-0.0018 0.0096,-0.0057 0,0 0.0096,-0.0057 0.0096,-0.0396 0,0 0.0096,-0.0396 0.0093,-0.075 0,0 0.0093,-0.075 0.0096,-0.1044 0,0 0.0096,-0.1044 0.0096,-0.1287 0,0 0.0096,-0.1287 0.0096,-0.147 0,0 0.0096,-0.147 0.0096,-0.1599 0,0 0.0096,-0.1599 0.0096,-0.1668 0,0 0.0096,-0.1668 0.0093,-0.1683 0,0 0.0093,-0.1683 0.0096,-0.1641 0,0 0.0096,-0.1641 0.0096,-0.15420004 0,0 0.0096,-0.15420004 0.0096,-0.1389 0,0 0.0096,-0.1389 0.0096,-0.1176 0,0 0.0096,-0.1176 0.0096,-0.0909 0,0 0.0096,-0.0909 0.0096,-0.0582 0,0 0.0096,-0.0582 0.0093,-0.0201 0,0 0.0093,-0.0201 0.0096,0.0072 0,0 0.0096,0.0072 0.0096,0.0207 0,0 0.0096,0.0207 0.0096,0.033 0,0 0.0096,0.033 0.0096,0.0435 0,0 0.0096,0.0435 0.0093,0.0537 0,0 0.0093,0.0537 0.0096,0.0621 0,0 0.0096,0.0621 0.0096,0.0693 0,0 0.0096,0.0693 0.0096,0.0756 0,0 0.0096,0.0756 0.0096,0.0804 0,0 0.0096,0.0804 0.0096,0.084 0,0 0.0096,0.084 0.0096,0.0867 0,0 0.0096,0.0867 0.0093,0.0879 0,0 0.0093,0.0879 0.0096,0.0882 0,0 0.0096,0.0882 0.0096,0.087 0,0 0.0096,0.087 0.0096,0.0846 0,0 0.0096,0.0846 0.0096,0.0813 0,0 0.0096,0.0813 0.0093,0.0765 0,0 0.0093,0.0765 0.0096,0.0705 0,0 0.0096,0.0705 0.0096,0.0672 0,0 0.0096,0.0672 0.0096,0.072 0,0 0.0096,0.072 0.0096,0.0765 0,0 0.0096,0.0765 0.0096,0.0804 0,0 0.0096,0.0804 0.0093,0.0828 0,0 0.0093,0.0828 0.0096,0.0849 0,0 0.0096,0.0849 0.0096,0.0852 0,0 0.0096,0.0852 0.0096,0.0852 0,0 0.0096,0.0852 0.0096,0.0849 0,0 0.0096,0.0837 0.0096,0.0837 0,0 0.0096,0.0813 0.0093,0.0816 0,0 0.0093,0.0783 0.0096,0.0783 0,0 0.0096,0.0738 0.0096,0.0687 0,0 0.0096,0.0687 0.0096,0.0624 0,0 0.0096,0.0624 0.0096,0.0552 0,0 0.0096,0.0552 0.0096,0.0471 0,0 0.0096,0.0471 0.0093,0.0378 0,0 0.0093,0.0378 0.0096,0.0273 0,0 0.0096,0.0273 0.0096,0.0165 0,0 0.0096,0.0165 0.0096,0.0042 0,0 0.0096,0.0042 0.0096,0 0,0 0.0096,0 0.0096,-3e-4 0,0 0.0096,-3e-4 0.0093,-3e-4 0,0 0.0093,-3e-4 0.0096,-3e-4 0,0 0.0096,-3e-4 0.0096,-3e-4 0,0 0.0096,-3e-4 0.0096,-6e-4 0,0 0.0096,-6e-4 0.0096,-6e-4 0,0 0.0096,-6e-4 0.0096,-6e-4 0,0 0.0096,-6e-4 0.0093,-9e-4 0,0 0.0093,-9e-4 0.0096,-6e-4 0,0 0.0096,-6e-4 0.0096,-9e-4 0,0 0.0096,-9e-4 0.0096,-0.0012 0,0 0.0096,-0.0012 0.0096,-9e-4 0,0 0.0096,-9e-4 0.0096,-0.0012 0,0 0.0096,-0.0012 0.0093,-0.0012 0,0 0.0093,-0.0012 0.0096,-0.0012 0,0 0.0096,-0.0012 0.0096,-0.0012 0,0 0.0096,-0.0012 0.0096,-0.0015 0,0 0.0096,-0.0015 0.0096,-0.0015 0,0 0.0096,-0.0015 0.0096,-0.0015 0,0 0.0096,-0.0015 0.0093,-0.0024 0,0 0.0093,-0.0024 0.0096,-0.0045 0,0 0.0096,-0.0045 0.0096,-0.006 0,0 0.0096,-0.006 0.0096,-0.0072 0,0 0.0096,-0.0072 0.0096,-0.0081 0,0 0.0096,-0.0081 0.0093,-0.009 0,0 0.0093,-0.009 0.0096,-0.0093 0,0 0.0096,-0.0093 0.0096,-0.0096 0,0 0.0096,-0.0096 0.0096,-0.009 0,0 0.0096,-0.009 0.0096,-0.0087 0,0 0.0096,-0.0087 0.0096,-0.0075 0,0 0.0096,-0.0075 0.0096,-0.0066 0,0 0.0096,-0.0066 0.0093,-0.0051 0,0 0.0093,-0.0051 0.0096,-0.0033 0,0 0.0096,-0.0033 0.0096,-9e-4 0,0 0.0096,-9e-4 0.0096,0.0537 0,0 0.0096,0.0537 0.0096,0.132 0,0 0.0096,0.132 0.0093,0.1683 0,0 0.0093,0.1683 0.0096,0.1635 0,0 0.0096,0.1635 0.0096,0.1176 0,0 0.0096,0.1176 0.0096,0.0324 0,0 0.0096,0.0324 0.0096,-0.0183 0,0 0.0096,-0.0183 0.0096,-0.0408 0,0 0.0096,-0.0408 0.0096,-0.0609 0,0 0.0096,-0.0609 0.0093,-0.0774 0,0 0.0093,-0.0774 0.0096,-0.0915 0,0 0.0096,-0.0915 0.0096,-0.1023 0,0 0.0096,-0.1023 0.0096,-0.1101 0,0 0.0096,-0.1101 0.0096,-0.1149 0,0 0.0096,-0.1149 0.0096,-0.1167 0,0 0.0096,-0.1167 0.0093,-0.1155 0,0 0.0093,-0.1155 0.0096,-0.1116 0,0 0.0096,-0.1116 0.0096,-0.1044 0,0 0.0096,-0.1044 0.0096,-0.0942 0,0 0.0096,-0.0942 0.0096,-0.0942 0,0 0.0096,-0.081 0.0093,-0.0648 0,0 0.0093,-0.0648 0.0096,-0.0459 0,0 0.0096,-0.0459 0.0096,-0.0237 0,0 0.0096,-0.0237 0.0096,-0.0027 0,0 0.0096,-0.0027 0.0096,-6e-4 0,0 0.0096,-6e-4 0.0096,-3e-4 0,0 0.0096,-3e-4 0.0096,-3e-4 0,0 0.0096,-3e-4 0.0093,-3e-4 0,0 0.0093,-3e-4 0.0096,-3e-4 0,0 0.0096,-3e-4 0.0096,0 0,0 0.0096,0 0.0096,-3e-4 0,0 0.0096,-3e-4 0.0096,-3e-4 0,0 0.0096,-3e-4 0.0093,-3e-4 0,0 0.0093,-3e-4 0.0096,0 0,0 0.0096,0 0.0096,-3e-4 0,0 0.0096,-3e-4 0.0096,-3e-4 0,0 0.0096,-3e-4 0.0096,0 0,0 0.0096,0 0.0096,-3e-4 0,0 0.0096,-3e-4 0.0096,0 0,0 0.0096,0 0.0093,-3e-4 0,0 0.0093,-3e-4 0.0096,0 0,0 0.0096,0 0.0096,0 0,0 0.0096,0 0.0096,-3e-4 0,0 0.0096,-3e-4 0.0096,0 0,0 0.0096,0 0.0096,0 0,0 0.0096,0 0.0093,0 0,0 0.0093,0 0.0096,0 0,0 0.0096,0 0.0096,-3e-4 0,0 0.0096,-3e-4 0.0096,0 0,0 0.0096,0 0.0096,0 0,0 0.0096,0 0.0093,0 0,0 0.0093,0 0.0096,0.0021 0,0 0.0096,0.0021 0.0096,0.0147 0,0 0.0096,0.0147 0.0096,0.027 0,0 0.0096,0.027 0.0096,0.0375 0,0 0.0096,0.0375 0.0096,0.0465 0,0 0.0096,0.0465 0.0093,0.054 0,0 0.0093,0.054 0.0096,0.0591 0,0 0.0096,0.0591 0.0096,0.0633 0,0 0.0096,0.0633 0.0096,0.0654 0,0 0.0096,0.0654 0.0096,0.0657 0,0 0.0096,0.0657 0.0096,0.0645 0,0 0.0096,0.0645 0.0093,0.0615 0,0 0.0093,0.0615 0.0096,0.0567 0,0 0.0096,0.0567 0.0096,0.0501 0,0 0.0096,0.0501 0.0096,0.0423 0,0 0.0096,0.0423 0.0096,0.0339 0,0 0.0096,0.0339 0.0096,0.0342 0,0 0.0096,0.0342 0.0093,0.0318 0,0 0.0093,0.0318 0.0096,0.0237 0,0 0.0096,0.0237 0.0096,0.0099 0,0 0.0096,0.0099 0.0096,-0.0027 0,0 0.0096,-0.0027 0.0096,-0.0084 0,0 0.0096,-0.0084 0.0096,-0.0141 0,0 0.0096,-0.0141 0.0093,-0.0189 0,0 0.0093,-0.0189 0.0096,-0.0231 0,0 0.0096,-0.0231 0.0096,-0.0273 0,0 0.0096,-0.0273 0.0096,-0.0309 0,0 0.0096,-0.0309 0.0096,-0.0342 0,0 0.0096,-0.0342 0.0096,-0.0369 0,0 0.0096,-0.0369 0.0093,-0.039 0,0 0.0093,-0.039 0.0096,-0.0411 0,0 0.0096,-0.0411 0.0096,-0.0423 0,0 0.0096,-0.0423 0.0096,-0.0432 0,0 0.0096,-0.0432 0.0096,-0.0441 0,0 0.0096,-0.0441 0.0096,-0.0438 0,0 0.0096,-0.0438 0.0093,-0.0438 0,0 0.0093,-0.0438 0.0096,-0.0426 0,0 0.0096,-0.0426 0.0096,-0.0417 0,0 0.0096,-0.0417 0.0096,-0.0399 0,0 0.0096,-0.0399 0.0096,-0.0381 0,0 0.0096,-0.0381 0.0096,-0.0354 0,0 0.0096,-0.0354 0.0093,-0.0324 0,0 0.0093,-0.0324 0.0096,-0.0288 0,0 0.0096,-0.0288 0.0096,-0.0252 0,0 0.0096,-0.0252 0.0096,-0.0234 0,0 0.0096,-0.0234 0.0096,-0.0222 0,0 0.0096,-0.0222 0.0096,-0.0213 0,0 0.0096,-0.0213 0.0093,-0.0207 0,0 0.0093,-0.0207 0.0096,-0.0198 0,0 0.0096,-0.0198 0.0096,-0.0195 0,0 0.0096,-0.0195 0.0096,-0.0186 0,0 0.0096,-0.0186 0.0096,-0.0186 0,0 0.0096,-0.0186 0.0096,-0.018 0,0 0.0096,-0.018 0.0093,-0.0177 0,0 0.0093,-0.0177 0.0096,-0.0177 0,0 0.0096,-0.0177 0.0096,-0.0174 0,0 0.0096,-0.0174 0.0096,-0.0177 0,0 0.0096,-0.0177 0.0096,-0.0177 0,0 0.0096,-0.0177 0.0093,-0.0177 0,0 0.0093,-0.0177 0.0096,-0.0183 0,0 0.0096,-0.0183 0.0096,-0.0186 0,0 0.0096,-0.0186 0.0096,-0.0189 0,0 0.0096,-0.0189 0.0096,-0.0198 0,0 0.0096,-0.0198 0.0096,-0.0201 0,0 0.0096,-0.0201 0.0093,-0.0252 0,0 0.0093,-0.0252 0.0096,-0.0285 0,0 0.0096,-0.0285 0.0096,-0.0261 0,0 0.0096,-0.0261 0.0096,-0.0186 0,0 0.0096,-0.0186 0.0096,-0.0054 0,0 0.0096,-0.0054 0.0096,0.0045 0,0 0.0096,0.0045 0.0096,0.0105 0,0 0.0096,0.0105 0.0093,0.0165 0,0 0.0093,0.0165 0.0096,0.0216 0,0 0.0096,0.0216 0.0096,0.0267 0,0 0.0096,0.0267 0.0096,0.0309 0,0 0.0096,0.0309 0.0096,0.0348 0,0 0.0096,0.0348 0.0096,0.0387 0,0 0.0096,0.0387 0.0093,0.0417 0,0 0.0093,0.0417 0.0096,0.0444 0,0 0.0096,0.0444 0.0096,0.0468 0,0 0.0096,0.0468 0.0096,0.0486 0,0 0.0096,0.0486 0.0096,0.0498 0,0 0.0096,0.0498 0.0093,0.051 0,0 0.0093,0.051 0.0096,0.0516 0,0 0.0096,0.0516 0.0096,0.0516 0,0 0.0096,0.0516 0.0096,0.0513 0,0 0.0096,0.0513 0.0096,0.0504 0,0 0.0096,0.0504 0.0096,0.0495 0,0 0.0096,0.0495 0.0096,0.0477 0,0 0.0096,0.0477 0.0093,0.0456 0,0 0.0093,0.0456 0.0096,0.0432 0,0 0.0096,0.0432 0.0096,0.0402 0,0 0.0096,0.0402 0.0096,0.0372 0,0 0.0096,0.0372 0.0096,0.033 0,0 0.0096,0.033 0.0096,0.0291 0,0 0.0096,0.0291 0.0093,0.0243 0,0 0.0093,0.0243 0.0096,0.0192 0,0 0.0096,0.0192 0.0096,0.0138 0,0 0.0096,0.0138 0.0096,0.0078 0,0 0.0096,0.0078 0.0096,0.003 0,0 0.0096,0.003 0.0093,0.0027 0,0 0.0093,0.0027 0.0096,0.0027 0,0 0.0096,0.0027 0.0096,0.0024 0,0 0.0096,0.0024 0.0096,0.0024 0,0 0.0096,0.0024 0.0096,0.0021 0,0 0.0096,0.0021 0.0096,0.0015 0,0 0.0096,0.0015 0.0093,0.0015 0,0 0.0093,0.0015 0.0096,9e-4 0,0 0.0096,9e-4 0.0096,9e-4 0,0 0.0096,9e-4 0.0096,3e-4 0,0 0.0096,3e-4 0.0096,-6e-4 0,0 0.0096,-6e-4 0.0096,-0.0021 0,0 0.0096,-0.0021 0.0096,-0.0036 0,0 0.0096,-0.0036 0.0093,-0.0045 0,0 0.0093,-0.0045 0.0096,-0.0057 0,0 0.0096,-0.0057 0.0096,-0.0066 0,0 0.0096,-0.0066 0.0096,-0.0072 0,0 0.0096,-0.0072 0.0096,-0.0078 0,0 0.0096,-0.0078 0.0093,-0.0081 0,0 0.0093,-0.0081 0.0096,-0.0081 0,0 0.0096,-0.0081 0.0096,-0.0081 0,0 0.0096,-0.0081 0.0096,-0.0078 0,0 0.0096,-0.0078 0.0096,-0.0075 0,0 0.0096,-0.0075 0.0096,-0.0066 0,0 0.0096,-0.0066 0.0093,-0.006 0,0 0.0093,-0.006 0.0096,-0.0054 0,0 0.0096,-0.0054 0.0096,-0.0045 0,0 0.0096,-0.0045 0.0096,-0.0042 0,0 0.0096,-0.0042 0.0096,-0.0039 0,0 0.0096,-0.0039 0.0096,-0.0039 0,0 0.0096,-0.0039 0.0093,-0.0033 0,0 0.0093,-0.0033 0.0096,-0.0033 0,0 0.0096,-0.0033 0.0096,-0.0033 0,0 0.0096,-0.0033 0.0096,-0.003 0,0 0.0096,-0.003 0.0096,-0.0033 0,0 0.0096,-0.0033 0.0096,-0.003 0,0 0.0096,-0.003 0.0093,-0.0033 0,0 0.0093,-0.0033 0.0096,-0.0036 0,0 0.0096,-0.0036 0.0096,-0.0036 0,0 0.0096,-0.0036 0.0096,-0.0039 0,0 0.0096,-0.0039 0.0096,-0.0045 0,0 0.0096,-0.0045 0.0096,-0.0048 0,0 0.0096,-0.0048 0.0093,-0.0051 0,0 0.0093,-0.0051 0.0096,-0.0057 0,0 0.0096,-0.0057 0.0096,-0.0063 0,0 0.0096,-0.0063 0.0096,-0.0069 0,0 0.0096,-0.0069 0.0096,-0.0078 0,0 0.0096,-0.0078 0.0096,-0.0105 0,0 0.0096,-0.0105 0.0093,-0.0213 0,0 0.0093,-0.0213 0.0096,-0.0312 0,0 0.0096,-0.0312 0.0096,-0.0399 0,0 0.0096,-0.0399 0.0096,-0.0468 0,0 0.0096,-0.0468 0.0096,-0.0525 0,0 0.0096,-0.0525 0.0096,-0.057 0,0 0.0096,-0.057 0.0093,-0.0597 0,0 0.0093,-0.0597 0.0096,-0.0612 0,0 0.0096,-0.0612 0.0096,-0.0612 0,0 0.0096,-0.0612 0.0096,-0.06 0,0 0.0096,-0.06 0.0096,-0.0573 0,0 0.0096,-0.0573 0.0093,-0.0528 0,0 0.0093,-0.0528 0.0096,-0.0474 0,0 0.0096,-0.0474 0.0096,-0.0405 0,0 0.0096,-0.0405 0.0096,-0.0321 0,0 0.0096,-0.0321 0.0096,-0.0222 0,0 0.0096,-0.0222 0.0096,-0.0111 0,0 0.0096,-0.0111 0.0093,0.0018 0,0 0.0093,0.0018 0.0096,0.0144 0,0 0.0096,0.0144 0.0096,0.0231 0,0 0.0096,0.0231 0.0096,0.027 0,0 0.0096,0.027 0.0096,0.0273 0,0 0.0096,0.0273 0.0096,0.0231 0,0 0.0096,0.0231 0.0096,0.0144 0,0 0.0096,0.0144 0.0093,0.0027 0,0 0.0093,0.0027 0.0096,-3e-4 0,0 0.0096,-3e-4 0.0096,-6e-4 0,0 0.0096,-6e-4 0.0096,-6e-4 0,0 0.0096,-6e-4 0.0096,-9e-4 0,0 0.0096,-9e-4 0.0096,-0.0012 0,0 0.0096,-0.0012 0.0093,-0.0015 0,0 0.0093,-0.0015 0.0096,-0.0018 0,0 0.0096,-0.0018 0.0096,-0.0018 0,0 0.0096,-0.0018 0.0096,-0.0021 0,0 0.0096,-0.0021 0.0096,-0.0024 0,0 0.0096,-0.0024 0.0093,-0.0024 0,0 0.0093,-0.0024 0.0096,-0.0027 0,0 0.0096,-0.0027 0.0096,-0.003 0,0 0.0096,-0.003 0.0096,-0.0033 0,0 0.0096,-0.0033 0.0096,-0.0033 0,0 0.0096,-0.0033 0.0096,-0.0033 0,0 0.0096,-0.0033 0.0096,-0.0039 0,0 0.0096,-0.0039 0.0093,-0.0039 0,0 0.0093,-0.0039 0.0096,-0.0042 0,0 0.0096,-0.0042 0.0096,-0.0042 0,0 0.0096,-0.0042 0.0096,-0.0045 0,0 0.0096,-0.0045 0.0096,-0.0045 0,0 0.0096,-0.0045 0.0096,-0.0051 0,0 0.0096,-0.0051 0.0093,-0.0096 0,0 0.0093,-0.0096 0.0096,-0.0159 0,0 0.0096,-0.0159 0.0096,-0.021 0,0 0.0096,-0.021 0.0096,-0.0252 0,0 0.0096,-0.0252 0.0096,-0.0291 0,0 0.0096,-0.0291 0.0093,-0.0318 0,0 0.0093,-0.0318 0.0096,-0.0342 0,0 0.0096,-0.0342 0.0096,-0.0354 0,0 0.0096,-0.0354 0.0096,-0.0363 0,0 0.0096,-0.0363 0.0096,-0.0363 0,0 0.0096,-0.0363 0.0096,-0.0354 0,0 0.0096,-0.0354 0.0093,-0.0339 0,0 0.0093,-0.0339 0.0096,-0.0318 0,0 0.0096,-0.0318 0.0096,-0.0285 0,0 0.0096,-0.0285 0.0096,-0.0249 0,0 0.0096,-0.0249 0.0096,-0.0204 0,0 0.0096,-0.0204 0.0096,-0.0153 0,0 0.0096,-0.0153 0.0096,-0.0093 0,0 0.0096,-0.0093 0.0093,-0.0024 0,0 0.0093,-0.0024 0.0096,0.0102 0,0 0.0096,0.0102 0.0096,0.0231 0,0 0.0096,0.0231 0.0096,0.033 0,0 0.0096,0.033 0.0096,0.0396 0,0 0.0096,0.0396 0.0093,0.0429 0,0 0.0093,0.0429 0.0096,0.0429 0,0 0.0096,0.0429 0.0096,0.0402 0,0 0.0096,0.0402 0.0096,0.0336 0,0 0.0096,0.0336 0.0096,0.0258 0,0 0.0096,0.0258 0.0096,0.0231 0,0 0.0096,0.0231 0.0093,0.0219 0,0 0.0093,0.0219 0.0096,0.021 0,0 0.0096,0.021 0.0096,0.0198 0,0 0.0096,0.0198 0.0096,0.0189 0,0 0.0096,0.0189 0.0096,0.0186 0,0 0.0096,0.0186 0.0096,0.018 0,0 0.0096,0.018 0.0093,0.0177 0,0 0.0093,0.0177 0.0096,0.0174 0,0 0.0096,0.0174 0.0096,0.0174 0,0 0.0096,0.0174 0.0096,0.0177 0,0 0.0096,0.0177 0.0096,0.018 0,0 0.0096,0.018 0.0096,0.0183 0,0 0.0096,0.0183 0.0093,0.0189 0,0 0.0093,0.0189 0.0096,0.0192 0,0 0.0096,0.0192 0.0096,0.0198 0,0 0.0096,0.0198 0.0096,0.0201 0,0 0.0096,0.0201 0.0096,0.0201 0,0 0.0096,0.0201 0.0096,0.0204 0,0 0.0096,0.0204 0.0093,0.0204 0,0 0.0093,0.0204 0.0096,0.0207 0,0 0.0096,0.0207 0.0096,0.0204 0,0 0.0096,0.0204 0.0096,0.0204 0,0 0.0096,0.0204 0.0096,0.0198 0,0 0.0096,0.0198 0.0096,0.0198 0,0 0.0096,0.0198 0.0093,0.0195 0,0 0.0093,0.0195 0.0096,0.0192 0,0 0.0096,0.0192 0.0096,0.0183 0,0 0.0096,0.0183 0.0096,0.018 0,0 0.0096,0.018 0.0096,0.0171 0,0 0.0096,0.0171 0.0096,0.0165 0,0 0.0096,0.0165 0.0093,0.0159 0,0 0.0093,0.0159 0.0096,0.0147 0,0 0.0096,0.0147 0.0096,0.0138 0,0 0.0096,0.0138 0.0096,0.0129 0,0 0.0096,0.0129 0.0096,0.0117 0,0 0.0096,0.0117 0.0096,0.0105 0,0 0.0096,0.0105 0.0093,0.0096 0,0 0.0093,0.0096 0.0096,0.0093 0,0 0.0096,0.0093 0.0096,0.0093 0,0 0.0096,0.0093 0.0096,0.0093 0,0 0.0096,0.0093 0.0096,0.009 0,0 0.0096,0.009 0.0096,0.009 0,0 0.0096,0.009 0.0093,0.0087 0,0 0.0093,0.0087 0.0096,0.0084 0,0 0.0096,0.0084 0.0096,0.0078 0,0 0.0096,0.0078 0.0096,0.0075 0,0 0.0096,0.0075 0.0096,0.0072 0,0 0.0096,0.0072 0.0096,0.0063 0,0 0.0096,0.0063 0.0093,0.006 0,0 0.0093,0.006 0.0096,0.0051 0,0 0.0096,0.0051 0.0096,0.0042 0,0 0.0096,0.0042 0.0096,0.0036 0,0 0.0096,0.0036 0.0096,0.0024 0,0 0.0096,0.0024 0.0096,0.0018 0,0 0.0096,0.0018 0.0093,6e-4 0,0 0.0093,6e-4 0.0096,-0.0072 0,0 0.0096,-0.0072 0.0096,-0.0243 0,0 0.0096,-0.0243 0.0096,-0.0399 0,0 0.0096,-0.0399 0.0096,-0.0525 0,0 0.0096,-0.0525 0.0093,-0.0639 0,0 0.0093,-0.0639 0.0096,-0.0726 0,0 0.0096,-0.0726 0.0096,-0.0798 0,0 0.0096,-0.0798 0.0096,-0.0843 0,0 0.0096,-0.0843 0.0096,-0.087 0,0 0.0096,-0.087 0.0096,-0.0876 0,0 0.0096,-0.0876 0.0096,-0.0861 0,0 0.0096,-0.0861 0.0093,-0.0825 0,0 0.0093,-0.0825 0.0096,-0.0768 0,0 0.0096,-0.0768 0.0096,-0.069 0,0 0.0096,-0.069 0.0096,-0.0591 0,0 0.0096,-0.0591 0.0096,-0.0474 0,0 0.0096,-0.0474 0.0096,-0.033 0,0 0.0096,-0.033 0.0093,-0.0171 0,0 0.0093,-0.0171 0.0096,0.0228 0,0 0.0096,0.0228 0.0096,0.1272 0,0 0.0096,0.1272 0.0096,0.1515 0,0 0.0096,0.1515 0.0096,0.0834 0,0 0.0096,0.0834 0.0093,0.0504 0,0 0.0093,0.0504 0.0096,0.0489 0,0 0.0096,0.0489 0.0096,0.0474 0,0 0.0096,0.0474 0.0096,0.0459 0,0 0.0096,0.0459 0.0096,0.0444 0,0 0.0096,0.0444 0.0096,0.0429 0,0 0.0096,0.0429 0.0093,0.0411 0,0 0.0093,0.0411 0.0096,0.0399 0,0 0.0096,0.0399 0.0096,0.0381 0,0 0.0096,0.0381 0.0096,0.0369 0,0 0.0096,0.0369 0.0096,0.0351 0,0 0.0096,0.0351 0.0096,0.0333 0,0 0.0096,0.0333 0.0096,0.0321 0,0 0.0096,0.0321 0.0093,0.0303 0,0 0.0093,0.0303 0.0096,0.0288 0,0 0.0096,0.0288 0.0096,0.0273 0,0 0.0096,0.0273 0.0096,0.0255 0,0 0.0096,0.0255 0.0096,0.024 0,0 0.0096,0.024 0.0093,0.0225 0,0 0.0093,0.0225 0.0096,0.0207 0,0 0.0096,0.0207 0.0096,0.0189 0,0 0.0096,0.0189 0.0096,0.0177 0,0 0.0096,0.0177 0.0096,0.0156 0,0 0.0096,0.0156 0.0096,0.0144 0,0 0.0096,0.0144 0.0093,0.0123 0,0 0.0093,0.0123 0.0096,0.0108 0,0 0.0096,0.0108 0.0096,0.0093 0,0 0.0096,0.0093 0.0096,0.0075 0,0 0.0096,0.0075 0.0096,0.0057 0,0 0.0096,0.0057 0.0096,0.0039 0,0 0.0096,0.0039 0.0096,0.0024 0,0 0.0096,0.0024 0.0093,-0.0114 0,0 0.0093,-0.0114 0.0096,-0.4521 0,0 0.0096,-0.4521 0.0096,-0.216 0,0 0.0096,-0.216 0.0096,0 0,0 0.0096,0 0.0096,3e-4 0,0 0.0096,3e-4 0.0093,3e-4 0,0 0.0093,3e-4 0.0096,3e-4 0,0 0.0096,3e-4 0.0096,6e-4 0,0 0.0096,6e-4 0.0096,6e-4 0,0 0.0096,6e-4 0.0096,6e-4 0,0 0.0096,6e-4 0.0096,9e-4 0,0 0.0096,9e-4 0.0093,9e-4 0,0 0.0093,9e-4 0.0096,0.0012 0,0 0.0096,0.0012 0.0096,0.0012 0,0 0.0096,0.0012 0.0096,0.0012 0,0 0.0096,0.0012 0.0096,0.0015 0,0 0.0096,0.0015 0.0096,0.0015 0,0 0.0096,0.0015 0.0093,0.0015 0,0 0.0093,0.0015 0.0096,0.0018 0,0 0.0096,0.0018 0.0096,0.0021 0,0 0.0096,0.0021 0.0096,0.0018 0,0 0.0096,0.0018 0.0096,0.0024 0,0 0.0096,0.0024 0.0096,0.0021 0,0 0.0096,0.0021 0.0093,0.0024 0,0 0.0093,0.0024 0.0096,0.006 0,0 0.0096,0.006 0.0096,0.0186 0,0 0.0096,0.0186 0.0096,0.03 0,0 0.0096,0.03 0.0096,0.0396 0,0 0.0096,0.0396 0.0096,0.0471 0,0 0.0096,0.0471 0.0093,0.0525 0,0 0.0093,0.0525 0.0096,0.0561 0,0 0.0096,0.0561 0.0096,0.0576 0,0 0.0096,0.0576 0.0096,0.0573 0,0 0.0096,0.0573 0.0096,0.0549 0,0 0.0096,0.0549 0.0096,0.0501 0,0 0.0096,0.0501 0.0093,0.0441 0,0 0.0093,0.0441 0.0096,0.0354 0,0 0.0096,0.0354 0.0096,0.0252 0,0 0.0096,0.0252 0.0096,0.0165 0,0 0.0096,0.0165 0.0096,0.015 0,0 0.0096,0.015 0.0096,0.0132 0,0 0.0096,0.0132 0.0093,0.012 0,0 0.0093,0.012 0.0096,0.0105 0,0 0.0096,0.0105 0.0096,0.0096 0,0 0.0096,0.0096 0.0096,0.0093 0,0 0.0096,0.0084 0.0096,0.0075 0,0 0.0096,0.0075 0.0096,0.0078 0,0 0.0096,0.0069 0.0093,0.0063 0,0 0.0093,0.0063 0.0096,0.0057 0,0 0.0096,0.0057 0.0096,0.0054 0,0 0.0096,0.0054 0.0096,0.0051 0,0 0.0096,0.0051 0.0096,0.0051 0,0 0.0096,0.0051 0.0093,0.0051 0,0 0.0093,0.0051 0.0096,0.0054 0,0 0.0096,0.0054 0.0096,0.0054 0,0 0.0096,0.0054 0.0096,0.006 0,0 0.0096,0.006 0.0096,0.0066 0,0 0.0096,0.0066 0.0096,0.0072 0,0 0.0096,0.0072 0.0096,0.0081 0,0 0.0096,0.0081 0.0093,0.009 0,0 0.0093,0.009 0.0096,0.0099 0,0 0.0096,0.0099 0.0096,0.0111 0,0 0.0096,0.0111 0.0096,0.0126 0,0 0.0096,0.0126 0.0096,0.0141 0,0 0.0096,0.0141 0.0096,0.0156 0,0 0.0096,0.0156 0.0093,0.0171 0,0 0.0093,0.0171 0.0096,0.0192 0,0 0.0096,0.0192 0.0096,0.0336 0,0 0.0096,0.0336 0.0096,0.0837 0,0 0.0096,0.0837 0.0096,0.1248 0,0 0.0096,0.1248 0.0093,0.1539 0,0 0.0093,0.1539 0.0096,0.171 0,0 0.0096,0.171 0.0096,0.1758 0,0 0.0096,0.1758 0.0096,0.1689 0,0 0.0096,0.1689 0.0096,0.15 0,0 0.0096,0.15 0.0096,0.1185 0,0 0.0096,0.1185 0.0096,0.0756 0,0 0.0096,0.0756 0.0093,0.0207 0,0 0.0093,0.0207 0.0096,-0.009 0,0 0.0096,-0.009 0.0096,-0.009 0,0 0.0096,-0.0216 0.0096,-0.0321 0,0 0.0096,-0.0321 0.0096,-0.0414 0,0 0.0096,-0.0414 0.0096,-0.0492 0,0 0.0096,-0.0492 0.0093,-0.0552 0,0 0.0093,-0.0552 0.0096,-0.0594 0,0 0.0096,-0.0594 0.0096,-0.0624 0,0 0.0096,-0.0624 0.0096,-0.0636 0,0 0.0096,-0.0636 0.0096,-0.0633 0,0 0.0096,-0.0633 0.0093,-0.0612 0,0 0.0093,-0.0612 0.0096,-0.0579 0,0 0.0096,-0.0579 0.0096,-0.0609 0,0 0.0096,-0.0609 0.0096,-0.0675 0,0 0.0096,-0.0675 0.0096,-0.0732 0,0 0.0096,-0.0732 0.0096,-0.0771 0,0 0.0096,-0.0771 0.0093,-0.0804 0,0 0.0093,-0.0804 0.0096,-0.0825 0,0 0.0096,-0.0825 0.0096,-0.0831 0,0 0.0096,-0.0831 0.0096,-0.0825 0,0 0.0096,-0.0825 0.0096,-0.0807 0,0 0.0096,-0.0807 0.0096,-0.078 0,0 0.0096,-0.078 0.0096,-0.0741 0,0 0.0096,-0.0741 0.0093,-0.0684 0,0 0.0093,-0.0684 0.0096,-0.0624 0,0 0.0096,-0.0624 0.0096,-0.0543 0,0 0.0096,-0.0543 0.0096,-0.0456 0,0 0.0096,-0.0456 0.0096,-0.0378 0,0 0.0096,-0.0378 0.0093,-0.0366 0,0 0.0093,-0.0366 0.0096,-0.0366 0,0 0.0096,-0.0366 0.0096,-0.0357 0,0 0.0096,-0.0357 0.0096,-0.0354 0,0 0.0096,-0.0354 0.0096,-0.0345 0,0 0.0096,-0.0345 0.0096,-0.0339 0,0 0.0096,-0.0339 0.0093,-0.033 0,0 0.0093,-0.033 0.0096,-0.0318 0,0 0.0096,-0.0318 0.0096,-0.0312 0,0 0.0096,-0.0312 0.0096,-0.0297 0,0 0.0096,-0.0297 0.0096,-0.0285 0,0 0.0096,-0.0285 0.0096,-0.027 0,0 0.0096,-0.027 0.0093,-0.0255 0,0 0.0093,-0.0255 0.0096,-0.0243 0,0 0.0096,-0.0243 0.0096,-0.0222 0,0 0.0096,-0.0222 0.0096,-0.0207 0,0 0.0096,-0.0207 0.0096,-0.0189 0,0 0.0096,-0.0189 0.0096,-0.0168 0,0 0.0096,-0.0168 0.0093,-0.0147 0,0 0.0093,-0.0147 0.0096,-0.0126 0,0 0.0096,-0.0126 0.0096,-0.0102 0,0 0.0096,-0.0102 0.0096,-0.0081 0,0 0.0096,-0.0081 0.0096,-0.0054 0,0 0.0096,-0.0054 0.0096,-0.003 0,0 0.0096,-0.003 0.0093,0.0087 0,0 0.0093,0.0087 0.0096,0.0951 0,0 0.0096,0.0951 0.0096,0.171 0,0 0.0096,0.171 0.0096,0.2133 0,0 0.0096,0.2133 0.0096,0.2217 0,0 0.0096,0.2217 0.0096,0.1959 0,0 0.0096,0.1959 0.0093,0.1365 0,0 0.0093,0.1365 0.0096,0.0441 0,0 0.0096,0.0441 0.0096,-0.009 0,0 0.0096,-0.009 0.0096,-0.0228 0,0 0.0096,-0.0228 0.0096,-0.0354 0,0 0.0096,-0.0354 0.0096,-0.0465 0,0 0.0096,-0.0465 0.0093,-0.0561 0,0 0.0093,-0.0561 0.0096,-0.0642 0,0 0.0096,-0.0642 0.0096,-0.0714 0,0 0.0096,-0.0714 0.0096,-0.0768 0,0 0.0096,-0.0768 0.0096,-0.9324 0,0 0.0096,-0.9324 0.0096,-0.0198 0,0 0.0096,-0.0198 0.0093,-0.0201 0,0 0.0093,-0.0201 0.0096,-0.0198 0,0 0.0096,-0.0198 0.0096,-0.0189 0,0 0.0096,-0.0189 0.0096,-0.018 0,0 0.0096,-0.018 0.0096,-0.0174 0,0 0.0096,-0.0174 0.0096,-0.0174 0,0 0.0096,-0.0168 0.0093,-0.0156 0,0 0.0093,-0.0156 0.0096,-0.0147 0,0 0.0096,-0.0147 0.0096,-0.0141 0,0 0.0096,-0.0141 0.0096,-0.0126 0,0 0.0096,-0.0126 0.0096,-0.012 0,0 0.0096,-0.012 0.0096,-0.0105 0,0 0.0096,-0.0105 0.0093,-0.0096 0,0 0.0093,-0.0096 0.0096,-0.0081 0,0 0.0096,-0.0081 0.0096,-0.0072 0,0 0.0096,-0.0072 0.0096,-0.0057 0,0 0.0096,-0.0057 0.0096,-0.0042 0,0 0.0096,-0.0042 0.0096,-0.003 0,0 0.0096,-0.003 0.0093,-0.0015 0,0 0.0093,-0.0015 0.0096,0.0048 0,0 0.0096,0.0048 0.0096,0.0357 0,0 0.0096,0.0357 0.0096,0.0645 0,0 0.0096,0.0645 0.0096,0.0858 0,0 0.0096,0.0858 0.0096,0.0999 0,0 0.0096,0.0999 0.0093,0.1071 0,0 0.0093,0.1071 0.0096,0.1065 0,0 0.0096,0.1065 0.0096,0.0993 0,0 0.0096,0.0993 0.0096,0.0846 0,0 0.0096,0.0846 0.0096,0.0756 0,0 0.0096,0.0756 0.0093,0.0765 0,0 0.0093,0.0765 0.0096,0.0777 0,0 0.0096,0.0777 0.0096,0.0783 0,0 0.0096,0.0783 0.0096,0.0786 0,0 0.0096,0.0786 0.0096,0.0783 0,0 0.0096,0.0783 0.0096,0.0783 0,0 0.0096,0.078 0.0096,0.0771 0,0 0.0096,0.0771 0.0093,0.0762 0,0 0.0093,0.0762 0.0096,0.0747 0,0 0.0096,0.0747 0.0096,0.0729 0,0 0.0096,0.0729 0.0096,0.0708 0,0 0.0096,0.0708 0.0096,0.0684 0,0 0.0096,0.0684 0.0096,0.0654 0,0 0.0096,0.0654 0.0093,0.0627 0,0 0.0093,0.0627 0.0096,0.0588 0,0 0.0096,0.0588 0.0096,0.0555 0,0 0.0096,0.0555"
     id="path4"
     style="fill:none;stroke:#0072bd;stroke-width:0.075" />
  <path
     d="m -0.0672,6.808303 c 0.0096,-0.003 0,0 0.0096,-0.003 0.0096,-0.0039 0,0 0.0096,-0.0039 0.0093,-0.0042 0,0 0.0093,-0.0042 0.0096,-0.0048 0,0 0.0096,-0.0048 0.0096,-0.0051 0,0 0.0096,-0.0051 0.0096,-0.0054 0,0 0.0096,-0.0054 0.0096,-0.006 0,0 0.0096,-0.006 0.0096,-0.006 0,0 0.0096,-0.006 0.0093,-0.0063 0,0 0.0093,-0.0063 0.0096,-0.0066 0,0 0.0096,-0.0066 0.0096,-0.0066 0,0 0.0096,-0.0066 0.0096,-0.0066 0,0 0.0096,-0.0066 0.0096,-0.0066 0,0 0.0096,-0.0066 0.0096,-0.0069 0,0 0.0096,-0.0069 0.0093,-0.0069 0,0 0.0093,-0.0069 0.0096,-0.0069 0,0 0.0096,-0.0069 0.0096,-0.0069 0,0 0.0096,-0.0069 0.0096,-0.0069 0,0 0.0096,-0.0069 0.0096,-0.0072 0,0 0.0096,-0.0072 0.0096,-0.0069 0,0 0.0096,-0.0069 0.0093,-0.0072 0,0 0.0093,-0.0072 0.0096,-0.0072 0,0 0.0096,-0.0072 0.0096,-0.0069 0,0 0.0096,-0.0069 0.0096,-0.0072 0,0 0.0096,-0.0072 0.0096,-0.0072 0,0 0.0096,-0.0072 0.0096,-0.0072 0,0 0.0096,-0.0072 0.0093,-0.0075 0,0 0.0093,-0.0075 0.0096,-0.0072 0,0 0.0096,-0.0072 0.0096,-0.0075 0,0 0.0096,-0.0075 0.0096,-0.0075 0,0 0.0096,-0.0075 0.0096,-0.0075 0,0 0.0096,-0.0075 0.0096,-0.0078 0,0 0.0096,-0.0078 0.0093,-0.0081 0,0 0.0093,-0.0081 0.0096,-0.0081 0,0 0.0096,-0.0081 0.0096,-0.0087 0,0 0.0096,-0.0087 0.0096,-0.009 0,0 0.0096,-0.009 0.0096,-0.0093 0,0 0.0096,-0.0093 0.0096,-0.0096 0,0 0.0096,-0.0096 0.0093,-0.0102 0,0 0.0093,-0.0102 0.0096,-0.0108 0,0 0.0096,-0.0108 0.0096,-0.0108 0,0 0.0096,-0.0108 0.0096,-0.0114 0,0 0.0096,-0.0114 0.0096,-0.0114 0,0 0.0096,-0.0114 0.0096,-0.0117 0,0 0.0096,-0.0117 0.0093,-0.0117 0,0 0.0093,-0.0117 0.0096,-0.012 0,0 0.0096,-0.012 0.0096,-0.0117 0,0 0.0096,-0.0117 0.0096,-0.0114 0,0 0.0096,-0.0114 0.0096,-0.0114 0,0 0.0096,-0.0114 0.0096,-0.0111 0,0 0.0096,-0.0111 0.0093,-0.0108 0,0 0.0093,-0.0108 0.0096,-0.0105 0,0 0.0096,-0.0105 0.0096,-0.0099 0,0 0.0096,-0.0099 0.0096,-0.0096 0,0 0.0096,-0.0096 0.0096,-0.009 0,0 0.0096,-0.009 0.0096,-0.0084 0,0 0.0096,-0.0084 0.0093,-0.0081 0,0 0.0093,-0.0081 0.0096,-0.0075 0,0 0.0096,-0.0075 0.0096,-0.0072 0,0 0.0096,-0.0072 0.0096,-0.0066 0,0 0.0096,-0.0066 0.0096,-0.006 0,0 0.0096,-0.006 0.0096,-0.006 0,0 0.0096,-0.006 0.0093,-0.0054 0,0 0.0093,-0.0054 0.0096,-0.0051 0,0 0.0096,-0.0051 0.0096,-0.0048 0,0 0.0096,-0.0048 0.0096,-0.0045 0,0 0.0096,-0.0045 0.0096,-0.0045 0,0 0.0096,-0.0045 0.0096,-0.0045 0,0 0.0096,-0.0045 0.0093,-0.0042 0,0 0.0093,-0.0042 0.0096,-0.0045 0,0 0.0096,-0.0045 0.0096,-0.0045 0,0 0.0096,-0.0045 0.0096,-0.0045 0,0 0.0096,-0.0045 0.0096,-0.0045 0,0 0.0096,-0.0045 0.0096,-0.0045 0,0 0.0096,-0.0045 0.0093,-0.0045 0,0 0.0093,-0.0045 0.0096,-0.0045 0,0 0.0096,-0.0045 0.0096,-0.0045 0,0 0.0096,-0.0045 0.0096,-0.0045 0,0 0.0096,-0.0045 0.0096,-0.0048 0,0 0.0096,-0.0048 0.0096,-0.0045 0,0 0.0096,-0.0045 0.0093,-0.0048 0,0 0.0093,-0.0048 0.0096,-0.0048 0,0 0.0096,-0.0048 0.0096,-0.0048 0,0 0.0096,-0.0048 0.0096,-0.0048 0,0 0.0096,-0.0048 0.0096,-0.0048 0,0 0.0096,-0.0048 0.0096,-0.0048 0,0 0.0096,-0.0048 0.0093,-0.0051 0,0 0.0093,-0.0051 0.0096,-0.0051 0,0 0.0096,-0.0051 0.0096,-0.0051 0,0 0.0096,-0.0051 0.0096,-0.0051 0,0 0.0096,-0.0051 0.0096,-0.0054 0,0 0.0096,-0.0054 0.0096,-0.0054 0,0 0.0096,-0.0054 0.0093,-0.006 0,0 0.0093,-0.006 0.0096,-0.006 0,0 0.0096,-0.006 0.0096,-0.0063 0,0 0.0096,-0.0063 0.0096,-0.0066 0,0 0.0096,-0.0066 0.0096,-0.0066 0,0 0.0096,-0.0066 0.0096,-0.006 0,0 0.0096,-0.006 0.0093,-0.006 0,0 0.0093,-0.006 0.0096,-0.0051 0,0 0.0096,-0.0051 0.0096,-0.0045 0,0 0.0096,-0.0045 0.0096,-0.0036 0,0 0.0096,-0.0036 0.0096,-0.0027 0,0 0.0096,-0.0027 0.0096,-0.0018 0,0 0.0096,-0.0018 0.0093,-9e-4 0,0 0.0093,-9e-4 0.0096,0 0,0 0.0096,0 0.0096,6e-4 0,0 0.0096,6e-4 0.0096,0.0015 0,0 0.0096,0.0015 0.0096,0.0021 0,0 0.0096,0.0021 0.0096,0.0021 0,0 0.0096,0.0021 0.0093,0.0027 0,0 0.0093,0.0027 0.0096,0.0024 0,0 0.0096,0.0024 0.0096,0.0024 0,0 0.0096,0.0024 0.0096,0.0027 0,0 0.0096,0.0027 0.0096,0.0021 0,0 0.0096,0.0021 0.0093,0.0024 0,0 0.0093,0.0024 0.0096,0.0024 0,0 0.0096,0.0024 0.0096,0.0024 0,0 0.0096,0.0024 0.0096,0.0021 0,0 0.0096,0.0021 0.0096,0.0021 0,0 0.0096,0.0021 0.0096,0.0024 0,0 0.0096,0.0024 0.0093,0.0018 0,0 0.0093,0.0018 0.0096,0.0021 0,0 0.0096,0.0021 0.0096,0.0018 0,0 0.0096,0.0018 0.0096,0.0018 0,0 0.0096,0.0018 0.0096,0.0015 0,0 0.0096,0.0015 0.0096,0.0015 0,0 0.0096,0.0015 0.0093,0.0015 0,0 0.0093,0.0015 0.0096,0.0012 0,0 0.0096,0.0012 0.0096,0.0012 0,0 0.0096,0.0012 0.0096,0.0012 0,0 0.0096,0.0012 0.0096,9e-4 0,0 0.0096,9e-4 0.0096,9e-4 0,0 0.0096,9e-4 0.0093,6e-4 0,0 0.0093,6e-4 0.0096,3e-4 0,0 0.0096,3e-4 0.0096,6e-4 0,0 0.0096,6e-4 0.0096,3e-4 0,0 0.0096,3e-4 0.0096,0 0,0 0.0096,0 0.0096,0 0,0 0.0096,0 0.0093,-3e-4 0,0 0.0093,-3e-4 0.0096,-6e-4 0,0 0.0096,-6e-4 0.0096,-9e-4 0,0 0.0096,-9e-4 0.0096,-0.0012 0,0 0.0096,-0.0012 0.0096,-0.0015 0,0 0.0096,-0.0015 0.0096,-0.0018 0,0 0.0096,-0.0018 0.0093,-0.0021 0,0 0.0093,-0.0021 0.0096,-0.0027 0,0 0.0096,-0.0027 0.0096,-0.003 0,0 0.0096,-0.003 0.0096,-0.0036 0,0 0.0096,-0.0036 0.0096,-0.0039 0,0 0.0096,-0.0039 0.0096,-0.0045 0,0 0.0096,-0.0045 0.0093,-0.0048 0,0 0.0093,-0.0048 0.0096,-0.0054 0,0 0.0096,-0.0054 0.0096,-0.0057 0,0 0.0096,-0.0057 0.0096,-0.0063 0,0 0.0096,-0.0063 0.0096,-0.0069 0,0 0.0096,-0.0069 0.0096,-0.0072 0,0 0.0096,-0.0072 0.0093,-0.0075 0,0 0.0093,-0.0075 0.0096,-0.0081 0,0 0.0096,-0.0081 0.0096,-0.0087 0,0 0.0096,-0.0087 0.0096,-0.009 0,0 0.0096,-0.009 0.0096,-0.0096 0,0 0.0096,-0.0096 0.0096,-0.0096 0,0 0.0096,-0.0096 0.0093,-0.0099 0,0 0.0093,-0.0099 0.0096,-0.0102 0,0 0.0096,-0.0102 0.0096,-0.0105 0,0 0.0096,-0.0105 0.0096,-0.0105 0,0 0.0096,-0.0105 0.0096,-0.0111 0,0 0.0096,-0.0111 0.0096,-0.0111 0,0 0.0096,-0.0111 0.0093,-0.0111 0,0 0.0093,-0.0111 0.0096,-0.0114 0,0 0.0096,-0.0114 0.0096,-0.0117 0,0 0.0096,-0.0117 0.0096,-0.0117 0,0 0.0096,-0.0117 0.0096,-0.012 0,0 0.0096,-0.012 0.0096,-0.012 0,0 0.0096,-0.012 0.0093,-0.0123 0,0 0.0093,-0.0123 0.0096,-0.0123 0,0 0.0096,-0.0123 0.0096,-0.0123 0,0 0.0096,-0.0123 0.0096,-0.0123 0,0 0.0096,-0.0123 0.0096,-0.0126 0,0 0.0096,-0.0126 0.0096,-0.0126 0,0 0.0096,-0.0126 0.0093,-0.0126 0,0 0.0093,-0.0126 0.0096,-0.0126 0,0 0.0096,-0.0126 0.0096,-0.0126 0,0 0.0096,-0.0126 0.0096,-0.0123 0,0 0.0096,-0.0123 0.0096,-0.0126 0,0 0.0096,-0.0126 0.0096,-0.0123 0,0 0.0096,-0.0123 0.0093,-0.0123 0,0 0.0093,-0.0123 0.0096,-0.0123 0,0 0.0096,-0.0123 0.0096,-0.012 0,0 0.0096,-0.012 0.0096,-0.012 0,0 0.0096,-0.012 0.0096,-0.0117 0,0 0.0096,-0.0117 0.0096,-0.0117 0,0 0.0096,-0.0117 0.0093,-0.0114 0,0 0.0093,-0.0114 0.0096,-0.0114 0,0 0.0096,-0.0114 0.0096,-0.0111 0,0 0.0096,-0.0111 0.0096,-0.0108 0,0 0.0096,-0.0108 0.0096,-0.0105 0,0 0.0096,-0.0105 0.0096,-0.0105 0,0 0.0096,-0.0105 0.0093,-0.0102 0,0 0.0093,-0.0102 0.0096,-0.0099 0,0 0.0096,-0.0099 0.0096,-0.0096 0,0 0.0096,-0.0096 0.0096,-0.0093 0,0 0.0096,-0.0093 0.0096,-0.0087 0,0 0.0096,-0.0087 0.0096,-0.0078 0,0 0.0096,-0.0078 0.0093,-0.0072 0,0 0.0093,-0.0072 0.0096,-0.0066 0,0 0.0096,-0.0066 0.0096,-0.0054 0,0 0.0096,-0.0054 0.0096,-0.0048 0,0 0.0096,-0.0048 0.0096,-0.0036 0,0 0.0096,-0.0036 0.0096,-0.0033 0,0 0.0096,-0.0033 0.0093,-0.0021 0,0 0.0093,-0.0021 0.0096,-0.0015 0,0 0.0096,-0.0015 0.0096,-9e-4 0,0 0.0096,-9e-4 0.0096,-3e-4 0,0 0.0096,-3e-4 0.0096,0 0,0 0.0096,0 0.0096,3e-4 0,0 0.0096,3e-4 0.0093,3e-4 0,0 0.0093,3e-4 0.0096,3e-4 0,0 0.0096,3e-4 0.0096,-6e-4 0,0 0.0096,-6e-4 0.0096,-9e-4 0,0 0.0096,-9e-4 0.0096,-0.0021 0,0 0.0096,-0.0021 0.0093,-0.003 0,0 0.0093,-0.003 0.0096,-0.0042 0,0 0.0096,-0.0042 0.0096,-0.0054 0,0 0.0096,-0.0054 0.0096,-0.0069 0,0 0.0096,-0.0069 0.0096,-0.0078 0,0 0.0096,-0.0078 0.0096,-0.0093 0,0 0.0096,-0.0093 0.0093,-0.0105 0,0 0.0093,-0.0105 0.0096,-0.0114 0,0 0.0096,-0.0114 0.0096,-0.0126 0,0 0.0096,-0.0126 0.0096,-0.0132 0,0 0.0096,-0.0132 0.0096,-0.0141 0,0 0.0096,-0.0141 0.0096,-0.0144 0,0 0.0096,-0.0144 0.0093,-0.0144 0,0 0.0093,-0.0144 0.0096,-0.0144 0,0 0.0096,-0.0144 0.0096,-0.0141 0,0 0.0096,-0.0141 0.0096,-0.0141 0,0 0.0096,-0.0141 0.0096,-0.0138 0,0 0.0096,-0.0138 0.0096,-0.0135 0,0 0.0096,-0.0135 0.0093,-0.0132 0,0 0.0093,-0.0132 0.0096,-0.0126 0,0 0.0096,-0.0126 0.0096,-0.0123 0,0 0.0096,-0.0123 0.0096,-0.012 0,0 0.0096,-0.012 0.0096,-0.0111 0,0 0.0096,-0.0111 0.0096,-0.0108 0,0 0.0096,-0.0108 0.0093,-0.0099 0,0 0.0093,-0.0099 0.0096,-0.0096 0,0 0.0096,-0.0096 0.0096,-0.0087 0,0 0.0096,-0.0087 0.0096,-0.0081 0,0 0.0096,-0.0081 0.0096,-0.0075 0,0 0.0096,-0.0075 0.0096,-0.0069 0,0 0.0096,-0.0069 0.0093,-0.006 0,0 0.0093,-0.006 0.0096,-0.0048 0,0 0.0096,-0.0048 0.0096,-0.0033 0,0 0.0096,-0.0033 0.0096,-0.0015 0,0 0.0096,-0.0015 0.0096,-3e-4 0,0 0.0096,-3e-4 0.0096,6e-4 0,0 0.0096,6e-4 0.0093,0.0015 0,0 0.0093,0.0015 0.0096,0.0018 0,0 0.0096,0.0018 0.0096,0.0015 0,0 0.0096,0.0015 0.0096,0.0012 0,0 0.0096,0.0012 0.0096,9e-4 0,0 0.0096,9e-4 0.0096,3e-4 0,0 0.0096,3e-4 0.0093,-3e-4 0,0 0.0093,-3e-4 0.0096,-0.0012 0,0 0.0096,-0.0012 0.0096,-0.0018 0,0 0.0096,-0.0018 0.0096,-0.0027 0,0 0.0096,-0.0027 0.0096,-0.0033 0,0 0.0096,-0.0033 0.0096,-0.0042 0,0 0.0096,-0.0042 0.0093,-0.0051 0,0 0.0093,-0.0051 0.0096,-0.0054 0,0 0.0096,-0.0054 0.0096,-0.0063 0,0 0.0096,-0.0063 0.0096,-0.0069 0,0 0.0096,-0.0069 0.0096,-0.0075 0,0 0.0096,-0.0075 0.0096,-0.0075 0,0 0.0096,-0.0075 0.0093,-0.0078 0,0 0.0093,-0.0078 0.0096,-0.0078 0,0 0.0096,-0.0078 0.0096,-0.0078 0,0 0.0096,-0.0078 0.0096,-0.0075 0,0 0.0096,-0.0075 0.0096,-0.0072 0,0 0.0096,-0.0072 0.0096,-0.0066 0,0 0.0096,-0.0066 0.0093,-0.0066 0,0 0.0093,-0.0066 0.0096,-0.006 0,0 0.0096,-0.006 0.0096,-0.0054 0,0 0.0096,-0.0054 0.0096,-0.0051 0,0 0.0096,-0.0051 0.0096,-0.0042 0,0 0.0096,-0.0042 0.0096,-0.0039 0,0 0.0096,-0.0039 0.0093,-0.0033 0,0 0.0093,-0.0033 0.0096,-0.0027 0,0 0.0096,-0.0027 0.0096,-0.0021 0,0 0.0096,-0.0021 0.0096,-0.0015 0,0 0.0096,-0.0015 0.0096,-0.0012 0,0 0.0096,-0.0012 0.0096,-3e-4 0,0 0.0096,-3e-4 0.0093,-3e-4 0,0 0.0093,-3e-4 0.0096,3e-4 0,0 0.0096,3e-4 0.0096,3e-4 0,0 0.0096,3e-4 0.0096,9e-4 0,0 0.0096,9e-4 0.0096,9e-4 0,0 0.0096,9e-4 0.0096,0.0012 0,0 0.0096,0.0012 0.0093,0.0012 0,0 0.0093,0.0012 0.0096,0.0012 0,0 0.0096,0.0012 0.0096,0.0015 0,0 0.0096,0.0015 0.0096,0.0015 0,0 0.0096,0.0015 0.0096,0.0018 0,0 0.0096,0.0018 0.0096,0.0018 0,0 0.0096,0.0018 0.0093,0.0018 0,0 0.0093,0.0018 0.0096,0.0018 0,0 0.0096,0.0018 0.0096,0.0021 0,0 0.0096,0.0021 0.0096,0.0021 0,0 0.0096,0.0021 0.0096,0.0018 0,0 0.0096,0.0018 0.0093,0.0021 0,0 0.0093,0.0021 0.0096,0.0021 0,0 0.0096,0.0021 0.0096,0.0018 0,0 0.0096,0.0018 0.0096,0.0021 0,0 0.0096,0.0021 0.0096,0.0021 0,0 0.0096,0.0021 0.0096,0.0018 0,0 0.0096,0.0018 0.0096,0.0021 0,0 0.0096,0.0021 0.0093,0.0021 0,0 0.0093,0.0021 0.0096,0.0018 0,0 0.0096,0.0018 0.0096,0.0021 0,0 0.0096,0.0021 0.0096,0.0018 0,0 0.0096,0.0018 0.0096,0.0021 0,0 0.0096,0.0021 0.0093,0.0018 0,0 0.0093,0.0018 0.0096,0.0021 0,0 0.0096,0.0021 0.0096,0.0018 0,0 0.0096,0.0018 0.0096,0.0021 0,0 0.0096,0.0021 0.0096,0.0018 0,0 0.0096,0.0018 0.0096,0.0021 0,0 0.0096,0.0021 0.0096,0.0018 0,0 0.0096,0.0018 0.0093,0.0018 0,0 0.0093,0.0018 0.0096,0.0018 0,0 0.0096,0.0018 0.0096,0.0018 0,0 0.0096,0.0018 0.0096,0.0018 0,0 0.0096,0.0018 0.0096,0.0018 0,0 0.0096,0.0018 0.0093,0.0012 0,0 0.0093,0.0012 0.0096,6e-4 0,0 0.0096,6e-4 0.0096,-6e-4 0,0 0.0096,-6e-4 0.0096,-0.0015 0,0 0.0096,-0.0015 0.0096,-0.0027 0,0 0.0096,-0.0027 0.0096,-0.0039 0,0 0.0096,-0.0039 0.0093,-0.0054 0,0 0.0093,-0.0054 0.0096,-0.0066 0,0 0.0096,-0.0066 0.0096,-0.0078 0,0 0.0096,-0.0078 0.0096,-0.009 0,0 0.0096,-0.009 0.0096,-0.0102 0,0 0.0096,-0.0102 0.0096,-0.0108 0,0 0.0096,-0.0108 0.0096,-0.0117 0,0 0.0096,-0.0117 0.0093,-0.0117 0,0 0.0093,-0.0117 0.0096,-0.0117 0,0 0.0096,-0.0117 0.0096,-0.0117 0,0 0.0096,-0.0117 0.0096,-0.0117 0,0 0.0096,-0.0117 0.0096,-0.0111 0,0 0.0096,-0.0111 0.0093,-0.0108 0,0 0.0093,-0.0108 0.0096,-0.0102 0,0 0.0096,-0.0102 0.0096,-0.0099 0,0 0.0096,-0.0099 0.0096,-0.0093 0,0 0.0096,-0.0093 0.0096,-0.0087 0,0 0.0096,-0.0087 0.0096,-0.0081 0,0 0.0096,-0.0081 0.0096,-0.0072 0,0 0.0096,-0.0072 0.0093,-0.0066 0,0 0.0093,-0.0066 0.0096,-0.006 0,0 0.0096,-0.006 0.0096,-0.0054 0,0 0.0096,-0.0054 0.0096,-0.0045 0,0 0.0096,-0.0045 0.0096,-0.0039 0,0 0.0096,-0.0039 0.0093,-0.0033 0,0 0.0093,-0.0033 0.0096,-0.0027 0,0 0.0096,-0.0027 0.0096,-0.0024 0,0 0.0096,-0.0024 0.0096,-0.0015 0,0 0.0096,-0.0015 0.0096,-0.0012 0,0 0.0096,-0.0012 0.0096,-3e-4 0,0 0.0096,-3e-4 0.0093,3e-4 0,0 0.0093,3e-4 0.0096,9e-4 0,0 0.0096,9e-4 0.0096,0.0015 0,0 0.0096,0.0015 0.0096,0.0021 0,0 0.0096,0.0021 0.0096,0.0027 0,0 0.0096,0.0027 0.0096,0.0036 0,0 0.0096,0.0036 0.0093,0.0042 0,0 0.0093,0.0042 0.0096,0.0048 0,0 0.0096,0.0048 0.0096,0.0051 0,0 0.0096,0.0051 0.0096,0.006 0,0 0.0096,0.006 0.0096,0.006 0,0 0.0096,0.006 0.0096,0.0069 0,0 0.0096,0.0069 0.0093,0.0069 0,0 0.0093,0.0069 0.0096,0.0072 0,0 0.0096,0.0072 0.0096,0.0075 0,0 0.0096,0.0075 0.0096,0.0075 0,0 0.0096,0.0075 0.0096,0.0075 0,0 0.0096,0.0075 0.0096,0.0075 0,0 0.0096,0.0075 0.0093,0.0075 0,0 0.0093,0.0075 0.0096,0.0075 0,0 0.0096,0.0075 0.0096,0.0078 0,0 0.0096,0.0078 0.0096,0.0075 0,0 0.0096,0.0075 0.0096,0.0075 0,0 0.0096,0.0075 0.0096,0.0075 0,0 0.0096,0.0075 0.0093,0.0075 0,0 0.0093,0.0075 0.0096,0.0075 0,0 0.0096,0.0075 0.0096,0.0075 0,0 0.0096,0.0075 0.0096,0.0075 0,0 0.0096,0.0075 0.0096,0.0075 0,0 0.0096,0.0075 0.0096,0.0072 0,0 0.0096,0.0072 0.0093,0.0075 0,0 0.0093,0.0075 0.0096,0.0075 0,0 0.0096,0.0075 0.0096,0.0075 0,0 0.0096,0.0075 0.0096,0.0075 0,0 0.0096,0.0075 0.0096,0.0072 0,0 0.0096,0.0072 0.0096,0.0075 0,0 0.0096,0.0075 0.0093,0.0075 0,0 0.0093,0.0075 0.0096,0.0072 0,0 0.0096,0.0072 0.0096,0.0072 0,0 0.0096,0.0072 0.0096,0.0075 0,0 0.0096,0.0075 0.0096,0.0072 0,0 0.0096,0.0072 0.0093,0.0069 0,0 0.0093,0.0069 0.0096,0.0072 0,0 0.0096,0.0072 0.0096,0.0069 0,0 0.0096,0.0069 0.0096,0.0069 0,0 0.0096,0.0069 0.0096,0.0069 0,0 0.0096,0.0069 0.0096,0.0069 0,0 0.0096,0.0069 0.0096,0.0066 0,0 0.0096,0.0066 0.0093,0.0069 0,0 0.0093,0.0069 0.0096,0.0066 0,0 0.0096,0.0066 0.0096,0.0066 0,0 0.0096,0.0066 0.0096,0.0066 0,0 0.0096,0.0066 0.0096,0.0078 0,0 0.0096,0.0078 0.0093,0.0087 0,0 0.0093,0.0087 0.0096,0.0102 0,0 0.0096,0.0102 0.0096,0.0111 0,0 0.0096,0.0111 0.0096,0.0117 0,0 0.0096,0.0117 0.0096,0.0117 0,0 0.0096,0.0117 0.0096,0.0117 0,0 0.0096,0.0117 0.0096,0.0111 0,0 0.0096,0.0111 0.0093,0.0108 0,0 0.0093,0.0108 0.0096,0.0099 0,0 0.0096,0.0099 0.0096,0.0093 0,0 0.0096,0.0093 0.0096,0.0084 0,0 0.0096,0.0084 0.0096,0.0075 0,0 0.0096,0.0075 0.0096,0.0066 0,0 0.0096,0.0066 0.0093,0.0054 0,0 0.0093,0.0054 0.0096,0.0048 0,0 0.0096,0.0048 0.0096,0.0039 0,0 0.0096,0.0039 0.0096,0.0033 0,0 0.0096,0.0033 0.0096,0.0024 0,0 0.0096,0.0024 0.0093,0.0018 0,0 0.0093,0.0018 0.0096,0.0015 0,0 0.0096,0.0015 0.0096,0.0012 0,0 0.0096,0.0012 0.0096,9e-4 0,0 0.0096,9e-4 0.0096,0.0012 0,0 0.0096,0.0012 0.0096,9e-4 0,0 0.0096,9e-4 0.0096,0.0012 0,0 0.0096,0.0012 0.0093,9e-4 0,0 0.0093,9e-4 0.0096,0.0012 0,0 0.0096,0.0012 0.0096,9e-4 0,0 0.0096,9e-4 0.0096,0.0012 0,0 0.0096,0.0012 0.0096,9e-4 0,0 0.0096,9e-4 0.0093,0.0012 0,0 0.0093,0.0012 0.0096,9e-4 0,0 0.0096,9e-4 0.0096,0.0012 0,0 0.0096,0.0012 0.0096,9e-4 0,0 0.0096,9e-4 0.0096,9e-4 0,0 0.0096,9e-4 0.0096,0.0012 0,0 0.0096,0.0012 0.0096,9e-4 0,0 0.0096,9e-4 0.0093,0.0012 0,0 0.0093,0.0012 0.0096,9e-4 0,0 0.0096,9e-4 0.0096,9e-4 0,0 0.0096,9e-4 0.0096,0.0012 0,0 0.0096,0.0012 0.0096,9e-4 0,0 0.0096,9e-4 0.0096,0.0012 0,0 0.0096,0.0012 0.0093,9e-4 0,0 0.0093,9e-4 0.0096,0.0012 0,0 0.0096,0.0012 0.0096,9e-4 0,0 0.0096,9e-4 0.0096,9e-4 0,0 0.0096,9e-4 0.0096,0.0012 0,0 0.0096,0.0012 0.0093,9e-4 0,0 0.0093,9e-4 0.0096,0.0012 0,0 0.0096,0.0012 0.0096,9e-4 0,0 0.0096,9e-4 0.0096,0.0012 0,0 0.0096,0.0012 0.0096,0.0015 0,0 0.0096,0.0015 0.0096,0.0021 0,0 0.0096,0.0021 0.0093,0.0021 0,0 0.0093,0.0021 0.0096,0.0027 0,0 0.0096,0.0027 0.0096,0.0033 0,0 0.0096,0.0033 0.0096,0.0036 0,0 0.0096,0.0036 0.0096,0.0042 0,0 0.0096,0.0042 0.0096,0.0045 0,0 0.0096,0.0045 0.0093,0.0054 0,0 0.0093,0.0054 0.0096,0.0054 0,0 0.0096,0.0054 0.0096,0.0063 0,0 0.0096,0.0063 0.0096,0.0063 0,0 0.0096,0.0063 0.0096,0.0069 0,0 0.0096,0.0069 0.0096,0.0069 0,0 0.0096,0.0069 0.0093,0.0072 0,0 0.0093,0.0072 0.0096,0.0075 0,0 0.0096,0.0075 0.0096,0.0078 0,0 0.0096,0.0078 0.0096,0.0075 0,0 0.0096,0.0075 0.0096,0.0078 0,0 0.0096,0.0078 0.0096,0.0075 0,0 0.0096,0.0075 0.0093,0.0072 0,0 0.0093,0.0072 0.0096,0.0072 0,0 0.0096,0.0072 0.0096,0.0072 0,0 0.0096,0.0072 0.0096,0.0066 0,0 0.0096,0.0066 0.0096,0.0066 0,0 0.0096,0.0066 0.0096,0.0063 0,0 0.0096,0.0063 0.0093,0.006 0,0 0.0093,0.006 0.0096,0.0057 0,0 0.0096,0.0057 0.0096,0.0051 0,0 0.0096,0.0051 0.0096,0.0051 0,0 0.0096,0.0051 0.0096,0.0045 0,0 0.0096,0.0045 0.0096,0.0045 0,0 0.0096,0.0045 0.0093,0.0039 0,0 0.0093,0.0039 0.0096,0.0036 0,0 0.0096,0.0036 0.0096,0.0033 0,0 0.0096,0.0033 0.0096,0.003 0,0 0.0096,0.003 0.0096,0.0024 0,0 0.0096,0.0024 0.0096,0.0024 0,0 0.0096,0.0024 0.0093,0.0021 0,0 0.0093,0.0021 0.0096,0.0018 0,0 0.0096,0.0018 0.0096,0.0018 0,0 0.0096,0.0018 0.0096,0.0015 0,0 0.0096,0.0015 0.0096,0.0012 0,0 0.0096,0.0012 0.0096,0.0012 0,0 0.0096,0.0012 0.0093,9e-4 0,0 0.0093,9e-4 0.0096,6e-4 0,0 0.0096,6e-4 0.0096,6e-4 0,0 0.0096,6e-4 0.0096,6e-4 0,0 0.0096,6e-4 0.0096,3e-4 0,0 0.0096,3e-4 0.0096,3e-4 0,0 0.0096,3e-4 0.0093,0 0,0 0.0093,0 0.0096,-3e-4 0,0 0.0096,-3e-4 0.0096,0 0,0 0.0096,0 0.0096,-6e-4 0,0 0.0096,-6e-4 0.0096,-3e-4 0,0 0.0096,-3e-4 0.0093,-9e-4 0,0 0.0093,-9e-4 0.0096,-6e-4 0,0 0.0096,-6e-4 0.0096,-9e-4 0,0 0.0096,-9e-4 0.0096,-0.0012 0,0 0.0096,-0.0012 0.0096,-0.0012 0,0 0.0096,-0.0012 0.0096,-0.0015 0,0 0.0096,-0.0015 0.0093,-0.0015 0,0 0.0093,-0.0015 0.0096,-0.0018 0,0 0.0096,-0.0018 0.0096,-0.0021 0,0 0.0096,-0.0021 0.0096,-0.0021 0,0 0.0096,-0.0021 0.0096,-0.0024 0,0 0.0096,-0.0024 0.0096,-0.0021 0,0 0.0096,-0.0021 0.0096,-0.0024 0,0 0.0096,-0.0024 0.0093,-0.0021 0,0 0.0093,-0.0021 0.0096,-0.0018 0,0 0.0096,-0.0018 0.0096,-0.0018 0,0 0.0096,-0.0018 0.0096,-0.0015 0,0 0.0096,-0.0015 0.0096,-0.0015 0,0 0.0096,-0.0015 0.0096,-9e-4 0,0 0.0096,-9e-4 0.0093,-6e-4 0,0 0.0093,-6e-4 0.0096,-3e-4 0,0 0.0096,-3e-4 0.0096,0 0,0 0.0096,0 0.0096,3e-4 0,0 0.0096,3e-4 0.0096,9e-4 0,0 0.0096,9e-4 0.0093,0.0012 0,0 0.0093,0.0012 0.0096,0.0015 0,0 0.0096,0.0015 0.0096,0.0018 0,0 0.0096,0.0018 0.0096,0.0024 0,0 0.0096,0.0024 0.0096,0.003 0,0 0.0096,0.003 0.0096,0.003 0,0 0.0096,0.003 0.0096,0.0036 0,0 0.0096,0.0036 0.0093,0.0039 0,0 0.0093,0.0039 0.0096,0.0045 0,0 0.0096,0.0045 0.0096,0.0045 0,0 0.0096,0.0045 0.0096,0.0048 0,0 0.0096,0.0048 0.0096,0.0054 0,0 0.0096,0.0054 0.0096,0.0054 0,0 0.0096,0.0054 0.0093,0.0054 0,0 0.0093,0.0054 0.0096,0.006 0,0 0.0096,0.006 0.0096,0.006 0,0 0.0096,0.006 0.0096,0.006 0,0 0.0096,0.006 0.0096,0.006 0,0 0.0096,0.006 0.0093,0.006 0,0 0.0093,0.006 0.0096,0.0063 0,0 0.0096,0.0063 0.0096,0.006 0,0 0.0096,0.006 0.0096,0.0063 0,0 0.0096,0.0063 0.0096,0.006 0,0 0.0096,0.006 0.0096,0.0063 0,0 0.0096,0.0063 0.0093,0.006 0,0 0.0093,0.006 0.0096,0.0063 0,0 0.0096,0.0063 0.0096,0.0063 0,0 0.0096,0.0063 0.0096,0.006 0,0 0.0096,0.006 0.0096,0.0063 0,0 0.0096,0.0063 0.0096,0.0063 0,0 0.0096,0.0063 0.0096,0.0063 0,0 0.0096,0.0063 0.0093,0.006 0,0 0.0093,0.006 0.0096,0.006 0,0 0.0096,0.006 0.0096,0.0063 0,0 0.0096,0.0063 0.0096,0.006 0,0 0.0096,0.006 0.0096,0.0057 0,0 0.0096,0.0057 0.0093,0.006 0,0 0.0093,0.006 0.0096,0.0057 0,0 0.0096,0.0057 0.0096,0.006 0,0 0.0096,0.006 0.0096,0.0057 0,0 0.0096,0.0057 0.0096,0.0054 0,0 0.0096,0.0054 0.0096,0.0057 0,0 0.0096,0.0057 0.0093,0.0054 0,0 0.0093,0.0054 0.0096,0.0057 0,0 0.0096,0.0057 0.0096,0.0054 0,0 0.0096,0.0054 0.0096,0.0054 0,0 0.0096,0.0054 0.0096,0.0054 0,0 0.0096,0.0054 0.0096,0.0054 0,0 0.0096,0.0054 0.0093,0.0051 0,0 0.0093,0.0051 0.0096,0.0054 0,0 0.0096,0.0054 0.0096,0.0054 0,0 0.0096,0.0054 0.0096,0.0051 0,0 0.0096,0.0051 0.0096,0.0051 0,0 0.0096,0.0051 0.0096,0.0054 0,0 0.0096,0.0054 0.0093,0.0051 0,0 0.0093,0.0051 0.0096,0.0051 0,0 0.0096,0.0051 0.0096,0.0051 0,0 0.0096,0.0051 0.0096,0.0051 0,0 0.0096,0.0051 0.0096,0.0051 0,0 0.0096,0.0051 0.0096,0.0051 0,0 0.0096,0.0051 0.0093,0.0048 0,0 0.0093,0.0048 0.0096,0.0051 0,0 0.0096,0.0051 0.0096,0.0048 0,0 0.0096,0.0048 0.0096,0.0048 0,0 0.0096,0.0048 0.0096,0.0048 0,0 0.0096,0.0048 0.0096,0.0048 0,0 0.0096,0.0048 0.0093,0.0045 0,0 0.0093,0.0045 0.0096,0.0045 0,0 0.0096,0.0045 0.0096,0.0042 0,0 0.0096,0.0042 0.0096,0.0036 0,0 0.0096,0.0036 0.0096,0.0033 0,0 0.0096,0.0033 0.0096,0.003 0,0 0.0096,0.003 0.0093,0.0024 0,0 0.0093,0.0024 0.0096,0.0021 0,0 0.0096,0.0021 0.0096,0.0015 0,0 0.0096,0.0015 0.0096,9e-4 0,0 0.0096,9e-4 0.0096,6e-4 0,0 0.0096,6e-4 0.0093,3e-4 0,0 0.0093,3e-4 0.0096,-3e-4 0,0 0.0096,-3e-4 0.0096,-6e-4 0,0 0.0096,-6e-4 0.0096,-9e-4 0,0 0.0096,-9e-4 0.0096,-0.0012 0,0 0.0096,-0.0012 0.0096,-0.0012 0,0 0.0096,-0.0012 0.0093,-0.0012 0,0 0.0093,-0.0012 0.0096,-0.0012 0,0 0.0096,-0.0012 0.0096,-9e-4 0,0 0.0096,-9e-4 0.0096,-9e-4 0,0 0.0096,-9e-4 0.0096,-6e-4 0,0 0.0096,-6e-4 0.0096,-6e-4 0,0 0.0096,-6e-4 0.0096,-3e-4 0,0 0.0096,-3e-4 0.0093,-3e-4 0,0 0.0093,-3e-4 0.0096,0 0,0 0.0096,0 0.0096,-3e-4 0,0 0.0096,-3e-4 0.0096,-3e-4 0,0 0.0096,-3e-4 0.0096,0 0,0 0.0096,0 0.0096,-3e-4 0,0 0.0096,-3e-4 0.0093,-3e-4 0,0 0.0093,-3e-4 0.0096,-3e-4 0,0 0.0096,-3e-4 0.0096,-3e-4 0,0 0.0096,-3e-4 0.0096,-3e-4 0,0 0.0096,-3e-4 0.0096,-3e-4 0,0 0.0096,-3e-4 0.0093,-3e-4 0,0 0.0093,-3e-4 0.0096,-3e-4 0,0 0.0096,-3e-4 0.0096,-3e-4 0,0 0.0096,-3e-4 0.0096,-6e-4 0,0 0.0096,-6e-4 0.0096,-3e-4 0,0 0.0096,-3e-4 0.0096,-6e-4 0,0 0.0096,-6e-4 0.0096,-3e-4 0,0 0.0096,-3e-4 0.0093,-6e-4 0,0 0.0093,-6e-4 0.0096,-6e-4 0,0 0.0096,-6e-4 0.0096,-3e-4 0,0 0.0096,-3e-4 0.0096,-9e-4 0,0 0.0096,-9e-4 0.0096,-6e-4 0,0 0.0096,-6e-4 0.0096,-6e-4 0,0 0.0096,-6e-4 0.0093,-6e-4 0,0 0.0093,-6e-4 0.0096,-9e-4 0,0 0.0096,-9e-4 0.0096,-9e-4 0,0 0.0096,-9e-4 0.0096,-0.0012 0,0 0.0096,-0.0012 0.0096,-0.0015 0,0 0.0096,-0.0015 0.0093,-0.0015 0,0 0.0093,-0.0015 0.0096,-0.0018 0,0 0.0096,-0.0018 0.0096,-0.0021 0,0 0.0096,-0.0021 0.0096,-0.0024 0,0 0.0096,-0.0024 0.0096,-0.003 0,0 0.0096,-0.003 0.0096,-0.003 0,0 0.0096,-0.003 0.0093,-0.0033 0,0 0.0093,-0.0033 0.0096,-0.0033 0,0 0.0096,-0.0033 0.0096,-0.0039 0,0 0.0096,-0.0039 0.0096,-0.0039 0,0 0.0096,-0.0039 0.0096,-0.0042 0,0 0.0096,-0.0042 0.0096,-0.0042 0,0 0.0096,-0.0042 0.0096,-0.0045 0,0 0.0096,-0.0045 0.0093,-0.0045 0,0 0.0093,-0.0045 0.0096,-0.0042 0,0 0.0096,-0.0042 0.0096,-0.0045 0,0 0.0096,-0.0045 0.0096,-0.0039 0,0 0.0096,-0.0039 0.0096,-0.0039 0,0 0.0096,-0.0039 0.0093,-0.0033 0,0 0.0093,-0.0033 0.0096,-0.0033 0,0 0.0096,-0.0033 0.0096,-0.0027 0,0 0.0096,-0.0027 0.0096,-0.0024 0,0 0.0096,-0.0024 0.0096,-0.0024 0,0 0.0096,-0.0024 0.0096,-0.0021 0,0 0.0096,-0.0021 0.0093,-0.0018 0,0 0.0093,-0.0018 0.0096,-0.0018 0,0 0.0096,-0.0018 0.0096,-0.0015 0,0 0.0096,-0.0015 0.0096,-0.0012 0,0 0.0096,-0.0012 0.0096,-0.0015 0,0 0.0096,-0.0015 0.0096,-9e-4 0,0 0.0096,-9e-4 0.0093,-9e-4 0,0 0.0093,-9e-4 0.0096,-9e-4 0,0 0.0096,-9e-4 0.0096,-9e-4 0,0 0.0096,-9e-4 0.0096,-6e-4 0,0 0.0096,-6e-4 0.0096,-3e-4 0,0 0.0096,-3e-4 0.0096,-3e-4 0,0 0.0096,-3e-4 0.0093,0 0,0 0.0093,0 0.0096,0 0,0 0.0096,0 0.0096,0 0,0 0.0096,0 0.0096,3e-4 0,0 0.0096,3e-4 0.0096,6e-4 0,0 0.0096,6e-4 0.0096,6e-4 0,0 0.0096,6e-4 0.0093,9e-4 0,0 0.0093,9e-4 0.0096,9e-4 0,0 0.0096,9e-4 0.0096,0.0012 0,0 0.0096,0.0012 0.0096,0.0012 0,0 0.0096,0.0012 0.0096,0.0015 0,0 0.0096,0.0015 0.0096,0.0015 0,0 0.0096,0.0015 0.0093,0.0018 0,0 0.0093,0.0018 0.0096,0.0021 0,0 0.0096,0.0021 0.0096,0.0018 0,0 0.0096,0.0018 0.0096,0.0024 0,0 0.0096,0.0024 0.0096,0.0024 0,0 0.0096,0.0024 0.0096,0.0024 0,0 0.0096,0.0024 0.0093,0.0024 0,0 0.0093,0.0024 0.0096,0.003 0,0 0.0096,0.003 0.0096,0.0027 0,0 0.0096,0.0027 0.0096,0.003 0,0 0.0096,0.003 0.0096,0.003 0,0 0.0096,0.003 0.0096,0.003 0,0 0.0096,0.003 0.0093,0.0033 0,0 0.0093,0.0033 0.0096,0.0033 0,0 0.0096,0.0033 0.0096,0.0033 0,0 0.0096,0.0033 0.0096,0.0033 0,0 0.0096,0.0033 0.0096,0.0036 0,0 0.0096,0.0036 0.0096,0.0036 0,0 0.0096,0.0036 0.0093,0.0036 0,0 0.0093,0.0036 0.0096,0.0036 0,0 0.0096,0.0036 0.0096,0.0039 0,0 0.0096,0.0039 0.0096,0.0039 0,0 0.0096,0.0039 0.0096,0.0039 0,0 0.0096,0.0039 0.0096,0.0039 0,0 0.0096,0.0039 0.0093,0.0039 0,0 0.0093,0.0039 0.0096,0.0039 0,0 0.0096,0.0039 0.0096,0.0042 0,0 0.0096,0.0042 0.0096,0.0039 0,0 0.0096,0.0039 0.0096,0.0042 0,0 0.0096,0.0042 0.0096,0.0042 0,0 0.0096,0.0042 0.0093,0.0042 0,0 0.0093,0.0042 0.0096,0.0042 0,0 0.0096,0.0042 0.0096,0.0042 0,0 0.0096,0.0042 0.0096,0.0036 0,0 0.0096,0.0036 0.0096,0.0033 0,0 0.0096,0.0033 0.0093,0.003 0,0 0.0093,0.003 0.0096,0.0024 0,0 0.0096,0.0024 0.0096,0.0018 0,0 0.0096,0.0018 0.0096,0.0012 0,0 0.0096,0.0012 0.0096,3e-4 0,0 0.0096,3e-4 0.0096,-3e-4 0,0 0.0096,-3e-4 0.0096,-9e-4 0,0 0.0096,-9e-4 0.0093,-0.0015 0,0 0.0093,-0.0015 0.0096,-0.0021 0,0 0.0096,-0.0021 0.0096,-0.003 0,0 0.0096,-0.003 0.0096,-0.003 0,0 0.0096,-0.003 0.0096,-0.0039 0,0 0.0096,-0.0039 0.0096,-0.0039 0,0 0.0096,-0.0039 0.0093,-0.0045 0,0 0.0093,-0.0045 0.0096,-0.0042 0,0 0.0096,-0.0042 0.0096,-0.0036 0,0 0.0096,-0.0036 0.0096,-0.0024 0,0 0.0096,-0.0024 0.0096,-0.0015 0,0 0.0096,-0.0015 0.0093,-0.0012 0,0 0.0093,-0.0012 0.0096,-6e-4 0,0 0.0096,-6e-4 0.0096,-3e-4 0,0 0.0096,-3e-4 0.0096,0 0,0 0.0096,0 0.0096,6e-4 0,0 0.0096,6e-4 0.0096,9e-4 0,0 0.0096,9e-4 0.0093,9e-4 0,0 0.0093,9e-4 0.0096,0.0015 0,0 0.0096,0.0015 0.0096,0.0018 0,0 0.0096,0.0018 0.0096,0.0021 0,0 0.0096,0.0021 0.0096,0.0021 0,0 0.0096,0.0021 0.0096,0.0027 0,0 0.0096,0.0027 0.0096,0.003 0,0 0.0096,0.003 0.0093,0.003 0,0 0.0093,0.003 0.0096,0.0033 0,0 0.0096,0.0033 0.0096,0.0036 0,0 0.0096,0.0036 0.0096,0.0036 0,0 0.0096,0.0036 0.0096,0.0039 0,0 0.0096,0.0039 0.0093,0.0042 0,0 0.0093,0.0042 0.0096,0.0045 0,0 0.0096,0.0045 0.0096,0.0042 0,0 0.0096,0.0042 0.0096,0.0048 0,0 0.0096,0.0048 0.0096,0.0048 0,0 0.0096,0.0048 0.0096,0.0048 0,0 0.0096,0.0048 0.0093,0.0048 0,0 0.0093,0.0048 0.0096,0.0051 0,0 0.0096,0.0051 0.0096,0.0051 0,0 0.0096,0.0051 0.0096,0.0051 0,0 0.0096,0.0051 0.0096,0.0054 0,0 0.0096,0.0054 0.0096,0.0054 0,0 0.0096,0.0054 0.0096,0.0051 0,0 0.0096,0.0051 0.0093,0.0054 0,0 0.0093,0.0054 0.0096,0.0036 0,0 0.0096,0.0036 0.0096,6e-4 0,0 0.0096,6e-4 0.0096,0 0,0 0.0096,0 0.0096,0 0,0 0.0096,0 0.0093,-3e-4 0,0 0.0093,-3e-4 0.0096,0 0,0 0.0096,0 0.0096,0 0,0 0.0096,0 0.0096,0 0,0 0.0096,0 0.0096,0 0,0 0.0096,0 0.0096,0 0,0 0.0096,0 0.0093,0 0,0 0.0093,0 0.0096,0 0,0 0.0096,0 0.0096,0 0,0 0.0096,0 0.0096,0 0,0 0.0096,0 0.0096,3e-4 0,0 0.0096,3e-4 0.0096,0 0,0 0.0096,0 0.0093,0 0,0 0.0093,0 0.0096,0 0,0 0.0096,0 0.0096,3e-4 0,0 0.0096,3e-4 0.0096,0 0,0 0.0096,0 0.0096,0 0,0 0.0096,0 0.0096,3e-4 0,0 0.0096,3e-4 0.0093,0 0,0 0.0093,0 0.0096,3e-4 0,0 0.0096,3e-4 0.0096,3e-4 0,0 0.0096,3e-4 0.0096,6e-4 0,0 0.0096,6e-4 0.0096,6e-4 0,0 0.0096,6e-4 0.0096,0.0012 0,0 0.0096,0.0012 0.0093,0.0012 0,0 0.0093,0.0012 0.0096,0.0021 0,0 0.0096,0.0021 0.0096,0.0024 0,0 0.0096,0.0024 0.0096,0.0027 0,0 0.0096,0.0027 0.0096,0.0033 0,0 0.0096,0.0033 0.0096,0.0036 0,0 0.0096,0.0036 0.0093,0.0042 0,0 0.0093,0.0042 0.0096,0.0042 0,0 0.0096,0.0042 0.0096,0.0048 0,0 0.0096,0.0048 0.0096,0.0045 0,0 0.0096,0.0045 0.0096,0.0051 0,0 0.0096,0.0051 0.0096,0.0048 0,0 0.0096,0.0048 0.0093,0.0051 0,0 0.0093,0.0051 0.0096,0.0051 0,0 0.0096,0.0051 0.0096,0.0054 0,0 0.0096,0.0054 0.0096,0.0054 0,0 0.0096,0.0054 0.0096,0.0054 0,0 0.0096,0.0054 0.0096,0.0054 0,0 0.0096,0.0054 0.0093,0.0054 0,0 0.0093,0.0054 0.0096,0.0057 0,0 0.0096,0.0057 0.0096,0.0054 0,0 0.0096,0.0054 0.0096,0.0057 0,0 0.0096,0.0057 0.0096,0.0057 0,0 0.0096,0.0057 0.0093,0.0057 0,0 0.0093,0.0057 0.0096,0.0057 0,0 0.0096,0.0057 0.0096,0.0057 0,0 0.0096,0.0057 0.0096,0.006 0,0 0.0096,0.006 0.0096,0.006 0,0 0.0096,0.006 0.0096,0.0057 0,0 0.0096,0.0057 0.0096,0.006 0,0 0.0096,0.006 0.0093,0.006 0,0 0.0093,0.006 0.0096,0.0063 0,0 0.0096,0.0063 0.0096,0.0063 0,0 0.0096,0.0063 0.0096,0.0063 0,0 0.0096,0.0063 0.0096,0.0063 0,0 0.0096,0.0063 0.0096,0.0066 0,0 0.0096,0.0066 0.0093,0.0066 0,0 0.0093,0.0066 0.0096,0.0069 0,0 0.0096,0.0069 0.0096,0.0069 0,0 0.0096,0.0069 0.0096,0.0075 0,0 0.0096,0.0075 0.0096,0.0081 0,0 0.0096,0.0081 0.0093,0.0096 0,0 0.0093,0.0096 0.0096,0.0105 0,0 0.0096,0.0105 0.0096,0.012 0,0 0.0096,0.012 0.0096,0.0135 0,0 0.0096,0.0135 0.0096,0.0147 0,0 0.0096,0.0147 0.0096,0.0156 0,0 0.0096,0.0156 0.0096,0.0165 0,0 0.0096,0.0165 0.0093,0.0168 0,0 0.0093,0.0168 0.0096,0.0171 0,0 0.0096,0.0171 0.0096,0.0168 0,0 0.0096,0.0168 0.0096,0.0165 0,0 0.0096,0.0165 0.0096,0.0162 0,0 0.0096,0.0162 0.0096,0.0159 0,0 0.0096,0.0159 0.0093,0.0156 0,0 0.0093,0.0156 0.0096,0.015 0,0 0.0096,0.015 0.0096,0.0147 0,0 0.0096,0.0147 0.0096,0.0141 0,0 0.0096,0.0141 0.0096,0.0135 0,0 0.0096,0.0135 0.0093,0.0129 0,0 0.0093,0.0129 0.0096,0.0129 0,0 0.0096,0.0129 0.0096,0.012 0,0 0.0096,0.012 0.0096,0.0117 0,0 0.0096,0.0117 0.0096,0.0111 0,0 0.0096,0.0111 0.0096,0.0105 0,0 0.0096,0.0105 0.0093,0.0099 0,0 0.0093,0.0099 0.0096,0.0093 0,0 0.0096,0.0093 0.0096,0.0084 0,0 0.0096,0.0084 0.0096,0.0081 0,0 0.0096,0.0081 0.0096,0.0072 0,0 0.0096,0.0072 0.0096,0.0066 0,0 0.0096,0.0066 0.0096,0.0063 0,0 0.0096,0.0063 0.0093,0.0054 0,0 0.0093,0.0054 0.0096,0.0051 0,0 0.0096,0.0051 0.0096,0.0045 0,0 0.0096,0.0045 0.0096,0.0039 0,0 0.0096,0.0039 0.0096,0.0039 0,0 0.0096,0.0039 0.0093,0.0036 0,0 0.0093,0.0036 0.0096,0.0033 0,0 0.0096,0.0033 0.0096,0.003 0,0 0.0096,0.003 0.0096,0.0027 0,0 0.0096,0.0027 0.0096,0.0024 0,0 0.0096,0.0024 0.0096,0.0021 0,0 0.0096,0.0021 0.0093,0.0018 0,0 0.0093,0.0018 0.0096,0.0015 0,0 0.0096,0.0015 0.0096,0.0015 0,0 0.0096,0.0015 0.0096,0.0012 0,0 0.0096,0.0012 0.0096,9e-4 0,0 0.0096,9e-4 0.0096,6e-4 0,0 0.0096,6e-4 0.0093,6e-4 0,0 0.0093,6e-4 0.0096,0 0,0 0.0096,0 0.0096,3e-4 0,0 0.0096,3e-4 0.0096,-3e-4 0,0 0.0096,-3e-4 0.0096,0 0,0 0.0096,0 0.0096,-3e-4 0,0 0.0096,-3e-4 0.0093,-6e-4 0,0 0.0093,-6e-4 0.0096,-6e-4 0,0 0.0096,-6e-4 0.0096,-6e-4 0,0 0.0096,-6e-4 0.0096,-9e-4 0,0 0.0096,-9e-4 0.0096,-9e-4 0,0 0.0096,-9e-4 0.0096,-6e-4 0,0 0.0096,-6e-4 0.0093,-9e-4 0,0 0.0093,-9e-4 0.0096,-6e-4 0,0 0.0096,-6e-4 0.0096,6e-4 0,0 0.0096,6e-4 0.0096,0.0021 0,0 0.0096,0.0021 0.0096,0.0039 0,0 0.0096,0.0039 0.0096,0.0054 0,0 0.0096,0.0054 0.0093,0.0069 0,0 0.0093,0.0069 0.0096,0.0075 0,0 0.0096,0.0075 0.0096,0.0078 0,0 0.0096,0.0078 0.0096,0.0075 0,0 0.0096,0.0075 0.0096,0.0072 0,0 0.0096,0.0072 0.0096,0.0072 0,0 0.0096,0.0072 0.0093,0.0066 0,0 0.0093,0.0066 0.0096,0.006 0,0 0.0096,0.006 0.0096,0.0054 0,0 0.0096,0.0054 0.0096,0.0051 0,0 0.0096,0.0051 0.0096,0.0024 0,0 0.0096,0.0024 0.0096,-0.0027 0,0 0.0096,-0.0027 0.0093,-0.003 0,0 0.0093,-0.003 0.0096,-0.003 0,0 0.0096,-0.003 0.0096,-0.003 0,0 0.0096,-0.003 0.0096,-0.0036 0,0 0.0096,-0.0036 0.0096,-0.0033 0,0 0.0096,-0.0033 0.0096,-0.0036 0,0 0.0096,-0.0036 0.0093,-0.0039 0,0 0.0093,-0.0039 0.0096,-0.0039 0,0 0.0096,-0.0039 0.0096,-0.0039 0,0 0.0096,-0.0039 0.0096,-0.0039 0,0 0.0096,-0.0039 0.0096,-0.0042 0,0 0.0096,-0.0042 0.0096,-0.0042 0,0 0.0096,-0.0042 0.0093,-0.0045 0,0 0.0093,-0.0045 0.0096,-0.0045 0,0 0.0096,-0.0045 0.0096,-0.0045 0,0 0.0096,-0.0045 0.0096,-0.0045 0,0 0.0096,-0.0045 0.0096,-0.0045 0,0 0.0096,-0.0045 0.0096,-0.0045 0,0 0.0096,-0.0045 0.0093,-0.0048 0,0 0.0093,-0.0048 0.0096,-0.0045 0,0 0.0096,-0.0045 0.0096,-0.0045 0,0 0.0096,-0.0045 0.0096,-0.0039 0,0 0.0096,-0.0039 0.0096,-0.0036 0,0 0.0096,-0.0036 0.0096,-0.0027 0,0 0.0096,-0.0027 0.0093,-0.0018 0,0 0.0093,-0.0018 0.0096,-0.0012 0,0 0.0096,-0.0012 0.0096,-3e-4 0,0 0.0096,-3e-4 0.0096,6e-4 0,0 0.0096,6e-4 0.0096,9e-4 0,0 0.0096,9e-4 0.0093,0.0018 0,0 0.0093,0.0018 0.0096,0.0024 0,0 0.0096,0.0024 0.0096,0.003 0,0 0.0096,0.003 0.0096,0.0033 0,0 0.0096,0.0033 0.0096,0.0042 0,0 0.0096,0.0042 0.0096,0.0048 0,0 0.0096,0.0048 0.0096,0.0054 0,0 0.0096,0.0054 0.0093,0.006 0,0 0.0093,0.006 0.0096,0.0066 0,0 0.0096,0.0066 0.0096,0.0069 0,0 0.0096,0.0069 0.0096,0.0078 0,0 0.0096,0.0078 0.0096,0.0084 0,0 0.0096,0.0084 0.0096,0.0087 0,0 0.0096,0.0087 0.0093,0.0093 0,0 0.0093,0.0093 0.0096,0.0096 0,0 0.0096,0.0096 0.0096,0.0105 0,0 0.0096,0.0105"
     id="path6"
     style="fill:none;stroke:#d95319;stroke-width:0.075" />
  <ellipse
     cx="29.145"
     cy="15.338"
     rx="0.050000001"
     ry="0.048"
     transform="matrix(0.3,0,0,0.3,-0.3672,-0.39169702)"
     id="ellipse8"
     style="fill:#ffffff;stroke:none" />
  <ellipse
     cx="29.145"
     cy="15.338"
     rx="0.050000001"
     ry="0.048"
     transform="matrix(0.3,0,0,0.3,-0.3672,-0.39169702)"
     id="ellipse10"
     style="fill:none;stroke:#0072bd;stroke-width:0.60000002" />
  <ellipse
     cx="12.787"
     cy="17.608999"
     rx="0.050000001"
     ry="0.048"
     transform="matrix(0.3,0,0,0.3,-0.3672,-0.39169702)"
     id="ellipse12"
     style="fill:#ffffff;stroke:none" />
  <ellipse
     cx="12.787"
     cy="17.608999"
     rx="0.050000001"
     ry="0.048"
     transform="matrix(0.3,0,0,0.3,-0.3672,-0.39169702)"
     id="ellipse14"
     style="fill:none;stroke:#d95319;stroke-width:0.60000002" />
  <line
     x1="-0.067200333"
     y1="2.0083034"
     x2="9.2027998"
     y2="2.0083034"
     id="line16"
     style="stroke:#000000;stroke-width:0.06" />
  <polygon
     points="31.9,8.25 32.9,8 31.9,7.75 "
     transform="matrix(0.3,0,0,0.3,-0.3672,-0.39169702)"
     id="polygon18"
     style="fill:#000000;stroke:none" />
  <polygon
     points="31.9,8.25 32.9,8 31.9,7.75 "
     transform="matrix(0.3,0,0,0.3,-0.3672,-0.39169702)"
     id="polygon20"
     style="fill:none;stroke:#000000;stroke-width:0.2" />
  <line
     x1="-0.067200333"
     y1="4.4083028"
     x2="-0.067200333"
     y2="-0.061697248"
     id="line22"
     style="stroke:#000000;stroke-width:0.06" />
  <polygon
     points="1.25,1.1 1,0.1 0.75,1.1 "
     transform="matrix(0.3,0,0,0.3,-0.3672,-0.39169702)"
     id="polygon24"
     style="fill:#000000;stroke:none" />
  <polygon
     points="1.25,1.1 1,0.1 0.75,1.1 "
     transform="matrix(0.3,0,0,0.3,-0.3672,-0.39169702)"
     id="polygon26"
     style="fill:none;stroke:#000000;stroke-width:0.2" />
  <line
     x1="-0.067200333"
     y1="6.8083024"
     x2="9.2027998"
     y2="6.8083024"
     id="line28"
     style="stroke:#000000;stroke-width:0.06" />
  <polygon
     points="31.9,24.25 32.9,24 31.9,23.75 "
     transform="matrix(0.3,0,0,0.3,-0.3672,-0.39169702)"
     id="polygon30"
     style="fill:#000000;stroke:none" />
  <polygon
     points="31.9,24.25 32.9,24 31.9,23.75 "
     transform="matrix(0.3,0,0,0.3,-0.3672,-0.39169702)"
     id="polygon32"
     style="fill:none;stroke:#000000;stroke-width:0.2" />
  <line
     x1="-0.067200333"
     y1="6.8083024"
     x2="-0.067200333"
     y2="5.0383029"
     id="line34"
     style="stroke:#000000;stroke-width:0.06" />
  <polygon
     points="1.25,18.1 1,17.1 0.75,18.1 "
     transform="matrix(0.3,0,0,0.3,-0.3672,-0.39169702)"
     id="polygon36"
     style="fill:#000000;stroke:none" />
  <polygon
     points="1.25,18.1 1,17.1 0.75,18.1 "
     transform="matrix(0.3,0,0,0.3,-0.3672,-0.39169702)"
     id="polygon38"
     style="fill:none;stroke:#000000;stroke-width:0.2" />
  <path
     d="m -0.5175,6.055903 0.0024,-0.1386 0.0285,-6e-4 -0.0039,0.1056 0.0579,0.0033 0,-0.1002 0.0285,-6e-4 0,0.1002 0.0807,-9e-4 0.0039,-0.1056 0.024,0 -0.0024,0.1389 -0.2196,-0.0015"
     id="path40"
     style="fill:none;stroke:#000000;stroke-width:0.015;stroke-linecap:round" />
  <path
     d="m -0.3993,5.722303 0.1002,3e-4 6e-4,0.0285 -0.1002,-3e-4 c -0.0156,6e-4 -0.0258,0.0027 -0.0324,0.0063 -0.0057,9e-4 -0.009,0.0087 -0.0102,0.021 6e-4,0.0165 0.0039,0.0279 0.0114,0.036 0.0087,0.0078 0.0204,0.0126 0.0357,0.0123 l 0.0957,9e-4 6e-4,0.0285 -0.1617,0.0021 -6e-4,-0.0285 0.0228,-0.0045 c -0.0066,-0.0045 -0.0129,-0.0117 -0.018,-0.0204 -0.0042,-0.0087 -0.0084,-0.0186 -0.0108,-0.0312 6e-4,-0.0159 0.0069,-0.0276 0.0171,-0.0366 0.0114,-0.0084 0.0285,-0.0126 0.0498,-0.0144 l 0,0"
     id="path42"
     style="fill:none;stroke:#000000;stroke-width:0.015;stroke-linecap:round" />
  <path
     d="m -0.3864,5.513503 0.0147,0.0021 -0.0012,0.1194 c 0.0189,0 0.0348,-0.0042 0.045,-0.0132 0.0075,-0.0111 0.012,-0.0261 0.0108,-0.045 6e-4,-0.0096 -0.0012,-0.0189 -0.0054,-0.0276 -0.0018,-0.0093 -0.0045,-0.0183 -0.0096,-0.0267 l 0.0237,3e-4 c 0.0075,0.0081 0.0129,0.0165 0.0144,0.0258 0.0018,0.0093 0.0012,0.0189 6e-4,0.0285 -0.0015,0.0288 -0.0081,0.0516 -0.0207,0.066 -0.0168,0.0126 -0.0369,0.0201 -0.063,0.0213 -0.0285,-6e-4 -0.0501,-0.0072 -0.0657,-0.021 -0.015,-0.0162 -0.0225,-0.0363 -0.0216,-0.0627 -3e-4,-0.0213 0.0063,-0.0369 0.0198,-0.0465 0.0144,-0.0123 0.0336,-0.0183 0.0582,-0.0207 l 0,0"
     id="path44"
     style="fill:none;stroke:#000000;stroke-width:0.015;stroke-linecap:round" />
  <path
     d="m -0.3951,5.543803 c -0.0117,0 -0.0231,0.0033 -0.0312,0.0108 -0.0087,0.0051 -0.0129,0.0144 -0.0141,0.0264 6e-4,0.0165 0.0045,0.0303 0.0123,0.0405 0.0054,0.0087 0.0159,0.0138 0.0312,0.0132 l 0.0018,-0.0909"
     id="path46"
     style="fill:none;stroke:#000000;stroke-width:0.015;stroke-linecap:round" />
  <path
     d="m -0.4359,5.359603 c 9e-4,0.0033 3e-4,0.0072 -0.0027,0.0099 -0.0018,0.0039 -0.0033,0.0078 -0.003,0.0102 9e-4,0.0165 0.0057,0.03 0.0171,0.0396 0.0087,0.0081 0.0216,0.0129 0.0405,0.0117 l 0.0855,-0.0021 6e-4,0.0285 -0.162,0.0021 -6e-4,-0.0285 0.0231,-0.0045 c -0.0096,-3e-4 -0.0156,-0.0066 -0.0174,-0.0156 -0.0045,-0.0111 -0.009,-0.0234 -0.0114,-0.036 -6e-4,-0.0024 0.0015,-0.0051 0.0036,-0.0054 -3e-4,-0.0024 -9e-4,-0.006 -0.0018,-0.0093 l 0.0285,-6e-4"
     id="path48"
     style="fill:none;stroke:#000000;stroke-width:0.015;stroke-linecap:round" />
  <path
     d="m -0.384,5.223403 c -0.0189,0.0012 -0.0327,0.0036 -0.0414,0.0078 -0.0108,0.0057 -0.0162,0.0162 -0.0132,0.0312 0,0.0129 0.0048,0.0252 0.0162,0.0351 0.0093,0.0114 0.0222,0.0171 0.0411,0.0159 0.0192,0 0.0351,-0.0042 0.0453,-0.0132 0.0108,-0.0117 0.0168,-0.0234 0.0168,-0.0366 -0.0027,-0.015 -0.0093,-0.0246 -0.0198,-0.0297 -0.0111,-0.0075 -0.0258,-0.0105 -0.045,-0.0105 l 0,0"
     id="path50"
     style="fill:none;stroke:#000000;stroke-width:0.015;stroke-linecap:round" />
  <path
     d="m -0.3183,5.191903 c 0.0288,0.0015 0.0489,0.0075 0.0603,0.0171 0.0141,0.0105 0.0222,0.0282 0.0243,0.0528 -0.0015,0.0099 -0.0033,0.0195 -0.0039,0.0294 -0.0018,0.0099 -0.0048,0.0186 -0.0096,0.0255 l -0.0237,-3e-4 c 0.0045,-0.0069 0.0081,-0.0135 0.0102,-0.021 0.0048,-0.0069 0.0066,-0.0156 0.0048,-0.0246 -3e-4,-0.0156 -0.0051,-0.0279 -0.0162,-0.0351 -0.0084,-0.0081 -0.0213,-0.0129 -0.0411,-0.0162 l -0.0138,0.0027 c 0.0099,0.0015 0.0168,0.0063 0.0219,0.0147 0.0042,0.009 0.0063,0.0204 0.006,0.0324 9e-4,0.0225 -0.0057,0.0393 -0.0189,0.0513 -0.0171,0.0105 -0.0375,0.0153 -0.0636,0.0168 -0.0252,-0.0012 -0.0453,-0.0069 -0.0603,-0.0171 -0.0144,-0.0129 -0.0225,-0.0306 -0.0243,-0.0528 0.0012,-0.0123 0.0042,-0.0222 0.0084,-0.0303 0.006,-0.0069 0.012,-0.0129 0.0204,-0.018 l -0.0228,0.0042 -6e-4,-0.0285 0.1425,-0.003"
     id="path52"
     style="fill:none;stroke:#000000;stroke-width:0.015;stroke-linecap:round" />
  <path
     d="m -0.2823,5.055103 c 0.021,0.009 0.033,0.0165 0.0375,0.0216 0.0072,0.0057 0.0099,0.0147 0.0099,0.0267 l -3e-4,0.0237 -0.0183,0.0036 -0.0027,-0.0138 c 6e-4,-0.0096 -0.0018,-0.0153 -0.0081,-0.0177 -0.0045,-0.0051 -0.0117,-0.012 -0.0228,-0.0195 l -0.0147,-0.0018 -0.1587,0.0681 -6e-4,-0.0285 0.1281,-0.0528 -0.1236,-0.0483 -6e-4,-0.0285 0.1749,0.0672"
     id="path54"
     style="fill:none;stroke:#000000;stroke-width:0.015;stroke-linecap:round" />
  <path
     d="m -0.5172,4.833403 0.0024,-0.1386 0.0285,-6e-4 -0.0039,0.1056 0.0579,0.0033 0,-0.1002 0.0285,-6e-4 0,0.1002 0.0807,-9e-4 0.0039,-0.1056 0.024,0 -0.0024,0.1389 -0.2196,-0.0015"
     id="path56"
     style="fill:none;stroke:#000000;stroke-width:0.015;stroke-linecap:round" />
  <path
     d="m -0.4905,0.77230298 0.0771,0.0045 0.0021,-0.0387 c 0.0015,-0.012 -3e-4,-0.0213 -0.0051,-0.0276 -0.0075,-0.0081 -0.0177,-0.012 -0.0312,-0.0132 -0.012,0 -0.021,0.0027 -0.0267,0.0099 -0.0087,0.0051 -0.0129,0.0144 -0.0141,0.0264 l -0.0021,0.0387"
     id="path58"
     style="fill:none;stroke:#000000;stroke-width:0.015;stroke-linecap:round" />
  <path
     d="m -0.5175,0.80590298 6e-4,-0.0717 c -3e-4,-0.0213 0.0063,-0.0369 0.0198,-0.0465 0.0111,-0.0117 0.0279,-0.0174 0.0489,-0.0189 0.0192,0 0.0345,0.0054 0.0459,0.0153 0.0093,0.0114 0.0138,0.0282 0.0141,0.0498 l -0.0021,0.0384 0.0909,0.0021 0.0015,0.033 -0.2196,-0.0015"
     id="path60"
     style="fill:none;stroke:#000000;stroke-width:0.015;stroke-linecap:round" />
  <path
     d="m -0.4401,0.54700298 c 6e-4,0.0165 0.0057,0.0297 0.0171,0.0396 0.0084,0.0078 0.0237,0.0123 0.0447,0.0105 0.0192,0 0.0351,-0.0042 0.0453,-0.0132 0.0117,-0.0081 0.0177,-0.0201 0.0168,-0.0366 -0.0021,-0.0114 -0.0066,-0.0225 -0.0153,-0.0306 -0.0108,-0.0075 -0.0258,-0.0105 -0.0447,-0.0105 -0.0213,0.0015 -0.0384,0.006 -0.0498,0.0141 -0.0111,0.0057 -0.0165,0.015 -0.0141,0.0267 l 0,0"
     id="path62"
     style="fill:none;stroke:#000000;stroke-width:0.015;stroke-linecap:round" />
  <path
     d="m -0.4641,0.54670298 c -3e-4,-0.0216 0.0069,-0.0396 0.0237,-0.0522 0.0141,-0.0123 0.0348,-0.0174 0.0636,-0.0168 0.0258,-0.0015 0.0459,0.0045 0.0603,0.0171 0.0147,0.0141 0.0228,0.0315 0.0243,0.0528 -0.0021,0.0267 -0.0093,0.0447 -0.0225,0.0567 -0.0168,0.0126 -0.0369,0.0201 -0.063,0.0213 -0.0285,-6e-4 -0.0501,-0.0072 -0.066,-0.0207 -0.0141,-0.0129 -0.0213,-0.0318 -0.0204,-0.0582 l 0,0"
     id="path64"
     style="fill:none;stroke:#000000;stroke-width:0.015;stroke-linecap:round" />
  <path
     d="m -0.4575,0.43570298 -0.0045,-0.0231 0.1263,-0.0381 -0.1254,-0.0336 0.0039,-0.0294 0.1227,-0.0327 -0.1257,-0.0336 -6e-4,-0.0285 0.165,0.0405 -0.003,0.0339 -0.132,0.0345 0.135,0.0318 -0.0033,0.0339 -0.1584,0.0444"
     id="path66"
     style="fill:none;stroke:#000000;stroke-width:0.015;stroke-linecap:round" />
  <path
     d="m -0.3861,0.01900298 0.0147,0.0021 -0.0012,0.1194 c 0.0189,0 0.0348,-0.0042 0.045,-0.0132 0.0075,-0.0111 0.012,-0.0261 0.0108,-0.045 6e-4,-0.0096 -0.0012,-0.0189 -0.0054,-0.0276 -0.0018,-0.0093 -0.0045,-0.0183 -0.0096,-0.0267 l 0.0237,3e-4 c 0.0075,0.0081 0.0129,0.0165 0.0144,0.0258 0.0018,0.0093 0.0012,0.0189 6e-4,0.0285 -0.0015,0.0288 -0.0081,0.0516 -0.0207,0.066 -0.0168,0.0126 -0.0369,0.0201 -0.063,0.0213 -0.0285,-6e-4 -0.0501,-0.0072 -0.0657,-0.021 -0.015,-0.0162 -0.0225,-0.0363 -0.0216,-0.0627 -3e-4,-0.0213 0.0063,-0.0369 0.0198,-0.0465 0.0144,-0.0123 0.0336,-0.0183 0.0582,-0.0207 l 0,0"
     id="path68"
     style="fill:none;stroke:#000000;stroke-width:0.015;stroke-linecap:round" />
  <path
     d="m -0.3948,0.04930298 c -0.0117,0 -0.0231,0.0033 -0.0312,0.0108 -0.0087,0.0051 -0.0129,0.0141 -0.0141,0.0264 6e-4,0.0165 0.0045,0.0303 0.0123,0.0405 0.0054,0.0087 0.0159,0.0138 0.0312,0.0132 l 0.0018,-0.0909"
     id="path70"
     style="fill:none;stroke:#000000;stroke-width:0.015;stroke-linecap:round" />
  <path
     d="m -0.4356,-0.13489702 c 9e-4,0.0033 3e-4,0.0069 -0.0027,0.0099 -0.0018,0.0039 -0.0033,0.0078 -0.003,0.0102 9e-4,0.0165 0.0057,0.03 0.0171,0.0396 0.0087,0.0081 0.0216,0.0126 0.0405,0.0114 l 0.0855,-0.0018 6e-4,0.0285 -0.162,0.0021 -6e-4,-0.0285 0.0231,-0.0045 c -0.0096,-6e-4 -0.0156,-0.0066 -0.0174,-0.0156 -0.0045,-0.0111 -0.009,-0.0234 -0.0114,-0.036 -6e-4,-0.0024 0.0015,-0.0051 0.0036,-0.0057 -3e-4,-0.0021 -9e-4,-0.0057 -0.0018,-0.009 l 0.0285,-6e-4"
     id="path72"
     style="fill:none;stroke:#000000;stroke-width:0.015;stroke-linecap:round" />
  <path
     d="m -0.4902,-0.30469702 0.0771,0.0045 0.0024,-0.0387 c 0.0012,-0.012 -6e-4,-0.0213 -0.0054,-0.0276 -0.0075,-0.0081 -0.0177,-0.012 -0.0309,-0.0132 -0.012,0 -0.021,0.0027 -0.027,0.0099 -0.0084,0.0051 -0.0126,0.0144 -0.0141,0.0264 l -0.0021,0.0387"
     id="path74"
     style="fill:none;stroke:#000000;stroke-width:0.015;stroke-linecap:round" />
  <path
     d="m -0.5172,-0.27109702 6e-4,-0.0717 c -3e-4,-0.0213 0.0063,-0.0369 0.0198,-0.0465 0.0111,-0.0117 0.0279,-0.0174 0.0492,-0.0189 0.0189,0 0.0342,0.0054 0.0456,0.0153 0.0093,0.0114 0.0138,0.0282 0.0141,0.0498 l -0.0021,0.0384 0.0909,0.0021 0.0015,0.033 -0.2196,-0.0015"
     id="path76"
     style="fill:none;stroke:#000000;stroke-width:0.015;stroke-linecap:round" />
  <path
     d="m 8.6328,2.317603 0.1827,0 0,0.0282 -0.075,0 0,0.1923 -0.0327,0 0,-0.1923 -0.075,0 0,-0.0282"
     id="path78"
     style="fill:none;stroke:#000000;stroke-width:0.015;stroke-linecap:round" />
  <path
     d="m 8.8554,2.374003 0.0282,0 0,0.1641 -0.0282,0 0,-0.1641"
     id="path80"
     style="fill:none;stroke:#000000;stroke-width:0.015;stroke-linecap:round" />
  <path
     d="m 8.8554,2.308303 0.0282,0 0,0.0375 -0.0282,0 0,-0.0375"
     id="path82"
     style="fill:none;stroke:#000000;stroke-width:0.015;stroke-linecap:round" />
  <path
     d="m 9.0711,2.406703 c 0.0057,-0.0117 0.0141,-0.021 0.0234,-0.0282 0.0093,-0.0057 0.021,-0.0093 0.0375,-0.0093 0.0153,0 0.0282,0.0072 0.0375,0.0189 0.0093,0.0129 0.0141,0.0303 0.0141,0.0516 l 0,0.0984 -0.0282,0 0,-0.0984 c 0,-0.0153 -0.0036,-0.0258 -0.0093,-0.033 -0.0036,-0.0093 -0.0117,-0.0141 -0.0234,-0.0141 -0.0165,0 -0.0282,0.0048 -0.0375,0.0141 -0.0072,0.0093 -0.0093,0.0222 -0.0093,0.0375 l 0,0.0939 -0.0282,0 0,-0.0984 c 0,-0.0153 -0.0036,-0.0258 -0.0093,-0.033 -0.0036,-0.0093 -0.012,-0.0141 -0.0237,-0.0141 -0.0129,0 -0.0234,0.0048 -0.0327,0.0141 -0.0069,0.0093 -0.0093,0.0222 -0.0093,0.0375 l 0,0.0939 -0.0282,0 0,-0.1641 0.0282,0 0,0.0234 c 0.0057,-0.0093 0.0117,-0.0153 0.0186,-0.0189 0.0096,-0.0057 0.0201,-0.0093 0.033,-0.0093 0.0117,0 0.021,0.0036 0.0279,0.0093 0.0096,0.0072 0.0153,0.0165 0.0189,0.0282 l 0,0"
     id="path84"
     style="fill:none;stroke:#000000;stroke-width:0.015;stroke-linecap:round" />
  <path
     d="m 9.3957,2.449003 0,0.0141 -0.1218,0 c 0,0.0186 0.0045,0.0327 0.0141,0.042 0.0093,0.0096 0.0234,0.0141 0.042,0.0141 0.0093,0 0.0189,-0.0012 0.0282,-0.0045 0.0117,-0.0024 0.0234,-0.006 0.0327,-0.0096 l 0,0.0234 c -0.0093,0.0072 -0.021,0.0096 -0.0327,0.0096 -0.0093,0.0021 -0.0189,0.0045 -0.0282,0.0045 -0.0282,0 -0.0504,-0.0069 -0.0657,-0.0234 -0.0129,-0.0153 -0.0186,-0.0351 -0.0186,-0.0609 0,-0.0282 0.0057,-0.0492 0.0186,-0.0657 0.0153,-0.0153 0.0354,-0.0234 0.0612,-0.0234 0.021,0 0.0387,0.0081 0.0513,0.0234 0.012,0.0129 0.0189,0.0318 0.0189,0.0564 l 0,0"
     id="path86"
     style="fill:none;stroke:#000000;stroke-width:0.015;stroke-linecap:round" />
  <path
     d="m 9.3675,2.439703 c 0,-0.012 -0.0045,-0.0237 -0.0141,-0.033 -0.0069,-0.0093 -0.0162,-0.0141 -0.0279,-0.0141 -0.0165,0 -0.0282,0.0048 -0.0375,0.0141 -0.0096,0.0072 -0.0141,0.0177 -0.0141,0.033 l 0.0936,0"
     id="path88"
     style="fill:none;stroke:#000000;stroke-width:0.015;stroke-linecap:round" />
  <path
     d="m 9.5796,2.326903 0,0.0471 0.0564,0 0,0.0186 -0.0564,0 0,0.0891 c 0,0.0165 0.0012,0.0258 0.0048,0.0282 0.0024,0.0036 0.0105,0.0048 0.0234,0.0048 l 0.0282,0 0,0.0234 -0.0282,0 c -0.0222,0 -0.0375,-0.0024 -0.0468,-0.0096 -0.0072,-0.0093 -0.0096,-0.0246 -0.0096,-0.0468 l 0,-0.0891 -0.0186,0 0,-0.0186 0.0186,0 0,-0.0471 0.0282,0"
     id="path90"
     style="fill:none;stroke:#000000;stroke-width:0.015;stroke-linecap:round" />
  <path
     d="m 8.6328,7.117603 0.1827,0 0,0.0282 -0.075,0 0,0.1923 -0.0327,0 0,-0.1923 -0.075,0 0,-0.0282"
     id="path92"
     style="fill:none;stroke:#000000;stroke-width:0.015;stroke-linecap:round" />
  <path
     d="m 8.8554,7.174003 0.0282,0 0,0.1641 -0.0282,0 0,-0.1641"
     id="path94"
     style="fill:none;stroke:#000000;stroke-width:0.015;stroke-linecap:round" />
  <path
     d="m 8.8554,7.108303 0.0282,0 0,0.0375 -0.0282,0 0,-0.0375"
     id="path96"
     style="fill:none;stroke:#000000;stroke-width:0.015;stroke-linecap:round" />
  <path
     d="m 9.0711,7.206703 c 0.0057,-0.0117 0.0141,-0.021 0.0234,-0.0282 0.0093,-0.0057 0.021,-0.0093 0.0375,-0.0093 0.0153,0 0.0282,0.0072 0.0375,0.0189 0.0093,0.0129 0.0141,0.0303 0.0141,0.0516 l 0,0.0984 -0.0282,0 0,-0.0984 c 0,-0.0153 -0.0036,-0.0258 -0.0093,-0.033 -0.0036,-0.0093 -0.0117,-0.0141 -0.0234,-0.0141 -0.0165,0 -0.0282,0.0048 -0.0375,0.0141 -0.0072,0.0093 -0.0093,0.0222 -0.0093,0.0375 l 0,0.0939 -0.0282,0 0,-0.0984 c 0,-0.0153 -0.0036,-0.0258 -0.0093,-0.033 -0.0036,-0.0093 -0.012,-0.0141 -0.0237,-0.0141 -0.0129,0 -0.0234,0.0048 -0.0327,0.0141 -0.0069,0.0093 -0.0093,0.0222 -0.0093,0.0375 l 0,0.0939 -0.0282,0 0,-0.1641 0.0282,0 0,0.0234 c 0.0057,-0.0093 0.0117,-0.0153 0.0186,-0.0189 0.0096,-0.0057 0.0201,-0.0093 0.033,-0.0093 0.0117,0 0.021,0.0036 0.0279,0.0093 0.0096,0.0072 0.0153,0.0165 0.0189,0.0282 l 0,0"
     id="path98"
     style="fill:none;stroke:#000000;stroke-width:0.015;stroke-linecap:round" />
  <path
     d="m 9.3957,7.249003 0,0.0141 -0.1218,0 c 0,0.0186 0.0045,0.0327 0.0141,0.042 0.0093,0.0096 0.0234,0.0141 0.042,0.0141 0.0093,0 0.0189,-0.0012 0.0282,-0.0045 0.0117,-0.0024 0.0234,-0.006 0.0327,-0.0096 l 0,0.0234 c -0.0093,0.0072 -0.021,0.0096 -0.0327,0.0096 -0.0093,0.0021 -0.0189,0.0045 -0.0282,0.0045 -0.0282,0 -0.0504,-0.0069 -0.0657,-0.0234 -0.0129,-0.0153 -0.0186,-0.0351 -0.0186,-0.0609 0,-0.0282 0.0057,-0.0492 0.0186,-0.0657 0.0153,-0.0153 0.0354,-0.0234 0.0612,-0.0234 0.021,0 0.0387,0.0081 0.0513,0.0234 0.012,0.0129 0.0189,0.0318 0.0189,0.0564 l 0,0"
     id="path100"
     style="fill:none;stroke:#000000;stroke-width:0.015;stroke-linecap:round" />
  <path
     d="m 9.3675,7.239703 c 0,-0.012 -0.0045,-0.0237 -0.0141,-0.033 -0.0069,-0.0093 -0.0162,-0.0141 -0.0279,-0.0141 -0.0165,0 -0.0282,0.0048 -0.0375,0.0141 -0.0096,0.0072 -0.0141,0.0177 -0.0141,0.033 l 0.0936,0"
     id="path102"
     style="fill:none;stroke:#000000;stroke-width:0.015;stroke-linecap:round" />
  <path
     d="m 9.5796,7.126903 0,0.0471 0.0564,0 0,0.0186 -0.0564,0 0,0.0891 c 0,0.0165 0.0012,0.0258 0.0048,0.0282 0.0024,0.0036 0.0105,0.0048 0.0234,0.0048 l 0.0282,0 0,0.0234 -0.0282,0 c -0.0222,0 -0.0375,-0.0024 -0.0468,-0.0096 -0.0072,-0.0093 -0.0096,-0.0246 -0.0096,-0.0468 l 0,-0.0891 -0.0186,0 0,-0.0186 0.0186,0 0,-0.0471 0.0282,0"
     id="path104"
     style="fill:none;stroke:#000000;stroke-width:0.015;stroke-linecap:round" />
  <text
     x="7.9499221"
     y="4.4340472"
     id="text106"
     style="font-size:0.42905772px;font-style:normal;font-weight:400;text-anchor:start;fill:#000000;font-family:sans">P</text>
  <text
     x="8.0716391"
     y="4.5105767"
     id="text108"
     style="font-size:0.32255402px;font-style:normal;font-weight:400;text-anchor:start;fill:#000000;font-family:sans">s</text>
  <text
     x="3.4758894"
     y="4.7181468"
     id="text110"
     style="font-size:0.44865891px;font-style:normal;font-weight:400;text-anchor:start;fill:#000000;font-family:sans">E</text>
  <text
     x="3.6986287"
     y="4.7983317"
     id="text112"
     style="font-size:0.33728969px;font-style:normal;font-weight:400;text-anchor:start;fill:#000000;font-family:sans">s</text>
</svg>
