<?xml version="1.0" encoding="UTF-8" standalone="no"?>
<!DOCTYPE svg PUBLIC "-//W3C//DTD SVG 1.0//EN" "http://www.w3.org/TR/2001/PR-SVG-20010719/DTD/svg10.dtd">
<svg width="20cm" height="17cm" viewBox="-10 4 385 331" xmlns="http://www.w3.org/2000/svg" xmlns:xlink="http://www.w3.org/1999/xlink">
  <g>
    <rect style="fill: #ff0000" x="60" y="80" width="250" height="20"/>
    <rect style="fill: none; fill-opacity:0; stroke-width: 2.35099e-37; stroke: #ff0000" x="60" y="80" width="250" height="20"/>
  </g>
  <g>
    <rect style="fill: #ff0000" x="60" y="20" width="250" height="20"/>
    <rect style="fill: none; fill-opacity:0; stroke-width: 2.35099e-37; stroke: #ff0000" x="60" y="20" width="250" height="20"/>
  </g>
  <g>
    <rect style="fill: #00ff00" x="60" y="40" width="250" height="40"/>
    <rect style="fill: none; fill-opacity:0; stroke-width: 2.35099e-37; stroke: #00ff00" x="60" y="40" width="250" height="40"/>
  </g>
  <g>
    <line style="fill: none; fill-opacity:0; stroke-width: 2; stroke: #000000" x1="60" y1="60" x2="299" y2="60"/>
    <polygon style="fill: #000000" points="299,62.5 309,60 299,57.5 "/>
    <polygon style="fill: none; fill-opacity:0; stroke-width: 2; stroke: #000000" points="299,62.5 309,60 299,57.5 "/>
  </g>
  <polyline style="fill: none; fill-opacity:0; stroke-width: 2; stroke: #800080" points="60,60 90,20 120,60 150,20 210,100 240,60 270,100 300,60 "/>
  <g>
    <line style="fill: none; fill-opacity:0; stroke-width: 2; stroke: #000000" x1="60" y1="110" x2="60" y2="21"/>
    <polygon style="fill: #000000" points="62.5,21 60,11 57.5,21 "/>
    <polygon style="fill: none; fill-opacity:0; stroke-width: 2; stroke: #000000" points="62.5,21 60,11 57.5,21 "/>
  </g>
  <g>
    <line style="fill: none; fill-opacity:0; stroke-width: 2; stroke: #000000" x1="0" y1="190" x2="239" y2="190"/>
    <polygon style="fill: #000000" points="239,192.5 249,190 239,187.5 "/>
    <polygon style="fill: none; fill-opacity:0; stroke-width: 2; stroke: #000000" points="239,192.5 249,190 239,187.5 "/>
  </g>
  <polyline style="fill: none; fill-opacity:0; stroke-width: 2; stroke: #00ff00" points="0,190 16,170 44,170 60,190 76,170 104,170 136,210 164,210 180,190 196,210 224,210 240,190 "/>
  <g>
    <line style="fill: none; fill-opacity:0; stroke-width: 2; stroke: #000000" x1="0" y1="240" x2="0" y2="151"/>
    <polygon style="fill: #000000" points="2.5,151 0,141 -2.5,151 "/>
    <polygon style="fill: none; fill-opacity:0; stroke-width: 2; stroke: #000000" points="2.5,151 0,141 -2.5,151 "/>
  </g>
  <g>
    <line style="fill: none; fill-opacity:0; stroke-width: 2; stroke: #000000" x1="120" y1="280" x2="359" y2="280"/>
    <polygon style="fill: #000000" points="359,282.5 369,280 359,277.5 "/>
    <polygon style="fill: none; fill-opacity:0; stroke-width: 2; stroke: #000000" points="359,282.5 369,280 359,277.5 "/>
  </g>
  <polyline style="fill: none; fill-opacity:0; stroke-width: 2; stroke: #ff0000" points="120,280 135,280 149,261 162,280 196,280 210,261 224,280 240,280 257,280 270,298 282,280 316,280 330,298 344,280 360,280 "/>
  <g>
    <line style="fill: none; fill-opacity:0; stroke-width: 2; stroke: #000000" x1="120" y1="330" x2="120" y2="241"/>
    <polygon style="fill: #000000" points="122.5,241 120,231 117.5,241 "/>
    <polygon style="fill: none; fill-opacity:0; stroke-width: 2; stroke: #000000" points="122.5,241 120,231 117.5,241 "/>
  </g>
  <g>
    <line style="fill: none; fill-opacity:0; stroke-width: 2; stroke: #000000" x1="140" y1="70" x2="95.83" y2="140.672"/>
    <polygon style="fill: #000000" points="93.71,139.347 90.53,149.152 97.95,141.997 "/>
    <polygon style="fill: none; fill-opacity:0; stroke-width: 2; stroke: #000000" points="93.71,139.347 90.53,149.152 97.95,141.997 "/>
  </g>
  <g>
    <line style="fill: none; fill-opacity:0; stroke-width: 2; stroke: #000000" x1="230" y1="90" x2="295.591" y2="239.922"/>
    <polygon style="fill: #000000" points="293.301,240.924 299.599,249.084 297.881,238.92 "/>
    <polygon style="fill: none; fill-opacity:0; stroke-width: 2; stroke: #000000" points="293.301,240.924 299.599,249.084 297.881,238.92 "/>
  </g>
  <text font-size="9.03111" style="fill: #000000;text-anchor:start;font-family:sans-serif;font-style:normal;font-weight:normal" x="300" y="73.125">
    <tspan x="300" y="73.125">t</tspan>
  </text>
  <text font-size="9.03111" style="fill: #000000;text-anchor:start;font-family:sans-serif;font-style:normal;font-weight:normal" x="240" y="203.125">
    <tspan x="240" y="203.125">t</tspan>
  </text>
  <text font-size="9.03111" style="fill: #000000;text-anchor:start;font-family:sans-serif;font-style:normal;font-weight:normal" x="360" y="293.125">
    <tspan x="360" y="293.125">t</tspan>
  </text>
  <text font-size="9.03111" style="fill: #000000;text-anchor:start;font-family:sans-serif;font-style:normal;font-weight:normal" x="50" y="13.125">
    <tspan x="50" y="13.125">P</tspan>
  </text>
  <text font-size="9.03111" style="fill: #000000;text-anchor:start;font-family:sans-serif;font-style:normal;font-weight:normal" x="-10" y="143.125">
    <tspan x="-10" y="143.125">P</tspan>
  </text>
  <text font-size="9.03111" style="fill: #000000;text-anchor:start;font-family:sans-serif;font-style:normal;font-weight:normal" x="110" y="233.125">
    <tspan x="110" y="233.125">P</tspan>
  </text>
  <text font-size="9.03111" style="fill: #000000;text-anchor:start;font-family:sans-serif;font-style:normal;font-weight:normal" x="10" y="243.125">
    <tspan x="10" y="243.125">Base</tspan>
  </text>
  <text font-size="9.03111" style="fill: #000000;text-anchor:start;font-family:sans-serif;font-style:normal;font-weight:normal" x="130" y="333.125">
    <tspan x="130" y="333.125">Peak</tspan>
  </text>
  <text font-size="9.03111" style="fill: #000000;text-anchor:start;font-family:sans-serif;font-style:normal;font-weight:normal" x="70" y="113.125">
    <tspan x="70" y="113.125">Single</tspan>
  </text>
  <text font-size="9.03111" style="fill: #000000;text-anchor:start;font-family:sans-serif;font-style:normal;font-weight:normal" x="234" y="43.125">
    <tspan x="234" y="43.125">Power Cut χ=0.5</tspan>
  </text>
</svg>
